<?xml version="1.0" encoding="UTF-8" standalone="no"?>
<!-- Created with Inkscape (http://www.inkscape.org/) -->

<svg
   xmlns:dc="http://purl.org/dc/elements/1.1/"
   xmlns:cc="http://creativecommons.org/ns#"
   xmlns:rdf="http://www.w3.org/1999/02/22-rdf-syntax-ns#"
   xmlns:svg="http://www.w3.org/2000/svg"
   xmlns="http://www.w3.org/2000/svg"
   xmlns:sodipodi="http://sodipodi.sourceforge.net/DTD/sodipodi-0.dtd"
   xmlns:inkscape="http://www.inkscape.org/namespaces/inkscape"
   width="33.774677"
   height="8.7746754"
   id="svg3945"
   version="1.1"
   inkscape:version="0.48.2 r9819"
   sodipodi:docname="stick5000.svg">
  <defs
     id="defs3947" />
  <sodipodi:namedview
     id="base"
     pagecolor="#ffffff"
     bordercolor="#666666"
     borderopacity="1.0"
     inkscape:pageopacity="0.0"
     inkscape:pageshadow="2"
     inkscape:zoom="2.8"
     inkscape:cx="17.877739"
     inkscape:cy="-7.8024823"
     inkscape:document-units="px"
     inkscape:current-layer="layer1"
     showgrid="false"
     fit-margin-top="0"
     fit-margin-left="0"
     fit-margin-right="0"
     fit-margin-bottom="0"
     inkscape:window-width="475"
     inkscape:window-height="465"
     inkscape:window-x="1455"
     inkscape:window-y="231"
     inkscape:window-maximized="0" />
  <metadata
     id="metadata3950">
    <rdf:RDF>
      <cc:Work
         rdf:about="">
        <dc:format>image/svg+xml</dc:format>
        <dc:type
           rdf:resource="http://purl.org/dc/dcmitype/StillImage" />
        <dc:title />
      </cc:Work>
    </rdf:RDF>
  </metadata>
  <g
     inkscape:label="Layer 1"
     inkscape:groupmode="layer"
     id="layer1"
     transform="translate(-302.90944,-430.32096)">
    <g
       transform="matrix(0,1,-1,0,1100.3732,88.339207)"
       id="g4040">
      <rect
         y="763.68909"
         x="341.98175"
         height="33.774677"
         width="8.7746754"
         id="rect2985"
         style="fill:none;stroke:none" />
      <path
         transform="matrix(1.5588746,0,0,1.5588746,-93.661469,-441.349)"
         d="m 283.7266,783.85101 c 0,0.80197 -0.65012,1.4521 -1.45209,1.4521 -0.80197,0 -1.4521,-0.65013 -1.4521,-1.4521 0,-0.80197 0.65013,-1.45209 1.4521,-1.45209 0.80197,0 1.45209,0.65012 1.45209,1.45209 z"
         sodipodi:ry="1.4520943"
         sodipodi:rx="1.4520943"
         sodipodi:cy="783.85101"
         sodipodi:cx="282.27451"
         id="path3867"
         style="fill:#d40000;fill-opacity:1;fill-rule:nonzero;stroke:none"
         sodipodi:type="arc" />
      <g
         transform="translate(-0.00737678,-1.9684326)"
         id="g3881">
        <path
           sodipodi:type="arc"
           style="fill:#d40000;fill-opacity:1;fill-rule:nonzero;stroke:none"
           id="path3871"
           sodipodi:cx="282.27451"
           sodipodi:cy="783.85101"
           sodipodi:rx="1.4520943"
           sodipodi:ry="1.4520943"
           d="m 283.7266,783.85101 c 0,0.80197 -0.65012,1.4521 -1.45209,1.4521 -0.80197,0 -1.4521,-0.65013 -1.4521,-1.4521 0,-0.80197 0.65013,-1.45209 1.4521,-1.45209 0.80197,0 1.45209,0.65012 1.45209,1.45209 z"
           transform="matrix(0.88496161,0,0,0.88496161,98.988795,93.559064)" />
        <path
           transform="matrix(0.88496161,0,0,0.88496161,94.159933,93.559064)"
           d="m 283.7266,783.85101 c 0,0.80197 -0.65012,1.4521 -1.45209,1.4521 -0.80197,0 -1.4521,-0.65013 -1.4521,-1.4521 0,-0.80197 0.65013,-1.45209 1.4521,-1.45209 0.80197,0 1.45209,0.65012 1.45209,1.45209 z"
           sodipodi:ry="1.4520943"
           sodipodi:rx="1.4520943"
           sodipodi:cy="783.85101"
           sodipodi:cx="282.27451"
           id="path3873"
           style="fill:#d40000;fill-opacity:1;fill-rule:nonzero;stroke:none"
           sodipodi:type="arc" />
      </g>
      <g
         transform="translate(-0.00737678,2.0315674)"
         id="g3877">
        <path
           transform="matrix(0.88496161,0,0,0.88496161,94.159933,80.174543)"
           d="m 283.7266,783.85101 c 0,0.80197 -0.65012,1.4521 -1.45209,1.4521 -0.80197,0 -1.4521,-0.65013 -1.4521,-1.4521 0,-0.80197 0.65013,-1.45209 1.4521,-1.45209 0.80197,0 1.45209,0.65012 1.45209,1.45209 z"
           sodipodi:ry="1.4520943"
           sodipodi:rx="1.4520943"
           sodipodi:cy="783.85101"
           sodipodi:cx="282.27451"
           id="path3869"
           style="fill:#d40000;fill-opacity:1;fill-rule:nonzero;stroke:none"
           sodipodi:type="arc" />
        <path
           sodipodi:type="arc"
           style="fill:#d40000;fill-opacity:1;fill-rule:nonzero;stroke:none"
           id="path3875"
           sodipodi:cx="282.27451"
           sodipodi:cy="783.85101"
           sodipodi:rx="1.4520943"
           sodipodi:ry="1.4520943"
           d="m 283.7266,783.85101 c 0,0.80197 -0.65012,1.4521 -1.45209,1.4521 -0.80197,0 -1.4521,-0.65013 -1.4521,-1.4521 0,-0.80197 0.65013,-1.45209 1.4521,-1.45209 0.80197,0 1.45209,0.65012 1.45209,1.45209 z"
           transform="matrix(0.88496161,0,0,0.88496161,98.988795,80.174543)" />
      </g>
    </g>
  </g>
</svg>
