<?xml version="1.0" encoding="UTF-8" standalone="no"?>
<!-- Created with Inkscape (http://www.inkscape.org/) -->

<svg
   xmlns:dc="http://purl.org/dc/elements/1.1/"
   xmlns:cc="http://creativecommons.org/ns#"
   xmlns:rdf="http://www.w3.org/1999/02/22-rdf-syntax-ns#"
   xmlns:svg="http://www.w3.org/2000/svg"
   xmlns="http://www.w3.org/2000/svg"
   xmlns:sodipodi="http://sodipodi.sourceforge.net/DTD/sodipodi-0.dtd"
   xmlns:inkscape="http://www.inkscape.org/namespaces/inkscape"
   width="33.774677"
   height="8.7746754"
   id="svg3945"
   version="1.1"
   inkscape:version="0.48.2 r9819"
   sodipodi:docname="stick100.svg">
  <defs
     id="defs3947" />
  <sodipodi:namedview
     id="base"
     pagecolor="#ffffff"
     bordercolor="#666666"
     borderopacity="1.0"
     inkscape:pageopacity="0.0"
     inkscape:pageshadow="2"
     inkscape:zoom="1.979899"
     inkscape:cx="22.630635"
     inkscape:cy="11.109304"
     inkscape:document-units="px"
     inkscape:current-layer="layer1"
     showgrid="false"
     fit-margin-top="0"
     fit-margin-left="0"
     fit-margin-right="0"
     fit-margin-bottom="0"
     inkscape:window-width="475"
     inkscape:window-height="465"
     inkscape:window-x="1455"
     inkscape:window-y="231"
     inkscape:window-maximized="0" />
  <metadata
     id="metadata3950">
    <rdf:RDF>
      <cc:Work
         rdf:about="">
        <dc:format>image/svg+xml</dc:format>
        <dc:type
           rdf:resource="http://purl.org/dc/dcmitype/StillImage" />
        <dc:title />
      </cc:Work>
    </rdf:RDF>
  </metadata>
  <g
     inkscape:label="Layer 1"
     inkscape:groupmode="layer"
     id="layer1"
     transform="translate(-294.54124,-382.26056)">
    <g
       transform="matrix(0,1,-1,0,1092.005,85.04074)"
       id="g4054">
      <rect
         y="763.68909"
         x="297.21982"
         height="33.774677"
         width="8.7746754"
         id="rect3021"
         style="fill:none;stroke:none" />
      <path
         sodipodi:type="arc"
         style="fill:#000000;fill-opacity:1;fill-rule:nonzero;stroke:none"
         id="path3799"
         sodipodi:cx="282.27451"
         sodipodi:cy="783.85101"
         sodipodi:rx="1.4520943"
         sodipodi:ry="1.4520943"
         d="m 283.7266,783.85101 c 0,0.80197 -0.65012,1.4521 -1.45209,1.4521 -0.80197,0 -1.4521,-0.65013 -1.4521,-1.4521 0,-0.80197 0.65013,-1.45209 1.4521,-1.45209 0.80197,0 1.45209,0.65012 1.45209,1.45209 z"
         transform="matrix(1.1675703,0,0,1.1675703,-25.883226,-138.034)" />
      <path
         sodipodi:type="arc"
         style="fill:#000000;fill-opacity:1;fill-rule:nonzero;stroke:none"
         id="path3807"
         sodipodi:cx="282.27451"
         sodipodi:cy="783.85101"
         sodipodi:rx="1.4520943"
         sodipodi:ry="1.4520943"
         d="m 283.7266,783.85101 c 0,0.80197 -0.65012,1.4521 -1.45209,1.4521 -0.80197,0 -1.4521,-0.65013 -1.4521,-1.4521 0,-0.80197 0.65013,-1.45209 1.4521,-1.45209 0.80197,0 1.45209,0.65012 1.45209,1.45209 z"
         transform="matrix(1.1675703,0,0,1.1675703,-30.05312,-138.034)" />
      <path
         transform="matrix(1.1675703,0,0,1.1675703,-25.883226,-131.21548)"
         d="m 283.7266,783.85101 c 0,0.80197 -0.65012,1.4521 -1.45209,1.4521 -0.80197,0 -1.4521,-0.65013 -1.4521,-1.4521 0,-0.80197 0.65013,-1.45209 1.4521,-1.45209 0.80197,0 1.45209,0.65012 1.45209,1.45209 z"
         sodipodi:ry="1.4520943"
         sodipodi:rx="1.4520943"
         sodipodi:cy="783.85101"
         sodipodi:cx="282.27451"
         id="path3815"
         style="fill:#000000;fill-opacity:1;fill-rule:nonzero;stroke:none"
         sodipodi:type="arc" />
      <path
         transform="matrix(1.1675703,0,0,1.1675703,-30.05312,-131.21548)"
         d="m 283.7266,783.85101 c 0,0.80197 -0.65012,1.4521 -1.45209,1.4521 -0.80197,0 -1.4521,-0.65013 -1.4521,-1.4521 0,-0.80197 0.65013,-1.45209 1.4521,-1.45209 0.80197,0 1.45209,0.65012 1.45209,1.45209 z"
         sodipodi:ry="1.4520943"
         sodipodi:rx="1.4520943"
         sodipodi:cy="783.85101"
         sodipodi:cx="282.27451"
         id="path3817"
         style="fill:#000000;fill-opacity:1;fill-rule:nonzero;stroke:none"
         sodipodi:type="arc" />
      <path
         sodipodi:type="arc"
         style="fill:#000000;fill-opacity:1;fill-rule:nonzero;stroke:none"
         id="path3821"
         sodipodi:cx="282.27451"
         sodipodi:cy="783.85101"
         sodipodi:rx="1.4520943"
         sodipodi:ry="1.4520943"
         d="m 283.7266,783.85101 c 0,0.80197 -0.65012,1.4521 -1.45209,1.4521 -0.80197,0 -1.4521,-0.65013 -1.4521,-1.4521 0,-0.80197 0.65013,-1.45209 1.4521,-1.45209 0.80197,0 1.45209,0.65012 1.45209,1.45209 z"
         transform="matrix(1.1675703,0,0,1.1675703,-25.883226,-124.39694)" />
      <path
         sodipodi:type="arc"
         style="fill:#000000;fill-opacity:1;fill-rule:nonzero;stroke:none"
         id="path3823"
         sodipodi:cx="282.27451"
         sodipodi:cy="783.85101"
         sodipodi:rx="1.4520943"
         sodipodi:ry="1.4520943"
         d="m 283.7266,783.85101 c 0,0.80197 -0.65012,1.4521 -1.45209,1.4521 -0.80197,0 -1.4521,-0.65013 -1.4521,-1.4521 0,-0.80197 0.65013,-1.45209 1.4521,-1.45209 0.80197,0 1.45209,0.65012 1.45209,1.45209 z"
         transform="matrix(1.1675703,0,0,1.1675703,-30.05312,-124.39694)" />
      <path
         transform="matrix(1.1675703,0,0,1.1675703,-25.883226,-144.85253)"
         d="m 283.7266,783.85101 c 0,0.80197 -0.65012,1.4521 -1.45209,1.4521 -0.80197,0 -1.4521,-0.65013 -1.4521,-1.4521 0,-0.80197 0.65013,-1.45209 1.4521,-1.45209 0.80197,0 1.45209,0.65012 1.45209,1.45209 z"
         sodipodi:ry="1.4520943"
         sodipodi:rx="1.4520943"
         sodipodi:cy="783.85101"
         sodipodi:cx="282.27451"
         id="path3827"
         style="fill:#000000;fill-opacity:1;fill-rule:nonzero;stroke:none"
         sodipodi:type="arc" />
      <path
         transform="matrix(1.1675703,0,0,1.1675703,-30.05312,-144.85253)"
         d="m 283.7266,783.85101 c 0,0.80197 -0.65012,1.4521 -1.45209,1.4521 -0.80197,0 -1.4521,-0.65013 -1.4521,-1.4521 0,-0.80197 0.65013,-1.45209 1.4521,-1.45209 0.80197,0 1.45209,0.65012 1.45209,1.45209 z"
         sodipodi:ry="1.4520943"
         sodipodi:rx="1.4520943"
         sodipodi:cy="783.85101"
         sodipodi:cx="282.27451"
         id="path3829"
         style="fill:#000000;fill-opacity:1;fill-rule:nonzero;stroke:none"
         sodipodi:type="arc" />
    </g>
  </g>
</svg>
