<?xml version="1.0" encoding="UTF-8" standalone="no"?>
<!-- Created with Inkscape (http://www.inkscape.org/) -->

<svg
   xmlns:dc="http://purl.org/dc/elements/1.1/"
   xmlns:cc="http://creativecommons.org/ns#"
   xmlns:rdf="http://www.w3.org/1999/02/22-rdf-syntax-ns#"
   xmlns:svg="http://www.w3.org/2000/svg"
   xmlns="http://www.w3.org/2000/svg"
   xmlns:sodipodi="http://sodipodi.sourceforge.net/DTD/sodipodi-0.dtd"
   xmlns:inkscape="http://www.inkscape.org/namespaces/inkscape"
   width="33.774677"
   height="8.7746754"
   id="svg3945"
   version="1.1"
   inkscape:version="0.48.2 r9819"
   sodipodi:docname="stick10000.svg">
  <defs
     id="defs3947" />
  <sodipodi:namedview
     id="base"
     pagecolor="#ffffff"
     bordercolor="#666666"
     borderopacity="1.0"
     inkscape:pageopacity="0.0"
     inkscape:pageshadow="2"
     inkscape:zoom="2.8"
     inkscape:cx="29.940349"
     inkscape:cy="5.0005113"
     inkscape:document-units="px"
     inkscape:current-layer="layer1"
     showgrid="false"
     fit-margin-top="0"
     fit-margin-left="0"
     fit-margin-right="0"
     fit-margin-bottom="0"
     inkscape:window-width="475"
     inkscape:window-height="465"
     inkscape:window-x="1455"
     inkscape:window-y="231"
     inkscape:window-maximized="0" />
  <metadata
     id="metadata3950">
    <rdf:RDF>
      <cc:Work
         rdf:about="">
        <dc:format>image/svg+xml</dc:format>
        <dc:type
           rdf:resource="http://purl.org/dc/dcmitype/StillImage" />
        <dc:title />
      </cc:Work>
    </rdf:RDF>
  </metadata>
  <g
     inkscape:label="Layer 1"
     inkscape:groupmode="layer"
     id="layer1"
     transform="translate(-335.66494,-535.77973)">
    <g
       id="g2993"
       transform="matrix(0,1,-1,0,892.71934,187.61479)">
      <g
         id="g4028"
         transform="translate(-16.197762,-240.40936)">
        <rect
           y="763.68909"
           x="364.3627"
           height="33.774677"
           width="8.7746754"
           id="rect3023"
           style="fill:none;stroke:none" />
        <path
           transform="matrix(1.5588746,0,0,1.5588746,-71.280518,-441.35355)"
           d="m 283.7266,783.85101 c 0,0.80197 -0.65012,1.4521 -1.45209,1.4521 -0.80197,0 -1.4521,-0.65013 -1.4521,-1.4521 0,-0.80197 0.65013,-1.45209 1.4521,-1.45209 0.80197,0 1.45209,0.65012 1.45209,1.45209 z"
           sodipodi:ry="1.4520943"
           sodipodi:rx="1.4520943"
           sodipodi:cy="783.85101"
           sodipodi:cx="282.27451"
           id="path3912"
           style="fill:#d40000;fill-opacity:1;fill-rule:nonzero;stroke:none"
           sodipodi:type="arc" />
        <path
           transform="matrix(0.88496161,0,0,0.88496161,121.36237,91.590631)"
           d="m 283.7266,783.85101 c 0,0.80197 -0.65012,1.4521 -1.45209,1.4521 -0.80197,0 -1.4521,-0.65013 -1.4521,-1.4521 0,-0.80197 0.65013,-1.45209 1.4521,-1.45209 0.80197,0 1.45209,0.65012 1.45209,1.45209 z"
           sodipodi:ry="1.4520943"
           sodipodi:rx="1.4520943"
           sodipodi:cy="783.85101"
           sodipodi:cx="282.27451"
           id="path3916"
           style="fill:#d40000;fill-opacity:1;fill-rule:nonzero;stroke:none"
           sodipodi:type="arc" />
        <path
           sodipodi:type="arc"
           style="fill:#d40000;fill-opacity:1;fill-rule:nonzero;stroke:none"
           id="path3918"
           sodipodi:cx="282.27451"
           sodipodi:cy="783.85101"
           sodipodi:rx="1.4520943"
           sodipodi:ry="1.4520943"
           d="m 283.7266,783.85101 c 0,0.80197 -0.65012,1.4521 -1.45209,1.4521 -0.80197,0 -1.4521,-0.65013 -1.4521,-1.4521 0,-0.80197 0.65013,-1.45209 1.4521,-1.45209 0.80197,0 1.45209,0.65012 1.45209,1.45209 z"
           transform="matrix(0.88496161,0,0,0.88496161,116.53351,91.590631)" />
        <path
           sodipodi:type="arc"
           style="fill:#d40000;fill-opacity:1;fill-rule:nonzero;stroke:none"
           id="path3922"
           sodipodi:cx="282.27451"
           sodipodi:cy="783.85101"
           sodipodi:rx="1.4520943"
           sodipodi:ry="1.4520943"
           d="m 283.7266,783.85101 c 0,0.80197 -0.65012,1.4521 -1.45209,1.4521 -0.80197,0 -1.4521,-0.65013 -1.4521,-1.4521 0,-0.80197 0.65013,-1.45209 1.4521,-1.45209 0.80197,0 1.45209,0.65012 1.45209,1.45209 z"
           transform="matrix(0.88496161,0,0,0.88496161,116.53351,82.20611)" />
        <path
           transform="matrix(0.88496161,0,0,0.88496161,121.36237,82.20611)"
           d="m 283.7266,783.85101 c 0,0.80197 -0.65012,1.4521 -1.45209,1.4521 -0.80197,0 -1.4521,-0.65013 -1.4521,-1.4521 0,-0.80197 0.65013,-1.45209 1.4521,-1.45209 0.80197,0 1.45209,0.65012 1.45209,1.45209 z"
           sodipodi:ry="1.4520943"
           sodipodi:rx="1.4520943"
           sodipodi:cy="783.85101"
           sodipodi:cx="282.27451"
           id="path3924"
           style="fill:#d40000;fill-opacity:1;fill-rule:nonzero;stroke:none"
           sodipodi:type="arc" />
        <path
           sodipodi:type="arc"
           style="fill:#d40000;fill-opacity:1;fill-rule:nonzero;stroke:none"
           id="path3937"
           sodipodi:cx="282.27451"
           sodipodi:cy="783.85101"
           sodipodi:rx="1.4520943"
           sodipodi:ry="1.4520943"
           d="m 283.7266,783.85101 c 0,0.80197 -0.65012,1.4521 -1.45209,1.4521 -0.80197,0 -1.4521,-0.65013 -1.4521,-1.4521 0,-0.80197 0.65013,-1.45209 1.4521,-1.45209 0.80197,0 1.45209,0.65012 1.45209,1.45209 z"
           transform="matrix(0.88496161,0,0,0.88496161,118.94794,95.922087)" />
        <path
           transform="matrix(0.88496161,0,0,0.88496161,118.94794,77.865611)"
           d="m 283.7266,783.85101 c 0,0.80197 -0.65012,1.4521 -1.45209,1.4521 -0.80197,0 -1.4521,-0.65013 -1.4521,-1.4521 0,-0.80197 0.65013,-1.45209 1.4521,-1.45209 0.80197,0 1.45209,0.65012 1.45209,1.45209 z"
           sodipodi:ry="1.4520943"
           sodipodi:rx="1.4520943"
           sodipodi:cy="783.85101"
           sodipodi:cx="282.27451"
           id="path3939"
           style="fill:#d40000;fill-opacity:1;fill-rule:nonzero;stroke:none"
           sodipodi:type="arc" />
        <path
           transform="matrix(1.1675703,0,0,1.1675703,39.17471,-149.33914)"
           d="m 283.7266,783.85101 c 0,0.80197 -0.65012,1.4521 -1.45209,1.4521 -0.80197,0 -1.4521,-0.65013 -1.4521,-1.4521 0,-0.80197 0.65013,-1.45209 1.4521,-1.45209 0.80197,0 1.45209,0.65012 1.45209,1.45209 z"
           sodipodi:ry="1.4520943"
           sodipodi:rx="1.4520943"
           sodipodi:cy="783.85101"
           sodipodi:cx="282.27451"
           id="path3941"
           style="fill:#000000;fill-opacity:1;fill-rule:nonzero;stroke:none"
           sodipodi:type="arc" />
        <path
           sodipodi:type="arc"
           style="fill:#000000;fill-opacity:1;fill-rule:nonzero;stroke:none"
           id="path3943"
           sodipodi:cx="282.27451"
           sodipodi:cy="783.85101"
           sodipodi:rx="1.4520943"
           sodipodi:ry="1.4520943"
           d="m 283.7266,783.85101 c 0,0.80197 -0.65012,1.4521 -1.45209,1.4521 -0.80197,0 -1.4521,-0.65013 -1.4521,-1.4521 0,-0.80197 0.65013,-1.45209 1.4521,-1.45209 0.80197,0 1.45209,0.65012 1.45209,1.45209 z"
           transform="matrix(1.1675703,0,0,1.1675703,39.17471,-119.92804)" />
      </g>
    </g>
  </g>
</svg>
