<?xml version="1.0" encoding="UTF-8" standalone="no"?>
<!-- Created with Inkscape (http://www.inkscape.org/) -->

<svg
   xmlns:dc="http://purl.org/dc/elements/1.1/"
   xmlns:cc="http://creativecommons.org/ns#"
   xmlns:rdf="http://www.w3.org/1999/02/22-rdf-syntax-ns#"
   xmlns:svg="http://www.w3.org/2000/svg"
   xmlns="http://www.w3.org/2000/svg"
   version="1.1"
   width="45.302887"
   height="38.484356"
   id="svg3081">
  <defs
     id="defs3083" />
  <metadata
     id="metadata3086">
    <rdf:RDF>
      <cc:Work
         rdf:about="">
        <dc:format>image/svg+xml</dc:format>
        <dc:type
           rdf:resource="http://purl.org/dc/dcmitype/StillImage" />
        <dc:title></dc:title>
      </cc:Work>
    </rdf:RDF>
  </metadata>
  <g
     transform="translate(-665,-469.74356)"
     id="layer1">
    <g
       id="g5086">
      <g
         id="g5195">
        <rect
           width="45.302887"
           height="38.484356"
           x="665"
           y="469.74356"
           id="rect3787"
           style="fill:none;stroke:none" />
        <path
           d="m 679.81144,503.74574 3.04,-0.8 -0.24,0 0,-0.48 2.72,-1.36 0.8,-1.56 0.52,-1.04 0.48,0 1,-10.2 1,-0.76 c 0.52,0 1,0 1.52,0 0.52,0 1.04,0 1.52,0 0.52,0 0.96,0.08 1.36,0.2 0.44,0.2 0.92,0.36 1.44,0.56 l 0.68,0 0,-0.28 0.52,0 0,0.56 1.8,0.52 0,0.24 6.8,2.12 1,-0.52 0.52,0 1.24,-1.84 -0.28,-1.32 c -1.32,-0.32 -2.64,-0.64 -4,-0.92 -1.4,-0.24 -2.76,-0.48 -4.16,-0.76 -1.44,-0.24 -2.8,-0.48 -4.12,-0.76 -1.4,-0.28 -2.84,-0.48 -4.36,-0.68 l -0.68,0.28 c -0.36,0 -0.72,0 -1.16,0 -0.4,0 -0.8,-0.04 -1.12,-0.16 -0.36,-0.08 -0.64,-0.24 -0.88,-0.48 -0.28,-0.28 -0.56,-0.48 -0.92,-0.68 l 0.52,-1.6 c 0.36,-0.16 0.56,-0.4 0.76,-0.76 0.16,-0.32 0.4,-0.56 0.76,-0.76 0.36,-0.2 0.6,-0.32 0.88,-0.4 0.24,-0.08 0.52,-0.2 0.88,-0.4 l 0.48,-0.76 1.28,0.24 -0.52,1.04 -0.28,0 c 0.36,0 0.6,-0.12 0.8,-0.4 0.16,-0.28 0.36,-0.4 0.6,-0.4 0.28,0 0.56,0 0.92,0 0.36,0 0.56,-0.08 0.72,-0.24 l 0,-1.56 -0.48,0 -0.24,-0.8 -3.8,-2.6 c -1.16,0.16 -2.32,0.36 -3.36,0.64 -1.08,0.28 -2.24,0.4 -3.4,0.4 -1.2,0 -2.32,0.2 -3.44,0.64 -1.08,0.4 -2.08,1 -2.88,1.72 l -0.28,0.48 0.52,1.32 1.8,0.8 0.24,0.8 1.24,-1.04 4.28,-2.12 1.28,0 -2.8,4.44 -0.72,0.28 0,1.32 1.52,1.04 0,0.8 c -0.2,0 -0.36,0.04 -0.52,0.12 -0.2,0.08 -0.36,0.12 -0.52,0.12 -0.2,0 -0.32,0.04 -0.48,0.12 -0.2,0.08 -0.28,0.2 -0.28,0.4 l -0.76,0 0,-0.52 -0.28,0.8 -0.72,-0.28 c -0.84,0.52 -1.68,0.84 -2.52,1.04 -0.84,0.16 -1.76,0.32 -2.64,0.48 -0.92,0.2 -1.84,0.32 -2.75999,0.4 -0.96,0.12 -1.84,0.32 -2.68,0.68 l -1.2,2.64 0.68,1.8 c 0.52,0.2 0.92,0.08 1.28,-0.28 0.36,-0.36 0.72,-0.56 1.16,-0.64 0.44,-0.04 0.8,-0.2 1.12,-0.48 0.36,-0.28 0.75999,-0.32 1.27999,-0.16 l 0,-0.24 1.76,-0.28 1,-0.52 0,-0.24 0.24,0 0,-0.28 0.28,0 0,-0.28 0.72,0 0,-0.52 1.28,0 c 0,-0.2 0.08,-0.32 0.28,-0.4 0.16,-0.08 0.32,-0.16 0.48,-0.24 0.16,-0.08 0.28,-0.2 0.36,-0.4 0.08,-0.2 0.12,-0.36 0.12,-0.56 l 0.76,0 0,0.56 1.24,0 0,-0.28 1.04,-0.28 3,1.32 c 0,0.52 0,1.12 0,1.68 0,0.64 -0.04,1.24 -0.12,1.72 -0.08,0.52 -0.24,1 -0.52,1.44 -0.24,0.4 -0.52,0.92 -0.84,1.48 -0.52,0.68 -1.04,1.28 -1.64,1.8 -0.6,0.48 -1.24,0.92 -1.92,1.28 -0.68,0.36 -1.32,0.6 -2,0.76 -0.64,0.2 -1.44,0.28 -2.24,0.28 l 0,0.56 1.52,0.52 0,1.04 1.72,0.56 0,0.76 -0.24,0 0.24,0.52 m 1,-0.52 -0.24,0.28 -0.48,0 0,-0.56 0.72,0.28 m -2.24,-14.12 -0.24,0.24 -1.04,0 0,-0.48 1.52,0 -0.24,0.24 m 4.28,-1.32 -0.52,0.52 -0.24,-0.28 0,-0.24 0.52,-0.24 0.24,0.24"
           id="path3050"
           style="font-size:40px;font-style:normal;font-variant:normal;font-weight:normal;font-stretch:normal;line-height:125%;letter-spacing:0px;word-spacing:0px;fill:#000000;fill-opacity:1;stroke:none;font-family:'青柳隷書SIMO2_O';-inkscape-font-specification:'青柳隷書SIMO2_O'" />
      </g>
    </g>
  </g>
</svg>
