<?xml version="1.0" encoding="UTF-8" standalone="no"?>
<!-- Created with Inkscape (http://www.inkscape.org/) -->

<svg
   xmlns:dc="http://purl.org/dc/elements/1.1/"
   xmlns:cc="http://creativecommons.org/ns#"
   xmlns:rdf="http://www.w3.org/1999/02/22-rdf-syntax-ns#"
   xmlns:svg="http://www.w3.org/2000/svg"
   xmlns="http://www.w3.org/2000/svg"
   xmlns:sodipodi="http://sodipodi.sourceforge.net/DTD/sodipodi-0.dtd"
   xmlns:inkscape="http://www.inkscape.org/namespaces/inkscape"
   width="45.302887"
   height="38.484356"
   id="svg3081"
   version="1.1"
   inkscape:version="0.48.4 r9939"
   sodipodi:docname="chu.svg">
  <defs
     id="defs3083" />
  <sodipodi:namedview
     id="base"
     pagecolor="#ffffff"
     bordercolor="#666666"
     borderopacity="1.0"
     inkscape:pageopacity="0.0"
     inkscape:pageshadow="2"
     inkscape:zoom="3.959798"
     inkscape:cx="35.137347"
     inkscape:cy="-14.072031"
     inkscape:document-units="px"
     inkscape:current-layer="g5086"
     showgrid="false"
     fit-margin-top="0"
     fit-margin-left="0"
     fit-margin-right="0"
     fit-margin-bottom="0"
     inkscape:window-width="958"
     inkscape:window-height="1033"
     inkscape:window-x="960"
     inkscape:window-y="0"
     inkscape:window-maximized="0" />
  <metadata
     id="metadata3086">
    <rdf:RDF>
      <cc:Work
         rdf:about="">
        <dc:format>image/svg+xml</dc:format>
        <dc:type
           rdf:resource="http://purl.org/dc/dcmitype/StillImage" />
        <dc:title></dc:title>
      </cc:Work>
    </rdf:RDF>
  </metadata>
  <g
     inkscape:label="レイヤー 1"
     inkscape:groupmode="layer"
     id="layer1"
     transform="translate(-665,-469.74356)">
    <g
       id="g5086">
      <g
         id="g5669">
        <rect
           style="fill:none;stroke:none"
           id="rect3787"
           width="45.302887"
           height="38.484356"
           x="665"
           y="469.74356" />
        <path
           d="m 679.13144,504.92574 c 0,-0.36 0.04,-0.56 0.12,-0.68 0.08,-0.16 0.24,-0.28 0.52,-0.32 0.24,-0.08 0.4,-0.16 0.56,-0.24 0.16,-0.04 0.32,-0.16 0.52,-0.36 l 1.92,-5.64 3.4,-0.72 1.96,0.24 0.72,-0.24 1,0.24 1.44,-0.24 0,-2.04 -1.96,0.24 -5.6,0 0.24,-1.84 1,-0.24 0.72,0.24 1.72,0 0,-0.44 2.64,0 0.24,-0.4 0,-1.64 c -0.44,0 -0.96,-0.04 -1.56,-0.12 -0.56,-0.04 -1.12,-0.08 -1.72,-0.08 -0.56,0 -1.12,0 -1.68,0 -0.56,0 -1,-0.16 -1.36,-0.52 l 0,-0.88 3.68,-0.68 3.88,0.96 0.96,8.56 -0.24,1.64 c 0,0.44 0,0.84 0,1.2 0,0.36 0,0.8 0,1.28 0,0.48 0.04,0.88 0.12,1.24 0.08,0.36 0.2,0.72 0.4,1 l 0.68,0 0,-0.44 0.52,0 0,-0.2 0.72,0.2 0.48,0 0.24,-2.24 -0.96,-6.12 0.24,-0.92 -0.24,-0.48 0.52,-4.12 -0.52,-2.44 c -0.32,0 -0.6,-0.08 -0.84,-0.24 -0.28,-0.16 -0.48,-0.28 -0.72,-0.36 -0.28,-0.08 -0.56,-0.12 -0.88,-0.12 -0.36,0 -0.64,0 -0.96,0 l -0.76,-0.88 c -0.8,0 -1.52,0.12 -2.16,0.32 -0.68,0.24 -1.36,0.44 -2.08,0.56 -0.76,0.16 -1.44,0.24 -2.2,0.24 -0.72,0 -1.4,0.16 -2.08,0.48 l -0.92,1.56 0,0.68 0.72,0 0.72,1.6 c 0.16,1.24 0.12,2.36 -0.12,3.4 -0.28,1.08 -0.56,2.08 -0.96,3.04 -0.44,1 -0.96,1.96 -1.6,2.88 -0.68,0.88 -1.08,1.92 -1.24,2.96 l 0.24,0.88 0.52,0.24 m -10.71999,-8.4 6.79999,-2.92 0,-0.52 -0.2,0 -0.48,-1.32 -1.2,-0.52 0.2,-1.72 1.24,-0.52 0,-0.44 c 0.96,-0.32 1.96,-0.68 3.04,-1.04 1.04,-0.36 2.12,-0.72 3.16,-1.04 1.04,-0.28 2.12,-0.48 3.16,-0.64 1.04,-0.12 2.16,-0.28 3.28,-0.44 1.44,0 2.84,0.08 4.16,0.2 1.28,0.16 2.56,0.36 3.84,0.6 1.28,0.2 2.64,0.44 3.92,0.64 1.28,0.24 2.56,0.52 3.88,0.84 0.32,0 0.72,0 1.16,0 0.4,0 0.76,0 1.2,0 0.4,0 0.76,-0.12 1.08,-0.36 0.32,-0.24 0.64,-0.44 0.96,-0.56 l 0,-0.24 c -1.48,-0.56 -3,-1.04 -4.52,-1.36 -1.52,-0.32 -3.12,-0.6 -4.76,-0.8 -1.64,-0.24 -3.28,-0.4 -4.88,-0.48 -1.6,-0.04 -3.32,-0.08 -5.12,-0.08 l 0.28,-1.36 1.44,-0.48 3.92,0.2 2.44,-0.2 0,-0.92 -3.4,-0.64 -1,0.2 c -0.36,0 -0.64,0 -0.96,0 -0.36,0 -0.64,0 -0.88,0 -0.2,0 -0.48,0 -0.8,0 -0.36,0 -0.6,-0.16 -0.76,-0.48 l 0,-0.88 1,-0.24 0.68,0.24 0.24,0 0,-0.44 0.76,0 1.96,0.68 0.72,0 0,-0.24 0.72,-0.24 -0.24,-1.84 -6.12,-0.44 c 0,-0.28 0,-0.56 -0.08,-0.88 -0.08,-0.28 -0.12,-0.64 -0.12,-1.04 0,-0.32 -0.04,-0.68 -0.12,-1 -0.08,-0.32 -0.28,-0.56 -0.6,-0.76 -0.36,0 -0.64,0 -0.84,0 -0.28,0 -0.48,0.04 -0.64,0.12 -0.16,0.12 -0.32,0.28 -0.48,0.48 -0.16,0.24 -0.4,0.36 -0.72,0.36 l -0.24,0.48 0.24,0.64 0,1.6 -2.68,0.72 -0.72,-0.28 -1,0.28 -0.96,0.88 0.24,2.96 c 0.48,0.16 0.92,0.08 1.36,-0.2 0.4,-0.32 0.8,-0.56 1.32,-0.72 0.52,-0.16 0.96,-0.32 1.36,-0.48 0.4,-0.12 0.84,-0.2 1.32,-0.2 l 0,-0.44 0.72,0 0,1.16 -5.6,1.56 0,0.48 -0.96,0.24 -0.76,1.32 0,0.68 c 0.52,-0.12 0.96,-0.28 1.4,-0.52 0.36,-0.24 0.8,-0.44 1.32,-0.6 0.48,-0.12 0.92,-0.24 1.44,-0.36 0.52,-0.08 0.96,-0.2 1.44,-0.32 l 1.72,0 -0.24,0.68 c -1.12,0.28 -2.2,0.64 -3.28,1 -1.04,0.36 -2.12,0.72 -3.16,1.04 -1.04,0.32 -2.16,0.56 -3.28,0.68 -1.12,0.16 -2.12,0.72 -2.92,1.6 l 0.52,1.64 0,0.84 -0.52,0 -0.99999,1.16 -0.44,0 0,-0.44 -1,0 -0.24,0.88 -1.72,0 0,0.52 -0.72,0.2 0,3.6 0.72,0.24 m 1.72,-9.76 5.59999,-1.36 -0.24,-1.84 -2.92,-0.48 0,-0.4 -2.19999,0.88 -0.72,1.36 0,1.32 0.48,0 0,0.52 m -0.96,-5.04 c 0.48,-0.28 0.96,-0.48 1.56,-0.56 0.6,-0.08 1.12,-0.16 1.71999,-0.24 0.6,-0.04 1.16,-0.08 1.84,-0.08 0.64,0 1.16,-0.08 1.68,-0.24 l 0,-0.68 0.24,0 -0.48,-1.36 -0.96,-0.24 0,-0.44 -0.52,0 0,-0.72 c -0.48,0 -0.88,0.12 -1.16,0.36 -0.36,0.24 -0.71999,0.36 -1.11999,0.44 -0.4,0.08 -0.76,0.2 -1.08,0.36 -0.36,0.16 -0.76,0.24 -1.24,0.24 l -1,0.92 -0.24,1.36 0.24,0.68 0.52,0.2 m 19.91999,-2.72 -0.24,0.24 -0.24,0 0.24,-0.44 0.24,0.2 m 5.36,-0.2 -0.24,0.2 -0.24,-0.2 0.24,-0.24 0.24,0.24"
           style="font-size:40px;font-style:normal;font-variant:normal;font-weight:normal;font-stretch:normal;line-height:125%;letter-spacing:0px;word-spacing:0px;fill:#000000;fill-opacity:1;stroke:none;font-family:'青柳隷書SIMO2_O';-inkscape-font-specification:'青柳隷書SIMO2_O'"
           id="path3020"
           inkscape:connector-curvature="0" />
      </g>
    </g>
  </g>
</svg>
