<?xml version="1.0" encoding="UTF-8" standalone="no"?>
<!-- Created with Inkscape (http://www.inkscape.org/) -->

<svg
   xmlns:dc="http://purl.org/dc/elements/1.1/"
   xmlns:cc="http://creativecommons.org/ns#"
   xmlns:rdf="http://www.w3.org/1999/02/22-rdf-syntax-ns#"
   xmlns:svg="http://www.w3.org/2000/svg"
   xmlns="http://www.w3.org/2000/svg"
   xmlns:sodipodi="http://sodipodi.sourceforge.net/DTD/sodipodi-0.dtd"
   xmlns:inkscape="http://www.inkscape.org/namespaces/inkscape"
   width="45.302887"
   height="38.484356"
   id="svg3081"
   version="1.1"
   inkscape:version="0.48.4 r9939"
   sodipodi:docname="chin.svg">
  <defs
     id="defs3083" />
  <sodipodi:namedview
     id="base"
     pagecolor="#ffffff"
     bordercolor="#666666"
     borderopacity="1.0"
     inkscape:pageopacity="0.0"
     inkscape:pageshadow="2"
     inkscape:zoom="3.959798"
     inkscape:cx="35.137347"
     inkscape:cy="-14.072031"
     inkscape:document-units="px"
     inkscape:current-layer="g5086"
     showgrid="false"
     fit-margin-top="0"
     fit-margin-left="0"
     fit-margin-right="0"
     fit-margin-bottom="0"
     inkscape:window-width="958"
     inkscape:window-height="1033"
     inkscape:window-x="960"
     inkscape:window-y="0"
     inkscape:window-maximized="0" />
  <metadata
     id="metadata3086">
    <rdf:RDF>
      <cc:Work
         rdf:about="">
        <dc:format>image/svg+xml</dc:format>
        <dc:type
           rdf:resource="http://purl.org/dc/dcmitype/StillImage" />
        <dc:title></dc:title>
      </cc:Work>
    </rdf:RDF>
  </metadata>
  <g
     inkscape:label="レイヤー 1"
     inkscape:groupmode="layer"
     id="layer1"
     transform="translate(-665,-469.74356)">
    <g
       id="g5086">
      <g
         id="g5712">
        <rect
           style="fill:none;stroke:none"
           id="rect3787"
           width="45.302887"
           height="38.484356"
           x="665"
           y="469.74356" />
        <path
           d="m 686.13144,504.28574 7.88,-0.24 3,0.24 c 0.8,0 1.52,0 2.24,0 0.68,0 1.32,-0.04 1.96,-0.12 0.6,-0.08 1.24,-0.2 1.96,-0.32 0.68,-0.16 1.28,-0.44 1.76,-0.84 l 0.24,-0.64 0.44,0 0,-0.44 0.48,0 1.4,-2.76 c 0,-0.44 0,-0.88 0,-1.24 0,-0.32 -0.04,-0.68 -0.12,-1.04 -0.08,-0.36 -0.16,-0.76 -0.24,-1.08 -0.08,-0.36 -0.2,-0.68 -0.32,-0.96 -0.16,0 -0.36,-0.08 -0.6,-0.24 -0.24,-0.12 -0.48,-0.16 -0.72,-0.16 -0.24,0 -0.44,0 -0.68,0 -0.28,0 -0.48,-0.16 -0.6,-0.44 l -1.64,0 0,0.2 -0.24,0 -1.36,3.44 c -0.92,0.56 -1.88,1.04 -2.76,1.4 -0.96,0.36 -1.92,0.72 -2.92,1.16 -1,0.44 -2.04,0.72 -3.16,0.76 -1.08,0.08 -2.16,0.16 -3.24,0.32 -0.88,0 -1.88,0 -2.84,0 -1,0 -2,-0.04 -2.88,-0.12 -0.96,-0.08 -1.84,-0.16 -2.72,-0.32 -0.88,-0.12 -1.8,-0.28 -2.68,-0.4 l -1.16,-1.96 c 0,-0.44 0,-0.88 0,-1.4 0,-0.52 0.04,-1 0.12,-1.4 0.08,-0.44 0.2,-0.84 0.44,-1.2 0.24,-0.32 0.36,-0.72 0.36,-1.2 0.96,-0.28 1.88,-0.52 2.8,-0.64 0.96,-0.12 1.88,-0.28 2.84,-0.44 0.88,-0.12 1.84,-0.24 2.76,-0.32 0.88,-0.08 1.84,-0.28 2.72,-0.56 0.32,0 0.68,0.04 1.08,0.12 0.4,0.08 0.72,0.12 1.04,0.12 0.28,0 0.6,0.08 0.92,0.2 0.28,0.16 0.6,0.32 0.92,0.44 l 1.88,-0.44 c 0.32,-0.6 0.64,-1.08 0.92,-1.6 0.32,-0.52 0.64,-1 0.96,-1.6 0.28,-0.6 0.56,-1.08 0.88,-1.6 0.32,-0.52 0.48,-1.08 0.48,-1.84 l 0.48,0 0,-0.84 -0.48,0 -0.24,-0.64 -1.6,-0.68 0,-0.4 -8.84,-0.48 0.48,-1.96 3.68,-1.92 -0.24,-1.52 c -0.32,-0.28 -0.6,-0.56 -0.8,-0.72 -0.2,-0.2 -0.48,-0.36 -0.8,-0.44 -0.32,-0.08 -0.64,-0.16 -0.92,-0.24 -0.32,-0.04 -0.64,-0.16 -0.92,-0.32 l -0.72,0 -0.2,0.68 -2.08,0.44 -0.72,0 -0.44,-1.12 -3.08,-1.28 -1.8,0.84 -0.24,0.68 -0.48,0 -0.48,1.72 -0.92,0.64 0,0.4 -3.92,2.16 0,0.44 -0.91999,0.24 0,0.4 -3.72,1.36 0,0.4 0.68,0 0,0.88 0.72,0.24 0,0.4 0.96,0.64 2.04,-0.2 0,-0.44 1.39999,-0.4 0,-0.44 1.4,-0.44 0,-0.44 1.16,-0.48 0,-0.44 c 0.6,-0.28 1.2,-0.68 1.84,-1.08 0.6,-0.44 1.24,-0.88 1.88,-1.32 0.56,-0.4 1.24,-0.72 1.92,-0.92 0.72,-0.2 1.48,-0.32 2.24,-0.32 l 1.12,0 -0.4,1.48 -0.48,0 -0.72,1.12 c -0.44,0.56 -0.96,1 -1.48,1.28 -0.52,0.32 -1.12,0.56 -1.76,0.68 -0.64,0.12 -1.28,0.28 -1.84,0.4 -0.64,0.16 -1.28,0.24 -1.88,0.24 l -1.16,1.96 0.48,1.28 0.44,0.2 c 0.6,0 1.16,-0.04 1.64,-0.12 0.48,-0.04 0.92,-0.16 1.4,-0.32 0.44,-0.12 0.92,-0.24 1.52,-0.32 0.56,-0.04 1.04,-0.24 1.48,-0.52 l 1.4,0 -0.24,3.24 -3.48,1.48 -1.6,0 -0.24,-0.68 -1.2,-0.8 -1.6,0 c 0,0.56 0,1 0,1.44 0,0.44 -0.12,0.84 -0.32,1.28 -0.24,0.44 -0.36,0.96 -0.36,1.44 0,0.52 -0.16,1.04 -0.48,1.48 0,0.68 0,1.44 0,2.2 0,0.84 0.04,1.56 0.12,2.28 0.08,0.72 0.24,1.4 0.48,2.04 0.24,0.64 0.48,1.24 0.8,1.8 0.76,0.28 1.56,0.52 2.44,0.64 0.8,0.12 1.72,0.2 2.68,0.2 0.96,0 1.84,0.12 2.68,0.36 0.84,0.2 1.72,0.32 2.64,0.32 m 5.08,-15.08 -0.92,0.24 -3.24,0 0,-3.24 -0.44,0 -0.24,-0.64 0,-0.44 1.6,-0.44 3,0 0.72,1.12 c 0,0.28 0,0.52 0,0.72 0,0.2 0,0.44 0,0.64 0,0.24 -0.04,0.48 -0.12,0.64 -0.08,0.2 -0.2,0.4 -0.36,0.56 l 0,0.84"
           style="font-size:40px;font-style:normal;font-variant:normal;font-weight:normal;font-stretch:normal;line-height:125%;letter-spacing:0px;word-spacing:0px;fill:#000000;fill-opacity:1;stroke:none;font-family:'青柳隷書SIMO2_O';-inkscape-font-specification:'青柳隷書SIMO2_O'"
           id="path3018"
           inkscape:connector-curvature="0" />
      </g>
    </g>
  </g>
</svg>
