<?xml version="1.0" encoding="UTF-8" standalone="no"?>
<!-- Created with Inkscape (http://www.inkscape.org/) -->

<svg
   xmlns:dc="http://purl.org/dc/elements/1.1/"
   xmlns:cc="http://creativecommons.org/ns#"
   xmlns:rdf="http://www.w3.org/1999/02/22-rdf-syntax-ns#"
   xmlns:svg="http://www.w3.org/2000/svg"
   xmlns="http://www.w3.org/2000/svg"
   xmlns:sodipodi="http://sodipodi.sourceforge.net/DTD/sodipodi-0.dtd"
   xmlns:inkscape="http://www.inkscape.org/namespaces/inkscape"
   width="45.302887"
   height="38.484356"
   id="svg3081"
   version="1.1"
   inkscape:version="0.48.4 r9939"
   sodipodi:docname="su.svg">
  <defs
     id="defs3083" />
  <sodipodi:namedview
     id="base"
     pagecolor="#ffffff"
     bordercolor="#666666"
     borderopacity="1.0"
     inkscape:pageopacity="0.0"
     inkscape:pageshadow="2"
     inkscape:zoom="3.959798"
     inkscape:cx="35.137347"
     inkscape:cy="-14.072031"
     inkscape:document-units="px"
     inkscape:current-layer="g5086"
     showgrid="false"
     fit-margin-top="0"
     fit-margin-left="0"
     fit-margin-right="0"
     fit-margin-bottom="0"
     inkscape:window-width="958"
     inkscape:window-height="1033"
     inkscape:window-x="960"
     inkscape:window-y="0"
     inkscape:window-maximized="0" />
  <metadata
     id="metadata3086">
    <rdf:RDF>
      <cc:Work
         rdf:about="">
        <dc:format>image/svg+xml</dc:format>
        <dc:type
           rdf:resource="http://purl.org/dc/dcmitype/StillImage" />
        <dc:title></dc:title>
      </cc:Work>
    </rdf:RDF>
  </metadata>
  <g
     inkscape:label="レイヤー 1"
     inkscape:groupmode="layer"
     id="layer1"
     transform="translate(-665,-469.74356)">
    <g
       id="g5086">
      <g
         id="g6203">
        <rect
           style="fill:none;stroke:none"
           id="rect3787"
           width="45.302887"
           height="38.484356"
           x="665"
           y="469.74356" />
        <path
           d="m 698.73144,503.96574 5.6,-0.4 0,-0.68 1.52,-0.24 0,-0.6 0.8,0 -0.24,-0.96 c 0,-0.44 0,-0.84 0,-1.2 0,-0.36 0.04,-0.76 0.12,-1.12 0.08,-0.36 0.16,-0.72 0.36,-1.04 0.16,-0.28 0.32,-0.6 0.52,-0.88 l 0,-1.32 -0.76,0 0,0.68 c -0.52,0.12 -1,0.4 -1.4,0.76 -0.4,0.32 -0.92,0.56 -1.52,0.64 -0.6,0.12 -1.16,0.24 -1.68,0.36 -0.48,0.16 -0.96,0.24 -1.48,0.24 l -0.32,0.88 -1.2,-0.24 -1,0.24 0,0.24 0.24,0 0,0.68 -2.32,0.2 -0.48,0 0,-0.44 -0.72,0 -0.56,-1.8 -0.76,0 -1,-0.88 -2.52,-0.88 -2.28,-2.24 1.28,-4.04 -0.32,-2.72 c -0.48,0.2 -0.8,0.56 -0.96,1.08 -0.2,0.48 -0.36,1 -0.52,1.44 -0.2,0.44 -0.36,0.88 -0.48,1.32 -0.16,0.44 -0.24,1 -0.24,1.56 l -0.56,0 -0.24,1.36 c 0,0.28 0,0.64 0,1 0,0.4 0.04,0.76 0.12,1.12 0.08,0.36 0.16,0.72 0.24,1 0.08,0.24 0.32,0.56 0.68,0.88 l 1.52,0.88 0.2,0.68 c 0.52,0.16 1.08,0.36 1.6,0.56 0.48,0.24 0.92,0.44 1.36,0.64 0.4,0.24 0.84,0.56 1.28,0.92 0.44,0.4 0.84,0.56 1.36,0.56 l 4.76,1.76 m -28.35999,-2.2 1.8,-0.68 0.51999,-1.32 0.52,0 1,-0.92 2,-1.36 0,-0.4 0.52,0 2,-3.56 0.56,0 0.24,-0.92 3.56,-1.8 0.24,-0.4 1.24,-0.48 0.32,-3.12 2.76,-1.16 8.08,0.28 0,0.64 -0.96,0 3.52,0.92 0.2,0 0,-0.68 -0.44,0 0,-0.68 0.44,0 0,-0.88 -0.72,-0.24 -0.24,-0.92 0,-0.44 0.24,0 0,-0.2 -4.08,-0.68 -7.04,0.24 c -0.36,0 -0.68,0 -0.92,0 -0.28,0 -0.52,-0.04 -0.76,-0.12 -0.28,-0.08 -0.56,-0.16 -0.88,-0.24 -0.36,-0.08 -0.6,-0.2 -0.76,-0.32 -0.84,0.12 -1.64,0.28 -2.28,0.44 -0.68,0.16 -1.4,0.32 -2.16,0.44 -0.72,0.16 -1.52,0.36 -2.24,0.56 -0.8,0.2 -1.56,0.48 -2.2,0.8 l 0,0.44 -0.76,0.24 0.28,3.12 0.48,0 0.24,0.88 1.52,-0.2 0,-0.44 1.8,-0.44 0,-0.28 -0.24,0 0,-0.4 2.04,-0.68 1.76,0 c 0,0.44 0,0.88 0,1.32 0,0.44 -0.12,0.84 -0.36,1.2 -0.28,0.4 -0.6,0.76 -1.04,1.04 -0.4,0.28 -0.64,0.68 -0.64,1.12 l -0.48,0 -0.56,1.12 -2.52,1.36 0,0.44 -6.55999,2.88 0,0.48 -1.52,0.68 0,1.08 0.48,0 0,0.88 0.48,0 0,0.48 1.52,0.88 m 27.39999,-1.36 -0.24,0.24 -0.56,-0.24 0,-0.4 1.08,0.2 -0.28,0.2 m -5.08,-2.64 -0.24,0.2 -0.8,0 0,-0.48 1.04,0.28 m -12.68,-17.24 c 0.52,0 1.08,-0.12 1.6,-0.44 0.48,-0.28 0.96,-0.52 1.48,-0.68 0.48,-0.16 1.04,-0.28 1.64,-0.36 0.56,-0.04 1.16,-0.16 1.68,-0.28 l 3.24,0.2 2,-0.2 0.28,-0.48 -0.76,-3.08 -5.56,-1.2 c -0.68,0 -1.32,0 -1.92,0 -0.56,0 -1.16,0.04 -1.76,0.12 -0.56,0.12 -1.16,0.28 -1.76,0.48 -0.56,0.24 -1.16,0.44 -1.68,0.6 l -0.48,0.84 0,1.12 0.48,0 0.56,1.8 0.48,0 0.48,1.36 0,0.2"
           style="font-size:40px;font-style:normal;font-variant:normal;font-weight:normal;font-stretch:normal;line-height:125%;letter-spacing:0px;word-spacing:0px;fill:#000000;fill-opacity:1;stroke:none;font-family:'青柳隷書SIMO2_O';-inkscape-font-specification:'青柳隷書SIMO2_O'"
           id="path2998"
           inkscape:connector-curvature="0" />
      </g>
    </g>
  </g>
</svg>
