<?xml version="1.0" encoding="UTF-8" standalone="no"?>
<!-- Created with Inkscape (http://www.inkscape.org/) -->

<svg
   xmlns:dc="http://purl.org/dc/elements/1.1/"
   xmlns:cc="http://creativecommons.org/ns#"
   xmlns:rdf="http://www.w3.org/1999/02/22-rdf-syntax-ns#"
   xmlns:svg="http://www.w3.org/2000/svg"
   xmlns="http://www.w3.org/2000/svg"
   xmlns:sodipodi="http://sodipodi.sourceforge.net/DTD/sodipodi-0.dtd"
   xmlns:inkscape="http://www.inkscape.org/namespaces/inkscape"
   width="45.302887"
   height="38.484356"
   id="svg3081"
   version="1.1"
   inkscape:version="0.48.4 r9939"
   sodipodi:docname="ren.svg">
  <defs
     id="defs3083" />
  <sodipodi:namedview
     id="base"
     pagecolor="#ffffff"
     bordercolor="#666666"
     borderopacity="1.0"
     inkscape:pageopacity="0.0"
     inkscape:pageshadow="2"
     inkscape:zoom="3.959798"
     inkscape:cx="35.137347"
     inkscape:cy="-14.072031"
     inkscape:document-units="px"
     inkscape:current-layer="g5086"
     showgrid="false"
     fit-margin-top="0"
     fit-margin-left="0"
     fit-margin-right="0"
     fit-margin-bottom="0"
     inkscape:window-width="958"
     inkscape:window-height="1033"
     inkscape:window-x="960"
     inkscape:window-y="0"
     inkscape:window-maximized="0" />
  <metadata
     id="metadata3086">
    <rdf:RDF>
      <cc:Work
         rdf:about="">
        <dc:format>image/svg+xml</dc:format>
        <dc:type
           rdf:resource="http://purl.org/dc/dcmitype/StillImage" />
        <dc:title></dc:title>
      </cc:Work>
    </rdf:RDF>
  </metadata>
  <g
     inkscape:label="レイヤー 1"
     inkscape:groupmode="layer"
     id="layer1"
     transform="translate(-665,-469.74356)">
    <g
       id="g5086">
      <g
         id="g5511">
        <rect
           style="fill:none;stroke:none"
           id="rect3787"
           width="45.302887"
           height="38.484356"
           x="665"
           y="469.74356" />
        <path
           d="m 705.77144,505.22574 0.8,0 0.32,-0.6 0,-2.56 -0.6,0 0,-0.56 -2.64,-1.04 0,-0.56 -0.56,0 0,-0.48 -0.76,-0.24 0,-0.56 -1.08,0 c 0,0.36 0,0.72 0,1.04 0,0.36 0,0.68 0,0.96 0,0.28 0,0.56 0,0.88 0,0.36 0.16,0.64 0.52,0.76 l 0.8,0.56 0,0.48 3.2,1.92 m -15.48,-1.36 2.08,-0.56 1.4,-1.24 0.8,-2.4 c 0,-0.32 0,-0.68 0,-1.04 0,-0.36 -0.12,-0.72 -0.4,-0.96 -0.24,-0.28 -0.52,-0.56 -0.8,-0.84 -0.28,-0.28 -0.52,-0.48 -0.72,-0.6 l 0,-0.52 4.04,-0.56 0.84,0.28 0.48,-0.28 5.08,0.56 0,0.52 1.08,0.2 0,0.32 0.24,0 c 0.36,-1.04 0.56,-2.2 0.56,-3.48 0,-1.2 0.04,-2.4 0.12,-3.6 0.08,-1.12 0.12,-2.32 0.12,-3.56 0,-1.24 0.36,-2.32 1.08,-3.2 0,-0.36 0,-0.72 0,-1 0,-0.28 -0.08,-0.52 -0.24,-0.76 -0.2,-0.24 -0.4,-0.44 -0.64,-0.64 -0.28,-0.2 -0.44,-0.48 -0.44,-0.88 -0.52,-0.32 -1.04,-0.56 -1.44,-0.76 -0.48,-0.16 -1,-0.32 -1.48,-0.52 -0.52,-0.16 -1.12,-0.28 -1.72,-0.4 -0.64,-0.08 -1.24,-0.12 -1.76,-0.12 l -0.28,-2.12 -1.08,-0.56 0,-0.52 c 0.52,0.16 1.12,0.28 1.76,0.36 0.64,0.12 1.28,0.16 1.88,0.16 0.6,0 1.2,0.08 1.72,0.28 0.52,0.2 1.08,0.44 1.6,0.76 l 1.04,-0.24 0,-1.08 -0.8,-0.76 c -0.36,-0.2 -0.72,-0.36 -1.16,-0.56 -0.44,-0.16 -0.92,-0.28 -1.32,-0.4 -0.44,-0.08 -0.96,-0.12 -1.48,-0.12 -0.56,0 -1.04,-0.12 -1.4,-0.28 -0.84,0 -1.68,0 -2.48,0 -0.84,0 -1.6,0.04 -2.44,0.16 -0.8,0.08 -1.56,0.28 -2.24,0.64 -0.76,0.36 -1.44,0.56 -2.16,0.56 l -0.8,1.04 0,0.8 4.84,-0.8 1.36,0.56 0.24,0 -0.56,1.32 c -0.16,0.2 -0.36,0.4 -0.64,0.68 -0.24,0.24 -0.52,0.48 -0.8,0.64 -0.28,0.2 -0.56,0.36 -0.84,0.52 -0.28,0.2 -0.52,0.28 -0.88,0.28 l -1.64,1.92 c 0.68,1.04 1.04,2.24 1.04,3.64 0,1.44 0,2.88 0,4.32 0,1.44 0,2.88 0,4.28 0,1.4 0.28,2.76 0.84,3.96 l -2.44,4.24 0.28,1.08 0.56,0 0,1.28 m -21.15999,-2.64 c 0.36,0 0.6,-0.04 0.72,-0.24 0.12,-0.16 0.2,-0.32 0.28,-0.52 0.08,-0.16 0.16,-0.32 0.24,-0.52 0.08,-0.2 0.2,-0.36 0.36,-0.52 l 7.23999,-3.72 5.6,0.52 2.16,0 0,-0.52 0.24,0 -0.8,-1.36 -1.84,-0.28 0.24,-2.4 c 0,-0.32 0,-0.64 0,-1.04 0,-0.36 -0.04,-0.72 -0.12,-1 -0.08,-0.24 -0.16,-0.52 -0.24,-0.88 -0.12,-0.36 -0.32,-0.6 -0.68,-0.8 l 0,-0.52 1.04,0.52 1.6,-0.2 2.68,-4.32 -1.32,-2.64 c -0.52,-0.2 -1.04,-0.48 -1.56,-0.84 -0.56,-0.36 -1.12,-0.52 -1.76,-0.52 -0.64,0 -1.28,0 -2.04,0 -0.72,0 -1.32,-0.08 -1.84,-0.28 l -6.48,1.64 -0.47999,1.28 c 0,0.56 0.19999,1.04 0.55999,1.48 0.36,0.48 0.56,1 0.68,1.48 0.08,0.52 0.2,1.08 0.36,1.56 0.16,0.56 0.32,1.12 0.52,1.64 l 0.56,0 -0.24,0.8 0.48,1.28 -0.24,3.76 -6.39999,2.16 -0.24,1.32 c 0,0.36 0,0.72 0,1.08 0,0.36 0,0.72 0,1.04 0,0.36 0.08,0.68 0.28,0.96 0.16,0.28 0.28,0.48 0.44,0.6 m 28.87999,-6.32 -0.24,0.24 -0.24,-0.24 0.24,-0.32 0.24,0 0,0.32 m 4.32,-1.12 c -0.72,-0.36 -1.44,-0.6 -2.16,-0.8 -0.76,-0.16 -1.48,-0.24 -2.28,-0.24 -0.8,0 -1.6,0 -2.4,0 -0.84,0 -1.64,0 -2.56,0 l 0,-2.12 1.08,-0.32 0,-0.52 c 0.52,0 1.08,-0.08 1.6,-0.24 0.56,-0.2 1.12,-0.28 1.64,-0.28 0.48,0 1.04,0 1.6,0 0.48,0 1.04,-0.08 1.56,-0.24 l 2.16,0.24 0,1.96 -0.24,0 0,2.56 m -23.32,-1.28 -0.24,0.24 -0.8,0 0.28,-1.84 -0.84,-1.88 -1.28,-0.28 0,-0.8 4.48,-0.52 0.56,0 -0.24,4.24 -1.92,0.84 m 20.6,-3.48 -0.24,0.24 -0.32,-0.24 0.32,-0.28 0.24,0.28 m 0.56,0 -0.24,0.24 -0.32,-0.24 0.32,-0.28 0.24,0.28 m 2.4,-1.6 -2.64,-0.6 -6.16,0.6 -0.84,0 0.56,-1.6 3.72,-1.08 3.48,0.24 0.8,0 0.28,-0.72 0.8,0.24 0,2.92 m -20.04,-2.68 -4.56,1.08 -2.16,0 -0.52,-2.72 0,-0.48 1.64,-0.56 2.68,0.28 2.12,-0.84 1.6,0.56 0,1.64 -0.56,0 -0.24,1.04 m 20.04,-0.8 -0.24,0.32 -0.84,-0.32 0,-0.84 -0.8,-0.48 c -0.48,0 -1.04,0 -1.6,0 -0.52,0 -1.08,0 -1.6,0 -0.52,0 -1.08,0.04 -1.6,0.12 -0.48,0.12 -0.96,0.2 -1.32,0.36 l -1.92,0 -0.28,-0.48 0.28,-1.36 4.88,-1.84 3.16,0 1.88,3.68 0,0.84 m -29.4,-5.6 c 0.72,-0.16 1.4,-0.4 2.16,-0.64 0.68,-0.28 1.48,-0.4 2.36,-0.4 0.92,0 1.72,-0.04 2.56,-0.16 0.8,-0.08 1.56,-0.2 2.28,-0.4 l 1.04,0.28 2.96,-0.28 0,-1.04 c -0.2,-0.56 -0.52,-0.92 -0.92,-1.12 -0.44,-0.16 -0.92,-0.28 -1.36,-0.36 -0.44,-0.08 -0.96,-0.12 -1.48,-0.12 -0.52,0 -0.96,-0.08 -1.32,-0.28 l -8.28,0.8 -0.79999,1.88 0,1.08 0.47999,0 0.32,0.76"
           style="font-size:40px;font-style:normal;font-variant:normal;font-weight:normal;font-stretch:normal;line-height:125%;letter-spacing:0px;word-spacing:0px;fill:#000000;fill-opacity:1;stroke:none;font-family:'青柳隷書SIMO2_O';-inkscape-font-specification:'青柳隷書SIMO2_O'"
           id="path3024"
           inkscape:connector-curvature="0" />
      </g>
    </g>
  </g>
</svg>
