<?xml version="1.0" encoding="UTF-8" standalone="no"?>
<!-- Created with Inkscape (http://www.inkscape.org/) -->

<svg
   xmlns:dc="http://purl.org/dc/elements/1.1/"
   xmlns:cc="http://creativecommons.org/ns#"
   xmlns:rdf="http://www.w3.org/1999/02/22-rdf-syntax-ns#"
   xmlns:svg="http://www.w3.org/2000/svg"
   xmlns="http://www.w3.org/2000/svg"
   xmlns:sodipodi="http://sodipodi.sourceforge.net/DTD/sodipodi-0.dtd"
   xmlns:inkscape="http://www.inkscape.org/namespaces/inkscape"
   width="45.302887"
   height="38.484356"
   id="svg3081"
   version="1.1"
   inkscape:version="0.48.4 r9939"
   sodipodi:docname="tsu.svg">
  <defs
     id="defs3083" />
  <sodipodi:namedview
     id="base"
     pagecolor="#ffffff"
     bordercolor="#666666"
     borderopacity="1.0"
     inkscape:pageopacity="0.0"
     inkscape:pageshadow="2"
     inkscape:zoom="3.959798"
     inkscape:cx="35.137347"
     inkscape:cy="-14.072031"
     inkscape:document-units="px"
     inkscape:current-layer="g5086"
     showgrid="false"
     fit-margin-top="0"
     fit-margin-left="0"
     fit-margin-right="0"
     fit-margin-bottom="0"
     inkscape:window-width="958"
     inkscape:window-height="1033"
     inkscape:window-x="960"
     inkscape:window-y="0"
     inkscape:window-maximized="0" />
  <metadata
     id="metadata3086">
    <rdf:RDF>
      <cc:Work
         rdf:about="">
        <dc:format>image/svg+xml</dc:format>
        <dc:type
           rdf:resource="http://purl.org/dc/dcmitype/StillImage" />
        <dc:title></dc:title>
      </cc:Work>
    </rdf:RDF>
  </metadata>
  <g
     inkscape:label="レイヤー 1"
     inkscape:groupmode="layer"
     id="layer1"
     transform="translate(-665,-469.74356)">
    <g
       id="g5086">
      <g
         id="g5831">
        <rect
           style="fill:none;stroke:none"
           id="rect3787"
           width="45.302887"
           height="38.484356"
           x="665"
           y="469.74356" />
        <path
           d="m 671.15145,492.64574 3.07999,-1.16 0,-0.4 1.44,-0.6 0.2,-0.4 c 0.52,-0.28 1,-0.48 1.6,-0.68 0.56,-0.2 1.08,-0.28 1.64,-0.28 0.52,0 1.08,0 1.76,0 0.68,0 1.2,-0.12 1.68,-0.4 l 0.2,-0.44 3.12,-0.36 c 1.08,0.16 2.24,0.24 3.44,0.36 1.16,0.12 2.28,0.32 3.32,0.6 1.04,0.28 2.08,0.68 3.08,1.08 1,0.48 2.08,0.84 3.16,1.12 0.68,0 1.24,0 1.8,0 0.56,0 1.12,0 1.8,0 0.64,0 1.24,-0.04 1.88,-0.08 0.64,-0.04 1.08,-0.28 1.44,-0.72 0,-0.4 -0.04,-0.68 -0.12,-0.88 -0.08,-0.2 -0.2,-0.44 -0.4,-0.72 -0.2,-0.28 -0.28,-0.52 -0.32,-0.76 -0.08,-0.28 -0.12,-0.6 -0.12,-1 -1.48,-0.12 -2.96,-0.2 -4.52,-0.2 -1.6,0 -3.04,-0.16 -4.36,-0.48 -1.36,-0.36 -2.76,-0.56 -4.32,-0.6 -1.52,-0.04 -2.96,-0.16 -4.4,-0.32 -1.56,0 -3.08,0 -4.6,0 -1.52,0 -2.96,0.12 -4.36,0.4 -1.48,0.28 -2.8,0.72 -4.04,1.2 -1.24,0.56 -2.59999,0.96 -4.03999,1.24 l -0.68,1.16 1.16,3.16 0.48,0.16"
           style="font-size:40px;font-style:normal;font-variant:normal;font-weight:normal;font-stretch:normal;line-height:125%;letter-spacing:0px;word-spacing:0px;fill:#000000;fill-opacity:1;stroke:none;font-family:'青柳隷書SIMO2_O';-inkscape-font-specification:'青柳隷書SIMO2_O'"
           id="path3016"
           inkscape:connector-curvature="0" />
      </g>
    </g>
  </g>
</svg>
