<?xml version="1.0" encoding="UTF-8" standalone="no"?>
<!-- Created with Inkscape (http://www.inkscape.org/) -->

<svg
   xmlns:dc="http://purl.org/dc/elements/1.1/"
   xmlns:cc="http://creativecommons.org/ns#"
   xmlns:rdf="http://www.w3.org/1999/02/22-rdf-syntax-ns#"
   xmlns:svg="http://www.w3.org/2000/svg"
   xmlns="http://www.w3.org/2000/svg"
   version="1.1"
   width="45.302887"
   height="38.484356"
   id="svg3081">
  <defs
     id="defs3083" />
  <metadata
     id="metadata3086">
    <rdf:RDF>
      <cc:Work
         rdf:about="">
        <dc:format>image/svg+xml</dc:format>
        <dc:type
           rdf:resource="http://purl.org/dc/dcmitype/StillImage" />
        <dc:title></dc:title>
      </cc:Work>
    </rdf:RDF>
  </metadata>
  <g
     transform="translate(-665,-469.74356)"
     id="layer1">
    <g
       id="g5086">
      <g
         id="g5152">
        <rect
           width="45.302887"
           height="38.484356"
           x="665"
           y="469.74356"
           id="rect3787"
           style="fill:none;stroke:none" />
        <path
           d="m 680.59144,505.64574 9.04,-0.76 3,0.44 3.04,-0.44 c -0.16,-0.48 -0.12,-0.84 0.16,-1.12 0.24,-0.24 0.44,-0.48 0.64,-0.84 0.16,-0.36 0.32,-0.64 0.6,-0.92 0.28,-0.24 0.56,-0.48 0.88,-0.8 l -0.24,-2.24 c -0.52,-0.84 -1.2,-1.4 -2.04,-1.68 -0.8,-0.24 -1.68,-0.44 -2.48,-0.6 -0.88,-0.16 -1.76,-0.24 -2.68,-0.24 -0.88,0 -1.88,0 -2.84,0 l 0,-1 2.28,-1.48 c 1.12,0 2.2,0.04 3.24,0.12 0.96,0.08 2,0.2 3.12,0.36 1.08,0.2 2.12,0.4 3.16,0.64 0.96,0.24 2,0.36 2.96,0.36 l 5.08,0 0,-0.48 -1.28,-1.24 c -1.32,-0.2 -2.68,-0.32 -4,-0.48 -1.36,-0.16 -2.72,-0.32 -4.12,-0.52 -1.44,-0.16 -2.88,-0.24 -4.32,-0.24 -1.44,0 -2.88,0 -4.4,0 l -0.76,-0.96 0.24,-1.48 2.8,0.44 0.72,-0.24 0.8,-1.52 c 0,-0.32 0,-0.64 0,-1 0,-0.32 0,-0.68 0,-1.08 0,-0.44 -0.04,-0.8 -0.12,-1.16 -0.08,-0.32 -0.32,-0.52 -0.68,-0.68 l -1.48,0.24 -0.96,-0.24 c -1.04,-0.2 -1.96,-0.16 -2.8,0.08 -0.84,0.24 -1.72,0.4 -2.52,0.48 -0.84,0.12 -1.64,0.28 -2.4,0.52 -0.72,0.28 -1.56,0.56 -2.4,0.88 l 1.28,4.76 1.24,0.44 -0.28,1.04 c -0.96,0.48 -2,0.8 -3.12,0.96 -1.08,0.16 -2.2,0.4 -3.24,0.76 -1.08,0.36 -2.2,0.6 -3.28,0.84 -1.07999,0.28 -2.23999,0.48 -3.39999,0.64 l -1.24,1.48 0,1.76 c 1.32,-0.68 2.64,-1.2 4,-1.64 1.35999,-0.44 2.67999,-0.84 4.03999,-1.24 1.36,-0.4 2.68,-0.76 4.04,-1.12 1.32,-0.32 2.72,-0.56 4.24,-0.72 l 1.76,0 1,1.24 -0.24,0.76 c -0.52,0.12 -1.08,0.24 -1.72,0.32 -0.68,0.08 -1.36,0.24 -1.92,0.48 -0.6,0.28 -1.24,0.4 -1.88,0.4 -0.68,0 -1.24,0.28 -1.76,0.76 l -0.52,1.04 1.76,5.92 m 12.84,-3.48 c -0.68,0.16 -1.36,0.24 -2,0.24 -0.68,0 -1.4,0 -2.16,0 -0.76,0 -1.44,0.04 -2.12,0.12 -0.64,0.12 -1.36,0.24 -2.04,0.4 l -1.72,-0.52 -0.76,0.28 -0.56,0 c 0,-0.2 0,-0.4 0,-0.68 0,-0.24 0,-0.4 0,-0.56 0,-0.16 -0.04,-0.32 -0.12,-0.52 -0.08,-0.16 -0.2,-0.32 -0.32,-0.48 l 0,-0.72 2.48,-0.76 c 0.88,0 1.76,0 2.64,0 0.92,0 1.8,0 2.68,0 0.8,0 1.72,-0.04 2.6,-0.16 0.92,-0.08 1.72,0.12 2.4,0.64 l -1,2.72 m -6.56,-9.92 -0.72,0.48 -2.04,-0.24 -0.52,-0.96 0.52,-1.28 3,0 -0.24,2 m 4.04,-4.24 c -0.52,0.16 -1,0.24 -1.6,0.24 -0.6,0 -1.2,0.04 -1.8,0.12 -0.6,0.08 -1.16,0.12 -1.76,0.12 -0.6,0 -1.12,0.16 -1.64,0.48 l -2.28,0 0.24,-0.72 4.56,-1.48 c 0.32,0 0.72,0 1.16,0 0.44,0 0.8,0 1.24,0 0.4,0 0.84,0 1.24,0 0.44,0 0.72,0.12 0.88,0.48 l -0.24,0.76 m -11.08,-2.76 c 0.68,-0.28 1.4,-0.52 2.04,-0.72 0.68,-0.16 1.36,-0.36 2,-0.64 0.68,-0.24 1.36,-0.4 2.12,-0.44 0.76,-0.08 1.48,-0.2 2.16,-0.4 l 3.28,0.72 0.72,0 0.24,-0.72 -0.52,-1.24 -5.72,-1.04 0.48,-1.48 4.8,0.28 2,0 0.24,-1.76 0,-0.48 -6.56,-1 c -0.16,-0.32 -0.24,-0.68 -0.24,-1.12 0,-0.4 -0.04,-0.76 -0.12,-1.12 -0.08,-0.32 -0.16,-0.64 -0.24,-1 -0.08,-0.36 -0.28,-0.6 -0.64,-0.76 l -0.48,0 c -0.2,0.36 -0.36,0.72 -0.52,1.04 -0.16,0.32 -0.36,0.6 -0.6,0.84 -0.28,0.28 -0.4,0.6 -0.4,1 0,0.44 -0.08,0.8 -0.28,1.12 -0.48,0.2 -1,0.32 -1.6,0.4 -0.56,0.04 -1.12,0.12 -1.64,0.2 -0.48,0.08 -1,0.28 -1.52,0.64 -0.48,0.36 -0.92,0.76 -1.28,1.24 l 0.8,2.28 2.76,-1.28 0.96,0.24 0,1.28 -1.72,0.24 -1,1.48 0.48,2.2"
           id="path3044"
           style="font-size:40px;font-style:normal;font-variant:normal;font-weight:normal;font-stretch:normal;line-height:125%;letter-spacing:0px;word-spacing:0px;fill:#000000;fill-opacity:1;stroke:none;font-family:'青柳隷書SIMO2_O';-inkscape-font-specification:'青柳隷書SIMO2_O'" />
      </g>
    </g>
  </g>
</svg>
