<?xml version="1.0" encoding="UTF-8" standalone="no"?>
<!-- Created with Inkscape (http://www.inkscape.org/) -->

<svg
   xmlns:dc="http://purl.org/dc/elements/1.1/"
   xmlns:cc="http://creativecommons.org/ns#"
   xmlns:rdf="http://www.w3.org/1999/02/22-rdf-syntax-ns#"
   xmlns:svg="http://www.w3.org/2000/svg"
   xmlns="http://www.w3.org/2000/svg"
   version="1.1"
   width="45.302887"
   height="38.484356"
   id="svg3081">
  <defs
     id="defs3083" />
  <metadata
     id="metadata3086">
    <rdf:RDF>
      <cc:Work
         rdf:about="">
        <dc:format>image/svg+xml</dc:format>
        <dc:type
           rdf:resource="http://purl.org/dc/dcmitype/StillImage" />
        <dc:title></dc:title>
      </cc:Work>
    </rdf:RDF>
  </metadata>
  <g
     transform="translate(-665,-469.74356)"
     id="layer1">
    <g
       id="g5086">
      <g
         id="g5090">
        <path
           d="m 680.01143,504.34575 1.04,-0.52 0.28,-0.88 -0.28,-2.2 0,-9.56 2.8,1.16 1.56,-0.72 0.24,0 0,-0.72 -4.32,-3.8 0.76,-3.88 2.04,-0.52 -0.28,-1.64 -1.56,-0.52 c 0,-0.6 0,-1.2 0,-1.76 0,-0.56 0,-1.12 0,-1.68 0,-0.56 -0.04,-1.12 -0.08,-1.68 -0.08,-0.6 -0.2,-1.12 -0.36,-1.6 l -1.08,-0.2 -0.76,0.2 -0.8,2.2 0.28,1.64 0,3.4 -6.96,1.92 -1.03999,2.84 0.52,1.28 6.19999,-3.16 0.52,0 -0.76,2.4 c -0.52,0.96 -1.2,1.84 -2.08,2.64 -0.84,0.84 -1.72,1.56 -2.56,2.28 -0.88,0.76 -1.79999,1.32 -2.83999,1.8 -1.04,0.52 -1.84,1.2 -2.32,2.2 l 0.48,2.16 0.52,0.2 1.04,0 c 0.84,-0.32 1.72,-0.76 2.55999,-1.44 0.84,-0.64 1.68,-1.24 2.48,-1.92 0.72,-0.6 1.44,-1.32 2.04,-2.16 0.6,-0.8 1.2,-1.6 1.68,-2.4 l 0.52,0 0.24,1.72 -0.52,9.56 0.8,3.08 0,0.28 m 21.2,0 1.76,-0.28 0.28,-0.64 0,-1.92 -4.64,-1.92 0,-0.52 -1.04,-0.68 0.28,-0.76 2.32,0.24 1.76,-0.24 0.8,-9.08 -0.56,-3.12 c -0.32,0 -0.68,-0.12 -1.12,-0.4 -0.44,-0.24 -0.76,-0.44 -1.12,-0.6 -0.36,-0.16 -0.76,-0.24 -1.2,-0.24 -0.4,0 -0.8,-0.24 -1.16,-0.72 l -8,1.48 -0.28,0.48 0.8,3.8 c 0,0.68 -0.04,1.24 -0.12,1.8 -0.12,0.56 -0.16,1.08 -0.16,1.68 0,0.6 -0.08,1.12 -0.24,1.68 -0.2,0.6 -0.36,1.08 -0.56,1.56 l 0,0.76 1.08,0.24 0,0.68 2.28,0.76 0,0.68 c -0.36,0.36 -0.6,0.68 -0.84,1 -0.28,0.32 -0.64,0.52 -1.08,0.68 -0.4,0.16 -0.76,0.4 -1.04,0.72 -0.28,0.36 -0.48,0.64 -0.64,1 l 0,0.72 c 0.52,0 1.04,0 1.48,0 0.4,0 0.76,-0.12 1.12,-0.36 0.36,-0.24 0.68,-0.52 1.04,-0.84 0.36,-0.32 0.68,-0.56 1.04,-0.76 0,-0.32 0.12,-0.6 0.36,-0.8 0.28,-0.24 0.44,-0.48 0.56,-0.72 0.08,-0.24 0.12,-0.52 0.12,-0.88 0,-0.28 0,-0.6 0,-0.96 l 2.32,0 0.76,4.84 3.64,1.64 m -1.84,-9.08 -0.28,0.2 -0.28,-0.2 -0.72,0.2 -5.72,-0.2 -0.48,-0.96 0.2,-0.72 1.08,-0.24 0,-0.28 1.32,-0.48 3.08,0.24 0.76,-0.24 1.28,0.24 -0.24,1.48 0,0.96 m 0.24,-4.08 -0.24,0.24 -6.2,-0.24 0,-1.24 c 0.48,0 1,-0.12 1.44,-0.36 0.44,-0.24 0.84,-0.4 1.28,-0.52 0.44,-0.08 0.96,-0.12 1.52,-0.12 0.6,0 1.08,-0.08 1.4,-0.2 l 0.8,0 0.28,0.96 -0.28,1.48 m 0,-3.4 -1,-0.24 -3.88,0.24 -3.32,-0.68 0,-0.76 2.28,-0.52 c 0.52,0 1.08,0 1.6,0 0.48,0 1,0 1.52,0 0.48,0 0.96,0.04 1.4,0.12 0.4,0.12 0.88,0.24 1.4,0.4 l 0,1.44 m -13.68,-3.84 c 0.88,-0.16 1.64,-0.44 2.36,-0.84 0.64,-0.4 1.4,-0.72 2.16,-1 0.8,-0.2 1.6,-0.36 2.48,-0.44 0.84,-0.08 1.72,-0.2 2.52,-0.36 l 7.52,0.76 4.16,-0.28 0,-0.72 c -0.88,-0.36 -1.84,-0.64 -2.84,-0.84 -1.04,-0.24 -2.04,-0.44 -2.96,-0.6 -1,-0.16 -2,-0.24 -3.12,-0.24 -1.16,0 -2.2,0 -3.2,0 l 0.24,-0.72 c 0,-0.16 0,-0.36 0,-0.64 0,-0.24 -0.04,-0.4 -0.12,-0.48 -0.08,-0.08 -0.2,-0.2 -0.36,-0.36 -0.2,-0.12 -0.36,-0.28 -0.56,-0.44 l 0,-0.72 3.08,0.24 1.32,-0.24 0.48,-0.96 0,-0.52 -2.28,-0.72 -6.24,0.24 -1,1.44 0,1.68 2.08,-0.44 c 0.16,0 0.28,0 0.48,0 0.16,0 0.32,0 0.52,0 0.2,0 0.28,0.12 0.28,0.36 0,0.2 0.08,0.32 0.24,0.32 l 0,1.48 c -0.52,0.16 -1.04,0.36 -1.52,0.6 -0.52,0.24 -1.08,0.4 -1.56,0.48 -0.52,0.08 -1.12,0.12 -1.68,0.12 -0.6,0 -1.2,0.08 -1.68,0.24 l -0.8,1.72 0,1.88"
           id="path3048"
           style="font-size:40px;font-style:normal;font-variant:normal;font-weight:normal;font-stretch:normal;line-height:125%;letter-spacing:0px;word-spacing:0px;fill:#000000;fill-opacity:1;stroke:none;font-family:'青柳隷書SIMO2_O';-inkscape-font-specification:'青柳隷書SIMO2_O'" />
        <rect
           width="45.302887"
           height="38.484356"
           x="665"
           y="469.74356"
           id="rect3787"
           style="fill:none;stroke:none" />
      </g>
    </g>
  </g>
</svg>
