<?xml version="1.0" encoding="UTF-8" standalone="no"?>
<!-- Created with Inkscape (http://www.inkscape.org/) -->

<svg
   xmlns:dc="http://purl.org/dc/elements/1.1/"
   xmlns:cc="http://creativecommons.org/ns#"
   xmlns:rdf="http://www.w3.org/1999/02/22-rdf-syntax-ns#"
   xmlns:svg="http://www.w3.org/2000/svg"
   xmlns="http://www.w3.org/2000/svg"
   xmlns:sodipodi="http://sodipodi.sourceforge.net/DTD/sodipodi-0.dtd"
   xmlns:inkscape="http://www.inkscape.org/namespaces/inkscape"
   width="45.302887"
   height="38.484356"
   id="svg3081"
   version="1.1"
   inkscape:version="0.48.4 r9939"
   sodipodi:docname="shi.svg">
  <defs
     id="defs3083" />
  <sodipodi:namedview
     id="base"
     pagecolor="#ffffff"
     bordercolor="#666666"
     borderopacity="1.0"
     inkscape:pageopacity="0.0"
     inkscape:pageshadow="2"
     inkscape:zoom="3.959798"
     inkscape:cx="35.137347"
     inkscape:cy="-14.072031"
     inkscape:document-units="px"
     inkscape:current-layer="g5086"
     showgrid="false"
     fit-margin-top="0"
     fit-margin-left="0"
     fit-margin-right="0"
     fit-margin-bottom="0"
     inkscape:window-width="958"
     inkscape:window-height="1033"
     inkscape:window-x="960"
     inkscape:window-y="0"
     inkscape:window-maximized="0" />
  <metadata
     id="metadata3086">
    <rdf:RDF>
      <cc:Work
         rdf:about="">
        <dc:format>image/svg+xml</dc:format>
        <dc:type
           rdf:resource="http://purl.org/dc/dcmitype/StillImage" />
        <dc:title></dc:title>
      </cc:Work>
    </rdf:RDF>
  </metadata>
  <g
     inkscape:label="レイヤー 1"
     inkscape:groupmode="layer"
     id="layer1"
     transform="translate(-665,-469.74356)">
    <g
       id="g5086">
      <g
         id="g6060">
        <rect
           style="fill:none;stroke:none"
           id="rect3787"
           width="45.302887"
           height="38.484356"
           x="665"
           y="469.74356" />
        <path
           d="m 695.67144,504.91074 c 0.36,0 0.72,0.04 1.16,0.16 0.44,0.08 0.8,0 1.12,-0.24 0.36,-0.28 0.68,-0.4 1.04,-0.4 0.36,0 0.64,0 1,0 l 0,-0.52 5.36,-0.44 0.76,-2.6 -0.24,-4.04 0.24,-1.24 c 0,-0.16 0,-0.28 0,-0.44 0,-0.16 0,-0.32 0,-0.48 0,-0.16 0,-0.32 -0.08,-0.52 -0.12,-0.16 -0.24,-0.24 -0.4,-0.24 l 0,-0.44 0.24,0 0,-1.48 -0.24,0 0,-0.44 0.24,0 -0.52,-2.4 c 0,-0.96 0,-1.96 0,-3 0,-1.04 0,-2.08 0,-3.12 0,-1.04 0.12,-1.96 0.4,-2.84 0.28,-0.92 0.56,-1.8 0.92,-2.76 0,-0.36 0,-0.6 0,-0.84 0,-0.24 0,-0.48 0,-0.76 0,-0.24 -0.08,-0.44 -0.28,-0.56 -0.2,-0.16 -0.32,-0.32 -0.52,-0.48 l -1.28,-0.72 0,-0.72 -0.2,0 0,-0.48 -1.36,0.24 0,0.52 -1.8,0.96 0,0.44 -0.96,0.44 c 0,0.52 0.04,0.92 0.12,1.24 0.08,0.28 0.2,0.6 0.4,0.92 0.16,0.36 0.4,0.68 0.76,1 0.36,0.32 0.52,0.64 0.52,0.96 l 0.52,0 c 0.16,0.76 0.28,1.56 0.36,2.36 0.04,0.8 0.08,1.64 0.08,2.52 0,0.88 0,1.72 0,2.52 0,0.8 0.2,1.6 0.56,2.4 l 0,0.92 -0.56,0 0.28,2.16 -0.48,6.96 -2.56,0.96 -0.28,0.72 -1.24,0.48 -0.84,0 -0.16,-0.96 -1.36,0.24 -0.24,0.72 -0.48,0 -0.24,0.68 -0.52,0 -0.28,0.76 -0.24,0 0,0.68 0.52,0 0,0.48 0.76,0.48 0,0.24 m -25.27999,-3.8 c 0.32,0 0.68,0 1,0 0.36,0 0.6,-0.08 0.76,-0.24 0.16,-0.16 0.43999,-0.28 0.75999,-0.36 0.36,-0.08 0.6,-0.2 0.8,-0.36 l 3.8,-4.32 0.48,0 0.56,-1.2 0.52,0 c 0.16,-0.48 0.36,-0.96 0.72,-1.44 0.36,-0.48 0.68,-0.96 1.04,-1.4 0.32,-0.48 0.72,-0.92 1.16,-1.32 0.44,-0.36 0.88,-0.72 1.4,-1.08 0.36,-0.32 0.64,-0.6 0.92,-0.84 0.2,-0.24 0.44,-0.52 0.72,-0.84 0.28,-0.32 0.4,-0.68 0.4,-1.04 0,-0.4 0,-0.76 0,-1.12 l 0.28,0 -0.56,-1.2 -2.32,0.96 -1.24,1.48 -1.28,0 0,-3.64 1,-0.2 1.52,0.2 c 0.88,0.2 1.64,0.12 2.32,-0.24 0.68,-0.32 1.4,-0.48 2.2,-0.48 0.76,0 1.56,0 2.28,0 0.76,0 1.48,-0.08 2.16,-0.2 l 0.52,-0.96 0,-0.76 -5.88,-0.68 -0.28,-2.88 c -0.08,-0.16 -0.24,-0.36 -0.44,-0.6 -0.2,-0.24 -0.32,-0.44 -0.4,-0.64 -0.12,-0.16 -0.28,-0.28 -0.52,-0.36 -0.28,-0.04 -0.44,-0.12 -0.64,-0.32 l -2.84,0.44 -1,4.84 c -0.68,0 -1.36,0.08 -2.04,0.32 -0.68,0.24 -1.36,0.48 -2.04,0.72 -0.64,0.28 -1.36,0.44 -2,0.52 -0.72,0.08 -1.48,0.12 -2.31999,0.12 l -2.52,1.68 -0.76,1.88 0.24,1.68 c 0.36,0.16 0.64,0.16 1,-0.04 0.36,-0.16 0.68,-0.32 1.04,-0.56 0.32,-0.24 0.6,-0.48 0.88,-0.72 0.28,-0.24 0.56,-0.36 0.87999,-0.36 l 0,-0.44 1.76,-0.28 0,-0.48 3.32,-0.92 1.04,0 0,1.4 -2.32,1.68 -1.24,2.64 0.48,2.16 1.04,0 0,-0.52 4.12,-1.88 0.44,0 -1.24,3.08 -0.52,0 -1.8,1.92 -2.52,2.2 -0.28,0.48 -3.55999,1.4 -1,1.68 -0.8,0.28 0.8,0.68 0,0.48 m 17.07999,-0.72 0.48,0 0.28,-0.44 -0.28,-2.92 -3.32,-2.4 1.36,-1.64 0.44,-1.2 0.76,0 1.04,-1.2 0,-1.44 -0.76,-0.48 -1.76,0.24 -0.28,1.4 -0.52,0 0,0.48 -1.8,1.96 -1.24,1.4 -1.56,1.44 -1.52,2.16 0.52,1.2 3.8,-3.12 0.56,0 1.76,3.12 0.72,0.72 1.32,0.72 m 7.68,-9.08 0.76,0 0.2,-0.72 0.52,0 0.84,-2.64 -0.28,-1.88 -1.08,-0.28 0,-0.48 -0.96,-0.72 -2.36,0.72 -0.16,0.48 1.2,4.8 1.32,0.72"
           style="font-size:40px;font-style:normal;font-variant:normal;font-weight:normal;font-stretch:normal;line-height:125%;letter-spacing:0px;word-spacing:0px;fill:#000000;fill-opacity:1;stroke:none;font-family:'青柳隷書SIMO2_O';-inkscape-font-specification:'青柳隷書SIMO2_O'"
           id="path3004"
           inkscape:connector-curvature="0" />
      </g>
    </g>
  </g>
</svg>
