<?xml version="1.0" encoding="UTF-8" standalone="no"?>
<!-- Created with Inkscape (http://www.inkscape.org/) -->

<svg
   xmlns:dc="http://purl.org/dc/elements/1.1/"
   xmlns:cc="http://creativecommons.org/ns#"
   xmlns:rdf="http://www.w3.org/1999/02/22-rdf-syntax-ns#"
   xmlns:svg="http://www.w3.org/2000/svg"
   xmlns="http://www.w3.org/2000/svg"
   xmlns:sodipodi="http://sodipodi.sourceforge.net/DTD/sodipodi-0.dtd"
   xmlns:inkscape="http://www.inkscape.org/namespaces/inkscape"
   width="45.302887"
   height="38.484356"
   id="svg3081"
   version="1.1"
   inkscape:version="0.48.4 r9939"
   sodipodi:docname="ren.svg">
  <defs
     id="defs3083" />
  <sodipodi:namedview
     id="base"
     pagecolor="#ffffff"
     bordercolor="#666666"
     borderopacity="1.0"
     inkscape:pageopacity="0.0"
     inkscape:pageshadow="2"
     inkscape:zoom="3.959798"
     inkscape:cx="35.137347"
     inkscape:cy="-14.072031"
     inkscape:document-units="px"
     inkscape:current-layer="g5086"
     showgrid="false"
     fit-margin-top="0"
     fit-margin-left="0"
     fit-margin-right="0"
     fit-margin-bottom="0"
     inkscape:window-width="958"
     inkscape:window-height="1033"
     inkscape:window-x="960"
     inkscape:window-y="0"
     inkscape:window-maximized="0" />
  <metadata
     id="metadata3086">
    <rdf:RDF>
      <cc:Work
         rdf:about="">
        <dc:format>image/svg+xml</dc:format>
        <dc:type
           rdf:resource="http://purl.org/dc/dcmitype/StillImage" />
        <dc:title></dc:title>
      </cc:Work>
    </rdf:RDF>
  </metadata>
  <g
     inkscape:label="レイヤー 1"
     inkscape:groupmode="layer"
     id="layer1"
     transform="translate(-665,-469.74356)">
    <g
       id="g5086">
      <g
         id="g5487">
        <rect
           style="fill:none;stroke:none"
           id="rect3787"
           width="45.302887"
           height="38.484356"
           x="665"
           y="469.74356" />
        <path
           d="m 697.83144,506.56574 c 0.56,0 1.04,-0.04 1.52,-0.12 0.48,-0.12 0.92,-0.24 1.4,-0.4 0.44,-0.16 0.88,-0.36 1.24,-0.72 0.36,-0.36 0.84,-0.52 1.4,-0.52 l 1.92,-1.44 2.28,-3.72 0,-0.44 -7,2.72 c -1.28,0 -2.6,-0.08 -3.88,-0.28 -1.32,-0.16 -2.56,-0.36 -3.76,-0.64 -1.2,-0.2 -2.36,-0.52 -3.48,-0.96 -1.12,-0.4 -2.24,-0.76 -3.36,-1.08 l 0,-0.76 0.56,0 0.28,-4.4 1.12,-0.28 c 0.52,0 1.04,0 1.52,0 0.44,0 0.92,0 1.52,0 0.6,0 1.08,0.08 1.56,0.24 0.44,0.2 0.84,0.36 1.24,0.52 l 1.64,0 0,-1.24 c -0.52,-0.32 -1.16,-0.52 -1.92,-0.72 -0.72,-0.16 -1.52,-0.28 -2.24,-0.4 -0.76,-0.08 -1.48,-0.12 -2.24,-0.12 -0.72,0 -1.44,0 -2.2,0 l 0,-0.96 3.6,0 0.28,-0.76 2.52,0 1.92,-3.16 -0.2,-2 c -0.6,-0.32 -1.2,-0.6 -1.72,-0.84 -0.56,-0.24 -1.24,-0.36 -1.96,-0.36 -0.76,0 -1.44,-0.04 -2.12,-0.12 -0.68,-0.08 -1.32,-0.12 -2.08,-0.12 l 0,-1.48 c 0.6,0 1.12,0.04 1.56,0.12 0.44,0.08 0.96,0.12 1.52,0.12 0.6,0 1.12,0.08 1.56,0.24 0.44,0.16 0.88,0.4 1.28,0.72 l 0.8,0 -0.28,-1.72 c -0.56,-0.32 -1.08,-0.56 -1.56,-0.72 -0.44,-0.16 -0.96,-0.28 -1.52,-0.36 -0.52,-0.08 -1.12,-0.16 -1.8,-0.24 -0.64,-0.08 -1.24,-0.12 -1.8,-0.12 l -0.28,-1 0,-0.48 0.52,0 1.12,-2.96 6.44,1 2.24,-0.28 -0.28,-0.96 c -0.56,-0.2 -1.16,-0.4 -1.8,-0.68 -0.68,-0.24 -1.28,-0.44 -1.84,-0.56 -0.6,-0.16 -1.24,-0.24 -1.96,-0.24 -0.76,0 -1.36,-0.08 -1.92,-0.24 l -0.6,-1.2 -1.64,-1.04 -1.72,0.52 0.28,1.24 0,0.48 -6.36,0.24 -1.72,-0.72 -2.24,0 -0.24,1.44 -2.24,0.28 -1.95999,1.44 0,1 0.56,0.24 3.63999,-0.76 0.84,0 1.08,2.24 1.16,-0.24 0.52,-2 c 0.2,-0.12 0.36,-0.2 0.56,-0.2 0.2,0 0.44,0 0.72,0 0.28,0 0.36,-0.08 0.36,-0.28 0,-0.2 0.12,-0.36 0.32,-0.48 l 1.12,-0.48 3.4,0 -0.6,3.2 -0.88,0.24 -0.24,1.24 -4.16,0.72 -1.4,1.48 0.52,0.96 3.64,-0.96 1.96,0 -0.32,0.68 -2.44,0.8 -0.6,1.2 -0.8,-0.24 -1.16,0.24 1.16,6.68 0.8,0.2 0,0.76 -0.52,0 -1.16,1.48 0,0.72 3.08,-0.48 2.52,0 -0.28,1.24 0.28,2.2 0,0.48 -8.12,-1.72 0,-0.48 1.12,-0.48 c 0,-0.32 0,-0.6 0,-0.88 0,-0.24 -0.08,-0.44 -0.28,-0.72 -0.2,-0.28 -0.28,-0.56 -0.28,-0.88 0,-0.32 -0.16,-0.48 -0.56,-0.48 l 0.32,-0.76 c 0,-0.32 0,-0.6 0,-0.88 0,-0.2 -0.04,-0.44 -0.16,-0.68 -0.12,-0.24 -0.28,-0.44 -0.56,-0.64 -0.28,-0.2 -0.44,-0.4 -0.44,-0.72 l -1.12,0 1.96,-1.28 0.88,-1.2 -0.32,-0.72 -1.92,-1.24 1.68,-1.96 0,-1.28 -1.44,-0.92 -1.08,0 0,0.48 -1.08,1 0,0.48 -0.6,0 -1.67999,1.72 0,0.48 1.12,0.48 1.63999,-0.24 0.6,0 0,1 -3.63999,2.68 0.6,1.72 2.75999,-1.2 0.52,0 -0.24,1.2 -5.59999,3.72 0,0.24 0.6,0 0.24,0.72 c 0.6,0 1.04,0 1.4,0 0.36,0 0.8,-0.08 1.24,-0.24 0.47999,-0.16 0.91999,-0.32 1.31999,-0.48 0.32,-0.16 0.68,-0.32 1.04,-0.52 l 0.6,-0.76 0.84,0 0,0.56 -0.6,0 0,0.72 -2.76,1.24 0,0.48 -2.23999,0 -2.48,2.44 0,1.24 4.16,-0.48 2.23999,0.24 1.08,-0.24 3.08,0.24 0,0.24 0.88,0 0.24,0.48 0.6,-0.28 0.52,0 3.36,1.04 0,0.2 0.56,0 0,0.28 1.08,0.24 0,0.24 2.56,0.52 0,0.44 1.96,1 1.68,0.48 0,0.48 0.8,0.76 c 0.56,0 1,0.08 1.4,0.28 0.36,0.16 0.76,0.28 1.12,0.44 0.32,0.16 0.8,0.24 1.4,0.24 0.52,0 1,0.08 1.4,0.28 m -14.52,-14.48 -1.4,0.48 -1.12,0 0.56,-0.76 0,-0.48 2.52,-0.48 0.56,0 0,0.96 -1.12,0.28 m 1.12,-2.76 -1.68,0.56 -1.12,0 0,-1.24 1.12,-0.28 1.68,0 0,0.96 m 5.6,-0.16 -0.28,0.16 -2.8,-0.16 0.52,-1.28 3.08,0.24 -0.52,1.04 m 1.68,-2.24 -0.32,0.24 -4.44,-0.52 0,-1.2 4.76,0.44 0,1.04 m -7.28,0 -1.36,0.24 -1.72,0 0.28,-0.76 1.44,-0.72 1.36,0 0,1.24"
           style="font-size:40px;font-style:normal;font-variant:normal;font-weight:normal;font-stretch:normal;line-height:125%;letter-spacing:0px;word-spacing:0px;fill:#000000;fill-opacity:1;stroke:none;font-family:'青柳隷書SIMO2_O';-inkscape-font-specification:'青柳隷書SIMO2_O'"
           id="path3028"
           inkscape:connector-curvature="0" />
      </g>
    </g>
  </g>
</svg>
