<?xml version="1.0" encoding="UTF-8" standalone="no"?>
<!-- Created with Inkscape (http://www.inkscape.org/) -->

<svg
   xmlns:dc="http://purl.org/dc/elements/1.1/"
   xmlns:cc="http://creativecommons.org/ns#"
   xmlns:rdf="http://www.w3.org/1999/02/22-rdf-syntax-ns#"
   xmlns:svg="http://www.w3.org/2000/svg"
   xmlns="http://www.w3.org/2000/svg"
   xmlns:sodipodi="http://sodipodi.sourceforge.net/DTD/sodipodi-0.dtd"
   xmlns:inkscape="http://www.inkscape.org/namespaces/inkscape"
   width="45.302887"
   height="38.484356"
   id="svg3081"
   version="1.1"
   inkscape:version="0.48.4 r9939"
   sodipodi:docname="head.svg">
  <defs
     id="defs3083" />
  <sodipodi:namedview
     id="base"
     pagecolor="#ffffff"
     bordercolor="#666666"
     borderopacity="1.0"
     inkscape:pageopacity="0.0"
     inkscape:pageshadow="2"
     inkscape:zoom="3.959798"
     inkscape:cx="35.137347"
     inkscape:cy="-14.072031"
     inkscape:document-units="px"
     inkscape:current-layer="g5086"
     showgrid="false"
     fit-margin-top="0"
     fit-margin-left="0"
     fit-margin-right="0"
     fit-margin-bottom="0"
     inkscape:window-width="958"
     inkscape:window-height="1033"
     inkscape:window-x="960"
     inkscape:window-y="0"
     inkscape:window-maximized="0" />
  <metadata
     id="metadata3086">
    <rdf:RDF>
      <cc:Work
         rdf:about="">
        <dc:format>image/svg+xml</dc:format>
        <dc:type
           rdf:resource="http://purl.org/dc/dcmitype/StillImage" />
        <dc:title></dc:title>
      </cc:Work>
    </rdf:RDF>
  </metadata>
  <g
     inkscape:label="レイヤー 1"
     inkscape:groupmode="layer"
     id="layer1"
     transform="translate(-665,-469.74356)">
    <g
       id="g5086">
      <g
         id="g5583">
        <rect
           style="fill:none;stroke:none"
           id="rect3787"
           width="45.302887"
           height="38.484356"
           x="665"
           y="469.74356" />
        <path
           d="m 695.99144,504.94574 c 0.36,0 0.8,-0.04 1.2,-0.12 0.44,-0.12 0.84,-0.16 1.2,-0.16 0.32,0 0.72,0 1.16,0 0.44,0 0.68,-0.12 0.88,-0.48 l 0.76,0.24 0.8,-0.72 0.8,-0.24 0,-0.24 1.56,-0.76 -1.28,-5.16 -0.56,1.2 -0.76,0.52 -0.56,0.52 c -0.68,0.28 -1.32,0.56 -1.92,0.84 -0.64,0.28 -1.28,0.48 -1.96,0.64 -0.68,0.16 -1.44,0.24 -2.2,0.32 -0.84,0.08 -1.6,0.2 -2.28,0.4 l -0.24,-0.28 -0.28,0.28 c -0.36,-0.2 -0.8,-0.28 -1.4,-0.28 -0.64,0 -1.2,-0.04 -1.72,-0.12 -0.52,-0.08 -1,-0.16 -1.44,-0.32 -0.44,-0.16 -0.92,-0.24 -1.4,-0.24 l -1.6,-1.48 0.28,-4.24 1.8,0.52 0.8,0 0,-0.52 c 0.52,0 1.04,0 1.56,0 0.52,0 1.04,-0.04 1.56,-0.16 0.52,-0.08 1.04,-0.2 1.44,-0.36 0.44,-0.16 0.84,-0.4 1.2,-0.72 l 0.76,-1.2 -0.28,-1.28 -0.76,-0.72 -0.8,0 0,0.52 c -0.48,0.12 -1.04,0.28 -1.56,0.44 -0.52,0.16 -1.08,0.28 -1.68,0.36 -0.6,0.12 -1.2,0.24 -1.72,0.4 -0.52,0.2 -1.16,0.28 -1.84,0.28 l 0,0.24 -0.48,0 -0.56,-1.28 -0.8,0 -1.04,3.76 c 0,0.68 0,1.24 0,1.84 0,0.6 0,1.16 0,1.84 0,0.64 0.08,1.2 0.28,1.72 0.2,0.48 0.44,1 0.76,1.52 0.92,0.48 1.84,0.72 2.92,0.8 1.04,0.12 2,0.36 3,0.76 0.92,0.4 2,0.64 3.12,0.72 1.12,0.08 2.24,0.2 3.28,0.4 m -25.35999,-4.44 3.35999,-2.2 0.84,-0.76 0,-0.52 0.76,0 0.8,-0.96 0.76,-0.24 0,-0.76 0.8,0 0,-0.28 0.52,-0.68 1.8,-0.8 0,-0.44 4.76,-4 1.04,-1 0.28,-0.68 0.48,0 0,-0.52 0.52,-0.48 c 0.36,0 0.72,0 1.08,0 0.32,0 0.72,0 1.16,0 0.44,0 0.8,0 1.16,0.08 0.36,0.08 0.6,0.28 0.8,0.64 l 0.76,-0.24 1.84,0.24 0.28,0.52 0.56,-0.24 0.44,0 0,0.24 6.32,1.96 2.88,0 0,-0.52 2.6,-0.48 0.28,-0.72 0,-0.48 c -1.44,-0.36 -2.88,-0.64 -4.32,-0.92 -1.48,-0.2 -2.96,-0.52 -4.32,-0.96 -1.4,-0.4 -2.84,-0.72 -4.32,-0.96 -1.48,-0.28 -3,-0.4 -4.56,-0.4 l 0,-0.52 c 0.32,-0.12 0.68,-0.24 1.04,-0.36 0.36,-0.08 0.64,-0.2 0.88,-0.48 0.28,-0.28 0.6,-0.44 0.96,-0.52 0.36,-0.04 0.64,-0.08 1,-0.08 l 0.28,-1 0.28,0 0.28,-1 -0.84,-0.72 0,-0.52 -5.44,-1.2 -0.8,-4.24 -0.56,-0.28 -2.6,0.8 -0.24,0.48 0.52,1.76 0,2.16 -4.48,0.8 -1.56,1.96 0.28,1 c 0.52,0.12 0.92,0.12 1.2,-0.04 0.24,-0.16 0.56,-0.32 0.92,-0.52 0.36,-0.16 0.68,-0.28 1,-0.48 0.36,-0.16 0.72,-0.32 1.08,-0.44 l 1.56,0.2 0,2.72 c -1.24,0.16 -2.4,0.44 -3.52,0.88 -1.12,0.4 -2.32,0.72 -3.52,1 -1.2,0.28 -2.48,0.52 -3.68,0.76 -1.24,0.2 -2.27999,0.76 -3.15999,1.6 0,0.32 0,0.6 0,0.84 0,0.24 0,0.48 0,0.76 0,0.28 0.04,0.48 0.16,0.72 0.08,0.24 0.2,0.44 0.4,0.64 l 4.43999,-1.76 0,-0.48 5.48,-1.2 0,-0.28 2.6,-0.24 0,-0.28 1.08,0 0,0.8 c -1.44,0.96 -2.84,2.08 -4.2,3.2 -1.4,1.12 -2.8,2.16 -4.16,3.04 -1.44,0.92 -2.84,1.96 -4.2,3.12 -1.39999,1.2 -2.95999,1.84 -4.67999,1.96 l 0.48,1.76 2.36,0.24 m 30.07999,-0.52 -0.28,0.28 -0.24,-0.28 0.24,-0.24 0.28,0.24 m 0.24,-0.24 -0.24,0.24 -0.28,-0.24 0.28,-0.2 0.24,0.2 m -13.88,-4.4 -0.24,0.24 -0.28,-0.24 0.28,-0.28 0.24,0.28 m 5,-1.04 -0.24,0.24 -0.56,0 0,-0.44 0.8,0.2 m 0.76,-0.48 -0.24,0.28 -0.28,0 0.28,-0.52 0.24,0.24 m -1.28,-7.44 -0.28,0.28 -0.28,-0.28 0.28,-0.2 0.28,0.2 m -3.12,-2.96 -0.28,0.24 -0.24,-0.24 c 0,-0.32 0,-0.6 0,-0.96 0,-0.32 0,-0.72 0,-1.16 0,-0.4 0,-0.76 0,-1.12 0,-0.32 0.16,-0.56 0.52,-0.68 l 2.56,0.2 -2.56,3.72"
           style="font-size:40px;font-style:normal;font-variant:normal;font-weight:normal;font-stretch:normal;line-height:125%;letter-spacing:0px;word-spacing:0px;fill:#000000;fill-opacity:1;stroke:none;font-family:'青柳隷書SIMO2_O';-inkscape-font-specification:'青柳隷書SIMO2_O'"
           id="path3022"
           inkscape:connector-curvature="0" />
      </g>
    </g>
  </g>
</svg>
