<?xml version="1.0" encoding="UTF-8" standalone="no"?>
<!-- Created with Inkscape (http://www.inkscape.org/) -->

<svg
   xmlns:dc="http://purl.org/dc/elements/1.1/"
   xmlns:cc="http://creativecommons.org/ns#"
   xmlns:rdf="http://www.w3.org/1999/02/22-rdf-syntax-ns#"
   xmlns:svg="http://www.w3.org/2000/svg"
   xmlns="http://www.w3.org/2000/svg"
   xmlns:sodipodi="http://sodipodi.sourceforge.net/DTD/sodipodi-0.dtd"
   xmlns:inkscape="http://www.inkscape.org/namespaces/inkscape"
   width="45.302887"
   height="38.484356"
   id="svg3081"
   version="1.1"
   inkscape:version="0.48.4 r9939"
   sodipodi:docname="an.svg">
  <defs
     id="defs3083" />
  <sodipodi:namedview
     id="base"
     pagecolor="#ffffff"
     bordercolor="#666666"
     borderopacity="1.0"
     inkscape:pageopacity="0.0"
     inkscape:pageshadow="2"
     inkscape:zoom="3.959798"
     inkscape:cx="35.137347"
     inkscape:cy="-14.072031"
     inkscape:document-units="px"
     inkscape:current-layer="g5086"
     showgrid="false"
     fit-margin-top="0"
     fit-margin-left="0"
     fit-margin-right="0"
     fit-margin-bottom="0"
     inkscape:window-width="958"
     inkscape:window-height="1033"
     inkscape:window-x="960"
     inkscape:window-y="0"
     inkscape:window-maximized="0" />
  <metadata
     id="metadata3086">
    <rdf:RDF>
      <cc:Work
         rdf:about="">
        <dc:format>image/svg+xml</dc:format>
        <dc:type
           rdf:resource="http://purl.org/dc/dcmitype/StillImage" />
        <dc:title></dc:title>
      </cc:Work>
    </rdf:RDF>
  </metadata>
  <g
     inkscape:label="レイヤー 1"
     inkscape:groupmode="layer"
     id="layer1"
     transform="translate(-665,-469.74356)">
    <g
       id="g5086">
      <g
         id="g6153">
        <rect
           style="fill:none;stroke:none"
           id="rect3787"
           width="45.302887"
           height="38.484356"
           x="665"
           y="469.74356" />
        <path
           d="m 675.99144,499.52574 2.92,-0.96 0.88,0.28 0.2,0 0,-0.28 0.68,0 0,0.76 0.88,0 0,-0.48 c 0.72,0 1.44,-0.16 2.08,-0.44 0.68,-0.28 1.36,-0.44 2,-0.56 0.68,-0.08 1.36,-0.16 2.12,-0.28 0.72,-0.08 1.48,-0.2 2.24,-0.32 l 4.8,0 0.2,0.48 0.92,-0.76 0.64,0.28 0,0.48 0.16,0 0,-0.76 0.92,0 0,0.76 4.84,-0.28 -0.64,0 0,-0.48 -0.2,0 1.32,-1.56 0,-0.8 0.44,0 c 0,-0.36 0,-0.72 0,-1.04 0,-0.32 0,-0.68 0,-1.04 0,-0.32 0,-0.64 0.08,-0.92 0.08,-0.28 0.2,-0.56 0.32,-0.88 l -0.2,-0.24 0.2,-0.52 -0.4,-1.08 0.4,-2.84 1.2,-1.08 -0.96,-3.04 c -1.04,-1.28 -2.32,-1.96 -3.76,-2.16 -1.44,-0.16 -2.92,-0.32 -4.36,-0.48 -1.48,-0.16 -2.96,-0.32 -4.4,-0.4 -1.48,-0.12 -3,-0.24 -4.48,-0.44 l -1.32,0.28 -0.2,-0.28 c -1.04,0 -2.12,0 -3.2,0 -1.08,0 -2.12,0.12 -3.08,0.32 -0.96,0.16 -1.92,0.44 -2.88,0.76 -1,0.36 -1.96,0.6 -2.96,0.8 l -2.03999,2.04 0,0.52 -0.4,0.28 -0.64,1.32 0.2,2.6 0.2,0 0.24,1.8 0.4,0 c 0.2,0.72 0.48,1.4 0.84,1.96 0.35999,0.6 0.51999,1.28 0.51999,1.92 0,0.72 0.04,1.44 0.12,2.2 0.08,0.76 0.2,1.52 0.32,2.28 l 0.44,0 0,0.2 0.88,0 0.2,0.8 0.68,0.32 0,0.48 0.64,0.48 m 22.32,-2.08 -0.2,0.28 -0.24,-0.28 0,-0.48 0.64,0.28 -0.2,0.2 m 2.2,-0.2 -0.24,0.2 -0.64,0 0,-0.48 0.88,0.28 m -2.4,-3.2 -0.24,0.32 -0.24,-0.32 c -1.12,0.2 -2.44,0.32 -3.84,0.32 -1.4,0 -2.76,0.04 -4.08,0.12 -1.36,0.08 -2.68,0.16 -3.88,0.24 -1.24,0.12 -2.52,0.24 -3.88,0.44 l -1.04,0 -0.24,-0.8 0.64,-1.04 0,-0.52 1.56,-0.76 -0.24,0 0,-1.08 0.48,0 0.2,-1 0.4,-0.28 c 0,-0.72 0.12,-1.28 0.36,-1.72 0.24,-0.44 0.44,-0.96 0.6,-1.56 0.12,-0.6 0.32,-1.12 0.52,-1.56 0.2,-0.44 0.24,-0.96 0.08,-1.68 l 0.68,-0.28 0.68,0.28 c 0,0.72 0,1.4 0,2.08 0,0.68 0.08,1.36 0.2,1.96 0.12,0.6 0.36,1.2 0.68,1.68 0.28,0.52 0.6,1.08 0.88,1.6 l 1.28,0.24 0,0.24 2.44,0.52 0,0.8 0.48,0 0.4,-0.8 0.4,0 0,0.8 0.28,0 0,-0.24 0.24,0 0,-0.84 -0.52,-0.24 c -0.08,-0.16 -0.16,-0.4 -0.16,-0.76 0,-0.36 0,-0.76 0,-1.2 0,-0.4 -0.08,-0.72 -0.2,-0.88 -0.16,-0.16 -0.32,-0.44 -0.44,-0.84 -0.32,-0.12 -0.64,-0.2 -0.88,-0.2 -0.28,0 -0.6,-0.08 -0.88,-0.28 -0.32,-0.16 -0.6,-0.32 -0.8,-0.52 -0.24,-0.16 -0.48,-0.44 -0.76,-0.76 l 0.2,-1.04 -0.2,-0.76 0.2,-1.36 c 0.6,0 1.16,0.04 1.68,0.12 0.52,0.12 1,0.12 1.52,0 0.52,-0.08 1,0 1.52,0.28 0.52,0.28 1,0.48 1.44,0.68 l 1.8,0 0,-0.56 1.08,0.28 0.72,0.8 0.64,1.8 c 0,0.52 -0.04,1.08 -0.12,1.56 -0.08,0.52 -0.12,1 -0.12,1.44 0,0.4 -0.12,0.88 -0.32,1.32 -0.24,0.44 -0.36,0.88 -0.36,1.4 l -1.72,0.28 0.4,1.56 0.48,0 0,0.72 m -19.88,0 -1.76,-0.2 c -0.12,-0.52 -0.24,-1.08 -0.32,-1.68 -0.12,-0.64 -0.24,-1.24 -0.36,-1.72 -0.12,-0.52 -0.24,-1.04 -0.32,-1.56 -0.08,-0.48 -0.28,-1.04 -0.56,-1.6 l 0,-0.44 1.36,-0.28 0,-0.52 1.96,-0.8 c 0.12,0 0.24,0 0.44,0 0.16,0 0.32,0 0.44,0 0.12,0 0.28,-0.04 0.44,-0.16 0.16,-0.08 0.24,-0.2 0.24,-0.36 l 0.6,0 0,-0.24 1.32,0.48 -1.04,4.72 -0.48,0 -0.88,2.08 0.68,-0.28 0.68,0.28 0,0.76 -0.28,0 0,0.28 0.28,0 -0.28,0.76 -0.8,-0.76 -1.36,0.76 0,0.48"
           style="font-size:40px;font-style:normal;font-variant:normal;font-weight:normal;font-stretch:normal;line-height:125%;letter-spacing:0px;word-spacing:0px;fill:#000000;fill-opacity:1;stroke:none;font-family:'青柳隷書SIMO2_O';-inkscape-font-specification:'青柳隷書SIMO2_O'"
           id="path3000"
           inkscape:connector-curvature="0" />
      </g>
    </g>
  </g>
</svg>
