<?xml version="1.0" encoding="UTF-8" standalone="no"?>
<!-- Created with Inkscape (http://www.inkscape.org/) -->

<svg
   xmlns:dc="http://purl.org/dc/elements/1.1/"
   xmlns:cc="http://creativecommons.org/ns#"
   xmlns:rdf="http://www.w3.org/1999/02/22-rdf-syntax-ns#"
   xmlns:svg="http://www.w3.org/2000/svg"
   xmlns="http://www.w3.org/2000/svg"
   version="1.1"
   width="45.302887"
   height="38.484356"
   id="svg3081">
  <defs
     id="defs3083" />
  <metadata
     id="metadata3086">
    <rdf:RDF>
      <cc:Work
         rdf:about="">
        <dc:format>image/svg+xml</dc:format>
        <dc:type
           rdf:resource="http://purl.org/dc/dcmitype/StillImage" />
        <dc:title></dc:title>
      </cc:Work>
    </rdf:RDF>
  </metadata>
  <g
     transform="translate(-665,-469.74356)"
     id="layer1">
    <g
       id="g5086">
      <g
         id="g5299">
        <rect
           width="45.302887"
           height="38.484356"
           x="665"
           y="469.74356"
           id="rect3787"
           style="fill:none;stroke:none" />
        <path
           d="m 679.45144,503.78574 c 0.8,-0.36 1.6,-0.72 2.28,-1.16 0.64,-0.36 1.44,-0.64 2.24,-0.84 0.84,-0.16 1.68,-0.28 2.56,-0.36 0.8,-0.08 1.68,-0.2 2.48,-0.36 1.16,0 2.32,0 3.44,0 1.08,0 2.12,0.12 3,0.36 0.92,0.28 1.88,0.56 2.92,0.84 0.96,0.36 1.88,0.76 2.76,1.24 l 2.76,0 0,-0.48 0.76,0.24 0.24,0 0,-1.44 -1.48,-1.08 -0.8,-0.44 0,-0.28 -0.96,0 -6.56,-1.72 -2.28,0.24 -2.04,0 0.76,-3 2.24,-1.04 1.32,-2.24 0.72,-0.2 -0.52,-3.56 -1.76,-0.76 -0.72,0.24 -1.28,-0.24 c -0.84,0 -1.56,0.04 -2.24,0.12 -0.68,0.08 -1.36,0.2 -2.04,0.36 -0.64,0.2 -1.32,0.4 -2,0.68 -0.64,0.24 -1.24,0.6 -1.76,1.12 l 0,0.24 0.24,0 c -0.16,0.64 -0.08,1.28 0.28,1.88 0.32,0.56 0.6,1.12 0.88,1.64 0.2,0.48 0.32,1.08 0.32,1.76 0,0.64 0.28,1.24 0.8,1.72 l -0.24,1.28 -1.8,0.48 0,0.24 -1.52,0.28 -0.72,-0.28 -1.28,0 0,0.52 -0.48,0 -1,1.52 c 0,0.16 0,0.36 0,0.6 0,0.28 0,0.48 0,0.72 0,0.28 0.04,0.48 0.12,0.64 0.08,0.16 0.2,0.32 0.36,0.52 m 25.2,-1.52 -0.28,0.28 -0.24,-0.28 0.24,-0.2 0.28,0.2 m -35.79999,-0.44 2.28,-0.28 1.27999,-2.52 0.52,0 2.24,-7.28 2.76,2.52 c 0.2,0 0.36,-0.04 0.48,-0.16 0.16,-0.08 0.24,-0.2 0.24,-0.48 0,-0.24 0,-0.44 0,-0.6 0,-0.16 0.12,-0.32 0.32,-0.52 l -0.76,-2.24 -2.04,-0.76 1.52,-7.52 -0.52,-7.24 -2.24,0.48 -0.8,3.28 0,1.2 0.56,0.32 0.72,1.2 c 0,1.52 -0.04,2.96 -0.12,4.36 -0.08,1.48 -0.2,2.84 -0.44,4.16 -0.28,1.32 -0.64,2.6 -1.16,3.88 -0.48,1.28 -1.2,2.48 -2.03999,3.64 l -3.76,2 0,0.28 0.24,0 -0.24,0.76 0,0.76 0.96,0.76 m 19.43999,-0.76 -0.24,0.24 -0.28,-0.24 0.28,-0.32 0.24,0.32 m 4.52,-0.52 -0.24,0.2 -0.76,0 0,-0.44 1,0.24 m -3,-3.04 -1.52,0.8 -1.04,0 0,-3.24 3.04,0 -0.48,2.44 m 2.24,-2.76 -0.24,0.32 -0.28,-0.32 0.28,-0.24 0.24,0.24 m -3.04,-2.24 -0.24,0.28 c -0.2,0 -0.36,0 -0.6,0 -0.28,0 -0.52,0 -0.8,0 -0.28,0 -0.48,-0.04 -0.64,-0.16 -0.12,-0.08 -0.28,-0.2 -0.48,-0.36 l 0,-1.52 3.8,-0.72 2,0 -0.24,0.96 -3.04,1.28 0.24,0.24 m 12.64,-1 c 0.28,0 0.56,0 0.84,0 0.24,0 0.56,0 0.92,0 0.32,0 0.6,-0.04 0.88,-0.12 0.24,-0.08 0.44,-0.28 0.6,-0.64 0.32,-0.16 0.64,-0.24 0.92,-0.36 0.24,-0.08 0.48,-0.12 0.76,-0.12 0.2,0 0.36,-0.16 0.44,-0.52 0.08,-0.32 0.2,-0.56 0.4,-0.72 l -0.28,-3.76 -0.24,0 -0.48,0.76 c -0.88,0.16 -1.72,0.16 -2.56,-0.04 -0.8,-0.2 -1.64,-0.4 -2.36,-0.64 -0.76,-0.24 -1.52,-0.6 -2.28,-1.12 -0.76,-0.48 -1.44,-0.88 -2.12,-1.2 l 0.24,-0.76 2.04,-1.04 0.72,-0.96 -0.72,-1.76 -0.52,0 0,0.24 c -0.16,0 -0.28,0.04 -0.4,0.12 -0.08,0.08 -0.2,0.12 -0.36,0.2 -0.16,0.12 -0.24,0.24 -0.24,0.4 0,0.16 0,0.36 0,0.56 l -0.52,0 -0.24,0.72 -1.28,0.76 -2.48,-1.48 0,-0.8 c 0.28,0 0.56,-0.04 0.84,-0.16 0.28,-0.08 0.52,-0.16 0.8,-0.32 0.2,-0.16 0.44,-0.36 0.72,-0.64 0.24,-0.24 0.48,-0.44 0.68,-0.64 0,-0.16 0,-0.32 0,-0.6 0,-0.28 0,-0.48 0,-0.68 0,-0.16 -0.08,-0.28 -0.28,-0.36 -0.2,-0.08 -0.36,-0.2 -0.52,-0.32 l -1.24,0.2 -0.24,0.76 -1.8,0.8 -1.24,0 -0.28,-1.56 -0.72,-0.48 -0.24,-0.76 -0.8,-0.28 -5.52,0.8 -1.28,2.04 0,1.2 1.28,0 -0.52,1 1,2 1.04,0 0,-0.96 0.44,0 0,-0.8 -1.48,-1.24 0,-0.48 2.28,-0.72 0.48,0 0,0.44 0.76,0.28 c 0,0.84 -0.16,1.52 -0.48,2.12 -0.32,0.6 -0.56,1.2 -0.72,1.88 -0.2,0.64 -0.48,1.28 -0.92,1.88 -0.4,0.56 -0.8,1.2 -1.12,1.88 -0.36,0.32 -0.68,0.72 -1,1.12 -0.36,0.44 -0.72,0.72 -1.16,0.96 -0.4,0.28 -0.8,0.48 -1.24,0.64 -0.44,0.2 -0.88,0.36 -1.4,0.52 l 0.28,0 0.44,1.52 2.28,-0.48 0,-0.52 0.52,0 0,-0.24 0.52,-0.52 0.48,0 0,-0.52 0.52,0 0,-0.48 0.72,-0.24 0.56,0 0,0.24 3.48,-1 1.52,0.28 2.04,0 0,-1.8 -1,-0.48 -4.56,0.48 -0.72,0 1.96,-5.28 0.76,0 3.56,3.56 0.72,0.52 0.56,1.2 0.76,0.28 0,0.24 0.24,0 0,0.2 0.2,0 0.28,0.8 1.24,1 1.52,0.76 0,0.48 1.28,1.28 1.28,0.52 0,0.44 0.76,0.52 m -30.51999,-3.52 0.72,-0.96 0.79999,0 -0.99999,-3.76 -1,-0.56 -1.04,0 0,0.32 -0.48,0 -0.52,0.96 0,1.28 2.52,2.72 m 26.71999,-0.24 -0.28,0.24 -0.24,-0.24 0.24,-0.24 0.28,0.24 m -18.4,-2.24 0.52,-0.24 0.2,0.24 1.56,-1 0.24,-0.72 0.48,0 0.52,-1.08 -0.52,-2.2 -0.72,-0.24 -2.28,0.24 -0.24,0.72 -0.8,0.52 1.04,3.52 0,0.24 m 16.6,-0.52 -0.24,0.28 -0.24,-0.28 0.24,-0.24 0.24,0.24 m 1.8,-1.2 -0.28,0.2 -0.24,-0.2 0.24,-0.28 0.28,0.28"
           id="path3032"
           style="font-size:40px;font-style:normal;font-variant:normal;font-weight:normal;font-stretch:normal;line-height:125%;letter-spacing:0px;word-spacing:0px;fill:#000000;fill-opacity:1;stroke:none;font-family:'青柳隷書SIMO2_O';-inkscape-font-specification:'青柳隷書SIMO2_O'" />
      </g>
    </g>
  </g>
</svg>
