<?xml version="1.0" encoding="UTF-8" standalone="no"?>
<!-- Created with Inkscape (http://www.inkscape.org/) -->

<svg
   xmlns:dc="http://purl.org/dc/elements/1.1/"
   xmlns:cc="http://creativecommons.org/ns#"
   xmlns:rdf="http://www.w3.org/1999/02/22-rdf-syntax-ns#"
   xmlns:svg="http://www.w3.org/2000/svg"
   xmlns="http://www.w3.org/2000/svg"
   xmlns:sodipodi="http://sodipodi.sourceforge.net/DTD/sodipodi-0.dtd"
   xmlns:inkscape="http://www.inkscape.org/namespaces/inkscape"
   width="45.302887"
   height="38.484356"
   id="svg3081"
   version="1.1"
   inkscape:version="0.48.4 r9939"
   sodipodi:docname="color.svg">
  <defs
     id="defs3083" />
  <sodipodi:namedview
     id="base"
     pagecolor="#ffffff"
     bordercolor="#666666"
     borderopacity="1.0"
     inkscape:pageopacity="0.0"
     inkscape:pageshadow="2"
     inkscape:zoom="3.959798"
     inkscape:cx="35.137347"
     inkscape:cy="-14.072031"
     inkscape:document-units="px"
     inkscape:current-layer="g5086"
     showgrid="false"
     fit-margin-top="0"
     fit-margin-left="0"
     fit-margin-right="0"
     fit-margin-bottom="0"
     inkscape:window-width="958"
     inkscape:window-height="1033"
     inkscape:window-x="960"
     inkscape:window-y="0"
     inkscape:window-maximized="0" />
  <metadata
     id="metadata3086">
    <rdf:RDF>
      <cc:Work
         rdf:about="">
        <dc:format>image/svg+xml</dc:format>
        <dc:type
           rdf:resource="http://purl.org/dc/dcmitype/StillImage" />
        <dc:title></dc:title>
      </cc:Work>
    </rdf:RDF>
  </metadata>
  <g
     inkscape:label="レイヤー 1"
     inkscape:groupmode="layer"
     id="layer1"
     transform="translate(-665,-469.74356)">
    <g
       id="g5086">
      <g
         id="g5755">
        <rect
           style="fill:none;stroke:none"
           id="rect3787"
           width="45.302887"
           height="38.484356"
           x="665"
           y="469.74356" />
        <path
           d="m 682.05144,505.32574 0.52,-0.2 0.24,0.2 c 0.36,0 0.68,0 1.04,0 0.36,0 0.68,-0.08 0.96,-0.2 0.28,-0.16 0.48,-0.32 0.76,-0.44 0.28,-0.16 0.56,-0.32 0.92,-0.44 l 0.28,-0.64 0.48,0 0.52,-1.48 0.8,-0.24 c 0.52,-0.72 0.92,-1.4 1.2,-2.16 0.28,-0.72 0.48,-1.44 0.76,-2.28 0.24,-0.76 0.44,-1.56 0.64,-2.32 0.16,-0.8 0.44,-1.52 0.76,-2.28 l 1.52,0 5,0.88 0,0.4 3.88,0.44 0,0.24 1.52,0.2 2.64,-0.2 -0.24,0 0,-0.68 1,-0.4 0,-0.2 -0.28,0 0,-1.12 0.56,0 0,-0.4 c -0.36,-0.12 -0.76,-0.24 -1.16,-0.32 -0.44,-0.08 -0.88,-0.16 -1.28,-0.24 -0.44,-0.04 -0.88,-0.08 -1.32,-0.08 -0.4,0 -0.92,0 -1.44,0 l 0,-0.24 c -1.04,-0.12 -2.08,-0.32 -3.12,-0.56 -1.04,-0.16 -2.12,-0.28 -3.24,-0.28 -1.12,0 -2.24,-0.04 -3.36,-0.12 -1.12,-0.04 -2.24,-0.16 -3.28,-0.32 l -0.52,-0.88 0,-0.84 1.56,-0.68 0.8,-0.6 2.28,-1.72 0,-0.44 1.08,-0.24 0.28,-0.84 -0.8,-1.48 -2.84,-0.88 c -1.04,0 -2.16,0 -3.36,0 -1.2,0 -2.36,0.04 -3.4,0.08 -1.04,0.08 -2.12,0.2 -3.16,0.32 -1.08,0.16 -2.08,0.4 -3.12,0.64 l -0.52,1.32 c 0,0.28 0.04,0.52 0.16,0.72 0.08,0.24 0.16,0.48 0.24,0.68 0.08,0.2 0.2,0.44 0.4,0.6 0.16,0.24 0.32,0.44 0.52,0.56 0.72,0 1.24,-0.2 1.68,-0.56 0.44,-0.32 0.92,-0.6 1.4,-0.84 0.52,-0.2 1.08,-0.44 1.56,-0.64 0.52,-0.2 1.16,-0.36 1.84,-0.52 l 3.92,0 0,0.4 -0.24,0 -1.04,0.88 0,0.44 -3.92,1.72 0,0.4 -1.04,-0.2 -1.04,0 -0.28,0.44 0,0.88 2.08,1.28 0,0.44 c -1.36,0 -2.68,0.12 -3.88,0.28 -1.24,0.24 -2.48,0.52 -3.76,0.8 -1.28,0.28 -2.64,0.48 -3.91999,0.52 -1.28,0.08 -2.44,0.36 -3.52,0.96 l -0.48,1.08 0.24,1.92 c 0.88,-0.28 1.72,-0.48 2.6,-0.64 0.84,-0.12 1.67999,-0.36 2.47999,-0.64 0.8,-0.28 1.6,-0.56 2.48,-0.72 0.84,-0.2 1.72,-0.32 2.56,-0.32 l 0,-0.24 3.12,-0.44 0,-0.2 2.08,-0.24 c 0.36,0 0.76,0 1.2,0 0.4,0 0.88,0 1.32,0 0.4,0 0.84,0 1.28,0 0.44,0 0.76,0.16 0.92,0.44 0,0.6 -0.04,1.12 -0.12,1.72 -0.12,0.6 -0.24,1.12 -0.4,1.72 -0.2,0.6 -0.4,1.12 -0.64,1.72 -0.28,0.6 -0.6,1.08 -0.92,1.52 -0.36,0.44 -0.72,0.72 -1.08,0.84 -0.32,0.16 -0.72,0.28 -1.16,0.4 -0.44,0.16 -0.88,0.28 -1.4,0.36 -0.52,0.08 -0.96,0.2 -1.28,0.32 l -3.44,-0.2 -0.76,0 c 0,0.28 0,0.6 0,0.96 0,0.32 0.04,0.68 0.12,0.96 0.08,0.28 0.2,0.6 0.4,0.84 0.16,0.28 0.36,0.6 0.56,0.88 l 3.6,0.44 m 13,-12.04 -0.24,0.24 -0.28,-0.24 0,-0.64 1.04,0 0,0.44 -0.52,0 0,0.2 m 2.08,0 -0.28,0.24 -0.76,0 0,-0.44 1.04,0.2 m -25.43999,-6.24 -0.28,-0.2 1.51999,-2.6 c 0,-0.28 0,-0.56 0,-0.84 0,-0.28 0,-0.6 0,-0.88 0,-0.28 -0.04,-0.52 -0.12,-0.76 -0.08,-0.2 -0.2,-0.48 -0.4,-0.76 l 0,-0.6 4.2,-1.12 0,-0.4 7.76,-1.08 1.32,0.2 1.56,-0.2 0,-0.24 0.8,0.24 0.52,0 0,-0.24 0.52,0 0,0.44 0.52,0 0,-0.2 1.28,0.2 0.8,-0.2 0.76,0 0,0.44 1,0 0,0.2 3.16,0.24 0,0.2 1.56,0.4 1.04,1.52 0,0.64 -0.76,0 c 0,0.28 0.04,0.6 0.24,0.84 0.2,0.28 0.32,0.6 0.4,0.88 0.08,0.28 0.2,0.56 0.4,0.76 0.16,0.2 0.4,0.4 0.72,0.52 l 2.12,-0.2 1.52,-4.52 -0.48,-1.28 c -1.4,-0.6 -2.84,-1.04 -4.28,-1.28 -1.48,-0.28 -3,-0.6 -4.52,-0.88 -1.56,-0.28 -3.12,-0.44 -4.68,-0.44 -1.56,0 -3.24,0 -5,0 l -0.52,-2.56 -2.08,-0.64 -1.56,0.44 c 0,0.12 0,0.32 0,0.52 0,0.24 0,0.4 0,0.52 0,0.16 0.04,0.32 0.16,0.44 0.08,0.16 0.2,0.32 0.36,0.44 l 0,0.84 -11.63999,2.4 -1.08,0.84 -0.24,0.88 -0.52,0 0,1.28 1.84,0.44 -0.56,1.92 0.24,2.12 2.12,0.68 0.28,0.64"
           style="font-size:40px;font-style:normal;font-variant:normal;font-weight:normal;font-stretch:normal;line-height:125%;letter-spacing:0px;word-spacing:0px;fill:#000000;fill-opacity:1;stroke:none;font-family:'青柳隷書SIMO2_O';-inkscape-font-specification:'青柳隷書SIMO2_O'"
           id="path3014"
           inkscape:connector-curvature="0" />
      </g>
    </g>
  </g>
</svg>
