<?xml version="1.0" encoding="UTF-8" standalone="no"?>
<!-- Created with Inkscape (http://www.inkscape.org/) -->

<svg
   xmlns:dc="http://purl.org/dc/elements/1.1/"
   xmlns:cc="http://creativecommons.org/ns#"
   xmlns:rdf="http://www.w3.org/1999/02/22-rdf-syntax-ns#"
   xmlns:svg="http://www.w3.org/2000/svg"
   xmlns="http://www.w3.org/2000/svg"
   xmlns:sodipodi="http://sodipodi.sourceforge.net/DTD/sodipodi-0.dtd"
   xmlns:inkscape="http://www.inkscape.org/namespaces/inkscape"
   width="45.302887"
   height="38.484356"
   id="svg3081"
   version="1.1"
   inkscape:version="0.48.4 r9939"
   sodipodi:docname="koh.svg">
  <defs
     id="defs3083" />
  <sodipodi:namedview
     id="base"
     pagecolor="#ffffff"
     bordercolor="#666666"
     borderopacity="1.0"
     inkscape:pageopacity="0.0"
     inkscape:pageshadow="2"
     inkscape:zoom="3.959798"
     inkscape:cx="35.137347"
     inkscape:cy="-14.072031"
     inkscape:document-units="px"
     inkscape:current-layer="g5086"
     showgrid="false"
     fit-margin-top="0"
     fit-margin-left="0"
     fit-margin-right="0"
     fit-margin-bottom="0"
     inkscape:window-width="958"
     inkscape:window-height="1033"
     inkscape:window-x="960"
     inkscape:window-y="0"
     inkscape:window-maximized="0" />
  <metadata
     id="metadata3086">
    <rdf:RDF>
      <cc:Work
         rdf:about="">
        <dc:format>image/svg+xml</dc:format>
        <dc:type
           rdf:resource="http://purl.org/dc/dcmitype/StillImage" />
        <dc:title></dc:title>
      </cc:Work>
    </rdf:RDF>
  </metadata>
  <g
     inkscape:label="レイヤー 1"
     inkscape:groupmode="layer"
     id="layer1"
     transform="translate(-665,-469.74356)">
    <g
       id="g5086">
      <g
         id="g6103">
        <rect
           style="fill:none;stroke:none"
           id="rect3787"
           width="45.302887"
           height="38.484356"
           x="665"
           y="469.74356" />
        <path
           d="m 686.71144,504.26574 1.36,-0.28 1.44,0.28 c 0.28,0 0.6,0 0.92,0 0.28,0 0.56,-0.04 0.8,-0.12 0.2,-0.12 0.48,-0.24 0.8,-0.4 0.32,-0.12 0.56,-0.28 0.72,-0.44 0.44,0 0.92,0 1.4,0 0.44,0 0.88,0 1.28,0 0.36,0 0.8,0 1.24,0 0.44,0 0.84,0.16 1.16,0.48 l 0.2,0 c 0,-0.16 0,-0.36 0,-0.6 0,-0.2 0,-0.36 0,-0.52 0,-0.12 0.04,-0.28 0.12,-0.44 0.04,-0.12 0.16,-0.28 0.36,-0.48 l 0,-0.44 -0.28,0 0,-0.4 0.28,0 1.12,-6.72 c 0,-0.32 0,-0.68 0,-1.04 0,-0.32 0,-0.72 0,-1.12 0,-0.36 -0.04,-0.76 -0.04,-1.12 -0.08,-0.36 -0.2,-0.72 -0.4,-1.04 l -2.8,-1.08 c -0.88,0 -1.8,0 -2.6,0 -0.88,0 -1.68,0.08 -2.48,0.2 -0.76,0.16 -1.6,0.32 -2.4,0.44 -0.84,0.16 -1.64,0.28 -2.44,0.44 l -0.92,1.4 0.92,2.44 c 0,0.6 0,1.2 0,1.8 0,0.6 -0.08,1.16 -0.2,1.68 -0.12,0.56 -0.24,1.12 -0.32,1.72 -0.12,0.6 -0.32,1.12 -0.6,1.56 l 0.72,3.32 0.64,0.48 m 6.72,-4.92 -1.64,0.68 -3.72,0 0.24,-2.96 4.2,-0.68 3.88,0.44 -0.64,2.04 -2.56,0.24 0.24,0.24 m -23.35999,-2.28 2.99999,-0.68 4.2,0.44 1.12,-0.2 c 0.16,-0.56 0.4,-1.12 0.72,-1.6 0.28,-0.4 0.44,-1 0.44,-1.68 0,-0.64 0.04,-1.32 0.12,-1.92 0.08,-0.56 0.2,-1.16 0.32,-1.8 l 0.48,0 0.48,1.2 0.92,-0.24 0,-0.48 1.84,-0.64 0,-0.48 c 0.64,-0.28 1.28,-0.52 2,-0.68 0.64,-0.12 1.32,-0.28 1.96,-0.44 0.6,-0.16 1.28,-0.28 1.96,-0.36 0.68,-0.04 1.36,-0.16 1.92,-0.32 1.12,0 2.16,0.04 3.12,0.12 1,0.08 1.96,0.2 2.92,0.36 0.88,0.16 1.84,0.32 2.76,0.52 0.88,0.24 1.84,0.52 2.76,0.8 0.16,0 0.36,0 0.6,0 0.24,0 0.48,0 0.72,0 0.2,0 0.4,-0.04 0.56,-0.12 0.12,-0.04 0.28,-0.16 0.44,-0.32 l 0.92,-0.64 -0.2,-0.96 0.2,-0.64 0,-0.44 c -1.04,0 -2.08,-0.08 -3.12,-0.24 -1,-0.16 -2,-0.28 -3,-0.36 -0.96,-0.08 -2,-0.24 -2.96,-0.48 -1.04,-0.16 -2.08,-0.2 -3.12,-0.08 l 0.88,-2 -0.68,-1.76 -0.72,-0.52 0,-0.44 c 0.36,0 0.64,0 0.88,0 0.2,0 0.48,0 0.8,0 0.28,0 0.56,0 0.8,0 0.16,0 0.36,0.16 0.56,0.44 l 2.08,-0.2 0,-1.12 -0.52,0 0,-0.64 -2.76,-0.68 -3.68,0.16 -0.44,0 0.2,-0.84 0,-2.28 -1.12,-0.4 -0.28,-0.72 c -0.28,0 -0.56,0 -0.76,0 -0.24,0 -0.48,0 -0.72,0 -0.24,0 -0.44,0.08 -0.56,0.24 -0.16,0.16 -0.28,0.32 -0.44,0.48 l 0.4,2.68 -0.16,0.68 -0.72,0.16 0,0.52 -1.64,0.2 -1.6,1.32 c 0,0.16 0,0.36 0,0.6 0,0.24 0,0.48 0,0.68 0,0.2 0,0.44 0,0.64 0,0.24 0.16,0.44 0.48,0.56 l 0.92,-0.2 0.72,0 -0.28,3.4 -3.72,0.84 -1.6,0 0.24,-2.2 -0.24,-4.32 -0.48,0 0,-0.4 -0.44,0 0,-0.48 -1.16,-0.2 -1.84,0.2 -2.56,-0.44 c -0.28,-0.12 -0.52,-0.08 -0.68,0.12 -0.16,0.2 -0.4,0.32 -0.68,0.32 -0.31999,0 -0.59999,0 -0.83999,0 -0.24,0 -0.52,0 -0.76,0 l 0,0.88 -1.16,0.44 -0.92,1.84 0,1.56 0.64,0.24 0.48,0.88 c 0,0.6 0,1.2 0,1.76 0,0.6 -0.04,1.2 -0.08,1.68 -0.08,0.56 -0.2,1.12 -0.36,1.6 -0.16,0.56 -0.4,1.08 -0.68,1.48 0,0.44 0,0.96 0,1.48 0,0.48 0.08,1 0.24,1.44 0.12,0.44 0.2,0.96 0.2,1.48 0,0.48 0.2,0.92 0.68,1.2 m 26.79999,-2.28 -0.88,0 -0.52,-1.08 -3.44,0.24 -3.24,0 c 0,-0.28 0,-0.6 0,-0.92 0,-0.24 0.04,-0.52 0.12,-0.76 0.08,-0.24 0.28,-0.4 0.6,-0.48 0.28,-0.08 0.52,-0.2 0.64,-0.32 l 1.2,0 0.44,0.88 0.96,0 0.88,-1.08 c 0.36,0 0.68,0 0.96,0 0.28,0 0.6,0 0.92,0 0.32,0 0.6,0 0.8,0.08 0.24,0.08 0.44,0.28 0.56,0.56 l 0,2.88 m -20.32,-0.84 -0.92,-0.44 -1.12,0.2 -2.79999,-0.2 0.2,-3.64 1.35999,-1.32 c 0.36,-0.16 0.68,-0.24 1,-0.24 0.28,0 0.6,0 1,0 0.4,0 0.8,0 1.16,0 0.4,0 0.68,-0.16 0.84,-0.4 l -0.24,-1.4 -0.48,-0.2 -0.44,-0.92 -3.04,0.28 -0.67999,0 0.47999,-2.52 c 0.24,0 0.56,-0.04 0.88,-0.12 0.32,-0.08 0.64,-0.12 0.96,-0.2 0.32,-0.08 0.64,-0.16 0.96,-0.24 0.28,-0.08 0.52,-0.28 0.64,-0.56 l 1.16,0 0,1.12 0.48,0 -0.48,8.12 -0.92,0.64 0,2.04 m 12.48,-9.44 -0.24,0.2 -0.48,0 c 0,-0.24 0,-0.56 0,-0.88 0,-0.28 -0.04,-0.6 -0.12,-0.88 -0.08,-0.32 -0.2,-0.6 -0.28,-0.84 -0.16,-0.2 -0.4,-0.4 -0.72,-0.52 l 0.2,-0.64 1.88,0.2 1.6,-0.2 0,-0.52 0.68,0 0,0.72 0.48,0 -0.68,2.24 -2.32,1.12"
           style="font-size:40px;font-style:normal;font-variant:normal;font-weight:normal;font-stretch:normal;line-height:125%;letter-spacing:0px;word-spacing:0px;fill:#000000;fill-opacity:1;stroke:none;font-family:'青柳隷書SIMO2_O';-inkscape-font-specification:'青柳隷書SIMO2_O'"
           id="path3002"
           inkscape:connector-curvature="0" />
      </g>
    </g>
  </g>
</svg>
