<?xml version="1.0" encoding="UTF-8" standalone="no"?>
<!-- Created with Inkscape (http://www.inkscape.org/) -->

<svg
   xmlns:dc="http://purl.org/dc/elements/1.1/"
   xmlns:cc="http://creativecommons.org/ns#"
   xmlns:rdf="http://www.w3.org/1999/02/22-rdf-syntax-ns#"
   xmlns:svg="http://www.w3.org/2000/svg"
   xmlns="http://www.w3.org/2000/svg"
   xmlns:sodipodi="http://sodipodi.sourceforge.net/DTD/sodipodi-0.dtd"
   xmlns:inkscape="http://www.inkscape.org/namespaces/inkscape"
   width="45.302887"
   height="38.484356"
   id="svg3081"
   version="1.1"
   inkscape:version="0.48.4 r9939"
   sodipodi:docname="san.svg">
  <defs
     id="defs3083" />
  <sodipodi:namedview
     id="base"
     pagecolor="#ffffff"
     bordercolor="#666666"
     borderopacity="1.0"
     inkscape:pageopacity="0.0"
     inkscape:pageshadow="2"
     inkscape:zoom="3.959798"
     inkscape:cx="35.137347"
     inkscape:cy="-14.072031"
     inkscape:document-units="px"
     inkscape:current-layer="g5086"
     showgrid="false"
     fit-margin-top="0"
     fit-margin-left="0"
     fit-margin-right="0"
     fit-margin-bottom="0"
     inkscape:window-width="958"
     inkscape:window-height="1033"
     inkscape:window-x="960"
     inkscape:window-y="0"
     inkscape:window-maximized="0" />
  <metadata
     id="metadata3086">
    <rdf:RDF>
      <cc:Work
         rdf:about="">
        <dc:format>image/svg+xml</dc:format>
        <dc:type
           rdf:resource="http://purl.org/dc/dcmitype/StillImage" />
        <dc:title></dc:title>
      </cc:Work>
    </rdf:RDF>
  </metadata>
  <g
     inkscape:label="レイヤー 1"
     inkscape:groupmode="layer"
     id="layer1"
     transform="translate(-665,-469.74356)">
    <g
       id="g5086">
      <g
         id="g6296">
        <rect
           style="fill:none;stroke:none"
           id="rect3787"
           width="45.302887"
           height="38.484356"
           x="665"
           y="469.74356" />
        <path
           d="m 697.07144,504.98574 c 0.6,-0.28 1.2,-0.44 1.88,-0.48 0.64,-0.08 1.28,-0.24 1.84,-0.44 0.48,-0.28 1.08,-0.44 1.72,-0.48 0.56,-0.08 1.2,-0.24 1.84,-0.44 l 0.28,-0.6 0.76,-0.52 0.52,-0.2 0.56,-0.8 -0.2,-1.84 -0.36,-0.2 -0.36,-0.76 -0.52,0 0,0.2 -0.88,0.56 c -0.88,0 -1.72,0 -2.56,0 -0.84,0 -1.6,-0.2 -2.24,-0.6 -0.68,-0.36 -1.4,-0.76 -2.08,-1.12 -0.76,-0.4 -1.4,-0.84 -2.08,-1.36 l -0.32,-0.52 -1.84,-1.72 -0.84,-0.8 -0.64,-0.36 -3.92,-6.6 -0.36,0 -0.36,-1.16 0,-0.72 0.52,-0.2 c 0.84,0.28 1.76,0.32 2.72,0.2 0.96,-0.12 1.88,-0.12 2.8,0 0.92,0.12 1.84,0.24 2.76,0.44 0.88,0.2 1.8,0.4 2.6,0.68 l 2.4,0 c 0.12,-0.28 0.2,-0.48 0.24,-0.68 0.04,-0.2 0.08,-0.36 0.08,-0.64 0,-0.24 0.08,-0.48 0.2,-0.68 0.08,-0.2 0.2,-0.4 0.32,-0.64 l -0.16,-0.76 c -1.2,-0.4 -2.36,-0.84 -3.56,-1.24 -1.24,-0.44 -2.52,-0.72 -3.84,-0.76 -1.32,-0.04 -2.72,-0.08 -4.08,-0.08 -1.4,0 -2.76,-0.08 -4.04,-0.2 0,-0.48 -0.08,-1.04 -0.2,-1.64 -0.12,-0.56 -0.24,-1.08 -0.36,-1.6 -0.12,-0.48 -0.32,-0.96 -0.56,-1.4 -0.2,-0.44 -0.48,-0.92 -0.76,-1.44 l -0.92,-0.4 -1.44,0.4 -0.12,0.64 -0.36,0 c 0,0.32 -0.08,0.72 -0.28,1.08 -0.2,0.4 -0.28,0.76 -0.28,1.2 0,0.44 0,0.92 0,1.32 0,0.48 0,0.92 0,1.28 l -2.4,0.76 0,0.36 -1.56,0.2 0,0.36 c -0.48,0 -0.96,0.08 -1.32,0.24 -0.36,0.2 -0.72,0.36 -1.04,0.48 -0.36,0.12 -0.76,0.32 -1.12,0.52 -0.36,0.2 -0.72,0.44 -1.07999,0.68 l -1.24,2.64 c 0,0.24 0.04,0.48 0.08,0.68 0.04,0.16 0.08,0.4 0.08,0.64 0,0.28 0.08,0.48 0.2,0.68 0.08,0.2 0.2,0.36 0.32,0.44 l 5.27999,-1.84 4.52,0 0.32,0.92 c 0,0.96 -0.04,1.92 -0.16,2.72 -0.12,0.84 -0.24,1.68 -0.4,2.56 -0.2,0.88 -0.52,1.72 -0.96,2.44 -0.44,0.8 -0.88,1.52 -1.36,2.28 -0.48,0.28 -0.92,0.52 -1.4,0.8 -0.48,0.24 -0.96,0.44 -1.44,0.56 -0.52,0.12 -1.04,0.24 -1.52,0.36 -0.56,0.12 -1.08,0.32 -1.56,0.6 l -1.83999,-0.2 -2.16,0 0.56,0.56 -0.2,0.56 0,0.56 0.36,0 0.16,2.48 c 0.76,0.12 1.48,0.08 2.12,-0.12 0.67999,-0.2 1.27999,-0.32 1.87999,-0.52 0.6,-0.2 1.24,-0.4 1.92,-0.68 0.64,-0.28 1.28,-0.52 1.88,-0.8 l 0,-0.36 1.44,-0.76 c 0.6,-0.72 1.12,-1.6 1.64,-2.56 0.52,-0.96 0.92,-1.84 1.28,-2.76 0.36,-0.88 0.68,-1.8 1,-2.72 0.24,-0.92 0.52,-1.92 0.8,-2.92 l 1.28,0.2 c 0.2,0.48 0.52,0.96 0.88,1.4 0.36,0.44 0.68,0.88 1,1.4 0.28,0.52 0.64,1 1.04,1.44 0.32,0.48 0.56,0.96 0.68,1.44 l 0.36,0.16 1.44,2.8 0.36,0 c 0.12,0.68 0.4,1.24 0.88,1.72 0.52,0.52 1,1.04 1.48,1.52 0.48,0.52 0.88,1.04 1.2,1.64 0.28,0.56 0.64,1.08 1.12,1.6 l 1.68,0.92"
           style="font-size:40px;font-style:normal;font-variant:normal;font-weight:normal;font-stretch:normal;line-height:125%;letter-spacing:0px;word-spacing:0px;fill:#000000;fill-opacity:1;stroke:none;font-family:'青柳隷書SIMO2_O';-inkscape-font-specification:'青柳隷書SIMO2_O'"
           id="path2994"
           inkscape:connector-curvature="0" />
      </g>
    </g>
  </g>
</svg>
