<?xml version="1.0" encoding="UTF-8" standalone="no"?>
<!-- Created with Inkscape (http://www.inkscape.org/) -->

<svg
   xmlns:dc="http://purl.org/dc/elements/1.1/"
   xmlns:cc="http://creativecommons.org/ns#"
   xmlns:rdf="http://www.w3.org/1999/02/22-rdf-syntax-ns#"
   xmlns:svg="http://www.w3.org/2000/svg"
   xmlns="http://www.w3.org/2000/svg"
   xmlns:sodipodi="http://sodipodi.sourceforge.net/DTD/sodipodi-0.dtd"
   xmlns:inkscape="http://www.inkscape.org/namespaces/inkscape"
   width="45.302887"
   height="38.484356"
   id="svg3081"
   version="1.1"
   inkscape:version="0.48.4 r9939"
   sodipodi:docname="mu.svg">
  <defs
     id="defs3083" />
  <sodipodi:namedview
     id="base"
     pagecolor="#ffffff"
     bordercolor="#666666"
     borderopacity="1.0"
     inkscape:pageopacity="0.0"
     inkscape:pageshadow="2"
     inkscape:zoom="3.959798"
     inkscape:cx="35.137347"
     inkscape:cy="-14.072031"
     inkscape:document-units="px"
     inkscape:current-layer="g5086"
     showgrid="false"
     fit-margin-top="0"
     fit-margin-left="0"
     fit-margin-right="0"
     fit-margin-bottom="0"
     inkscape:window-width="958"
     inkscape:window-height="1033"
     inkscape:window-x="960"
     inkscape:window-y="0"
     inkscape:window-maximized="0" />
  <metadata
     id="metadata3086">
    <rdf:RDF>
      <cc:Work
         rdf:about="">
        <dc:format>image/svg+xml</dc:format>
        <dc:type
           rdf:resource="http://purl.org/dc/dcmitype/StillImage" />
        <dc:title></dc:title>
      </cc:Work>
    </rdf:RDF>
  </metadata>
  <g
     inkscape:label="レイヤー 1"
     inkscape:groupmode="layer"
     id="layer1"
     transform="translate(-665,-469.74356)">
    <g
       id="g5086">
      <g
         id="g5967">
        <rect
           style="fill:none;stroke:none"
           id="rect3787"
           width="45.302887"
           height="38.484356"
           x="665"
           y="469.74356" />
        <path
           d="m 677.97144,503.18574 9.36,-1.52 0.8,0.28 3.92,-0.28 c 0.36,0 0.76,0.04 1.16,0.12 0.44,0.12 0.88,0.16 1.32,0.16 0.4,0 0.8,0.04 1.16,0.12 0.36,0.08 0.72,0.2 1.04,0.36 l 2.36,0 0,-0.48 0.52,0 0.52,-2.08 -0.52,-5.08 -0.52,0 c 0,-1.36 0,-2.72 0,-4 0,-1.28 0.04,-2.56 0.16,-3.84 0.08,-1.28 0.24,-2.48 0.52,-3.72 0.24,-1.16 0.56,-2.32 0.92,-3.56 0,-0.32 0,-0.68 0,-1.04 0,-0.32 0,-0.68 0,-1 0,-0.36 -0.2,-0.64 -0.56,-0.92 -0.32,-0.24 -0.52,-0.52 -0.52,-0.88 l -3.88,-1.04 c -1.4,0 -2.8,0.04 -4.2,0.12 -1.4,0.12 -2.84,0.12 -4.32,0 -1.48,-0.08 -2.84,-0.04 -4.12,0.12 -1.32,0.2 -2.68,0.36 -4.08,0.56 l 0,0.24 -1.6,0.52 0,0.48 -2.8,1.56 c 0,0.52 0,1.08 0,1.64 0,0.6 0.16,1.12 0.48,1.52 0.36,0.44 0.52,1 0.52,1.56 0,0.6 0.08,1.2 0.24,1.68 0,1.2 0,2.36 0,3.56 0,1.2 0,2.44 0,3.6 0,1.2 -0.04,2.4 -0.12,3.6 -0.08,1.2 -0.32,2.32 -0.68,3.36 l 0.56,4 2.36,0.28 m 16.96,-4.6 -15.12,1.04 -1.6,-0.48 c 0.16,-1.52 0.24,-3.12 0.24,-4.76 0,-1.6 0,-3.24 0,-4.88 0,-1.6 0.04,-3.24 0.16,-4.88 0.08,-1.6 0.2,-3.2 0.4,-4.72 0.68,0 1.36,-0.12 2.08,-0.4 0.68,-0.24 1.4,-0.44 2.12,-0.64 0.64,-0.16 1.4,-0.24 2.16,-0.24 0.8,0 1.52,-0.08 2.28,-0.24 l 7.28,0.52 c -0.16,0.36 -0.08,0.6 0.24,0.72 0.36,0.2 0.56,0.44 0.56,0.8 0,0.36 0,0.68 0,1 0,0.36 0.08,0.64 0.24,0.8 0,1.04 0,2.04 0,2.92 0,0.96 0,1.88 0,2.8 0,1 0.04,1.96 0.12,3 0.08,1.04 -0.24,1.92 -0.92,2.56 l -0.76,-0.28 c -0.36,-0.36 -0.68,-0.72 -0.96,-1.16 -0.24,-0.44 -0.4,-0.84 -0.48,-1.24 -0.08,-0.44 -0.16,-0.92 -0.24,-1.4 -0.12,-0.52 -0.16,-1.08 -0.16,-1.56 l -1.28,-1.32 -0.56,-1 c 0,-0.16 0,-0.36 0,-0.64 0,-0.28 0,-0.44 0,-0.64 0,-0.16 0.08,-0.28 0.28,-0.36 0.2,-0.08 0.36,-0.2 0.52,-0.4 l -2.32,-2.56 c -0.76,0 -1.36,0.12 -1.88,0.36 -0.52,0.28 -1.08,0.36 -1.68,0.28 -0.6,-0.08 -1.2,-0.04 -1.8,0.12 -0.64,0.2 -1.2,0.28 -1.72,0.28 l -0.56,1 0.56,2.04 4.2,-1.24 2.08,0.24 1.04,2.52 0,0.56 -0.56,0 -1.56,-1.56 -3.88,0.56 0,0.44 -0.52,0 -0.56,0.8 0.32,3.6 c 0.32,0 0.64,0 1,0 0.36,0 0.72,0 1.08,0 0.32,0 0.68,0 1.04,0 0.36,0 0.6,-0.16 0.72,-0.52 l 0.56,-0.8 0.8,-0.2 1.32,-2.08 0.48,0 0.76,2.08 -0.76,3.08 c -0.16,0 -0.32,0 -0.52,0 -0.2,0 -0.28,-0.08 -0.28,-0.28 0,-0.2 0,-0.36 0,-0.56 0,-0.16 0,-0.32 0,-0.48 -0.52,0 -0.92,0.12 -1.28,0.48 -0.36,0.36 -0.8,0.48 -1.28,0.4 -0.52,-0.08 -1.04,-0.12 -1.44,-0.12 -0.44,0 -0.92,0 -1.44,0 l -2.88,2.08 0,0.76 4.4,-1.04 3.92,0.28 0.32,0.76 1,0.24 0.8,0 0.76,-1.28 1.56,1.52 2.08,0.8 -0.48,1.8 0,0.72 m -8.88,-9.96 -0.8,0.24 -0.76,0 0,-1.24 0.76,-0.28 0.8,0 0,1.28 m 6.52,-5.64 1.84,-0.48 -1.84,-2.04 -0.8,0.24 0.8,2.28"
           style="font-size:40px;font-style:normal;font-variant:normal;font-weight:normal;font-stretch:normal;line-height:125%;letter-spacing:0px;word-spacing:0px;fill:#000000;fill-opacity:1;stroke:none;font-family:'青柳隷書SIMO2_O';-inkscape-font-specification:'青柳隷書SIMO2_O'"
           id="path3006"
           inkscape:connector-curvature="0" />
      </g>
    </g>
  </g>
</svg>
