<?xml version="1.0" encoding="UTF-8" standalone="no"?>
<!-- Created with Inkscape (http://www.inkscape.org/) -->

<svg
   xmlns:dc="http://purl.org/dc/elements/1.1/"
   xmlns:cc="http://creativecommons.org/ns#"
   xmlns:rdf="http://www.w3.org/1999/02/22-rdf-syntax-ns#"
   xmlns:svg="http://www.w3.org/2000/svg"
   xmlns="http://www.w3.org/2000/svg"
   xmlns:sodipodi="http://sodipodi.sourceforge.net/DTD/sodipodi-0.dtd"
   xmlns:inkscape="http://www.inkscape.org/namespaces/inkscape"
   width="45.302887"
   height="38.484356"
   id="svg3081"
   version="1.1"
   inkscape:version="0.48.4 r9939"
   sodipodi:docname="soh.svg">
  <defs
     id="defs3083" />
  <sodipodi:namedview
     id="base"
     pagecolor="#ffffff"
     bordercolor="#666666"
     borderopacity="1.0"
     inkscape:pageopacity="0.0"
     inkscape:pageshadow="2"
     inkscape:zoom="3.959798"
     inkscape:cx="35.137347"
     inkscape:cy="-14.072031"
     inkscape:document-units="px"
     inkscape:current-layer="g5086"
     showgrid="false"
     fit-margin-top="0"
     fit-margin-left="0"
     fit-margin-right="0"
     fit-margin-bottom="0"
     inkscape:window-width="958"
     inkscape:window-height="1033"
     inkscape:window-x="960"
     inkscape:window-y="0"
     inkscape:window-maximized="0" />
  <metadata
     id="metadata3086">
    <rdf:RDF>
      <cc:Work
         rdf:about="">
        <dc:format>image/svg+xml</dc:format>
        <dc:type
           rdf:resource="http://purl.org/dc/dcmitype/StillImage" />
        <dc:title></dc:title>
      </cc:Work>
    </rdf:RDF>
  </metadata>
  <g
     inkscape:label="レイヤー 1"
     inkscape:groupmode="layer"
     id="layer1"
     transform="translate(-665,-469.74356)">
    <g
       id="g5086">
      <g
         id="g5917">
        <rect
           style="fill:none;stroke:none"
           id="rect3787"
           width="45.302887"
           height="38.484356"
           x="665"
           y="469.74356" />
        <path
           d="m 678.71144,504.26574 0.8,-0.56 0.72,-1.92 -0.24,-2.28 -1.28,-0.6 -1,0.28 c 0.16,0.36 0.24,0.8 0.24,1.28 0,0.48 0,0.96 0,1.44 0,0.48 0,0.96 0,1.44 0,0.44 0.28,0.72 0.76,0.92 m 17.56,0 0.52,-0.24 -0.24,-2.84 -3.12,-3.08 -0.96,0.24 0.96,4.28 2.84,1.64 m -12.24,-0.56 1.08,-0.84 c 0,-0.36 0,-0.72 0,-1.12 0,-0.36 0,-0.76 0,-1.12 0,-0.36 -0.12,-0.72 -0.4,-1 -0.28,-0.28 -0.56,-0.6 -0.88,-0.96 l -1.04,0.24 c 0,0.4 0,0.84 0,1.32 0,0.44 0.04,0.92 0.16,1.4 0.08,0.48 0.16,0.88 0.24,1.24 0.08,0.4 0.32,0.68 0.84,0.84 m 4.64,-1.08 1.28,-0.6 0,-1.64 -2.04,-2.28 -0.56,0 -0.24,0.56 c 0,0.36 0,0.72 0,1.12 0,0.4 0.08,0.72 0.28,0.96 0.16,0.28 0.36,0.56 0.64,0.84 0.28,0.28 0.44,0.64 0.64,1.04 m -20.39999,-2 c 1.2,-0.6 2.36,-1.2 3.48,-1.84 1.07999,-0.68 2.19999,-1.24 3.39999,-1.68 1.24,-0.48 2.44,-0.88 3.72,-1.16 1.24,-0.28 2.48,-0.6 3.64,-0.96 2.08,-0.2 4.04,-0.24 5.92,-0.04 1.84,0.2 3.68,0.52 5.44,0.96 1.76,0.48 3.52,1.12 5.2,1.84 1.68,0.76 3.48,1.32 5.36,1.76 0.36,0 0.68,0 0.88,0 0.24,0 0.48,-0.04 0.76,-0.16 0.28,-0.12 0.52,-0.2 0.76,-0.32 0.28,-0.08 0.48,-0.2 0.68,-0.36 l -0.28,-1.72 0.28,-0.88 0,-0.24 -13.28,-3.12 0.28,-3.12 2.28,-0.84 -0.76,-2.84 c -0.36,0 -0.68,0 -1,0 -0.36,0 -0.64,0 -0.92,0 -0.28,0 -0.48,-0.16 -0.64,-0.4 -0.12,-0.28 -0.36,-0.56 -0.72,-0.76 l -0.8,0 -0.24,1.4 -2.04,0 -1,-1.64 -0.76,0.24 -0.28,1.4 -0.8,0.32 -3.28,-1.16 -0.76,0.32 -0.8,1.4 -0.96,0 -0.28,-0.88 -1.24,-0.52 -1.08,0.28 0.56,1.44 0,1.08 -0.76,0 -1.52,2.04 0,0.84 2,-0.32 0.8,0 0,1.96 -10.71999,3.44 -1,2.28 0.48,1.72 0,0.24 m 19.87999,-8.24 -2.56,0 0.28,-3.36 2.56,0 -0.28,1.96 0,1.4 m 3.8,-0.28 -0.24,0.28 -1.56,0 0,-3.36 2.32,0 -0.52,3.08 m -9.16,-0.24 -1,0.52 -0.52,0 0.28,-2.56 2,0.64 0,1.08 -0.76,0.32 m -4.56,-9.4 c 0.84,-0.32 1.72,-0.72 2.52,-1.12 0.84,-0.4 1.68,-0.72 2.56,-1 0.8,-0.28 1.72,-0.52 2.64,-0.72 0.92,-0.2 1.84,-0.36 2.72,-0.52 l 1.76,0.24 2.84,0 -0.28,-2.52 -1.04,-0.6 c -0.8,0 -1.68,0 -2.52,0 -0.88,0 -1.72,0.04 -2.56,0.16 -0.84,0.12 -1.68,0.24 -2.4,0.44 -0.8,0.2 -1.6,0.4 -2.48,0.56 l -1.52,0 0,-1.72 -1.76,-1.96 -1.56,0.28 -0.72,1.68 0.52,1.96 -0.76,1.72 0.24,2.04 1.8,1.08"
           style="font-size:40px;font-style:normal;font-variant:normal;font-weight:normal;font-stretch:normal;line-height:125%;letter-spacing:0px;word-spacing:0px;fill:#000000;fill-opacity:1;stroke:none;font-family:'青柳隷書SIMO2_O';-inkscape-font-specification:'青柳隷書SIMO2_O'"
           id="path3010"
           inkscape:connector-curvature="0" />
      </g>
    </g>
  </g>
</svg>
