<?xml version="1.0" encoding="UTF-8" standalone="no"?>
<!-- Created with Inkscape (http://www.inkscape.org/) -->

<svg
   xmlns:dc="http://purl.org/dc/elements/1.1/"
   xmlns:cc="http://creativecommons.org/ns#"
   xmlns:rdf="http://www.w3.org/1999/02/22-rdf-syntax-ns#"
   xmlns:svg="http://www.w3.org/2000/svg"
   xmlns="http://www.w3.org/2000/svg"
   version="1.1"
   width="45.302887"
   height="38.484356"
   id="svg3081">
  <defs
     id="defs3083" />
  <metadata
     id="metadata3086">
    <rdf:RDF>
      <cc:Work
         rdf:about="">
        <dc:format>image/svg+xml</dc:format>
        <dc:type
           rdf:resource="http://purl.org/dc/dcmitype/StillImage" />
        <dc:title></dc:title>
      </cc:Work>
    </rdf:RDF>
  </metadata>
  <g
     transform="translate(-665,-469.74356)"
     id="layer1">
    <g
       id="g5086">
      <g
         id="g5342">
        <rect
           width="45.302887"
           height="38.484356"
           x="665"
           y="469.74356"
           id="rect3787"
           style="fill:none;stroke:none" />
        <path
           d="m 700.13144,505.40574 c 0.24,-0.2 0.6,-0.32 1.04,-0.32 0.44,0 0.84,0 1.2,0 0.28,-0.04 0.56,-0.16 0.8,-0.4 0.2,-0.28 0.52,-0.44 0.96,-0.48 l 2,-1.76 -1,0.36 c -1.6,-0.36 -3.28,-0.6 -5.04,-0.76 -1.8,-0.16 -3.48,-0.36 -5.08,-0.64 -1.6,-0.24 -3.28,-0.44 -5.08,-0.6 -1.84,-0.16 -3.4,-0.52 -4.76,-1.04 l 0.48,-6 1.04,-0.32 7.08,0.72 0.68,-0.04 0.32,-0.88 -0.08,-1.12 -8.84,-0.64 0.16,-4.32 5.56,0.16 2,-0.04 -0.68,-0.6 -0.04,-0.52 0.32,0 c 0,-0.2 -0.04,-0.44 -0.16,-0.64 -0.12,-0.2 -0.16,-0.44 -0.16,-0.72 -0.04,-0.24 -0.16,-0.4 -0.36,-0.4 -0.24,0.04 -0.48,-0.08 -0.72,-0.28 l -8.8,0.48 -2,-0.52 -3.04,0.64 -1.28,1.2 0,0.56 -0.64,0.28 0.4,1.16 2.64,-0.64 3.72,-0.08 0.12,4.32 c -0.88,0.04 -1.76,0.12 -2.52,0.32 -0.8,0.2 -1.56,0.32 -2.36,0.36 -0.76,0.04 -1.56,0.08 -2.32,0.2 -0.8,0.12 -1.4,0.6 -1.76,1.32 l 0.32,1.72 6.04,-1.52 2.68,-0.12 c 0.2,0.6 0.24,1.08 0.04,1.6 -0.2,0.52 -0.32,1 -0.28,1.6 0,0.6 0,1.08 0.04,1.56 0,0.52 -0.2,0.96 -0.6,1.28 -0.68,0.6 -1.4,0.96 -2.2,1.08 -0.8,0.12 -1.48,0.36 -2.16,0.6 -0.64,0.28 -1.36,0.44 -2.12,0.44 -0.84,0.04 -1.64,0.08 -2.56,0.12 l -1.59999,1.72 0.4,1.32 2.31999,-0.04 0,-0.52 5.6,-1.76 c 1.8,-0.04 3.6,-0.08 5.44,-0.12 1.8,-0.04 3.56,0.12 5.24,0.4 1.68,0.36 3.32,0.72 4.92,1.16 1.56,0.44 3.12,0.8 4.68,1.16 m -15,-5.92 -0.28,0.32 -0.36,-0.28 0.28,-0.24 0.36,0.2 m 9.76,-1.08 3.4,-0.36 -0.4,-1.08 -3.4,-1.4 -2.36,0.64 2.76,2.2 m -9.48,-2.32 -0.36,0.28 -0.36,-0.24 0.36,-0.32 0.36,0.28 m -14.35999,-7.2 1,-0.88 1.27999,-2.32 -0.48,-3.12 c 0.44,-0.8 1.32,-1.28 2.52,-1.52 1.2,-0.2 2.36,-0.48 3.48,-0.76 1.08,-0.28 2.24,-0.48 3.52,-0.52 1.2,-0.04 2.36,-0.12 3.48,-0.32 l 14.24,1.64 0.12,3.16 -1.36,0.32 0.04,0.52 1,-0.04 0,0.64 1.76,1.44 0.96,-0.36 1.56,-4.64 -0.36,-2 c -1.2,-0.92 -2.56,-1.48 -4.12,-1.64 -1.6,-0.12 -3.12,-0.32 -4.56,-0.56 -1.48,-0.28 -3.04,-0.4 -4.72,-0.36 -1.68,0.04 -3.32,0.08 -4.92,0.12 l 0.32,-1.4 -0.84,-3.16 -1.28,-0.56 -2.72,0.88 1.12,2.64 0,0.56 c -0.92,0.16 -1.72,0.4 -2.48,0.72 -0.76,0.32 -1.6,0.6 -2.48,0.76 -0.92,0.24 -1.8,0.48 -2.68,0.68 -0.88,0.2 -1.8,0.32 -2.67999,0.32 l 0,0.6 -1.96,0.88 0,0.6 -0.64,0.04 0,2.24 0.72,-0.04 0.36,0.92 -0.24,2.52 0.32,1.44 0.68,0 0.04,0.56"
           id="path3030"
           style="font-size:40px;font-style:normal;font-variant:normal;font-weight:normal;font-stretch:normal;line-height:125%;letter-spacing:0px;word-spacing:0px;fill:#000000;fill-opacity:1;stroke:none;font-family:'青柳隷書SIMO2_O';-inkscape-font-specification:'青柳隷書SIMO2_O'" />
      </g>
    </g>
  </g>
</svg>
