<?xml version="1.0" encoding="UTF-8" standalone="no"?>
<!-- Created with Inkscape (http://www.inkscape.org/) -->

<svg
   xmlns:dc="http://purl.org/dc/elements/1.1/"
   xmlns:cc="http://creativecommons.org/ns#"
   xmlns:rdf="http://www.w3.org/1999/02/22-rdf-syntax-ns#"
   xmlns:svg="http://www.w3.org/2000/svg"
   xmlns="http://www.w3.org/2000/svg"
   version="1.1"
   width="45.302887"
   height="38.484356"
   id="svg3081">
  <defs
     id="defs3083" />
  <metadata
     id="metadata3086">
    <rdf:RDF>
      <cc:Work
         rdf:about="">
        <dc:format>image/svg+xml</dc:format>
        <dc:type
           rdf:resource="http://purl.org/dc/dcmitype/StillImage" />
        <dc:title></dc:title>
      </cc:Work>
    </rdf:RDF>
  </metadata>
  <g
     transform="translate(-665,-469.74356)"
     id="layer1">
    <g
       id="g5086">
      <g
         id="g5256">
        <rect
           width="45.302887"
           height="38.484356"
           x="665"
           y="469.74356"
           id="rect3787"
           style="fill:none;stroke:none" />
        <path
           d="m 675.19144,504.70574 0.72,-0.24 0.72,-1.32 0.48,0 c 0,-0.88 -0.04,-1.92 -0.12,-2.96 -0.08,-1.04 0,-2.08 0.24,-2.96 0.24,-0.92 0.44,-1.84 0.6,-2.76 0.16,-0.88 0.4,-1.8 0.72,-2.72 l 1.44,0.44 0.72,0 0,-0.92 0.72,0 c 0,-0.28 0,-0.64 0,-1.04 0,-0.36 0,-0.76 0,-1.12 0,-0.36 -0.04,-0.76 -0.12,-1.16 -0.08,-0.32 -0.2,-0.68 -0.36,-1 l 0,-0.72 c 0.64,-0.24 1.24,-0.48 1.92,-0.64 0.6,-0.12 1.28,-0.32 2.04,-0.56 0.72,-0.2 1.44,-0.36 2.12,-0.44 0.72,-0.08 1.4,-0.24 2,-0.56 l 1.2,0 -0.2,0.88 c 0,0.32 0,0.6 0,0.8 0,0.2 0,0.44 0,0.76 0,0.32 0.04,0.6 0.08,0.8 0.08,0.24 0.28,0.44 0.6,0.56 l -0.48,13.24 -0.44,0 c -0.2,0.32 -0.2,0.64 0,0.92 0.16,0.32 0.28,0.64 0.32,0.88 0.08,0.32 0.12,0.68 0.12,1.08 0,0.36 0.24,0.6 0.72,0.76 l 0.76,0 0,-0.24 0.44,-0.64 0.24,0 0.48,-9.16 0.96,0.72 0.48,0.24 1.92,3.2 0.48,0 0,0.44 c 0.32,0.12 0.68,0.36 1.08,0.68 0.4,0.32 0.76,0.64 1.2,0.92 0.4,0.28 0.8,0.44 1.2,0.44 0.4,0 0.84,0.08 1.32,0.24 l 1.2,0 0,-0.48 3.84,-1.12 0,-0.48 0.44,0 0.52,-0.88 -0.52,-2.32 -2.36,0.96 c -0.68,0 -1.24,-0.04 -1.8,-0.12 -0.6,-0.08 -1.08,-0.2 -1.56,-0.36 -0.48,-0.16 -0.92,-0.4 -1.28,-0.72 -0.44,-0.24 -0.96,-0.4 -1.6,-0.4 l 0,-0.48 -1.68,-0.88 0,-0.48 -0.48,0 -0.48,-1.12 -0.48,0 -2.4,-3.24 c 0,-0.4 0,-0.88 0,-1.36 0,-0.4 0,-0.88 0,-1.36 0,-0.48 0,-0.96 0,-1.48 0,-0.52 0.16,-0.88 0.52,-1.2 0.92,0 1.84,0 2.84,0 0.96,0 1.88,0.16 2.76,0.4 0.88,0.32 1.72,0.6 2.64,0.8 0.88,0.24 1.8,0.44 2.76,0.6 l 1.44,0 -0.28,-1.8 c -0.6,-0.32 -1.28,-0.56 -2,-0.72 -0.72,-0.12 -1.4,-0.32 -2,-0.56 -0.68,-0.2 -1.36,-0.36 -2.08,-0.44 -0.76,-0.08 -1.48,-0.2 -2.28,-0.36 l 1.44,-4.12 0.48,0 0.24,-0.4 -0.48,-1.4 c -0.36,-0.28 -0.68,-0.56 -1.08,-0.8 -0.4,-0.24 -0.8,-0.56 -1.16,-0.92 -0.44,-0.36 -0.88,-0.56 -1.36,-0.56 -0.48,0 -0.88,-0.16 -1.2,-0.48 l -6.72,0.24 0,0.72 -0.68,0.44 -0.24,0.68 0.24,1.36 3.56,-0.68 c 0.48,0 0.96,0 1.48,0 0.44,0 0.92,0 1.44,0 0.44,0 0.92,0 1.44,0 0.48,0 0.84,0.16 1.16,0.44 l -0.24,1.16 -5.72,0.68 -1.92,-0.24 -1.44,0.72 0,0.44 -0.96,0.2 -0.44,0.72 0,0.44 0.44,0.24 5,-0.68 c 0.32,0 0.64,0 1,0 0.28,0 0.56,0 0.8,0 0.24,0 0.52,0.04 0.88,0.12 0.28,0.08 0.52,0.2 0.68,0.32 l 0,0.44 c -1.12,0.32 -2.16,0.6 -3.24,0.8 -1.04,0.24 -2.12,0.44 -3.2,0.6 -1.08,0.16 -2.2,0.28 -3.32,0.44 -1.12,0.16 -2.08,0.64 -2.88,1.4 l -0.48,0.64 -1.2,-0.88 -0.72,0 0,-1.6 1.92,-1.16 0.48,-0.68 -1,-3.64 -0.44,0 -0.24,-0.92 -0.48,0 0,-0.44 -1.68,-2.08 -0.72,0.24 -0.24,0.68 -0.72,0.24 -1.68,2.28 -0.48,0 -2.63999,4.08 0.24,1.84 3.11999,0.68 -0.24,1.36 -0.48,0 c -0.12,0.32 -0.28,0.64 -0.44,0.92 -0.2,0.24 -0.36,0.56 -0.52,0.88 -0.15999,0.32 -0.39999,0.6 -0.71999,0.8 -0.28,0.2 -0.36,0.56 -0.2,1.04 l -0.52,0 -1.16,2.48 c 0,0.6 0.2,1 0.72,1.16 0.48,0.16 0.96,0.32 1.4,0.48 0.47999,0.12 0.99999,0.2 1.55999,0.2 0.56,0 1.08,0.08 1.56,0.24 l 0.24,1.56 c -0.16,0.64 -0.24,1.28 -0.24,1.84 0,0.64 0,1.24 0,1.84 0,0.6 -0.04,1.2 -0.08,1.8 -0.08,0.64 -0.28,1.16 -0.64,1.64 l 0.72,2.68 0,0.24 m -6.91999,-3.4 1.68,-0.44 0.68,-3.88 -0.68,-0.72 0,-0.4 -1,-0.72 -0.92,0 -0.24,0.72 c 0,0.4 0,0.88 0,1.32 0,0.48 0,0.92 0,1.36 0,0.48 0,0.92 0,1.36 0,0.48 0.16,0.88 0.48,1.16 l 0,0.24 m 12.43999,-1.36 0.72,0 0.96,-1.36 -0.52,-1.84 -1.16,-0.68 0,-0.44 -0.52,0 0,-0.24 -0.92,1.6 1.44,2.72 0,0.24 m 5.52,0 0,-0.48 0.88,-0.2 c 0,-0.44 0,-0.88 0,-1.28 0,-0.32 0.04,-0.76 0.12,-1.24 0.08,-0.44 0.12,-0.84 0.12,-1.24 0,-0.4 0.24,-0.76 0.76,-1.04 l 0,-0.2 c -0.36,0 -0.68,0.04 -1,0.12 -0.32,0.04 -0.6,0.16 -0.88,0.28 -0.32,0.16 -0.68,0.24 -1.08,0.24 -0.4,0 -0.76,0 -1.08,0 l -0.72,1.16 0.72,2.28 c 0.16,0.16 0.28,0.36 0.36,0.56 0.08,0.24 0.24,0.4 0.48,0.48 0.2,0.04 0.44,0.12 0.72,0.2 0.24,0.08 0.44,0.2 0.6,0.36 m 0,-8 1.36,-0.44 0.96,-0.92 0,-1.36 -3.76,-1.6 -1,0.44 0.28,1.84 0.48,0 0,0.68 1.2,1.16 0.48,0.2 m 11.44,-0.68 2.16,-0.24 0,-0.44 0.44,0 0,-0.44 0.52,0 0,-1.16 -0.52,0 0,-0.44 -1.4,-1.36 -1.92,0.44 -0.24,1.16 -1.44,0.88 0,0.24 0.72,0 1.2,1.12 0.48,0.24 m -20.56,-2.04 -1.92,0.92 -3.55999,-0.72 0,-1.12 0.2,0 0,-0.24 0.24,0 0,-0.24 0.24,0 0,-0.4 0.47999,0 0.52,-1.2 0.92,-0.2 0,-0.44 1.68,-0.88 0.48,0 0,0.44 0.48,0.24 1.44,2.44 0,1.16 c -0.16,0 -0.32,-0.04 -0.48,-0.12 -0.16,-0.04 -0.24,-0.2 -0.24,-0.44 0,-0.24 0,-0.44 0,-0.6 0,-0.12 -0.08,-0.28 -0.24,-0.4 l -0.24,1.8 m -0.24,-8.2 -3.56,-0.64 0.68,-2.08 0.48,0 1.2,-1.6 1.2,0 1.44,1.84 -1.44,2.04 0,0.44"
           id="path3034"
           style="font-size:40px;font-style:normal;font-variant:normal;font-weight:normal;font-stretch:normal;line-height:125%;letter-spacing:0px;word-spacing:0px;fill:#000000;fill-opacity:1;stroke:none;font-family:'青柳隷書SIMO2_O';-inkscape-font-specification:'青柳隷書SIMO2_O'" />
      </g>
    </g>
  </g>
</svg>
