<?xml version="1.0" encoding="UTF-8" standalone="no"?>
<!-- Created with Inkscape (http://www.inkscape.org/) -->

<svg
   xmlns:dc="http://purl.org/dc/elements/1.1/"
   xmlns:cc="http://creativecommons.org/ns#"
   xmlns:rdf="http://www.w3.org/1999/02/22-rdf-syntax-ns#"
   xmlns:svg="http://www.w3.org/2000/svg"
   xmlns="http://www.w3.org/2000/svg"
   xmlns:sodipodi="http://sodipodi.sourceforge.net/DTD/sodipodi-0.dtd"
   xmlns:inkscape="http://www.inkscape.org/namespaces/inkscape"
   width="45.302887"
   height="38.484356"
   id="svg3081"
   version="1.1"
   inkscape:version="0.48.4 r9939"
   sodipodi:docname="gen.svg">
  <defs
     id="defs3083" />
  <sodipodi:namedview
     id="base"
     pagecolor="#ffffff"
     bordercolor="#666666"
     borderopacity="1.0"
     inkscape:pageopacity="0.0"
     inkscape:pageshadow="2"
     inkscape:zoom="3.959798"
     inkscape:cx="35.137347"
     inkscape:cy="-14.072031"
     inkscape:document-units="px"
     inkscape:current-layer="g5086"
     showgrid="false"
     fit-margin-top="0"
     fit-margin-left="0"
     fit-margin-right="0"
     fit-margin-bottom="0"
     inkscape:window-width="958"
     inkscape:window-height="1033"
     inkscape:window-x="960"
     inkscape:window-y="0"
     inkscape:window-maximized="0" />
  <metadata
     id="metadata3086">
    <rdf:RDF>
      <cc:Work
         rdf:about="">
        <dc:format>image/svg+xml</dc:format>
        <dc:type
           rdf:resource="http://purl.org/dc/dcmitype/StillImage" />
        <dc:title></dc:title>
      </cc:Work>
    </rdf:RDF>
  </metadata>
  <g
     inkscape:label="レイヤー 1"
     inkscape:groupmode="layer"
     id="layer1"
     transform="translate(-665,-469.74356)">
    <g
       id="g5086">
      <g
         id="g6253">
        <rect
           style="fill:none;stroke:none"
           id="rect3787"
           width="45.302887"
           height="38.484356"
           x="665"
           y="469.74356" />
        <path
           d="m 670.17145,502.58574 0.68,-0.2 0.4,-1.52 1.39999,-0.48 0.16,-0.44 1.44,-0.52 0,-0.52 c 0.56,-0.12 1.2,-0.2 1.88,-0.2 0.64,0 1.36,-0.04 2,-0.16 0.68,-0.08 1.36,-0.2 2.04,-0.36 0.68,-0.12 1.32,-0.28 1.92,-0.48 l 0.92,0.28 1.32,-0.28 c 0.76,0.2 1.56,0.28 2.28,0.28 0.76,0 1.48,0.04 2.24,0.12 0.72,0.08 1.48,0.2 2.2,0.36 0.64,0.16 1.36,0.32 2.08,0.44 l 0,0.52 0.68,0 0,0.52 -0.24,0 4.28,1.44 0.24,0.52 c 0.32,0 0.64,0 0.92,0 0.28,0 0.48,0 0.76,0 0.24,0 0.52,0 0.8,0 0.28,0 0.52,0.16 0.68,0.48 l 4.08,-2 0,-1.24 -0.28,0 0,-0.72 0.48,0 0.24,-0.44 0.92,-0.52 -0.52,0.24 -1.12,-0.24 -1.08,0.24 -0.92,0 0,-0.52 0.68,-0.2 0,-0.52 -2.72,0.52 c -1.52,0 -2.96,-0.12 -4.28,-0.4 -1.36,-0.24 -2.72,-0.44 -4.12,-0.6 -1.48,-0.16 -2.88,-0.28 -4.32,-0.36 -1.44,-0.08 -2.76,-0.52 -3.96,-1.36 l -0.2,-0.44 -7.24,2.12 -0.68,0 0.92,-0.2 1.32,0 0,0.48 -3.8,0.24 0,0.52 -0.68,-0.24 -0.68,0 -0.48,0.72 -1.75999,-0.28 -1.8,0.52 -0.64,1.96 0.44,2.48 1.12,0.44 m 26.79999,-1.96 -0.2,0.24 -0.28,-0.24 0,-0.44 0.72,0.2 -0.24,0.24 m -18.96,-12.24 c 0.48,-0.2 0.92,-0.36 1.32,-0.56 0.32,-0.16 0.72,-0.32 1.08,-0.48 0.36,-0.12 0.8,-0.2 1.32,-0.2 0.52,0 0.96,-0.04 1.28,-0.24 l 0.44,0 0,0.24 1.12,0 0,-0.48 2.48,-0.28 1.6,0 0,0.52 0.76,0 1.8,0.24 1.76,0 0,-0.24 -0.16,0 0,-0.52 0.16,0 -0.64,-0.4 -0.44,-0.8 -0.2,-0.72 c -0.52,-0.16 -1,-0.24 -1.48,-0.24 -0.52,0 -1.08,0 -1.6,0 -0.52,0 -1.08,0 -1.6,0 -0.48,0 -0.92,-0.32 -1.28,-1 -0.68,0 -1.36,0.16 -1.96,0.48 -0.6,0.36 -1.28,0.52 -1.92,0.52 -0.68,0 -1.44,0.04 -2.16,0.12 -0.76,0.08 -1.36,0.32 -1.8,0.84 l -0.24,1.04 0.24,2.12 0.88,0.28 -0.76,-0.24 m 1.04,-7.6 c 1.2,-0.16 2.36,-0.28 3.48,-0.36 1.12,-0.08 2.28,-0.2 3.4,-0.4 1.12,-0.16 2.28,-0.24 3.48,-0.24 1.2,0 2.24,-0.2 3.12,-0.68 l 0,-0.28 -0.48,-0.24 -0.64,-1.72 -0.92,-0.72 -0.88,0.2 c -0.44,0 -0.96,0.04 -1.44,0.12 -0.56,0.12 -1.04,0.04 -1.36,-0.24 -0.36,-0.2 -0.8,-0.36 -1.24,-0.48 -0.44,-0.08 -0.92,-0.2 -1.36,-0.36 l -2.48,0.24 0,0.52 -2.52,0.72 0,0.52 -0.44,0 -0.4,1.2 c 0,0.16 0,0.36 0,0.6 0,0.24 0,0.44 0,0.72 0,0.28 0.08,0.44 0.2,0.52 0.12,0.08 0.28,0.2 0.48,0.36"
           style="font-size:40px;font-style:normal;font-variant:normal;font-weight:normal;font-stretch:normal;line-height:125%;letter-spacing:0px;word-spacing:0px;fill:#000000;fill-opacity:1;stroke:none;font-family:'青柳隷書SIMO2_O';-inkscape-font-specification:'青柳隷書SIMO2_O'"
           id="path2996"
           inkscape:connector-curvature="0" />
      </g>
    </g>
  </g>
</svg>
