<?xml version="1.0" encoding="UTF-8" standalone="no"?>
<!-- Created with Inkscape (http://www.inkscape.org/) -->

<svg
   xmlns:dc="http://purl.org/dc/elements/1.1/"
   xmlns:cc="http://creativecommons.org/ns#"
   xmlns:rdf="http://www.w3.org/1999/02/22-rdf-syntax-ns#"
   xmlns:svg="http://www.w3.org/2000/svg"
   xmlns="http://www.w3.org/2000/svg"
   xmlns:sodipodi="http://sodipodi.sourceforge.net/DTD/sodipodi-0.dtd"
   xmlns:inkscape="http://www.inkscape.org/namespaces/inkscape"
   width="45.302887"
   height="38.484356"
   id="svg3081"
   version="1.1"
   inkscape:version="0.48.4 r9939"
   sodipodi:docname="koku.svg">
  <defs
     id="defs3083" />
  <sodipodi:namedview
     id="base"
     pagecolor="#ffffff"
     bordercolor="#666666"
     borderopacity="1.0"
     inkscape:pageopacity="0.0"
     inkscape:pageshadow="2"
     inkscape:zoom="3.959798"
     inkscape:cx="35.137347"
     inkscape:cy="-14.072031"
     inkscape:document-units="px"
     inkscape:current-layer="g5086"
     showgrid="false"
     fit-margin-top="0"
     fit-margin-left="0"
     fit-margin-right="0"
     fit-margin-bottom="0"
     inkscape:window-width="958"
     inkscape:window-height="1033"
     inkscape:window-x="960"
     inkscape:window-y="0"
     inkscape:window-maximized="0" />
  <metadata
     id="metadata3086">
    <rdf:RDF>
      <cc:Work
         rdf:about="">
        <dc:format>image/svg+xml</dc:format>
        <dc:type
           rdf:resource="http://purl.org/dc/dcmitype/StillImage" />
        <dc:title></dc:title>
      </cc:Work>
    </rdf:RDF>
  </metadata>
  <g
     inkscape:label="レイヤー 1"
     inkscape:groupmode="layer"
     id="layer1"
     transform="translate(-665,-469.74356)">
    <g
       id="g5086">
      <g
         id="g6010">
        <rect
           style="fill:none;stroke:none"
           id="rect3787"
           width="45.302887"
           height="38.484356"
           x="665"
           y="469.74356" />
        <path
           d="m 681.37144,503.46574 2.44,-0.44 0,-0.2 c 0.44,-0.12 0.92,-0.24 1.4,-0.4 0.44,-0.16 0.92,-0.24 1.36,-0.24 0.4,0 0.88,-0.04 1.32,-0.12 0.44,-0.04 0.88,-0.16 1.32,-0.36 l 4.32,0 0,-1.96 0.68,0.68 0.24,-0.2 0.24,0.2 0.44,-0.4 0.68,0 0,0.4 2.68,-0.2 -0.64,0 c 0,-0.12 0,-0.28 0,-0.44 0,-0.16 0,-0.32 0,-0.48 0,-0.12 0.12,-0.2 0.36,-0.2 0.16,0 0.28,-0.08 0.28,-0.2 l -0.88,-0.92 -1.12,-0.2 0,-0.4 -0.48,0 -0.2,-0.44 0,0.2 -0.92,0 0,-0.44 -0.88,-0.24 -0.48,0.48 -0.84,0 0,-0.48 -1.84,-0.44 c -0.28,0 -0.6,0 -0.84,0 -0.32,0 -0.64,0.04 -0.92,0.08 -0.32,0.08 -0.64,0.12 -0.88,0.12 -0.32,0 -0.56,0.16 -0.72,0.48 l -0.44,0 0,-0.48 -1.6,-0.36 0.28,-1.16 0,-0.64 -0.28,0.2 -0.44,0 0,-1.32 0.44,0 0,-0.4 0.68,-0.24 0.28,-1.32 0.2,0 -0.2,-0.44 0,-0.64 0.64,0 0,-0.84 0.2,0 0,-0.48 -0.2,0.84 -0.44,0 0,-0.36 -0.48,0 c -0.12,-0.32 -0.08,-0.6 0.16,-0.8 0.2,-0.2 0.32,-0.44 0.32,-0.64 0,-0.2 0,-0.48 0,-0.8 0,-0.28 0,-0.6 0,-0.88 l 0.2,0 0.24,-0.64 2.24,-0.24 0,-0.2 1.12,0 4.28,0.64 0,0.24 0.2,0 0,0.2 0.92,0 0,0.2 2.04,0.48 0,0.2 4.24,0.68 3.32,0.84 1.2,-0.4 0,-0.64 -0.24,0 -0.52,-1.56 c -1.16,-0.92 -2.48,-1.48 -3.88,-1.76 -1.44,-0.28 -2.88,-0.56 -4.36,-0.8 -1.52,-0.2 -3,-0.4 -4.48,-0.56 -1.52,-0.08 -3.04,-0.24 -4.52,-0.4 l -0.88,-2.2 0.24,-0.88 -0.24,-0.64 0.24,-1.76 -0.24,-0.88 -1.8,-1.36 -2.24,0.68 0.24,1.32 -0.48,2.44 0.48,2.88 0,0.4 c -1.2,0.28 -2.4,0.56 -3.72,0.84 -1.28,0.32 -2.52,0.64 -3.8,0.92 -1.32,0.28 -2.6,0.52 -3.84,0.72 -1.23999,0.24 -2.51999,0.64 -3.71999,1.24 l -0.16,0.44 1.12,4 0.88,0.6 0.92,0 0.64,-2.4 c 0.59999,-0.16 1.11999,-0.44 1.67999,-0.8 0.52,-0.32 1.08,-0.56 1.72,-0.72 0.6,-0.16 1.16,-0.32 1.68,-0.48 0.52,-0.12 1.04,-0.36 1.64,-0.64 l 0.92,0 0,0.2 0.2,0 0,-0.4 0.72,0 0,0.2 2.2,-0.2 1.36,0.2 0.24,0.68 0.2,0 0,0.44 -0.2,0 -0.48,4.6 -0.2,0 -0.48,2.6 -0.92,0.68 -1.32,1.76 -1.12,-0.24 -0.88,0 0,1.32 -0.68,0 0,0.2 -0.2,0 0.4,3.36 0.68,0.4 1.96,1.72 m 3,-3.44 -0.24,0.2 -1.8,-0.2 0,-0.48 0.68,-0.24 0.68,0 0.68,0.72 m 1.76,0 -1.12,0 0,-0.92 1.12,0.2 0,0.72 m 11.48,0 -0.68,0 0,-0.72 0.68,0.24 0,0.48 m -10.12,-0.48 -0.24,0.2 -0.64,0 0,-0.44 0.88,0.24 m 2.28,-0.24 -0.24,0.24 -0.92,0 0,-0.44 1.16,0.2 m -1.6,-0.2 -0.2,0.2 -0.72,0 0,-0.4 0.92,0.2 m -2.92,-6.32 -0.24,0.4 -0.2,-0.24 0,-0.4 0.44,0 0,0.24 m 0.2,-0.64 -0.2,0.16 -0.24,-0.16 0,-1.36 0.72,0 -0.28,0.64 0,0.72 m -0.84,-0.96 -0.24,0.24 -0.24,-0.24 0,-0.4 0.68,0.2 -0.2,0.2 m 1.52,-0.4 -0.2,0.2 -0.68,-0.44 0.2,-0.64 0.48,0 0.2,0.88 m -1.32,-1.36 -0.2,0.28 -0.24,-0.28 0,-0.64 0.44,0 0,0.64 m 1.6,-1.48 -0.28,0.84 -0.4,0 0.4,-1.12 0.28,0.28 m -10.12,-1.32 -0.24,0.2 -0.44,0 0,-0.44 0.68,0.24 m 1.36,-0.48 -0.72,0.48 -0.64,0 0,-0.48 0.64,-0.2 0.72,0.2 m 11.44,-1.52 -0.24,0.24 -0.68,0 0.2,-0.48 0.72,0.24 m 2,0 -0.24,0.24 -0.68,0 0,-0.48 0.92,0.24"
           style="font-size:40px;font-style:normal;font-variant:normal;font-weight:normal;font-stretch:normal;line-height:125%;letter-spacing:0px;word-spacing:0px;fill:#000000;fill-opacity:1;stroke:none;font-family:'青柳隷書SIMO2_O';-inkscape-font-specification:'青柳隷書SIMO2_O'"
           id="path3008"
           inkscape:connector-curvature="0" />
      </g>
    </g>
  </g>
</svg>
