<?xml version="1.0" encoding="UTF-8" standalone="no"?>
<!-- Created with Inkscape (http://www.inkscape.org/) -->

<svg
   xmlns:dc="http://purl.org/dc/elements/1.1/"
   xmlns:cc="http://creativecommons.org/ns#"
   xmlns:rdf="http://www.w3.org/1999/02/22-rdf-syntax-ns#"
   xmlns:svg="http://www.w3.org/2000/svg"
   xmlns="http://www.w3.org/2000/svg"
   version="1.1"
   width="45.302887"
   height="38.484356"
   id="svg3081">
  <defs
     id="defs3083" />
  <metadata
     id="metadata3086">
    <rdf:RDF>
      <cc:Work
         rdf:about="">
        <dc:format>image/svg+xml</dc:format>
        <dc:type
           rdf:resource="http://purl.org/dc/dcmitype/StillImage" />
        <dc:title></dc:title>
      </cc:Work>
    </rdf:RDF>
  </metadata>
  <g
     transform="translate(-665,-469.74356)"
     id="layer1">
    <g
       id="g5086">
      <g
         id="g5393">
        <rect
           width="45.302887"
           height="38.484356"
           x="665"
           y="469.74356"
           id="rect3787"
           style="fill:none;stroke:none" />
        <path
           d="m 686.01144,504.74574 0.88,-0.28 0.28,-0.8 1.16,-0.24 -0.6,-0.8 0.32,-0.72 -0.56,-17.4 0.84,-6.8 0,-1.32 -0.6,0 -0.56,-2.08 -1.16,-0.32 0,-0.48 -1.36,-0.28 -2.84,0 -0.6,1.36 c -0.2,1.52 0.12,2.88 0.92,4.04 0.72,1.12 1.2,2.36 1.4,3.64 0.2,1.36 0.32,2.72 0.4,4.12 0.08,1.4 0.24,2.8 0.4,4.16 l 0,7.36 -0.84,0.76 c 0,0.36 0,0.84 0,1.36 0,0.48 0.04,0.96 0.16,1.32 0.12,0.36 0.16,0.72 0.16,1.16 0,0.48 0.2,0.84 0.52,1.16 l 1.68,0.52 0,0.56 m -13.83999,-6.84 2.27999,-0.24 2.28,-7.12 c 0,-0.32 -0.04,-0.68 -0.16,-1.04 -0.12,-0.36 -0.16,-0.64 -0.16,-0.88 0,-0.28 -0.04,-0.6 -0.12,-0.96 -0.08,-0.36 -0.32,-0.6 -0.72,-0.76 l 0,-0.52 0.28,0 -2.24,-0.8 0,-0.52 -1.75999,-0.56 -1.08,0.28 -0.28,0.52 0.52,1.84 c 0,0.36 0,0.8 0,1.32 0,0.52 0,1 0,1.44 0,0.4 -0.08,0.8 -0.24,1.16 -0.2,0.36 -0.36,0.72 -0.52,1.04 0,0.36 0,0.8 0,1.24 0,0.4 0,0.84 0,1.28 0,0.44 0,0.84 0,1.2 0,0.36 0.16,0.72 0.52,1.08 l 1.08,0.2 0.32,0.8 m 30.59999,-0.8 c 0.4,-0.12 0.68,-0.44 0.88,-0.88 0.2,-0.44 0.28,-0.92 0.28,-1.32 0,-0.44 0.08,-0.88 0.28,-1.24 0.16,-0.32 0.44,-0.64 0.84,-1 l 0,-0.56 -0.6,0 0,-0.48 -0.84,-0.24 c -0.56,-0.56 -1.08,-1.04 -1.68,-1.36 -0.6,-0.36 -1.08,-0.76 -1.4,-1.2 -0.36,-0.4 -0.76,-0.88 -1.16,-1.44 -0.36,-0.48 -0.76,-1 -1.16,-1.52 l -0.8,0 -1.72,2.04 c 0,0.56 0,1 0,1.44 0,0.44 0,0.96 0,1.44 0,0.56 0.16,1.04 0.4,1.44 0.28,0.44 0.56,0.88 0.76,1.24 l 2.48,1.32 0,0.52 1.2,0.24 0,0.52 2.24,1.04"
           id="path3040"
           style="font-size:40px;font-style:normal;font-variant:normal;font-weight:normal;font-stretch:normal;line-height:125%;letter-spacing:0px;word-spacing:0px;fill:#000000;fill-opacity:1;stroke:none;font-family:'青柳隷書SIMO2_O';-inkscape-font-specification:'青柳隷書SIMO2_O'" />
      </g>
    </g>
  </g>
</svg>
