<?xml version="1.0" encoding="UTF-8" standalone="no"?>
<!-- Created with Inkscape (http://www.inkscape.org/) -->

<svg
   xmlns:dc="http://purl.org/dc/elements/1.1/"
   xmlns:cc="http://creativecommons.org/ns#"
   xmlns:rdf="http://www.w3.org/1999/02/22-rdf-syntax-ns#"
   xmlns:svg="http://www.w3.org/2000/svg"
   xmlns="http://www.w3.org/2000/svg"
   xmlns:sodipodi="http://sodipodi.sourceforge.net/DTD/sodipodi-0.dtd"
   xmlns:inkscape="http://www.inkscape.org/namespaces/inkscape"
   width="45.302887"
   height="38.484356"
   id="svg3081"
   version="1.1"
   inkscape:version="0.48.4 r9939"
   sodipodi:docname="i.svg">
  <defs
     id="defs3083" />
  <sodipodi:namedview
     id="base"
     pagecolor="#ffffff"
     bordercolor="#666666"
     borderopacity="1.0"
     inkscape:pageopacity="0.0"
     inkscape:pageshadow="2"
     inkscape:zoom="3.959798"
     inkscape:cx="35.137347"
     inkscape:cy="-14.072031"
     inkscape:document-units="px"
     inkscape:current-layer="g5086"
     showgrid="false"
     fit-margin-top="0"
     fit-margin-left="0"
     fit-margin-right="0"
     fit-margin-bottom="0"
     inkscape:window-width="958"
     inkscape:window-height="1033"
     inkscape:window-x="960"
     inkscape:window-y="0"
     inkscape:window-maximized="0" />
  <metadata
     id="metadata3086">
    <rdf:RDF>
      <cc:Work
         rdf:about="">
        <dc:format>image/svg+xml</dc:format>
        <dc:type
           rdf:resource="http://purl.org/dc/dcmitype/StillImage" />
        <dc:title></dc:title>
      </cc:Work>
    </rdf:RDF>
  </metadata>
  <g
     inkscape:label="レイヤー 1"
     inkscape:groupmode="layer"
     id="layer1"
     transform="translate(-665,-469.74356)">
    <g
       id="g5086">
      <g
         id="g5874">
        <rect
           style="fill:none;stroke:none"
           id="rect3787"
           width="45.302887"
           height="38.484356"
           x="665"
           y="469.74356" />
        <path
           d="m 699.29144,503.70574 c 0.32,0 0.64,0 1.04,0 0.4,0 0.76,0 1.08,0 0.32,0 0.64,-0.12 0.92,-0.4 0.28,-0.24 0.56,-0.36 0.84,-0.36 l 0.64,-1.08 -0.12,-1.76 0.32,-3.56 0.48,0 0,-0.76 0.48,0 0,-0.52 0.12,0 0,-0.52 0.92,-0.8 0,-0.24 -0.2,0 0,0.24 -0.72,0 0,-0.52 -0.48,0 0,-0.24 -1.12,0.52 0,0.52 -1.28,0 -0.16,0.52 -2,1.04 -0.76,-0.24 0,-0.52 -0.52,0 -0.92,-0.8 0,-0.8 c -0.56,0.2 -1.04,0.04 -1.4,-0.4 -0.36,-0.4 -0.8,-0.76 -1.24,-1.12 -0.44,-0.36 -0.84,-0.68 -1.28,-1 -0.44,-0.36 -0.88,-0.6 -1.28,-0.76 -0.12,-0.64 -0.04,-1.28 0.2,-1.8 0.16,-0.48 0.32,-1 0.44,-1.56 0.12,-0.52 0.24,-1.04 0.4,-1.56 0.16,-0.52 0.28,-0.96 0.4,-1.48 l 0.36,0 0.44,-2.52 0.36,0 0,-0.52 0.8,-1.04 0.64,-0.76 -0.44,-2.12 -1.56,-1.52 0,-0.52 -1.88,-0.48 c -0.68,0 -1.28,0.04 -1.76,0.12 -0.56,0.12 -1.16,0.12 -1.72,0 -0.6,-0.08 -1.2,0.04 -1.72,0.36 -0.56,0.36 -1.12,0.6 -1.6,0.8 l 0,0.72 -0.32,0 c 0,0.36 0,0.68 0,1.04 0,0.36 0,0.72 0,1.16 0,0.48 0.04,0.84 0.16,1.08 0.12,0.24 0.2,0.52 0.32,0.88 l 0,-0.24 0.48,0 0,0.24 0.8,-0.52 2.08,0.52 0.52,0 0.48,-1.52 0.8,-0.6 0.64,0 -1.76,7.96 -5.2,-4.32 -0.64,0 0.12,4.64 c 0.32,0.36 0.68,0.6 1.04,0.76 0.32,0.2 0.64,0.44 0.96,0.76 0.32,0.36 0.64,0.6 0.96,0.76 0.32,0.2 0.6,0.52 0.96,1 l 0,0.8 -1.28,1.52 0.16,0 c 0,0.16 -0.04,0.32 -0.08,0.48 -0.04,0.2 -0.08,0.32 -0.08,0.48 0,0.2 -0.08,0.28 -0.24,0.28 -0.16,0 -0.32,0 -0.44,0 l 0,0.52 -0.44,0.28 -0.52,0 0,-0.28 -0.16,0 0,0.52 -2.92,1.6 -1.16,-0.52 0,-0.52 0.48,0 -0.76,-0.28 -0.32,-2.04 -0.36,0 -0.32,-2.56 -1,0 0,-1 0.36,0 c 0,-0.36 0.08,-0.68 0.28,-1.04 0.12,-0.32 0.28,-0.64 0.4,-1 0.12,-0.36 0.28,-0.68 0.48,-0.92 0.2,-0.28 0.24,-0.68 0.16,-1.2 l 0.32,0 0.64,-2.24 2.24,-3.08 -0.64,-2.88 c -0.2,-0.36 -0.4,-0.6 -0.68,-0.88 -0.28,-0.24 -0.56,-0.4 -0.84,-0.52 -0.28,-0.08 -0.6,-0.12 -0.96,-0.12 -0.36,0 -0.68,-0.08 -0.92,-0.24 -0.64,0 -1.24,0.04 -1.8,0.12 -0.52,0.08 -1.08,0.24 -1.68,0.52 -0.56,0.28 -1.12,0.56 -1.64,0.88 -0.48,0.36 -1.04,0.68 -1.56,1.04 l -0.64,2.08 0.36,1.76 0.96,0.52 0,0.28 0.96,-0.52 0.16,-0.48 2.6,-1.56 0.44,0 -0.08,0.76 0.28,1.52 c 0.12,0.68 0.08,1.24 -0.08,1.76 -0.16,0.52 -0.28,1 -0.44,1.52 -0.2,0.52 -0.36,1.04 -0.52,1.56 -0.16,0.56 -0.36,1 -0.56,1.32 l -3.28,-1 -0.91999,0 0.11999,0.76 0,0.76 -0.11999,0 0,0.24 0.31999,0.28 0,0.48 -0.2,0 0,0.24 0.96,0.8 0,0.52 1.32,0.48 -0.16,0.76 c -0.32,0.48 -0.6,0.96 -0.88,1.4 -0.28,0.44 -0.6,0.8 -0.88,1.16 -0.32,0.36 -0.63999,0.72 -0.95999,1.08 -0.36,0.32 -0.64,0.56 -1,0.72 l -0.96,-0.24 -0.64,0.24 0,1.04 0.44,0.24 0.48,1.76 1.16,1.52 1.47999,-0.72 c 0.28,-0.36 0.64,-0.8 1.04,-1.28 0.36,-0.52 0.72,-1 1.12,-1.44 0.4,-0.4 0.76,-0.92 1.12,-1.52 0.28,-0.56 0.56,-1.12 0.76,-1.64 l 1.28,0.8 0,0.52 1.32,0.72 0.8,0 -0.68,-1.24 0,-0.52 0.88,0.24 0.28,1.52 0.36,0 0.12,1.8 0.36,0 0.8,1.24 1.28,-0.24 0.8,0 0,0.24 0.16,0 0,0.52 -0.16,0 0,0.28 0.32,0 0,-0.52 0.88,0 0,-0.52 0.32,0 0,-0.48 c 0.28,0 0.64,-0.08 1.04,-0.28 0.4,-0.16 0.76,-0.32 1.04,-0.52 0.28,-0.16 0.6,-0.4 0.96,-0.72 0.32,-0.36 0.64,-0.68 1,-1.04 l 0.32,-1 0.68,-0.8 0,-0.52 1.76,2.84 1.76,2.52 0.32,0 0,1.56 0.52,0.2 0,0.52 0.92,0.28 0.36,0 0,-0.8 1.76,0.8 0,0.8 0.84,0.76 m -2.28,-2.56 -0.32,0.48 -0.44,0 0,-0.48 -0.52,-0.28 0,-0.52 -0.48,0 0,-0.76 1.76,1.56 m -11.52,-1.56 -0.16,0.24 -0.52,0 0,-0.48 0.68,0.24 m -1.32,-0.24 -0.64,0.48 -0.52,0 0,-0.48 0.52,-0.24 0.64,0.24 m 1.64,0 -0.12,0.24 -0.2,0 0.2,-0.48 0.12,0.24 m -1.44,-0.52 -0.2,0.28 -0.16,-0.28 0.16,-0.24 0.2,0.24 m 1.12,0 -0.16,0.28 -0.52,0 0,-0.52 0.68,0.24 m 2.72,0 0.2,0 0,-0.24 -0.2,0.24 m 7.2,0 -0.16,0.28 -0.24,0 0.24,-0.52 0.16,0.24 m -9.6,-0.24 -0.12,0.24 -0.2,0 0,-0.52 0.52,0 -0.2,0.28 m -0.64,-0.28 -0.16,0.28 -0.64,0 0,-0.52 0.8,0.24 m 9.72,0 -0.64,-0.48 0,-0.24 0.64,0 0,0.72 m -0.64,-1.24 -0.16,0.52 -0.32,-0.52 0,-0.28 0.48,0.28 m -11.84,-0.28 -0.16,0.28 -0.32,0 0,-0.52 0.48,0.24 m 0.6,-0.24 -0.08,0.24 -0.36,0 0,-0.52 0.44,0.28 m 0.68,0 -0.48,0 0,-0.48 0.48,0 0,0.48 m 18.52,-0.48 -0.16,0.2 -0.16,-0.2 0.16,-0.28 0.16,0.28 m -21.08,-0.28 -0.16,0.28 -0.2,-0.28 0.2,-0.24 0.16,0.24 m 12.12,0 -0.12,0.28 -0.2,0 0.2,-0.52 0.12,0.24 m 9.28,0 -0.16,0.28 -0.16,0 0.16,-0.52 0.16,0.24 m 0.48,0 -0.16,0.28 -0.12,0 0.12,-0.52 0.16,0.24 m 0.32,-0.24 -0.16,0.24 -0.16,-0.24 0.16,-0.28 0.16,0.28 m -22.56,-0.28 -0.12,0.28 -0.16,-0.28 0.16,-0.24 0.12,0.24 m 12.04,0 -0.16,0.28 -0.16,-0.28 0.16,-0.24 0.16,0.24 m -0.52,-0.52 -0.12,0.28 -0.2,-0.28 0.2,-0.28 0.12,0.28 m 8.8,0 0.48,0 0,-0.52 -0.48,0 0.16,0.24 -0.16,0.28 m -9.12,-0.52 -0.16,0.24 -0.16,-0.24 0.16,-0.28 0.16,0.28 m 12.04,-0.28 -0.2,0.28 -0.12,0 0.12,-0.52 0.2,0.24 m -12.36,-0.24 -0.16,0.24 -0.16,-0.24 0.16,-0.28 0.16,0.28 m 13.8,-0.52 0.2,0 0,-0.28 -0.2,0.28"
           style="font-size:40px;font-style:normal;font-variant:normal;font-weight:normal;font-stretch:normal;line-height:125%;letter-spacing:0px;word-spacing:0px;fill:#000000;fill-opacity:1;stroke:none;font-family:'青柳隷書SIMO2_O';-inkscape-font-specification:'青柳隷書SIMO2_O'"
           id="path3012"
           inkscape:connector-curvature="0" />
      </g>
    </g>
  </g>
</svg>
