<?xml version="1.0" encoding="UTF-8" standalone="no"?>
<!-- Created with Inkscape (http://www.inkscape.org/) -->

<svg
   xmlns:dc="http://purl.org/dc/elements/1.1/"
   xmlns:cc="http://creativecommons.org/ns#"
   xmlns:rdf="http://www.w3.org/1999/02/22-rdf-syntax-ns#"
   xmlns:svg="http://www.w3.org/2000/svg"
   xmlns="http://www.w3.org/2000/svg"
   xmlns:sodipodi="http://sodipodi.sourceforge.net/DTD/sodipodi-0.dtd"
   xmlns:inkscape="http://www.inkscape.org/namespaces/inkscape"
   width="27"
   height="36.0625"
   id="svg4737"
   version="1.1"
   inkscape:version="0.48.2 r9819"
   sodipodi:docname="hatsu.svg">
  <defs
     id="defs4739" />
  <sodipodi:namedview
     id="base"
     pagecolor="#ffffff"
     bordercolor="#666666"
     borderopacity="1.0"
     inkscape:pageopacity="0.0"
     inkscape:pageshadow="2"
     inkscape:zoom="2.8"
     inkscape:cx="18.237518"
     inkscape:cy="11.092365"
     inkscape:document-units="px"
     inkscape:current-layer="layer1"
     showgrid="false"
     fit-margin-top="0"
     fit-margin-left="0"
     fit-margin-right="0"
     fit-margin-bottom="0"
     inkscape:window-width="693"
     inkscape:window-height="465"
     inkscape:window-x="1402"
     inkscape:window-y="302"
     inkscape:window-maximized="0" />
  <metadata
     id="metadata4742">
    <rdf:RDF>
      <cc:Work
         rdf:about="">
        <dc:format>image/svg+xml</dc:format>
        <dc:type
           rdf:resource="http://purl.org/dc/dcmitype/StillImage" />
        <dc:title></dc:title>
      </cc:Work>
    </rdf:RDF>
  </metadata>
  <g
     inkscape:label="Layer 1"
     inkscape:groupmode="layer"
     id="layer1"
     transform="translate(-389.75818,-517.40694)">
    <g
       transform="translate(148.66428,75.997733)"
       id="g5572">
      <rect
         style="fill:none;stroke:none"
         id="rect4898"
         width="27"
         height="36.0625"
         x="241.0939"
         y="441.40921" />
      <path
         sodipodi:nodetypes="cccccccccccccsccccsscscccccccccccccccccccccccccc"
         d="m 256.93719,445.68107 c 0.98137,4e-5 1.68235,0.67098 2.10296,2.01285 0.06,0.84121 0.0901,1.36194 0.0901,1.56219 -2e-5,0.14028 -0.0301,0.48071 -0.0901,1.02144 -2e-5,0.0601 0.03,0.0901 0.0901,0.0901 l -0.0901,0.45064 0,0.45062 0.18026,0.27039 0.63089,-0.0901 c 3.00422,0.26039 4.50634,1.03148 4.50637,2.31327 l 0,0.0901 c -3e-5,1.28184 -1.07154,2.87409 -3.21455,4.77675 l 0,0.18026 0.27038,0 c 1.16163,1e-5 1.74244,0.39057 1.74247,1.17165 -3e-5,1.04148 -1.16167,1.56223 -3.48492,1.5622 -0.84121,3e-5 -1.2618,0.12013 -1.26178,0.36051 -2e-5,2.86406 -0.46067,6.25885 -1.38196,10.18437 -0.30043,0.74106 -0.51073,1.11158 -0.63089,1.11158 l -0.12013,0 c -0.2003,0 -0.32046,-0.67094 -0.36052,-2.01285 l 0,-0.27038 c -1e-5,-3.50493 0.0601,-6.53921 0.18026,-9.10285 -1.22174,-0.0801 -1.83259,-0.35047 -1.83258,-0.81114 -1e-5,-0.10014 0.34046,-0.35047 1.02144,-0.75106 0.18023,-0.1602 0.48066,-0.49068 0.90128,-0.9914 0.06,-3.12439 0.13013,-4.92693 0.21028,-5.40764 -0.12013,-0.06 -0.22033,-0.0901 -0.30042,-0.0901 -1.28182,0.24037 -3.78535,1.52217 -7.5106,3.84542 -0.30043,0.02 -0.45065,0.11014 -0.45063,0.27038 0.24032,0.96138 0.3605,1.85264 0.36051,2.67378 -0.10013,0.96137 -0.34049,1.44205 -0.72102,1.44203 -0.84119,2e-5 -1.4821,-1.52213 -1.92271,-4.56644 l -1.02145,-1.8326 c 0.12013,-0.32041 0.30042,-0.48064 0.54077,-0.48067 0.44061,3e-5 1.11156,0.28042 2.01284,0.84119 l 0.30042,0 c 2.64371,-1.7224 5.57785,-3.0643 8.80243,-4.02569 l 0,-0.18025 c -2e-5,-1.00138 0.03,-1.92267 0.0901,-2.7639 l -0.30046,-2.85403 c -2e-5,-0.16018 0.22029,-0.3104 0.66093,-0.45063 z m 2.01284,7.81103 c -0.12013,1.9027 -0.18028,3.06434 -0.18026,3.48491 l 0.18026,0 c 1.28179,-0.96133 1.9227,-1.85259 1.92271,-2.67377 -1e-5,-0.54073 -0.64092,-0.81111 -1.92271,-0.81114 z"
         style="font-size:40px;font-style:normal;font-variant:normal;font-weight:normal;font-stretch:normal;text-align:center;line-height:125%;letter-spacing:0px;word-spacing:0px;writing-mode:lr-tb;text-anchor:middle;fill:#d40000;fill-opacity:1;stroke:none;font-family:Quivira;-inkscape-font-specification:Quivira"
         id="path3042"
         inkscape:connector-curvature="0" />
    </g>
  </g>
</svg>
