<?xml version="1.0" encoding="UTF-8" standalone="no"?>
<!-- Created with Inkscape (http://www.inkscape.org/) -->

<svg
   xmlns:dc="http://purl.org/dc/elements/1.1/"
   xmlns:cc="http://creativecommons.org/ns#"
   xmlns:rdf="http://www.w3.org/1999/02/22-rdf-syntax-ns#"
   xmlns:svg="http://www.w3.org/2000/svg"
   xmlns="http://www.w3.org/2000/svg"
   xmlns:sodipodi="http://sodipodi.sourceforge.net/DTD/sodipodi-0.dtd"
   xmlns:inkscape="http://www.inkscape.org/namespaces/inkscape"
   width="27"
   height="36.0625"
   id="svg4737"
   version="1.1"
   inkscape:version="0.48.2 r9819"
   sodipodi:docname="man2.svg">
  <defs
     id="defs4739" />
  <sodipodi:namedview
     id="base"
     pagecolor="#ffffff"
     bordercolor="#666666"
     borderopacity="1.0"
     inkscape:pageopacity="0.0"
     inkscape:pageshadow="2"
     inkscape:zoom="2.8"
     inkscape:cx="20.166091"
     inkscape:cy="7.6861147"
     inkscape:document-units="px"
     inkscape:current-layer="layer1"
     showgrid="false"
     fit-margin-top="0"
     fit-margin-left="0"
     fit-margin-right="0"
     fit-margin-bottom="0"
     inkscape:window-width="693"
     inkscape:window-height="465"
     inkscape:window-x="1402"
     inkscape:window-y="302"
     inkscape:window-maximized="0" />
  <metadata
     id="metadata4742">
    <rdf:RDF>
      <cc:Work
         rdf:about="">
        <dc:format>image/svg+xml</dc:format>
        <dc:type
           rdf:resource="http://purl.org/dc/dcmitype/StillImage" />
        <dc:title></dc:title>
      </cc:Work>
    </rdf:RDF>
  </metadata>
  <g
     inkscape:label="Layer 1"
     inkscape:groupmode="layer"
     id="layer1"
     transform="translate(-387.82961,-514.00069)">
    <g
       transform="translate(-135.96324,72.426227)"
       id="g5772">
      <rect
         y="441.57446"
         x="523.79285"
         height="36.0625"
         width="27"
         id="rect4916"
         style="fill:none;stroke:none" />
      <g
         id="g4866">
        <path
           sodipodi:nodetypes="ccccccccscccccccccccscccscssccccccccccccccccccccccccccccccccccccccccccccccccscccccccccccccccccccccccccccccccccccccc"
           d="m 539.516,457.96841 c 0.82115,3e-5 1.23172,0.57083 1.23175,1.71241 0.84117,0.0601 1.26175,0.35052 1.26178,0.87124 -3e-5,0.26039 -0.19029,0.48069 -0.57082,0.66093 -0.26038,-0.12013 -0.61087,-0.18024 -1.05147,-0.18026 l -0.2103,0 c -0.58083,0.68098 -0.87125,1.16166 -0.87122,1.44204 1.36189,0.2003 2.04286,0.78113 2.04287,1.74245 l 0,0.36052 c -10e-6,1.60228 -0.74106,2.88409 -2.22313,3.84543 -0.2003,10e-6 -0.30045,0.04 -0.30042,0.12013 -0.22034,-0.14013 -0.4707,-0.21028 -0.75108,-0.2103 l -0.0901,0 c -0.10014,2e-5 -0.2003,0.10014 -0.30042,0.30044 l 0,0.75105 0.0901,0 c 1.72242,-0.24032 2.84401,-0.3605 3.36475,-0.36051 1.66234,0.22033 2.4935,0.92132 2.49353,2.10297 -0.32048,1.7625 -1.02147,3.30467 -2.10297,4.62653 l -0.30042,0.18025 -0.18026,0 c -0.84121,0 -1.45206,-0.58081 -1.83259,-1.74245 l 0,-0.0901 0.96136,0.0901 0.39055,0 c 0.40054,0 0.82114,-1.08152 1.26178,-3.24459 -0.26038,-0.5808 -0.71102,-0.87122 -1.35191,-0.87122 l -0.30042,0 c -1.86265,0 -2.79397,0.19027 -2.79394,0.5708 -0.0601,0.24036 -0.0901,0.50072 -0.0901,0.7811 l 0.39055,0 c 0.28038,2e-5 0.50069,-0.20027 0.66094,-0.60084 l 0.30042,0 c 0.80111,0.4206 1.34187,0.90128 1.62229,1.44203 l 0,0.48068 c -0.14028,0.28041 -0.39057,0.48068 -0.75107,0.60084 -0.58083,-0.3605 -0.87124,-0.81112 -0.87122,-1.35189 l -0.39056,0 c -1.52216,0.82116 -2.67378,1.23173 -3.45487,1.23173 -0.2003,-0.24034 -0.30043,-0.52073 -0.30042,-0.84119 l 0,-0.2103 c -10e-6,-0.18024 0.61084,-0.3705 1.83258,-0.5708 l 0,-1.05148 c -2.30326,0.38054 -3.64516,0.57082 -4.02569,0.5708 -0.14012,2e-5 -0.21029,-0.0601 -0.21028,-0.18026 l 0,-0.12013 c 2.80393,-0.721 4.21593,-1.13159 4.23597,-1.23174 0.0601,-0.12013 0.0901,-0.25035 0.0901,-0.39055 l -0.18026,-0.0901 c -0.22033,2e-5 -0.60087,0.0901 -1.14162,0.27038 l -0.12013,-0.18026 c 0.82114,-0.3004 1.30182,-0.59083 1.44204,-0.87123 l 0,-0.18025 -0.0901,0 c -0.34049,2e-5 -0.85121,0.13013 -1.53216,0.39054 l -0.0901,0 c -0.38055,2e-5 -0.70099,-0.90124 -0.96136,-2.70381 -0.0402,-0.02 -0.20029,-0.28038 -0.48068,-0.7811 0.04,-0.18024 0.17023,-0.3004 0.39056,-0.36051 0.60084,1e-5 1.1416,0.38056 1.62229,1.14161 0.90126,-0.10013 1.35188,-0.29039 1.3519,-0.5708 l 0,-0.0901 -0.0901,-0.48068 -0.2103,0 c -0.14012,10e-6 -0.27039,0.0302 -0.39054,0.0901 -0.50073,-0.14012 -0.75109,-0.27036 -0.75107,-0.39055 l 0,-0.0901 c 2.36332,-1.16163 3.54499,-1.80254 3.54501,-1.92271 -2e-5,-0.16022 0.03,-0.6409 0.0901,-1.44204 -0.0601,2e-5 -0.0901,-0.03 -0.0901,-0.0901 l -0.96136,0.0901 -1.23174,0 c -0.10013,2e-5 -0.2003,0.0901 -0.30042,0.27038 l 0.0901,0.96136 c -0.0801,0.64092 -0.21031,0.96137 -0.39054,0.96136 l -0.0901,0 c -0.58083,10e-6 -0.87123,-0.54075 -0.87122,-1.6223 l 0,-0.18026 c -0.30045,3e-5 -0.84121,0.0901 -1.62229,0.27038 -0.40059,-0.12013 -0.6209,-0.28036 -0.66094,-0.48068 l 0,-0.0901 c 0.02,-0.0801 0.721,-0.30041 2.10297,-0.66094 l 0.0901,-0.2103 -0.0901,-0.5708 c 0.0601,-0.12013 0.0901,-0.22028 0.0901,-0.30042 l 0.2103,0 c 0.54074,0.58085 0.86121,0.87125 0.96136,0.87122 1.98278,-0.24031 2.97417,-0.49066 2.97419,-0.75106 0.10013,-0.96132 0.26035,-1.442 0.48068,-1.44203 z m -1.65232,6.51919 0,0.2103 c -3e-5,0.30045 0.29039,0.58085 0.87122,0.8412 l 0,0.2103 c -1e-5,0.10013 -0.29042,0.39055 -0.87122,0.87122 l 0,0.18025 0.60084,0 c 0.76106,-0.16021 1.1416,-0.90126 1.14162,-2.22313 l 0,-0.36052 -0.48068,-0.12013 c -0.84121,0.0602 -1.26181,0.19029 -1.26178,0.39055 z m -2.40339,2.22315 0,0.75106 0.30042,0 c 0.34046,2e-5 0.60082,-0.12013 0.7811,-0.36051 l 0,-0.30043 c -2e-5,-0.12013 -0.0701,-0.18024 -0.2103,-0.18025 z m -4.50636,4.23597 c 1.28178,2e-5 2.11297,1.02146 2.49351,3.06433 -0.12013,0.64091 -0.37053,0.96137 -0.75106,0.96136 -0.36052,10e-6 -0.78111,-0.96134 -1.26178,-2.88407 -0.0601,10e-6 -0.22032,-0.29039 -0.48067,-0.87124 z"
           style="font-size:40px;font-style:normal;font-variant:normal;font-weight:normal;font-stretch:normal;text-align:center;line-height:125%;letter-spacing:0px;word-spacing:0px;writing-mode:lr-tb;text-anchor:middle;fill:#d40000;fill-opacity:1;stroke:none;font-family:Quivira;-inkscape-font-specification:Quivira"
           id="path4707"
           inkscape:connector-curvature="0" />
        <path
           inkscape:connector-curvature="0"
           id="path3052"
           style="font-size:40px;font-style:normal;font-variant:normal;font-weight:normal;font-stretch:normal;text-align:center;line-height:125%;letter-spacing:0px;word-spacing:0px;writing-mode:lr-tb;text-anchor:middle;fill:#000000;fill-opacity:1;stroke:none;font-family:Quivira;-inkscape-font-specification:Quivira"
           d="m 541.04154,443.27767 c 1.14618,5e-5 1.71929,0.33826 1.71931,1.01469 -2e-5,0.48857 -0.70465,0.90197 -2.11391,1.24016 -0.93952,0.67649 -1.58779,1.01471 -1.9448,1.01468 l 0.62008,-1.01468 -0.1973,-0.11272 c -2.21727,0.67649 -3.67352,1.0147 -4.36875,1.01468 -0.71404,2e-5 -1.35292,-0.33819 -1.91662,-1.01468 l 0,-0.39459 c 0.13147,3e-5 0.19729,-0.0375 0.1973,-0.11271 l 0.50736,0.11271 0.81737,0 c 0.41337,3e-5 2.13269,-0.50731 5.15794,-1.52203 0.48853,-0.15028 0.99587,-0.22543 1.52202,-0.22548 z m -2.62126,5.38343 c 1.27774,3e-5 1.9166,0.47918 1.91662,1.43746 l 0,0.1973 c -2e-5,0.451 -1.72872,0.72347 -5.18613,0.81738 0,0.0565 -0.1316,0.0845 -0.3946,0.0845 -1.08985,-0.22545 -1.63477,-0.46033 -1.63475,-0.70464 -2e-5,-0.0939 0.5449,-0.3006 1.63475,-0.62007 1.48442,-0.7328 2.7058,-1.13678 3.66411,-1.21198 z m 5.0734,4.8761 c 1.82263,0.45099 2.73396,1.12744 2.73399,2.02936 -0.0939,0.54494 -0.36644,0.8174 -0.81738,0.81737 -2.40518,-0.80796 -5.14857,-1.21195 -8.23016,-1.21197 -2.08575,2e-5 -4.24663,0.46979 -6.48266,1.40927 -0.26308,3e-5 -0.39461,0.0376 -0.39461,0.11271 -1.29653,-0.20669 -1.9448,-0.45096 -1.94479,-0.73284 l 0,-0.39459 c 1.03346,-0.13147 3.23192,-0.5355 6.5954,-1.21198 4.37814,-0.54488 7.22486,-0.81734 8.54021,-0.81737 z"
           sodipodi:nodetypes="ccccccccccccccccccccccccccccccccccc" />
      </g>
    </g>
  </g>
</svg>
