<?xml version="1.0" encoding="UTF-8" standalone="no"?>
<!-- Created with Inkscape (http://www.inkscape.org/) -->

<svg
   xmlns:dc="http://purl.org/dc/elements/1.1/"
   xmlns:cc="http://creativecommons.org/ns#"
   xmlns:rdf="http://www.w3.org/1999/02/22-rdf-syntax-ns#"
   xmlns:svg="http://www.w3.org/2000/svg"
   xmlns="http://www.w3.org/2000/svg"
   xmlns:sodipodi="http://sodipodi.sourceforge.net/DTD/sodipodi-0.dtd"
   xmlns:inkscape="http://www.inkscape.org/namespaces/inkscape"
   width="27"
   height="36.0625"
   id="svg4737"
   version="1.1"
   inkscape:version="0.48.2 r9819"
   sodipodi:docname="man4.svg">
  <defs
     id="defs4739" />
  <sodipodi:namedview
     id="base"
     pagecolor="#ffffff"
     bordercolor="#666666"
     borderopacity="1.0"
     inkscape:pageopacity="0.0"
     inkscape:pageshadow="2"
     inkscape:zoom="2.8"
     inkscape:cx="19.66609"
     inkscape:cy="26.605757"
     inkscape:document-units="px"
     inkscape:current-layer="layer1"
     showgrid="false"
     fit-margin-top="0"
     fit-margin-left="0"
     fit-margin-right="0"
     fit-margin-bottom="0"
     inkscape:window-width="693"
     inkscape:window-height="465"
     inkscape:window-x="1402"
     inkscape:window-y="302"
     inkscape:window-maximized="0" />
  <metadata
     id="metadata4742">
    <rdf:RDF>
      <cc:Work
         rdf:about="">
        <dc:format>image/svg+xml</dc:format>
        <dc:type
           rdf:resource="http://purl.org/dc/dcmitype/StillImage" />
        <dc:title></dc:title>
      </cc:Work>
    </rdf:RDF>
  </metadata>
  <g
     inkscape:label="Layer 1"
     inkscape:groupmode="layer"
     id="layer1"
     transform="translate(-388.32961,-532.92033)">
    <g
       transform="translate(-249.28501,91.790204)"
       id="g5760">
      <rect
         y="441.13013"
         x="637.61462"
         height="36.0625"
         width="27"
         id="rect4884"
         style="fill:none;stroke:none" />
      <g
         id="g4858">
        <path
           sodipodi:nodetypes="ccccccccccccccccccccscccscssccccccccccccccccccccccccccccccccccccccccccccccccscccccccccccccccccccccccccccccccccccccc"
           d="m 653.19644,457.96841 c 0.82116,3e-5 1.23172,0.57083 1.23175,1.71241 0.84117,0.0601 1.26175,0.35052 1.26178,0.87124 -3e-5,0.26039 -0.19029,0.48069 -0.57081,0.66093 -0.26038,-0.12013 -0.61087,-0.18024 -1.05148,-0.18026 l -0.2103,0 c -0.58083,0.68098 -0.87125,1.16166 -0.87122,1.44204 1.3619,0.2003 2.04286,0.78113 2.04288,1.74245 l 0,0.36052 c -2e-5,1.60228 -0.74106,2.88409 -2.22314,3.84543 -0.2003,10e-6 -0.30045,0.04 -0.30042,0.12013 -0.22034,-0.14013 -0.47069,-0.21028 -0.75107,-0.2103 l -0.0901,0 c -0.10013,2e-5 -0.2003,0.10014 -0.30042,0.30044 l 0,0.75105 0.0901,0 c 1.72241,-0.24032 2.844,-0.3605 3.36475,-0.36051 1.66233,0.22033 2.49349,0.92132 2.49353,2.10297 -0.32048,1.7625 -1.02147,3.30467 -2.10298,4.62653 l -0.30042,0.18025 -0.18025,0 c -0.84122,0 -1.45207,-0.58081 -1.8326,-1.74245 l 0,-0.0901 0.96136,0.0901 0.39056,0 c 0.40054,0 0.82113,-1.08152 1.26177,-3.24459 -0.26038,-0.5808 -0.71102,-0.87122 -1.35191,-0.87122 l -0.30042,0 c -1.86265,0 -2.79396,0.19027 -2.79393,0.5708 -0.0602,0.24036 -0.0901,0.50072 -0.0901,0.7811 l 0.39056,0 c 0.28037,2e-5 0.50069,-0.20027 0.66093,-0.60084 l 0.30042,0 c 0.80111,0.4206 1.34187,0.90128 1.6223,1.44203 l 0,0.48068 c -0.14028,0.28041 -0.39058,0.48068 -0.75108,0.60084 -0.58083,-0.3605 -0.87123,-0.81112 -0.87122,-1.35189 l -0.39055,0 c -1.52216,0.82116 -2.67379,1.23173 -3.45487,1.23173 -0.2003,-0.24034 -0.30044,-0.52073 -0.30042,-0.84119 l 0,-0.2103 c -2e-5,-0.18024 0.61083,-0.3705 1.83257,-0.5708 l 0,-1.05148 c -2.30325,0.38054 -3.64515,0.57082 -4.02568,0.5708 -0.14013,2e-5 -0.2103,-0.0601 -0.21029,-0.18026 l 0,-0.12013 c 2.80394,-0.721 4.21593,-1.13159 4.23597,-1.23174 0.0602,-0.12013 0.0901,-0.25035 0.0901,-0.39055 l -0.18026,-0.0901 c -0.22033,2e-5 -0.60087,0.0901 -1.14161,0.27038 l -0.12014,-0.18026 c 0.82114,-0.3004 1.30182,-0.59083 1.44204,-0.87123 l 0,-0.18025 -0.0901,0 c -0.34049,2e-5 -0.85121,0.13013 -1.53215,0.39054 l -0.0901,0 c -0.38054,2e-5 -0.70099,-0.90124 -0.96136,-2.70381 -0.0401,-0.02 -0.20028,-0.28038 -0.48068,-0.7811 0.04,-0.18024 0.17023,-0.3004 0.39056,-0.36051 0.60084,1e-5 1.1416,0.38056 1.6223,1.14161 0.90126,-0.10013 1.35188,-0.29039 1.35189,-0.5708 l 0,-0.0901 -0.0901,-0.48068 -0.2103,0 c -0.14013,10e-6 -0.2704,0.0302 -0.39054,0.0901 -0.50074,-0.14012 -0.75109,-0.27036 -0.75108,-0.39055 l 0,-0.0901 c 2.36333,-1.16163 3.54499,-1.80254 3.54501,-1.92271 -2e-5,-0.16022 0.03,-0.6409 0.0901,-1.44204 -0.0602,2e-5 -0.0901,-0.03 -0.0901,-0.0901 l -0.96136,0.0901 -1.23173,0 c -0.10014,2e-5 -0.2003,0.0901 -0.30042,0.27038 l 0.0901,0.96136 c -0.0801,0.64092 -0.21031,0.96137 -0.39054,0.96136 l -0.0901,0 c -0.58082,10e-6 -0.87123,-0.54075 -0.87122,-1.6223 l 0,-0.18026 c -0.30045,3e-5 -0.84121,0.0901 -1.62229,0.27038 -0.40058,-0.12013 -0.6209,-0.28036 -0.66094,-0.48068 l 0,-0.0901 c 0.02,-0.0801 0.72101,-0.30041 2.10298,-0.66094 l 0.0901,-0.2103 -0.0901,-0.5708 c 0.0601,-0.12013 0.0901,-0.22028 0.0901,-0.30042 l 0.2103,0 c 0.54075,0.58085 0.86121,0.87125 0.96136,0.87122 1.98278,-0.24031 2.97418,-0.49066 2.97419,-0.75106 0.10014,-0.96132 0.26035,-1.442 0.48068,-1.44203 z m -1.65232,6.51919 0,0.2103 c -3e-5,0.30045 0.2904,0.58085 0.87122,0.8412 l 0,0.2103 c -10e-6,0.10013 -0.29042,0.39055 -0.87122,0.87122 l 0,0.18025 0.60084,0 c 0.76106,-0.16021 1.1416,-0.90126 1.14162,-2.22313 l 0,-0.36052 -0.48068,-0.12013 c -0.84121,0.0602 -1.26181,0.19029 -1.26178,0.39055 z m -2.40339,2.22315 0,0.75106 0.30042,0 c 0.34046,2e-5 0.60083,-0.12013 0.7811,-0.36051 l 0,-0.30043 c -10e-6,-0.12013 -0.0701,-0.18024 -0.2103,-0.18025 z m -4.50636,4.23597 c 1.28179,2e-5 2.11297,1.02146 2.49351,3.06433 -0.12013,0.64091 -0.37053,0.96137 -0.75106,0.96136 -0.36051,10e-6 -0.78111,-0.96134 -1.26177,-2.88407 -0.0602,10e-6 -0.22033,-0.29039 -0.48068,-0.87124 z"
           style="font-size:40px;font-style:normal;font-variant:normal;font-weight:normal;font-stretch:normal;text-align:center;line-height:125%;letter-spacing:0px;word-spacing:0px;writing-mode:lr-tb;text-anchor:middle;fill:#d40000;fill-opacity:1;stroke:none;font-family:Quivira;-inkscape-font-specification:Quivira"
           id="path4711"
           inkscape:connector-curvature="0" />
        <path
           inkscape:connector-curvature="0"
           id="path3056"
           style="font-size:40px;font-style:normal;font-variant:normal;font-weight:normal;font-stretch:normal;text-align:center;line-height:125%;letter-spacing:0px;word-spacing:0px;writing-mode:lr-tb;text-anchor:middle;fill:#000000;fill-opacity:1;stroke:none;font-family:Quivira;-inkscape-font-specification:Quivira"
           d="m 647.18623,442.38906 0.0779,0 c 0.38081,3e-5 0.77028,0.36354 1.16842,1.09051 -10e-6,1.85218 -1.81755,4.68234 -5.45259,8.49046 l -0.0779,0 0,-0.0779 c 2.8561,-4.41398 4.28417,-7.58167 4.28418,-9.50309 z m 7.33746,0.92379 c 0.7443,3e-5 1.11646,0.31162 1.11649,0.93473 -3e-5,0.15582 -0.3116,1.13382 -0.93474,2.93403 l 0,0.0779 c 0.9001,0.24237 1.35015,0.91746 1.35018,2.02525 -3e-5,1.24634 -0.39816,2.56188 -1.19439,3.94665 l 0,0.25964 c 0.84816,-0.052 1.47131,-0.0779 1.86947,-0.0779 1.50592,1e-5 2.37142,0.58855 2.59646,1.7656 -0.0692,0.27697 -0.26832,0.41546 -0.59719,0.41544 l -0.0779,0 c -1.88679,-0.67508 -3.47928,-1.01261 -4.7775,-1.01263 l -1.53191,0 c -1.19439,2e-5 -2.709,0.25102 -4.54383,0.75298 -0.45006,-0.0519 -0.90012,-0.16443 -1.35017,-0.33754 l -0.57121,1.86945 c -0.19043,0.10383 -0.36353,0.15581 -0.51931,0.1558 l -0.15579,0 c -0.41543,1e-5 -0.70105,-0.42409 -0.85683,-1.27228 0.67508,-3.01188 1.01262,-4.82941 1.01262,-5.45258 l 0,-0.75298 c 0.0173,-0.12112 0.0779,-0.18173 0.18176,-0.18176 0.32888,3e-5 0.49333,1.21172 0.49333,3.63506 l 0.0779,0 c 0.60584,-1.10781 1.22898,-2.50991 1.86946,-4.20629 l 0.15578,0 c -0.60584,2.50995 -1.08187,4.30152 -1.42805,5.3747 l 0,0.25964 c 1.93868,-0.13846 3.00324,-0.36348 3.19366,-0.67508 1.02127,-2.11177 1.5319,-3.28884 1.53191,-3.5312 l -0.18176,0 c -0.51929,0.38085 -0.99531,0.63184 -1.42804,0.75298 -0.3289,3e-5 -0.60586,-0.13846 -0.83087,-0.41544 l 0,-0.10382 c 2.40604,-1.66171 3.69562,-2.63971 3.86874,-2.93401 0.5539,-1.31551 0.83085,-2.01656 0.83086,-2.10314 l 0,-0.0779 c -10e-6,-0.12111 -0.0865,-0.18173 -0.25965,-0.18177 -0.64047,0.34624 -1.0559,0.51934 -1.2463,0.5193 -0.22503,4e-5 -0.62316,-0.1471 -1.19438,-0.4414 l 0,-0.15579 c 1.50593,-0.91739 2.68301,-1.50591 3.5312,-1.7656 z m -2.93401,10.10029 0,0.15577 0.0779,0.18176 c 0.95203,2e-5 1.51459,-0.19904 1.68772,-0.59719 0.84816,-1.17704 1.27225,-2.55317 1.27227,-4.12839 l -0.25966,-0.15578 -0.49332,0 c -0.17311,2e-5 -0.82223,1.31556 -1.94734,3.94663 z"
           sodipodi:nodetypes="cccccccccccccccccccccccccccccccccccccccccccccccccccccccccccc" />
      </g>
    </g>
  </g>
</svg>
