<?xml version="1.0" encoding="UTF-8" standalone="no"?>
<!-- Created with Inkscape (http://www.inkscape.org/) -->

<svg
   xmlns:dc="http://purl.org/dc/elements/1.1/"
   xmlns:cc="http://creativecommons.org/ns#"
   xmlns:rdf="http://www.w3.org/1999/02/22-rdf-syntax-ns#"
   xmlns:svg="http://www.w3.org/2000/svg"
   xmlns="http://www.w3.org/2000/svg"
   xmlns:sodipodi="http://sodipodi.sourceforge.net/DTD/sodipodi-0.dtd"
   xmlns:inkscape="http://www.inkscape.org/namespaces/inkscape"
   width="27"
   height="36.0625"
   id="svg4737"
   version="1.1"
   inkscape:version="0.48.2 r9819"
   sodipodi:docname="man8.svg">
  <defs
     id="defs4739" />
  <sodipodi:namedview
     id="base"
     pagecolor="#ffffff"
     bordercolor="#666666"
     borderopacity="1.0"
     inkscape:pageopacity="0.0"
     inkscape:pageshadow="2"
     inkscape:zoom="2.8"
     inkscape:cx="16.88037"
     inkscape:cy="11.945041"
     inkscape:document-units="px"
     inkscape:current-layer="layer1"
     showgrid="false"
     fit-margin-top="0"
     fit-margin-left="0"
     fit-margin-right="0"
     fit-margin-bottom="0"
     inkscape:window-width="693"
     inkscape:window-height="465"
     inkscape:window-x="1402"
     inkscape:window-y="302"
     inkscape:window-maximized="0" />
  <metadata
     id="metadata4742">
    <rdf:RDF>
      <cc:Work
         rdf:about="">
        <dc:format>image/svg+xml</dc:format>
        <dc:type
           rdf:resource="http://purl.org/dc/dcmitype/StillImage" />
        <dc:title></dc:title>
      </cc:Work>
    </rdf:RDF>
  </metadata>
  <g
     inkscape:label="Layer 1"
     inkscape:groupmode="layer"
     id="layer1"
     transform="translate(-391.11534,-518.25962)">
    <g
       transform="translate(-473.71877,76.504917)"
       id="g5736">
      <rect
         style="fill:none;stroke:none"
         id="rect4970"
         width="27"
         height="36.0625"
         x="864.83411"
         y="441.7547" />
      <g
         id="g4842">
        <path
           sodipodi:nodetypes="ccccccccscccccccccccscccscssccccccccccccccccccccccccccccccccccccccccccccccccscccccccccccccccccccccccccccccccccccccc"
           d="m 880.55733,457.96841 c 0.82115,3e-5 1.23172,0.57083 1.23175,1.71241 0.84117,0.0601 1.26175,0.35052 1.26178,0.87124 -3e-5,0.26039 -0.19029,0.48069 -0.57082,0.66093 -0.26038,-0.12013 -0.61087,-0.18024 -1.05148,-0.18026 l -0.21029,0 c -0.58083,0.68098 -0.87125,1.16166 -0.87122,1.44204 1.36189,0.2003 2.04286,0.78113 2.04287,1.74245 l 0,0.36052 c -10e-6,1.60228 -0.74106,2.88409 -2.22313,3.84543 -0.2003,10e-6 -0.30045,0.04 -0.30042,0.12013 -0.22035,-0.14013 -0.4707,-0.21028 -0.75108,-0.2103 l -0.0901,0 c -0.10014,2e-5 -0.2003,0.10014 -0.30042,0.30044 l 0,0.75105 0.0901,0 c 1.72242,-0.24032 2.844,-0.3605 3.36475,-0.36051 1.66233,0.22033 2.4935,0.92132 2.49353,2.10297 -0.32048,1.7625 -1.02147,3.30467 -2.10297,4.62653 l -0.30042,0.18025 -0.18026,0 c -0.84121,0 -1.45206,-0.58081 -1.83259,-1.74245 l 0,-0.0901 0.96136,0.0901 0.39055,0 c 0.40054,0 0.82114,-1.08152 1.26178,-3.24459 -0.26038,-0.5808 -0.71102,-0.87122 -1.35191,-0.87122 l -0.30042,0 c -1.86265,0 -2.79397,0.19027 -2.79394,0.5708 -0.0601,0.24036 -0.0901,0.50072 -0.0901,0.7811 l 0.39055,0 c 0.28038,2e-5 0.50069,-0.20027 0.66094,-0.60084 l 0.30042,0 c 0.80111,0.4206 1.34187,0.90128 1.62229,1.44203 l 0,0.48068 c -0.14028,0.28041 -0.39057,0.48068 -0.75107,0.60084 -0.58083,-0.3605 -0.87124,-0.81112 -0.87122,-1.35189 l -0.39056,0 c -1.52216,0.82116 -2.67378,1.23173 -3.45487,1.23173 -0.2003,-0.24034 -0.30043,-0.52073 -0.30042,-0.84119 l 0,-0.2103 c -10e-6,-0.18024 0.61084,-0.3705 1.83258,-0.5708 l 0,-1.05148 c -2.30326,0.38054 -3.64516,0.57082 -4.02569,0.5708 -0.14012,2e-5 -0.2103,-0.0601 -0.21028,-0.18026 l 0,-0.12013 c 2.80393,-0.721 4.21593,-1.13159 4.23597,-1.23174 0.0601,-0.12013 0.0901,-0.25035 0.0901,-0.39055 l -0.18026,-0.0901 c -0.22033,2e-5 -0.60087,0.0901 -1.14162,0.27038 l -0.12013,-0.18026 c 0.82114,-0.3004 1.30182,-0.59083 1.44204,-0.87123 l 0,-0.18025 -0.0901,0 c -0.34049,2e-5 -0.85121,0.13013 -1.53216,0.39054 l -0.0901,0 c -0.38055,2e-5 -0.70099,-0.90124 -0.96136,-2.70381 -0.0402,-0.02 -0.20029,-0.28038 -0.48068,-0.7811 0.04,-0.18024 0.17023,-0.3004 0.39056,-0.36051 0.60084,1e-5 1.1416,0.38056 1.62229,1.14161 0.90126,-0.10013 1.35188,-0.29039 1.3519,-0.5708 l 0,-0.0901 -0.0901,-0.48068 -0.2103,0 c -0.14012,10e-6 -0.27039,0.0302 -0.39054,0.0901 -0.50073,-0.14012 -0.75109,-0.27036 -0.75107,-0.39055 l 0,-0.0901 c 2.36332,-1.16163 3.54499,-1.80254 3.54501,-1.92271 -2e-5,-0.16022 0.03,-0.6409 0.0901,-1.44204 -0.0601,2e-5 -0.0901,-0.03 -0.0901,-0.0901 l -0.96136,0.0901 -1.23174,0 c -0.10013,2e-5 -0.2003,0.0901 -0.30042,0.27038 l 0.0901,0.96136 c -0.0801,0.64092 -0.21031,0.96137 -0.39054,0.96136 l -0.0901,0 c -0.58083,10e-6 -0.87123,-0.54075 -0.87122,-1.6223 l 0,-0.18026 c -0.30045,3e-5 -0.84121,0.0901 -1.62229,0.27038 -0.40059,-0.12013 -0.6209,-0.28036 -0.66094,-0.48068 l 0,-0.0901 c 0.02,-0.0801 0.721,-0.30041 2.10297,-0.66094 l 0.0901,-0.2103 -0.0901,-0.5708 c 0.0602,-0.12013 0.0901,-0.22028 0.0901,-0.30042 l 0.2103,0 c 0.54074,0.58085 0.8612,0.87125 0.96136,0.87122 1.98277,-0.24031 2.97417,-0.49066 2.97419,-0.75106 0.10013,-0.96132 0.26035,-1.442 0.48068,-1.44203 z m -1.65232,6.51919 0,0.2103 c -3e-5,0.30045 0.29039,0.58085 0.87122,0.8412 l 0,0.2103 c -1e-5,0.10013 -0.29042,0.39055 -0.87122,0.87122 l 0,0.18025 0.60084,0 c 0.76106,-0.16021 1.1416,-0.90126 1.14162,-2.22313 l 0,-0.36052 -0.48068,-0.12013 c -0.84121,0.0602 -1.26181,0.19029 -1.26178,0.39055 z m -2.40339,2.22315 0,0.75106 0.30042,0 c 0.34046,2e-5 0.60082,-0.12013 0.7811,-0.36051 l 0,-0.30043 c -2e-5,-0.12013 -0.0701,-0.18024 -0.2103,-0.18025 z m -4.50637,4.23597 c 1.28179,2e-5 2.11297,1.02146 2.49352,3.06433 -0.12013,0.64091 -0.37053,0.96137 -0.75106,0.96136 -0.36052,10e-6 -0.78111,-0.96134 -1.26178,-2.88407 -0.0601,10e-6 -0.22032,-0.29039 -0.48068,-0.87124 z"
           style="font-size:40px;font-style:normal;font-variant:normal;font-weight:normal;font-stretch:normal;text-align:center;line-height:125%;letter-spacing:0px;word-spacing:0px;writing-mode:lr-tb;text-anchor:middle;fill:#d40000;fill-opacity:1;stroke:none;font-family:Quivira;-inkscape-font-specification:Quivira"
           id="path4719"
           inkscape:connector-curvature="0" />
        <path
           inkscape:connector-curvature="0"
           id="path3064"
           style="font-size:40px;font-style:normal;font-variant:normal;font-weight:normal;font-stretch:normal;text-align:center;line-height:125%;letter-spacing:0px;word-spacing:0px;writing-mode:lr-tb;text-anchor:middle;fill:#000000;fill-opacity:1;stroke:none;font-family:Quivira;-inkscape-font-specification:Quivira"
           d="m 876.59174,443.63819 c 0.82114,0.10013 1.23172,0.48071 1.23174,1.1416 -2e-5,0.20033 -0.15028,0.93136 -0.45064,2.19311 l 0.0901,0 c 0.64087,-0.12013 0.99138,-0.18023 1.05147,-0.18026 0.82114,0.0801 1.23172,0.43064 1.23174,1.05148 l -0.81114,5.07716 c -0.10013,0.44066 -0.15028,1.00144 -0.15028,1.68238 -10e-6,0.58084 0.721,0.87126 2.16305,0.87123 l 0.0901,0 c 1.62228,3e-5 2.67376,-0.47063 3.15447,-1.41199 0.24031,-0.72099 0.36048,-1.16161 0.3605,-1.32186 l 0.27038,0 c 0.52071,1.18168 0.78108,2.00285 0.7811,2.46347 -2e-5,0.80116 -0.96138,1.47211 -2.88407,2.01284 l -1.23174,0 c -2.10299,3e-5 -3.41483,-0.70096 -3.93555,-2.10297 l -0.0901,-0.60084 0.42059,-5.43769 -0.15013,-0.0901 c -1.1216,0.44065 -1.68239,0.99143 -1.68237,1.65233 -1.80257,4.00568 -3.20454,6.10865 -4.20595,6.3089 -0.52075,3e-5 -0.78111,-0.49066 -0.7811,-1.47207 l 0,-0.54076 0.0901,-0.4206 0.18026,0 c -2e-5,0.70102 0.23031,1.05151 0.69098,1.05148 l 0.0901,0 c 0.98139,-0.78107 1.91269,-2.36331 2.79395,-4.74669 l 0,-0.18026 -0.18026,-0.0901 c -1.04148,0.44065 -1.85262,0.71103 -2.43343,0.81115 -0.64091,-0.14013 -0.96137,-0.32042 -0.96136,-0.54076 l 0,-0.0901 4.38619,-2.61369 c 0.46064,-1.06146 0.69096,-2.23311 0.69098,-3.51495 -2e-5,-0.0801 -0.03,-0.37048 -0.0901,-0.87123 0.18024,4e-5 0.27037,-0.03 0.27038,-0.0901 z"
           sodipodi:nodetypes="ccccccccccccccccccccccccccccccccccccccc" />
      </g>
    </g>
  </g>
</svg>
