<?xml version="1.0" encoding="UTF-8" standalone="no"?>
<!-- Created with Inkscape (http://www.inkscape.org/) -->

<svg
   xmlns:dc="http://purl.org/dc/elements/1.1/"
   xmlns:cc="http://creativecommons.org/ns#"
   xmlns:rdf="http://www.w3.org/1999/02/22-rdf-syntax-ns#"
   xmlns:svg="http://www.w3.org/2000/svg"
   xmlns="http://www.w3.org/2000/svg"
   xmlns:sodipodi="http://sodipodi.sourceforge.net/DTD/sodipodi-0.dtd"
   xmlns:inkscape="http://www.inkscape.org/namespaces/inkscape"
   width="27"
   height="36.0625"
   id="svg4737"
   version="1.1"
   inkscape:version="0.48.2 r9819"
   sodipodi:docname="sha.svg">
  <defs
     id="defs4739" />
  <sodipodi:namedview
     id="base"
     pagecolor="#ffffff"
     bordercolor="#666666"
     borderopacity="1.0"
     inkscape:pageopacity="0.0"
     inkscape:pageshadow="2"
     inkscape:zoom="2.8"
     inkscape:cx="18.09466"
     inkscape:cy="12.355736"
     inkscape:document-units="px"
     inkscape:current-layer="layer1"
     showgrid="false"
     fit-margin-top="0"
     fit-margin-left="0"
     fit-margin-right="0"
     fit-margin-bottom="0"
     inkscape:window-width="693"
     inkscape:window-height="465"
     inkscape:window-x="1402"
     inkscape:window-y="302"
     inkscape:window-maximized="0" />
  <metadata
     id="metadata4742">
    <rdf:RDF>
      <cc:Work
         rdf:about="">
        <dc:format>image/svg+xml</dc:format>
        <dc:type
           rdf:resource="http://purl.org/dc/dcmitype/StillImage" />
        <dc:title></dc:title>
      </cc:Work>
    </rdf:RDF>
  </metadata>
  <g
     inkscape:label="Layer 1"
     inkscape:groupmode="layer"
     id="layer1"
     transform="translate(-389.90104,-518.67031)">
    <g
       transform="translate(204.14532,77.983141)"
       id="g5658">
      <rect
         y="440.68716"
         x="185.75572"
         height="36.0625"
         width="27"
         id="rect4896"
         style="fill:none;stroke:none" />
      <path
         sodipodi:nodetypes="cscccccccccccccccccccsccccccccccscccccccccccccccccccccc"
         d="m 199.80355,448.2625 c 0.96662,0.2578 1.44994,0.98815 1.44995,2.19105 l 0,0.19333 c -0.79481,3.54439 -1.19219,5.42398 -1.19218,5.63876 l 0.28999,0 c 0.66588,-0.27923 1.96548,-0.97735 3.8988,-2.0944 l 0.38667,0 c 1.09548,3e-5 1.91176,0.39743 2.44881,1.19219 -3e-5,0.42965 -1.24592,0.73039 -3.73768,0.90221 -2.2985,0.62297 -3.44772,1.04186 -3.4477,1.25663 -0.19335,1.41777 -0.32223,3.17922 -0.38666,5.28432 -1e-5,2.7281 1.39625,4.09214 4.18879,4.09212 1.95475,2e-5 3.2973,-0.45109 4.02769,-1.35329 l 0.0645,-0.64444 0,-0.45109 -0.0645,-0.64444 c 0.1074,-0.0645 0.19331,-0.0966 0.25778,-0.0966 1.69695,0.83777 2.54546,1.65404 2.54547,2.44882 -1e-5,0.98815 -0.99888,1.65406 -2.99658,1.99773 -0.53706,0.12886 -1.26741,0.19336 -2.19107,0.19334 -0.12884,2e-5 -0.24704,0.0322 -0.35443,0.0966 -0.1074,-0.0645 -0.22557,-0.0966 -0.35442,-0.0966 -3.02885,2e-5 -4.88696,-0.54774 -5.57432,-1.6433 -0.66594,-1.05256 -0.99889,-2.20177 -0.99887,-3.44769 -2e-5,-0.85922 0.39738,-4.95135 1.19219,-12.27638 l 0,-0.35443 c -0.38668,-0.51552 -0.65519,-0.96662 -0.80552,-1.3533 -2e-5,-0.62293 0.45106,-0.96661 1.35329,-1.03108 z m -7.37872,3.38325 c 1.09553,3e-5 1.8581,0.58001 2.28773,1.73996 0.12884,0.88075 0.21479,1.41777 0.25777,1.61107 -0.0429,0.34372 -0.0645,0.62297 -0.0645,0.83775 l 0,0.16118 c -2e-5,0.53705 -0.0966,2.23405 -0.28999,5.091 l 0.19331,0 0.70888,-0.61222 0,0.0645 c -2e-5,1.33185 -1.75071,3.90957 -5.2521,7.73315 -0.49408,0.58001 -0.82703,0.88075 -0.99886,0.90221 l -0.38667,0 c -0.42962,-0.23628 -0.64444,-0.7733 -0.64442,-1.61107 -2e-5,-0.1074 0.54777,-0.44035 1.6433,-0.99886 1.48216,-1.50366 2.42733,-2.53475 2.83548,-3.09326 -0.12884,-1.26737 -0.19333,-2.29845 -0.19332,-3.09326 l 0.0966,-0.35445 c -0.10739,-0.62293 -0.22556,-0.93439 -0.35443,-0.93441 -1.33183,0.25778 -2.15884,0.38668 -2.48105,0.38664 -1.20295,-0.21477 -1.80441,-0.54773 -1.80441,-0.99887 2.04069,-0.85919 3.43695,-1.37474 4.18879,-1.54662 0.17184,3e-5 0.25776,-0.0644 0.25777,-0.19332 l 0,-1.44997 c -1e-5,-1.03105 -0.18259,-2.12658 -0.54777,-3.2866 0.0645,-0.23626 0.24702,-0.35439 0.54777,-0.35443 z"
         style="font-size:40px;font-style:normal;font-variant:normal;font-weight:normal;font-stretch:normal;text-align:center;line-height:125%;letter-spacing:0px;word-spacing:0px;writing-mode:lr-tb;text-anchor:middle;fill:#000000;fill-opacity:1;stroke:none;font-family:Quivira;-inkscape-font-specification:Quivira"
         id="path3040"
         inkscape:connector-curvature="0" />
    </g>
  </g>
</svg>
