<?xml version="1.0" encoding="UTF-8" standalone="no"?>
<!-- Created with Inkscape (http://www.inkscape.org/) -->

<svg
   xmlns:dc="http://purl.org/dc/elements/1.1/"
   xmlns:cc="http://creativecommons.org/ns#"
   xmlns:rdf="http://www.w3.org/1999/02/22-rdf-syntax-ns#"
   xmlns:svg="http://www.w3.org/2000/svg"
   xmlns="http://www.w3.org/2000/svg"
   xmlns:sodipodi="http://sodipodi.sourceforge.net/DTD/sodipodi-0.dtd"
   xmlns:inkscape="http://www.inkscape.org/namespaces/inkscape"
   width="27"
   height="36.0625"
   id="svg4737"
   version="1.1"
   inkscape:version="0.48.2 r9819"
   sodipodi:docname="nan.svg">
  <defs
     id="defs4739" />
  <sodipodi:namedview
     id="base"
     pagecolor="#ffffff"
     bordercolor="#666666"
     borderopacity="1.0"
     inkscape:pageopacity="0.0"
     inkscape:pageshadow="2"
     inkscape:zoom="2.8"
     inkscape:cx="29.594662"
     inkscape:cy="13.6102"
     inkscape:document-units="px"
     inkscape:current-layer="layer1"
     showgrid="false"
     fit-margin-top="0"
     fit-margin-left="0"
     fit-margin-right="0"
     fit-margin-bottom="0"
     inkscape:window-width="693"
     inkscape:window-height="465"
     inkscape:window-x="1402"
     inkscape:window-y="302"
     inkscape:window-maximized="0" />
  <metadata
     id="metadata4742">
    <rdf:RDF>
      <cc:Work
         rdf:about="">
        <dc:format>image/svg+xml</dc:format>
        <dc:type
           rdf:resource="http://purl.org/dc/dcmitype/StillImage" />
        <dc:title></dc:title>
      </cc:Work>
    </rdf:RDF>
  </metadata>
  <g
     inkscape:label="Layer 1"
     inkscape:groupmode="layer"
     id="layer1"
     transform="translate(-378.40104,-519.92477)">
    <g
       transform="translate(249.48548,78.530547)"
       id="g5662">
      <rect
         style="fill:none;stroke:none"
         id="rect4894"
         width="27"
         height="36.0625"
         x="128.91556"
         y="441.39423" />
      <path
         sodipodi:nodetypes="ccccccccccccccccccccccccsccccccccccscccccccccccccccccccccccccccccccccscccczcc"
         d="m 147.04208,449.49645 0.0601,0 c 1.44201,0.16026 2.16303,0.6109 2.16306,1.35192 l 0,0.24034 c -3e-5,0.44065 -0.44066,0.66095 -1.32188,0.66092 -2.64374,3e-5 -5.82823,0.691 -9.55348,2.07293 -0.70099,0.12013 -1.14162,0.18029 -1.32186,0.18026 -0.80114,3e-5 -1.41201,-0.25033 -1.83259,-0.75106 l 0,-0.0901 c 1.18167,3e-5 3.56501,-0.83113 7.15009,-2.49351 1.88265,-0.78107 3.43483,-1.17163 4.65657,-1.17166 z m -4.59648,4.50637 c 1.00139,3e-5 1.5021,0.63091 1.50213,1.89267 -0.10014,0.90129 -0.15028,1.46208 -0.15028,1.68237 l 0.15028,0 c 1.92268,-0.56077 3.61507,-0.95132 5.07716,-1.17165 1.62226,1e-5 2.89405,0.8312 3.81539,2.49351 l 0.0901,0.57082 0,0.18024 c -3e-5,1.78254 -0.89129,4.41626 -2.67377,7.90115 -0.54079,1.04148 -1.1216,1.64234 -1.74245,1.80255 -0.48071,2e-5 -1.06152,-0.35048 -1.74247,-1.05149 l -0.9914,0.0601 -1.08152,0 c -0.58084,0 -2.68381,0.0601 -6.30891,0.18025 -0.56081,10e-6 -1.06151,-0.2203 -1.50212,-0.66092 0.34047,0 2.69378,-0.53075 7.05997,-1.59226 0.4406,2e-5 0.83115,-0.03 1.17164,-0.0901 0.94132,0.14012 1.52213,0.34048 1.74247,0.60084 l 0.66093,0 c 0.94131,10e-6 1.83257,-1.9928 2.67378,-5.97844 l 0,-0.27038 c -0.32048,-1.38193 -1.32189,-2.0729 -3.00425,-2.07293 -2.70382,0.26039 -4.05574,0.65095 -4.05572,1.17165 -0.0601,0.46068 -0.0901,0.85122 -0.0901,1.17166 l 0,0.24034 c 0.10014,0.72104 0.26035,1.08154 0.48068,1.08153 l 0.51072,0 c 0.12013,10e-6 0.45062,-0.11013 0.9914,-0.33048 1.2217,3e-5 1.83256,0.36054 1.83259,1.08154 -3e-5,0.52075 -0.80116,0.85122 -2.40339,0.99139 -2.16307,2e-5 -3.24461,-0.86119 -3.24459,-2.58365 l -0.0901,-0.48067 c 0.06,-0.22029 0.0901,-0.4406 0.0901,-0.66094 l -0.0901,0 c -1.00142,3e-5 -1.50213,0.5508 -1.50211,1.65233 -0.42062,2.82401 -1.14163,4.236 -2.16306,4.23599 l -0.0601,-0.18026 c 0.32045,-1.42199 0.48066,-2.72382 0.48068,-3.90551 l 0,-0.39056 c -2e-5,-0.12013 -0.0501,-0.18022 -0.15013,-0.18024 -0.64092,0.16025 -1.00142,0.24036 -1.08153,0.24034 -0.40057,-0.04 -0.60086,-0.12013 -0.60084,-0.24034 l 0,-0.18026 c 0.0601,-0.1602 0.70097,-0.54074 1.92271,-1.14161 l 0.0901,-0.4206 0,-0.0901 c -2e-5,-0.98136 -0.22033,-1.89264 -0.66094,-2.73385 l 0.0601,0 c 0.10013,-0.0601 0.21028,-0.0901 0.33046,-0.0901 1.44202,4e-5 2.16303,0.75109 2.16305,2.25319 0.12013,0.0602 0.21028,0.0901 0.27038,0.0901 1.02142,-0.34046 1.54215,-0.59081 1.56221,-0.75106 l 0,-1.74245 c -3e-5,-0.14013 -0.14028,-0.84117 -0.4206,-2.10297 0.18025,-0.32044 0.54075,-0.48065 1.08152,-0.48068 z m -10.30455,8.62217 0.0901,0 c 1.08152,10e-6 1.97276,1.17167 2.67377,3.51495 0.10013,0.68098 0.15012,1.09156 0.15028,1.23173 -2e-5,0.4807 -0.11013,0.81117 -0.33048,0.99142 -1.0615,-0.58082 -1.89267,-1.68236 -2.49351,-3.30467 -0.10014,10e-6 -0.2103,-0.67094 -0.33048,-2.01285 0.04,-0.28036 0.12013,-0.42057 0.24034,-0.42058 z"
         style="font-size:40px;font-style:normal;font-variant:normal;font-weight:normal;font-stretch:normal;text-align:center;line-height:125%;letter-spacing:0px;word-spacing:0px;writing-mode:lr-tb;text-anchor:middle;fill:#000000;fill-opacity:1;stroke:none;font-family:Quivira;-inkscape-font-specification:Quivira"
         id="path3038"
         inkscape:connector-curvature="0" />
    </g>
  </g>
</svg>
