<?xml version="1.0" encoding="UTF-8" standalone="no"?>
<!-- Created with Inkscape (http://www.inkscape.org/) -->

<svg
   xmlns:dc="http://purl.org/dc/elements/1.1/"
   xmlns:cc="http://creativecommons.org/ns#"
   xmlns:rdf="http://www.w3.org/1999/02/22-rdf-syntax-ns#"
   xmlns:svg="http://www.w3.org/2000/svg"
   xmlns="http://www.w3.org/2000/svg"
   xmlns:sodipodi="http://sodipodi.sourceforge.net/DTD/sodipodi-0.dtd"
   xmlns:inkscape="http://www.inkscape.org/namespaces/inkscape"
   width="27"
   height="36.0625"
   id="svg4737"
   version="1.1"
   inkscape:version="0.48.2 r9819"
   sodipodi:docname="pin9.svg">
  <defs
     id="defs4739" />
  <sodipodi:namedview
     id="base"
     pagecolor="#ffffff"
     bordercolor="#666666"
     borderopacity="1.0"
     inkscape:pageopacity="0.0"
     inkscape:pageshadow="2"
     inkscape:zoom="2.8"
     inkscape:cx="44.968532"
     inkscape:cy="17.052165"
     inkscape:document-units="px"
     inkscape:current-layer="layer1"
     showgrid="false"
     fit-margin-top="0"
     fit-margin-left="0"
     fit-margin-right="0"
     fit-margin-bottom="0"
     inkscape:window-width="693"
     inkscape:window-height="465"
     inkscape:window-x="1402"
     inkscape:window-y="302"
     inkscape:window-maximized="0" />
  <metadata
     id="metadata4742">
    <rdf:RDF>
      <cc:Work
         rdf:about="">
        <dc:format>image/svg+xml</dc:format>
        <dc:type
           rdf:resource="http://purl.org/dc/dcmitype/StillImage" />
        <dc:title></dc:title>
      </cc:Work>
    </rdf:RDF>
  </metadata>
  <g
     inkscape:label="Layer 1"
     inkscape:groupmode="layer"
     id="layer1"
     transform="translate(-384.04389,-523.36674)">
    <g
       transform="translate(370.31084,5.064007)"
       id="g5639">
      <rect
         y="518.30273"
         x="13.733051"
         height="36.0625"
         width="27"
         id="rect4908"
         style="fill:none;stroke:none" />
      <path
         inkscape:connector-curvature="0"
         id="path4681"
         style="font-size:40px;font-style:normal;font-variant:normal;font-weight:normal;font-stretch:normal;text-align:center;line-height:125%;letter-spacing:0px;word-spacing:0px;writing-mode:lr-tb;text-anchor:middle;fill:none;stroke:none;font-family:Quivira;-inkscape-font-specification:Quivira"
         d="m 20.022906,539.113 0,-0.2103 c -1.5e-5,-0.56077 -1.321873,-1.25175 -3.965604,-2.07293 0.03999,-0.22028 0.180258,-0.36048 0.420597,-0.42058 0.861207,0.28041 1.452049,0.42061 1.772511,0.42058 l 0.09014,0 0,-0.12013 c -0.680964,-0.34046 -1.091548,-0.5107 -1.231736,-0.51072 l 0,-0.4206 c 0.140127,3e-5 0.210283,-0.04 0.210298,-0.12013 0.861207,0.24036 1.902672,0.84121 3.12441,1.80254 l 0.09014,0 m 0.210176,1.23133 c -0.06209,0.50178 -0.249795,0.57961 0,0 z"
         sodipodi:nodetypes="cccccccccccccc" />
      <g
         id="g4797">
        <path
           inkscape:connector-curvature="0"
           id="path4683"
           style="font-size:40px;font-style:normal;font-variant:normal;font-weight:normal;font-stretch:normal;text-align:center;line-height:125%;letter-spacing:0px;word-spacing:0px;writing-mode:lr-tb;text-anchor:middle;fill:#aa0000;fill-opacity:1;stroke:none;font-family:Quivira;-inkscape-font-specification:Quivira"
           d="m 27.443366,545.97217 c 0.06014,1.04147 0.09014,1.88309 0.09014,2.24359 0.600841,0.18026 0.921288,0.3505 0.961357,0.51072 l 0,0.2103 c -0.280408,0.0801 -0.530761,0.12013 -0.751058,0.12013 l 0,0.63089 c 0.02,0.14013 0.09014,0.2103 0.210299,0.2103 l 0.630896,0 c 1.181638,0.10014 1.77248,0.2704 1.772496,0.51072 l 0,0.2103 c -0.140281,0 -0.210314,0.03 -0.210299,0.0901 l -1.442035,-0.2103 c -0.801141,0.16025 -1.642336,0.82117 -2.523554,1.98281 l -0.210299,0 c -0.140281,0 -0.210314,-0.10014 -0.210299,-0.30044 0.220297,-0.40055 0.50069,-0.78108 0.84118,-1.1416 l 0,-0.2103 c -0.420597,0 -1.04148,0.38055 -1.862617,1.1416 -0.140281,-0.0601 -0.250368,-0.0901 -0.330476,-0.0901 l 0,-0.12013 c -1.6e-5,-0.18026 0.07014,-0.39056 0.210298,-0.6309 l -0.210298,0 c -0.560802,0.4206 -0.91129,0.6309 -1.051479,0.6309 -0.140281,-0.22032 -0.210314,-0.43061 -0.210298,-0.6309 l -0.630896,0 0,-0.30042 c 0.560786,-0.44062 0.841179,-0.69098 0.841194,-0.75106 l -0.09014,0 c -0.660937,0.22031 -1.081534,0.33046 -1.261777,0.33046 l -0.09014,-0.2103 0,-0.12013 c 0.120131,-0.28039 1.091532,-0.62086 2.914111,-1.02145 0.06014,-1.28179 0.09014,-2.21184 0.09014,-2.5323 m 0.750972,1.57067 c 0.420582,0.0602 0.630881,0.17026 0.630896,0.33048 l 0,0.0901 c -1.5e-5,0.14012 -0.07014,0.21031 -0.210299,0.2103 l -0.540759,0 0,0.42059 c -1.6e-5,0.22031 0.490676,0.33048 1.472076,0.33046 l 0,-0.12013 c -0.06014,-1.08152 -0.160247,-2.09294 -0.300421,-3.03429 l -0.120131,0 c -0.701006,2e-5 -1.051493,0.45066 -1.051478,1.35192 -1.5e-5,0.28039 0.03999,0.4206 0.120131,0.42058 z"
           sodipodi:nodetypes="ccccccsccccccscccccccccccccccccccccccccccccccc" />
        <path
           inkscape:connector-curvature="0"
           id="path3066"
           style="font-size:40px;font-style:normal;font-variant:normal;font-weight:normal;font-stretch:normal;text-align:center;line-height:125%;letter-spacing:0px;word-spacing:0px;writing-mode:lr-tb;text-anchor:middle;fill:#005500;fill-opacity:1;stroke:none;font-family:Quivira;-inkscape-font-specification:Quivira"
           d="m 30.778003,520.18622 c 1.682344,4e-5 2.974177,1.05152 3.875468,3.15445 l 0.09014,0.72102 -0.09014,0.96135 c 1.261746,0.44066 1.892642,1.31189 1.892673,2.61369 l 0,0.39056 c -3.1e-5,2.8841 -1.432052,5.53785 -4.296065,7.96123 0.520717,0.84122 0.831151,1.26181 0.931316,1.26178 l 0.120132,0 c 0.80111,-2.16302 1.672345,-3.565 2.61369,-4.20593 l 0.420598,0 c -3.1e-5,0.0801 0.02999,0.19029 0.09014,0.33046 -1.522174,1.92275 -2.423435,3.62515 -2.703813,5.10721 l 0.09014,0 c 1.74244,-3.34469 3.414801,-5.32749 5.017083,-5.94839 l 0.120131,0 0,0.42059 c -2.463504,2.36337 -3.895525,4.31612 -4.296065,5.85827 -0.08014,2e-5 -0.120131,0.03 -0.120131,0.0901 -1.6e-5,0.30045 0.80111,1.21173 2.403392,2.73385 0.520717,0.9013 1.261761,1.35193 2.223149,1.35192 l 0.09014,0.2103 c -3.1e-5,0.46066 -0.560817,0.7711 -1.682375,0.93131 -1.221753,0.28041 -2.503557,0.49071 -3.845427,0.63088 -0.08014,2e-5 -0.120131,-0.03 -0.120131,-0.0901 l -1.051478,0.0901 -1.141615,0 c -1.001426,-0.14012 -1.522159,-0.21026 -1.562197,-0.21028 -0.100135,2e-5 -1.581233,1.05201 -2.403392,1.5622 -1.033918,0.52666 -1.974198,0.53635 -3.034273,0.54078 -1.121588,1e-5 -2.062918,-0.59081 -2.82399,-1.7725 l -0.420582,0 c -0.420613,0.34049 -1.081534,0.51074 -1.98281,0.51072 -0.620882,2e-5 -1.842605,-0.04 -3.665169,-0.12013 -0.120131,-0.0601 -0.220312,-0.0901 -0.30042,-0.0901 l 0,-0.42059 c 0.60084,-0.5808 1.502116,-1.83257 2.703812,-3.7553 0.640895,-0.74102 1.341885,-1.37192 2.102972,-1.89267 l 0,-0.2103 c 0.08098,-0.80684 0.292508,-1.27376 0.510756,-1.44197 l 0,-0.2103 c -1.6e-5,-0.40054 -0.310449,-0.75103 -0.931317,-1.05148 -1.061507,-1.36189 -2.243176,-2.37332 -3.545007,-3.03429 0.06014,-0.14012 0.09014,-0.25032 0.09014,-0.33046 l 0.420598,0 c 1.261761,0.70101 2.343295,1.5422 3.244571,2.52356 l 0.210299,0 0,-0.30042 c -0.701006,-2.00281 -2.022864,-4.13581 -3.965605,-6.39904 l 0,-0.21028 c 0.140128,-0.0602 0.24034,-0.0901 0.300436,-0.0901 1.882644,1.70243 2.823974,2.81401 2.823974,3.33471 l 0.210299,0 c -0.08014,-0.90125 -1.021438,-2.854 -2.823974,-5.85826 l 0,-0.0901 c 0.02,-0.14013 0.09014,-0.21025 0.210283,-0.2103 l 0.120131,0 c 0.84118,0.78115 1.81255,2.3834 2.914111,4.80678 0.741029,2.06295 1.261777,4.32614 1.562212,6.7896 l 0.210284,0 c 0.360501,10e-6 0.540759,-0.0701 0.540775,-0.2103 0.240323,2e-5 0.90126,0.21031 1.982794,0.63088 0.280378,-0.24031 0.420582,-0.48065 0.420598,-0.72102 -3.064344,-2.88404 -4.596501,-5.63792 -4.596486,-8.26165 -1.5e-5,-1.18164 0.620852,-2.40336 1.862618,-3.66517 -0.06014,-0.38051 -0.09014,-0.66091 -0.09014,-0.8412 -1.6e-5,-1.54213 1.181653,-2.7238 3.545007,-3.54499 l 0.420582,0 c 0.700975,3e-5 1.502116,0.24037 2.403392,0.72102 1.1416,-0.70096 2.042875,-1.05145 2.703828,-1.05149 z m -5.7381,3.36475 c 0.140127,0.76112 0.520717,1.14164 1.141615,1.14161 l 0.210283,0 c 0.620868,3e-5 0.971355,-0.42056 1.051494,-1.26177 l 0,-0.0901 c -1.5e-5,-0.42055 -0.280409,-0.77106 -0.841195,-1.05148 l -0.630881,0 c -0.620898,0.30047 -0.931331,0.72105 -0.931316,1.26178 z m 3.665169,-0.12013 0,0.33046 c 0.120131,0.70102 0.460636,1.05152 1.021438,1.05148 l 0.210298,0 c 0.700976,-0.14013 1.051463,-0.49065 1.051494,-1.05148 l 0,-0.6309 c -0.260397,-0.42055 -0.500736,-0.66089 -0.721018,-0.72102 l -0.841194,0 c -0.480694,0.30047 -0.721033,0.64094 -0.721018,1.02146 z m -2.523554,-0.6309 c 0.50069,3e-5 0.751043,0.25038 0.751058,0.75106 -0.100135,0.28044 -0.280424,0.49074 -0.540775,0.63089 -0.560801,-0.0801 -0.841195,-0.33043 -0.841179,-0.75105 -1.6e-5,-0.20026 0.210283,-0.41056 0.630896,-0.6309 z m 3.665169,0.12013 c 0.280378,3e-5 0.520717,0.21033 0.721018,0.63088 -0.140282,0.42063 -0.280424,0.63093 -0.420598,0.6309 l -0.60084,0 c -0.160247,-0.04 -0.300451,-0.22028 -0.420598,-0.54076 -1.5e-5,-0.34046 0.240324,-0.5808 0.721018,-0.72102 z m -6.579295,3.87547 c 0,0.72105 0.420582,1.10158 1.261792,1.1416 l 0.09014,0 c 0.700975,-0.14013 1.051463,-0.49066 1.051478,-1.05148 l 0,-0.30042 c -0.140127,-0.70096 -0.490707,-1.05145 -1.051478,-1.05149 -0.901291,0.14028 -1.351914,0.56083 -1.351914,1.26179 z m 3.665184,0.0901 0,0.12013 c -1.5e-5,0.68098 0.480663,1.02147 1.442035,1.02143 0.640879,-0.32041 0.961326,-0.731 0.961357,-1.23173 -0.260397,-0.78107 -0.54079,-1.17163 -0.841195,-1.17166 l -0.540759,0 c -0.620898,3e-5 -0.961372,0.42063 -1.021438,1.26178 z m 3.544992,0.12013 0,0.30042 c 0.300405,0.56081 0.721002,0.84121 1.261792,0.84118 0.640879,3e-5 1.021407,-0.45061 1.1416,-1.3519 -0.100135,-0.48065 -0.380559,-0.83115 -0.84118,-1.0515 l -0.510719,0 c -0.640925,4e-5 -0.991428,0.42063 -1.051493,1.2618 z m -6.068561,-0.96136 c 0.480663,0.10013 0.721002,0.24037 0.721017,0.42058 l 0,0.54078 c -1.5e-5,0.18027 -0.240354,0.32047 -0.721017,0.42058 -0.260382,-0.04 -0.470681,-0.25032 -0.630881,-0.63088 -1.5e-5,-0.32043 0.210283,-0.57079 0.630881,-0.75106 z m 3.755306,0.12013 c 0.180227,3e-5 0.390526,0.21033 0.63088,0.6309 -0.02,0.26039 -0.230341,0.50073 -0.63088,0.72101 -0.400586,4e-5 -0.680979,-0.21026 -0.841195,-0.63089 -1.6e-5,-0.40053 0.280377,-0.64086 0.841195,-0.72102 z m 3.45487,0.0901 c 0.480663,4e-5 0.721002,0.18029 0.721017,0.54077 -1.5e-5,0.42063 -0.240354,0.70102 -0.721017,0.84118 -0.280409,-0.10013 -0.490707,-0.28036 -0.630881,-0.54076 l 0,-0.2103 c -3.1e-5,-0.42056 0.210268,-0.63085 0.630881,-0.63089 z m -10.124287,3.87548 c 0.180243,0.70101 0.520717,1.05151 1.021438,1.05148 l 0.630896,0 c 0.220297,-0.0801 0.470649,-0.33045 0.751058,-0.75106 l 0,-0.81115 c -0.300436,-0.56076 -0.690993,-0.84115 -1.171656,-0.84118 l -0.09014,0 c -0.640925,3e-5 -1.021454,0.45067 -1.141616,1.35191 z m 3.635128,-0.4206 0,0.4206 c 0.120132,0.7611 0.510704,1.14163 1.171656,1.1416 0.761056,3e-5 1.1416,-0.3104 1.141615,-0.93132 l 0,-0.72101 c -0.300451,-0.50068 -0.650939,-0.75103 -1.051494,-0.75106 l -0.420582,0 c -0.360532,0.18029 -0.640925,0.46068 -0.841195,0.84119 z m 3.575048,0.33046 0,0.30042 c -1.5e-5,0.70103 0.480663,1.05153 1.442035,1.0515 0.640879,-0.26034 0.961342,-0.65089 0.961357,-1.17166 l 0,-0.18026 c -0.140281,-0.70096 -0.490707,-1.05144 -1.051478,-1.05147 l -0.330476,0 c -0.680979,0.14028 -1.021453,0.49072 -1.021438,1.05147 z m 3.545007,0.30042 0,0.30044 c -3.1e-5,0.12013 0.240308,0.37055 0.721018,0.75106 l 0.961356,0 c 0.480648,-0.32043 0.720987,-0.67092 0.721018,-1.0515 l 0,-0.21028 c -3.1e-5,-0.62085 -0.420628,-0.97135 -1.261777,-1.05149 l -0.09014,0 c -0.640925,3e-5 -0.991412,0.42063 -1.051475,1.26177 z m -9.523447,-1.05147 c 0.420582,0.16026 0.630881,0.30045 0.630897,0.42059 l 0,0.2103 c -1.6e-5,0.48071 -0.240355,0.72105 -0.721018,0.72102 -0.34049,3e-5 -0.510734,-0.20025 -0.510719,-0.60086 -1.5e-5,-0.50067 0.20027,-0.75102 0.60084,-0.75105 z m 3.665169,0.12013 c 0.420582,0.16024 0.630881,0.40058 0.630897,0.72101 -1.6e-5,0.20031 -0.210315,0.4106 -0.630897,0.63089 -0.480693,3e-5 -0.721033,-0.24031 -0.721017,-0.72102 -1.6e-5,-0.42057 0.240324,-0.63087 0.721017,-0.63088 z m 3.545007,0.0901 0.120132,0 c 0.340458,0.18029 0.510688,0.46069 0.510718,0.84118 -3e-5,0.10014 -0.17026,0.27041 -0.510718,0.51074 -0.560818,10e-6 -0.841211,-0.24033 -0.841195,-0.72102 -1.6e-5,-0.42057 0.240324,-0.63087 0.721017,-0.6309 z m 3.575048,0.12014 0.210299,0 c 0.180227,3e-5 0.320432,0.24037 0.420597,0.72101 -0.140281,0.3205 -0.280424,0.49073 -0.420597,0.51074 l -0.54076,0 c -0.280424,-0.10014 -0.420628,-0.34046 -0.420597,-0.72102 0.100135,-0.34046 0.350472,-0.5107 0.751058,-0.51073 z m -10.154327,3.3347 0,0.51072 c 0.140127,0.70102 0.490676,1.05151 1.051478,1.0515 l 0.510719,0 c 0.560786,-0.26035 0.841179,-0.71099 0.841195,-1.35192 -0.120132,-0.44059 -0.400586,-0.79108 -0.841195,-1.05148 l -0.390542,0 c -0.420613,3e-5 -0.81117,0.28043 -1.171655,0.84118 z m 3.575047,0.4206 0,0.0901 c -1.5e-5,0.64094 0.450607,1.03148 1.351899,1.17165 l 0.210298,0 c 0.560771,-0.20025 0.841164,-0.59081 0.841195,-1.17165 l 0,-0.21029 c -0.140281,-0.68094 -0.490723,-1.02142 -1.051493,-1.02145 l -0.330461,0 c -0.680979,0.18029 -1.021453,0.56082 -1.021438,1.14162 z m 3.635129,-0.12013 0,0.75106 c 0.320431,0.48069 0.670919,0.72103 1.051478,0.72102 l 0.120131,0 c 0.680933,10e-6 1.091517,-0.45063 1.231737,-1.35192 -0.100135,-0.46062 -0.380559,-0.81112 -0.841195,-1.05148 l -0.600841,0 c -0.640925,0.10014 -0.961387,0.4106 -0.961357,0.93132 z m -6.038521,-0.6309 c 0.340459,3e-5 0.580798,0.25039 0.721018,0.75106 -0.100135,0.28043 -0.270395,0.49072 -0.510719,0.6309 -0.420613,10e-6 -0.701006,-0.21029 -0.841195,-0.6309 0.03999,-0.50067 0.250337,-0.75103 0.630896,-0.75106 z m 3.755291,0.12013 c 0.340474,0.10014 0.510703,0.34053 0.510718,0.72102 -1.5e-5,0.28043 -0.210314,0.49073 -0.63088,0.6309 -0.480694,-0.04 -0.721033,-0.28036 -0.721018,-0.72102 0.140127,-0.42057 0.420567,-0.63086 0.84118,-0.6309 z m 3.124409,0.0901 0.540775,0 c 0.100135,3e-5 0.230295,0.14028 0.390541,0.4206 l 0,0.21028 c -1.5e-5,0.42063 -0.2003,0.63093 -0.60084,0.6309 l -0.330476,0 c -0.100135,3e-5 -0.240354,-0.17022 -0.420582,-0.51072 0.120131,-0.50067 0.260336,-0.75103 0.420582,-0.75106 z m -2.072916,2.82399 -0.120131,0.21028 c 0.240324,0.50074 0.90126,0.75109 1.982795,0.75108 0.140127,10e-6 0.210283,-0.0701 0.210298,-0.2103 -0.480693,-0.42058 -1.171671,-0.67094 -2.072916,-0.75106 z m -2.31327,0.84118 c 0.03999,0.22033 0.320431,0.33049 0.841194,0.33046 l 0.84118,0 0,-0.21028 c -0.240355,-0.42058 -0.420613,-0.63088 -0.540759,-0.6309 -0.761087,0.18028 -1.141631,0.35052 -1.141615,0.51072 z m -1.772496,1.05148 0,0.2103 0.510719,0 c 0.380512,3e-5 0.630865,-0.14013 0.751058,-0.42058 -1.6e-5,-0.10014 -0.110133,-0.20027 -0.330461,-0.30044 l -0.300436,0 c -0.420597,0.2604 -0.630896,0.43064 -0.63088,0.51072 z m 5.7381,-0.21028 0,0.12013 c -3.1e-5,0.22032 0.420567,0.39057 1.261777,0.51072 l 0.09014,0 0,-0.51072 c -1.6e-5,-0.10014 -0.100135,-0.21027 -0.30042,-0.33046 -0.600871,0.14028 -0.951359,0.21031 -1.051479,0.21029 z m -2.703827,0.21028 0,0.0901 c -1.6e-5,0.16024 0.310418,0.30043 0.931316,0.42059 l 0.330476,0 c 0.340459,2e-5 0.510688,-0.0701 0.510719,-0.2103 -0.120131,-0.34045 -0.290438,-0.5107 -0.510719,-0.51071 -0.300451,10e-6 -0.721049,0.0701 -1.261792,0.21028 z m -7.540637,1.14161 c 0.721002,0.64093 1.311844,0.96138 1.772496,0.96136 l 0.841195,0 c 0.360485,2e-5 0.570784,-0.11013 0.63088,-0.33046 l 0,-0.2103 c -0.200285,-0.98137 -0.721017,-1.47206 -1.562197,-1.47207 l -0.420597,0 c -0.64091,10e-6 -1.061507,0.35051 -1.261777,1.05147 z m 6.27886,-0.84118 c -1.6e-5,0.14029 -0.310449,0.35052 -0.931317,0.63089 l 0,0.12013 c 0.02,0.14028 0.09014,0.21031 0.210299,0.2103 0.90126,-0.0801 1.351898,-0.2203 1.351914,-0.4206 l 0,-0.12013 c -0.140281,-0.28037 -0.350519,-0.42057 -0.630896,-0.42059 z m -4.686607,0.33047 c 0.50069,1e-5 0.911274,0.24035 1.231736,0.72101 l 0,0.2103 c -1.5e-5,0.10014 -0.210314,0.21032 -0.630896,0.33046 -0.901276,-0.28038 -1.351914,-0.53073 -1.351914,-0.75106 l 0,-0.21029 c 0,-0.16021 0.250353,-0.26034 0.751074,-0.30042 z m 2.283215,0.30042 0,0.12013 c -1.6e-5,0.38056 0.170229,0.66095 0.510718,0.84118 l 0.210299,0 0,-0.2103 c -1.5e-5,-0.10014 -0.240354,-0.35047 -0.721017,-0.75106 z m 5.527801,0.84119 c 0.220297,2e-5 0.330445,0.0701 0.330461,0.2103 l 1.98281,-0.2103 0,-0.0901 c -0.520763,-0.0801 -0.871251,-0.15012 -1.051494,-0.21028 l 0,0.0901 -0.210299,-0.0901 -0.210283,0 c -0.500736,2e-5 -0.781129,0.10014 -0.841195,0.30042 z m -10.544884,1.14162 0.210298,0.12013 c 0.340475,10e-6 0.690962,-0.21029 1.051479,-0.6309 l 0,-0.21028 -0.120131,0 c -0.380544,1e-5 -0.761087,0.24035 -1.141616,0.72101 z m 12.527679,-0.0901 0,0.30042 0.120131,0 c 0.180227,3e-5 0.460621,0.0401 0.841179,0.12013 0.620852,2e-5 1.07149,-0.18024 1.351914,-0.54076 l -0.30042,-0.18026 -0.420597,0 z m -10.334586,-0.2103 -0.30042,0.4206 0,0.2103 0.09014,0 c 0.360501,10e-6 0.5708,-0.11014 0.630896,-0.33046 l 0,-0.2103 z m 5.7381,0.51072 0,0.2103 0.630897,0.12013 c 0.721002,1e-5 1.421977,-0.0701 2.102971,-0.2103 -3e-5,-0.36049 -0.110133,-0.57078 -0.330476,-0.6309 z m -5.197325,2.73387 0,0.51072 c -1.6e-5,0.94134 0.550757,1.60226 1.652318,1.98279 l 0.330476,0 c 1.782494,2e-5 3.244557,-0.55076 4.386187,-1.65233 -1.522159,-1.04145 -2.783951,-1.95274 -3.785346,-2.73386 l -0.30042,0 c -0.160247,0.02 -0.400586,0.61089 -0.721018,1.7725 l -0.330461,0 c -0.03999,10e-6 -0.140281,-0.10014 -0.300435,-0.30042 0.340474,-1.04145 0.550773,-1.95274 0.630896,-2.73385 l -0.540759,0 c -0.260382,10e-6 -0.600872,1.05149 -1.021438,3.15445 z m 11.175765,-1.89268 0,0.12013 c -1.5e-5,0.18028 0.240324,0.32048 0.721018,0.4206 0.320431,2e-5 0.811123,-0.11013 1.472075,-0.33046 l 0,-0.0901 c -1.5e-5,-0.12013 -0.140281,-0.26033 -0.420597,-0.42058 l -0.540759,0 c -0.761103,0.2003 -1.171671,0.30044 -1.231737,0.30042 z m -14.750813,-0.2103 c -0.280408,0.32048 -0.420613,0.57084 -0.420597,0.75106 0.140127,0.0602 0.250337,0.0901 0.33046,0.0901 0.360502,2e-5 0.640895,-0.17023 0.841195,-0.51073 -0.360516,-0.22029 -0.610869,-0.33045 -0.751058,-0.33047 z m 10.875345,0.6309 -0.721017,-0.0901 0,0.2103 c 0.1602,2e-5 0.680948,0.03 1.562197,0.0901 0.380528,2e-5 0.90126,-0.0701 1.562212,-0.2103 l 0,-0.30043 c -1.5e-5,-0.16021 -0.17026,-0.27037 -0.510719,-0.33047 -0.741075,2e-5 -1.371956,0.21032 -1.892673,0.6309 z m -9.102849,-0.30043 0,0.42059 0.420598,0 c 0.360501,2e-5 0.570784,-0.11013 0.63088,-0.33046 l -0.210283,-0.0901 z m 14.330231,1.14161 c 0.120131,0.34051 0.640879,0.51073 1.562197,0.51072 l 0.510719,-0.0901 0,-0.33046 c -0.180274,-0.3605 -0.380559,-0.56078 -0.60084,-0.60085 -0.520764,0.30043 -1.011456,0.47068 -1.472076,0.51072 z m -3.334709,0.0901 0,0.21028 1.652334,0 c 0.140128,2e-5 0.210268,-0.0701 0.210299,-0.21028 l 0,-0.2103 -0.510734,-0.0901 c -0.660952,0.2003 -1.11159,0.30045 -1.351899,0.30044 z m -13.819511,-0.0901 -0.180243,0.30042 0,0.12013 c 0.02,0.14028 0.08014,0.21032 0.180243,0.2103 l 0.420597,0 c 0.360501,2e-5 0.5708,-0.11013 0.630896,-0.33048 -0.540775,-0.20025 -0.891278,-0.3004 -1.051493,-0.30042 z m 2.102971,0.0901 0,0.42058 0.300421,0 c 0.180242,10e-6 0.500705,-0.0701 0.961356,-0.2103 l 0,-0.21028 c -0.260366,10e-6 -0.580828,-0.03 -0.961356,-0.0901 -0.120132,0.0601 -0.220313,0.0901 -0.300421,0.0901 z m -3.244571,1.68237 0.420582,0 1.261792,0.12013 0.09014,-0.2103 0,-0.21029 -0.420597,0 c -0.160232,1e-5 -0.470665,-0.0702 -0.931317,-0.2103 -0.280393,0.0601 -0.420597,0.23034 -0.420582,0.51073 z m 2.823974,-0.51073 -0.09014,0.2103 0,0.42059 0.420598,0 c 0.06014,2e-5 0.330445,-0.0701 0.811139,-0.2103 l 0,-0.21029 -0.09014,-0.2103 -0.210299,0.0901 c -0.380543,-0.06 -0.660952,-0.0901 -0.841195,-0.0901 z"
           sodipodi:nodetypes="ccccccccccccccccccccccccccccccccccccccccccccccccccccccccccccccccccccccccccccccccccccccccccccccccccccccccccccccccccccccccccccccccccccccccccccccccccccccccccccccccccccccccccccccccccccccccccccccccccccccccccccccccccccccccccccccccccccccccccccccccccccccccccccccccccccccccccccccccccccccccccccccccccccccccccssccccccccccccccccccccccccccccccccccccccccccccccccccccccccccccccccccccccccccccccccccccccccccccccccccccccccccccccccccccccccccccccccccccccccc" />
      </g>
    </g>
  </g>
</svg>
