<?xml version="1.0" encoding="UTF-8" standalone="no"?>
<!-- Created with Inkscape (http://www.inkscape.org/) -->

<svg
   xmlns:dc="http://purl.org/dc/elements/1.1/"
   xmlns:cc="http://creativecommons.org/ns#"
   xmlns:rdf="http://www.w3.org/1999/02/22-rdf-syntax-ns#"
   xmlns:svg="http://www.w3.org/2000/svg"
   xmlns="http://www.w3.org/2000/svg"
   xmlns:sodipodi="http://sodipodi.sourceforge.net/DTD/sodipodi-0.dtd"
   xmlns:inkscape="http://www.inkscape.org/namespaces/inkscape"
   width="27"
   height="36.0625"
   id="svg4737"
   version="1.1"
   inkscape:version="0.48.2 r9819"
   sodipodi:docname="soh1.svg">
  <defs
     id="defs4739" />
  <sodipodi:namedview
     id="base"
     pagecolor="#ffffff"
     bordercolor="#666666"
     borderopacity="1.0"
     inkscape:pageopacity="0.0"
     inkscape:pageshadow="2"
     inkscape:zoom="2.8"
     inkscape:cx="51.682823"
     inkscape:cy="23.654843"
     inkscape:document-units="px"
     inkscape:current-layer="layer1"
     showgrid="false"
     fit-margin-top="0"
     fit-margin-left="0"
     fit-margin-right="0"
     fit-margin-bottom="0"
     inkscape:window-width="693"
     inkscape:window-height="465"
     inkscape:window-x="1402"
     inkscape:window-y="302"
     inkscape:window-maximized="0" />
  <metadata
     id="metadata4742">
    <rdf:RDF>
      <cc:Work
         rdf:about="">
        <dc:format>image/svg+xml</dc:format>
        <dc:type
           rdf:resource="http://purl.org/dc/dcmitype/StillImage" />
        <dc:title></dc:title>
      </cc:Work>
    </rdf:RDF>
  </metadata>
  <g
     inkscape:label="Layer 1"
     inkscape:groupmode="layer"
     id="layer1"
     transform="translate(-377.3296,-529.96942)">
    <g
       transform="translate(306.75638,11.651608)"
       id="g5646">
      <rect
         style="fill:none;stroke:none"
         id="rect4906"
         width="27"
         height="36.0625"
         x="70.573219"
         y="518.31781" />
      <path
         sodipodi:nodetypes="ccccccccccccscccsccccccccccccccccccccccccscccccccccccccccccccccccccccccccccccccccccccccc"
         d="m 86.086061,545.12141 c -1.6e-5,-0.34047 -0.340505,-0.5107 -1.021438,-0.51071 l -1.98281,0 c -0.680979,1e-5 -1.021453,0.17024 -1.021438,0.51071 -1.5e-5,0.34049 0.340459,0.51074 1.021438,0.51072 l 1.98281,0 c 0.680933,2e-5 1.021422,-0.17023 1.021438,-0.51072 z m -0.510719,-1.50211 c 1.001395,1e-5 1.5021,0.50072 1.502116,1.50211 -1.6e-5,1.00143 -0.500721,1.50214 -1.502116,1.50212 l 0,1.50212 c 1.001395,1e-5 1.5021,0.50072 1.502116,1.50213 -1.6e-5,1.00141 -0.500721,1.50211 -1.502116,1.50211 l -0.210299,0 c -0.220328,0.66094 -0.650939,0.99142 -1.291833,0.9914 -0.64091,2e-5 -1.07152,-0.33046 -1.291817,-0.9914 l -0.210299,0 c -1.001426,0 -1.502132,-0.5007 -1.502116,-1.50211 -1.6e-5,-1.00141 0.50069,-1.50212 1.502116,-1.50213 l 0,-1.50212 c -1.001426,2e-5 -1.502132,-0.50069 -1.502116,-1.50212 -1.6e-5,-1.00139 0.50069,-1.5021 1.502116,-1.50211 l 0,-1.50213 c -1.001426,3e-5 -1.502132,-0.50069 -1.502116,-1.50212 -1.6e-5,-1.00139 0.50069,-1.5021 1.502116,-1.50212 l 0.210299,0 c 0.220297,-0.68094 0.650907,-1.02142 1.291817,-1.02143 0.640894,10e-6 1.071505,0.34049 1.291833,1.02143 l 0.210299,0 c 1.001395,2e-5 1.5021,0.50073 1.502116,1.50212 -1.6e-5,1.00143 -0.500721,1.50215 -1.502116,1.50212 z m -2.012851,0 1.021453,0 0,-2.49353 c -3e-5,-1.34187 -0.17026,-2.01282 -0.510734,-2.01284 -0.340489,2e-5 -0.510734,0.67097 -0.510719,2.01284 z m 1.021453,3.00423 -1.021453,0 0,2.49353 c -1.5e-5,1.3419 0.17023,2.01283 0.510719,2.01283 0.340474,0 0.510704,-0.67093 0.510734,-2.01283 z m 1.502117,-19.01684 c -1.6e-5,-0.34044 -0.340505,-0.51068 -1.021438,-0.51072 l -1.98281,0 c -0.680979,4e-5 -1.021453,0.17028 -1.021438,0.51072 -1.5e-5,0.34052 0.340459,0.51075 1.021438,0.51072 l 1.98281,0 c 0.680933,3e-5 1.021422,-0.1702 1.021438,-0.51072 z m -0.510719,-1.50211 c 1.001395,3e-5 1.5021,0.50073 1.502116,1.50211 -1.6e-5,1.00144 -0.500721,1.50215 -1.502116,1.50212 l 0,1.50213 c 1.001395,2e-5 1.5021,0.50072 1.502116,1.50212 -1.6e-5,1.00144 -0.500721,1.50214 -1.502116,1.50211 l -0.210299,0 c -0.220328,0.66096 -0.650939,0.99143 -1.291833,0.9914 -0.64091,3e-5 -1.07152,-0.33044 -1.291817,-0.9914 l -0.210299,0 c -1.001426,3e-5 -1.502132,-0.50067 -1.502116,-1.50211 -1.6e-5,-1.0014 0.50069,-1.5021 1.502116,-1.50212 l 0,-1.50213 c -1.001426,3e-5 -1.502132,-0.50068 -1.502116,-1.50212 -1.6e-5,-1.00138 0.50069,-1.50208 1.502116,-1.50211 l 0,-1.50212 c -1.001426,3e-5 -1.502132,-0.50067 -1.502116,-1.50213 -1.6e-5,-1.00137 0.50069,-1.50209 1.502116,-1.50212 l 0.210299,0 c 0.220297,-0.68091 0.650907,-1.0214 1.291817,-1.02143 0.640894,3e-5 1.071505,0.34052 1.291833,1.02143 l 0.210299,0 c 1.001395,3e-5 1.5021,0.50075 1.502116,1.50212 -1.6e-5,1.00146 -0.500721,1.50216 -1.502116,1.50213 z m -2.012851,0 1.021453,0 0,-2.49353 c -3e-5,-1.34186 -0.17026,-2.01281 -0.510734,-2.01284 -0.340489,3e-5 -0.510734,0.67098 -0.510719,2.01284 z m 1.021453,3.00423 -1.021453,0 0,2.49353 c -1.5e-5,1.34191 0.17023,2.01286 0.510719,2.01283 0.340474,3e-5 0.510704,-0.67092 0.510734,-2.01283 z"
         style="font-size:40px;font-style:normal;font-variant:normal;font-weight:normal;font-stretch:normal;text-align:center;line-height:125%;letter-spacing:0px;word-spacing:0px;writing-mode:lr-tb;text-anchor:middle;fill:#005500;fill-opacity:1;stroke:none;font-family:Quivira;-inkscape-font-specification:Quivira"
         id="path3068"
         inkscape:connector-curvature="0" />
    </g>
  </g>
</svg>
