<?xml version="1.0" encoding="UTF-8" standalone="no"?>
<!-- Created with Inkscape (http://www.inkscape.org/) -->

<svg
   xmlns:dc="http://purl.org/dc/elements/1.1/"
   xmlns:cc="http://creativecommons.org/ns#"
   xmlns:rdf="http://www.w3.org/1999/02/22-rdf-syntax-ns#"
   xmlns:svg="http://www.w3.org/2000/svg"
   xmlns="http://www.w3.org/2000/svg"
   xmlns:sodipodi="http://sodipodi.sourceforge.net/DTD/sodipodi-0.dtd"
   xmlns:inkscape="http://www.inkscape.org/namespaces/inkscape"
   width="27"
   height="36.0625"
   id="svg4737"
   version="1.1"
   inkscape:version="0.48.2 r9819"
   sodipodi:docname="soh3.svg">
  <defs
     id="defs4739" />
  <sodipodi:namedview
     id="base"
     pagecolor="#ffffff"
     bordercolor="#666666"
     borderopacity="1.0"
     inkscape:pageopacity="0.0"
     inkscape:pageshadow="2"
     inkscape:zoom="2.8"
     inkscape:cx="21.237527"
     inkscape:cy="20.788771"
     inkscape:document-units="px"
     inkscape:current-layer="layer1"
     showgrid="false"
     fit-margin-top="0"
     fit-margin-left="0"
     fit-margin-right="0"
     fit-margin-bottom="0"
     inkscape:window-width="693"
     inkscape:window-height="465"
     inkscape:window-x="1402"
     inkscape:window-y="302"
     inkscape:window-maximized="0" />
  <metadata
     id="metadata4742">
    <rdf:RDF>
      <cc:Work
         rdf:about="">
        <dc:format>image/svg+xml</dc:format>
        <dc:type
           rdf:resource="http://purl.org/dc/dcmitype/StillImage" />
        <dc:title></dc:title>
      </cc:Work>
    </rdf:RDF>
  </metadata>
  <g
     inkscape:label="Layer 1"
     inkscape:groupmode="layer"
     id="layer1"
     transform="translate(-386.75817,-527.10335)">
    <g
       transform="translate(202.50451,8.7855413)"
       id="g5654">
      <rect
         style="fill:none;stroke:none"
         id="rect4902"
         width="27"
         height="36.0625"
         x="184.25366"
         y="518.31781" />
      <path
         sodipodi:nodetypes="scccccscccccscccscccccccccccccccccsccccccsscccccccccccccscccsccccccccccccccccccccccccsccscccccscccccccccccccccccccccccccccscccccccsccccccccccccccccccccccccccccccccccccccccccccc"
         d="m 191.50483,545.12141 c 0,-0.34047 -0.34049,-0.5107 -1.02143,-0.51071 l -1.9828,0 c -0.68096,1e-5 -1.02145,0.17024 -1.02144,0.51071 -1e-5,0.34049 0.34048,0.51074 1.02144,0.51072 l 1.9828,0 c 0.68094,2e-5 1.02143,-0.17023 1.02143,-0.51072 z m -0.51071,-1.50211 c 1.00141,1e-5 1.50211,0.50072 1.50213,1.50211 -2e-5,1.00143 -0.50072,1.50214 -1.50213,1.50212 l 0,1.50212 c 1.00141,1e-5 1.50211,0.50072 1.50213,1.50213 -2e-5,1.00141 -0.50072,1.50211 -1.50213,1.50211 l -0.2103,0 c -0.22032,0.66094 -0.65093,0.99142 -1.29182,0.9914 -0.64091,2e-5 -1.07152,-0.33046 -1.29182,-0.9914 l -0.2103,0 c -1.00142,0 -1.50213,-0.5007 -1.50211,-1.50211 -2e-5,-1.00141 0.50069,-1.50212 1.50211,-1.50213 l 0,-1.50212 c -1.00142,2e-5 -1.50213,-0.50069 -1.50211,-1.50212 -2e-5,-1.00139 0.50069,-1.5021 1.50211,-1.50211 l 0,-1.50213 c -1.00142,3e-5 -1.50213,-0.50069 -1.50211,-1.50212 -2e-5,-1.00139 0.50069,-1.5021 1.50211,-1.50212 l 0.2103,0 c 0.2203,-0.68094 0.65091,-1.02142 1.29182,-1.02143 0.64089,10e-6 1.0715,0.34049 1.29182,1.02143 l 0.2103,0 c 1.00141,2e-5 1.50211,0.50073 1.50213,1.50212 -2e-5,1.00143 -0.50072,1.50215 -1.50213,1.50212 z m -2.01284,0 1.02144,0 0,-2.49353 c 0,-1.34187 -0.17025,-2.01282 -0.51072,-2.01284 -0.34049,2e-5 -0.51074,0.67097 -0.51072,2.01284 z m 1.02144,3.00423 -1.02144,0 0,2.49353 c -2e-5,1.3419 0.17023,2.01283 0.51072,2.01283 0.34047,0 0.51072,-0.67093 0.51072,-2.01283 z m 18.02544,-1.50212 c -3e-5,-0.34047 -0.34051,-0.5107 -1.02144,-0.51071 l -1.98279,0 c -0.681,1e-5 -1.02147,0.17024 -1.02146,0.51071 -10e-6,0.34049 0.34046,0.51074 1.02146,0.51072 l 1.98279,0 c 0.68093,2e-5 1.02141,-0.17023 1.02144,-0.51072 z m -0.51072,-1.50211 c 1.00138,1e-5 1.50208,0.50072 1.50212,1.50211 -4e-5,1.00143 -0.50074,1.50214 -1.50212,1.50212 l 0,1.50212 c 1.00138,1e-5 1.50208,0.50072 1.50212,1.50213 -4e-5,1.00141 -0.50074,1.50211 -1.50212,1.50211 l -0.2103,0 c -0.22033,0.66094 -0.65094,0.99142 -1.29182,0.9914 -0.64092,2e-5 -1.07153,-0.33046 -1.29183,-0.9914 l -0.21028,0 c -1.00144,0 -1.50215,-0.5007 -1.50213,-1.50211 -2e-5,-1.00141 0.50069,-1.50212 1.50213,-1.50213 l 0,-1.50212 c -1.00144,2e-5 -1.50215,-0.50069 -1.50213,-1.50212 -2e-5,-1.00139 0.50069,-1.5021 1.50213,-1.50211 l 0,-1.50213 c -1.00144,3e-5 -1.50215,-0.50069 -1.50213,-1.50212 -2e-5,-1.00139 0.50069,-1.5021 1.50213,-1.50212 l 0.21028,0 c 0.2203,-0.68094 0.65091,-1.02142 1.29183,-1.02143 0.64088,10e-6 1.07149,0.34049 1.29182,1.02143 l 0.2103,0 c 1.00138,2e-5 1.50208,0.50073 1.50212,1.50212 -4e-5,1.00143 -0.50074,1.50215 -1.50212,1.50212 z m -2.01284,0 1.02144,0 0,-2.49353 c -3e-5,-1.34187 -0.17026,-2.01282 -0.51072,-2.01284 -0.3405,2e-5 -0.51075,0.67097 -0.51072,2.01284 z m 1.02144,3.00423 -1.02144,0 0,2.49353 c -3e-5,1.3419 0.17022,2.01283 0.51072,2.01283 0.34046,0 0.51069,-0.67093 0.51072,-2.01283 z m -15.02121,-19.01684 c 0,-0.34044 -0.34049,-0.51068 -1.02143,-0.51072 l -1.9828,0 c -0.68096,4e-5 -1.02145,0.17028 -1.02144,0.51072 -1e-5,0.34052 0.34048,0.51075 1.02144,0.51072 l 1.9828,0 c 0.68094,3e-5 1.02143,-0.1702 1.02143,-0.51072 z m -0.51071,-1.50211 c 1.00141,3e-5 1.50211,0.50073 1.50213,1.50211 -2e-5,1.00144 -0.50072,1.50215 -1.50213,1.50212 l 0,1.50213 c 1.00141,2e-5 1.50211,0.50072 1.50213,1.50212 -2e-5,1.00144 -0.50072,1.50214 -1.50213,1.50211 l -0.2103,0 c -0.22032,0.66096 -0.65093,0.99143 -1.29182,0.9914 -0.64091,3e-5 -1.07152,-0.33044 -1.29182,-0.9914 l -0.2103,0 c -1.00142,3e-5 -1.50213,-0.50067 -1.50211,-1.50211 -2e-5,-1.0014 0.50069,-1.5021 1.50211,-1.50212 l 0,-1.50213 c -1.00142,3e-5 -1.50213,-0.50068 -1.50211,-1.50212 -2e-5,-1.00138 0.50069,-1.50208 1.50211,-1.50211 l 0,-1.50212 c -1.00142,3e-5 -1.50213,-0.50067 -1.50211,-1.50213 -2e-5,-1.00137 0.50069,-1.50209 1.50211,-1.50212 l 0.2103,0 c 0.2203,-0.68091 0.65091,-1.0214 1.29182,-1.02143 0.64089,3e-5 1.0715,0.34052 1.29182,1.02143 l 0.2103,0 c 1.00141,3e-5 1.50211,0.50075 1.50213,1.50212 -2e-5,1.00146 -0.50072,1.50216 -1.50213,1.50213 z m -2.01284,0 1.02144,0 0,-2.49353 c 0,-1.34186 -0.17025,-2.01281 -0.51072,-2.01284 -0.34049,3e-5 -0.51074,0.67098 -0.51072,2.01284 z m 1.02144,3.00423 -1.02144,0 0,2.49353 c -2e-5,1.34191 0.17023,2.01286 0.51072,2.01283 0.34047,3e-5 0.51072,-0.67092 0.51072,-2.01283 z m 18.02544,-1.50212 c -3e-5,-0.34044 -0.34051,-0.51068 -1.02144,-0.51072 l -1.98279,0 c -0.681,4e-5 -1.02147,0.17028 -1.02146,0.51072 -10e-6,0.34052 0.34046,0.51075 1.02146,0.51072 l 1.98279,0 c 0.68093,3e-5 1.02141,-0.1702 1.02144,-0.51072 z m -0.51072,-1.50211 c 1.00138,3e-5 1.50208,0.50073 1.50212,1.50211 -4e-5,1.00144 -0.50074,1.50215 -1.50212,1.50212 l 0,1.50213 c 1.00138,2e-5 1.50208,0.50072 1.50212,1.50212 -4e-5,1.00144 -0.50074,1.50214 -1.50212,1.50211 l -0.2103,0 c -0.22033,0.66096 -0.65094,0.99143 -1.29182,0.9914 -0.64092,3e-5 -1.07153,-0.33044 -1.29183,-0.9914 l -0.21028,0 c -1.00144,3e-5 -1.50215,-0.50067 -1.50213,-1.50211 -2e-5,-1.0014 0.50069,-1.5021 1.50213,-1.50212 l 0,-1.50213 c -1.00144,3e-5 -1.50215,-0.50068 -1.50213,-1.50212 -2e-5,-1.00138 0.50069,-1.50208 1.50213,-1.50211 l 0,-1.50212 c -1.00144,3e-5 -1.50215,-0.50067 -1.50213,-1.50213 -2e-5,-1.00137 0.50069,-1.50209 1.50213,-1.50212 l 0.21028,0 c 0.2203,-0.68091 0.65091,-1.0214 1.29183,-1.02143 0.64088,3e-5 1.07149,0.34052 1.29182,1.02143 l 0.2103,0 c 1.00138,3e-5 1.50208,0.50075 1.50212,1.50212 -4e-5,1.00146 -0.50074,1.50216 -1.50212,1.50213 z m -2.01284,0 1.02144,0 0,-2.49353 c -3e-5,-1.34186 -0.17026,-2.01281 -0.51072,-2.01284 -0.3405,3e-5 -0.51075,0.67098 -0.51072,2.01284 z m 1.02144,3.00423 -1.02144,0 0,2.49353 c -3e-5,1.34191 0.17022,2.01286 0.51072,2.01283 0.34046,3e-5 0.51069,-0.67092 0.51072,-2.01283 z"
         style="font-size:40px;font-style:normal;font-variant:normal;font-weight:normal;font-stretch:normal;text-align:center;line-height:125%;letter-spacing:0px;word-spacing:0px;writing-mode:lr-tb;text-anchor:middle;fill:#005500;fill-opacity:1;stroke:none;font-family:Quivira;-inkscape-font-specification:Quivira"
         id="path3072"
         inkscape:connector-curvature="0" />
    </g>
  </g>
</svg>
