<?xml version="1.0" encoding="UTF-8" standalone="no"?>
<!-- Created with Inkscape (http://www.inkscape.org/) -->

<svg
   xmlns:dc="http://purl.org/dc/elements/1.1/"
   xmlns:cc="http://creativecommons.org/ns#"
   xmlns:rdf="http://www.w3.org/1999/02/22-rdf-syntax-ns#"
   xmlns:svg="http://www.w3.org/2000/svg"
   xmlns="http://www.w3.org/2000/svg"
   xmlns:sodipodi="http://sodipodi.sourceforge.net/DTD/sodipodi-0.dtd"
   xmlns:inkscape="http://www.inkscape.org/namespaces/inkscape"
   width="27"
   height="36.0625"
   id="svg4737"
   version="1.1"
   inkscape:version="0.48.2 r9819"
   sodipodi:docname="soh4.svg">
  <defs
     id="defs4739" />
  <sodipodi:namedview
     id="base"
     pagecolor="#ffffff"
     bordercolor="#666666"
     borderopacity="1.0"
     inkscape:pageopacity="0.0"
     inkscape:pageshadow="2"
     inkscape:zoom="2.8"
     inkscape:cx="9.0232398"
     inkscape:cy="25.605735"
     inkscape:document-units="px"
     inkscape:current-layer="layer1"
     showgrid="false"
     fit-margin-top="0"
     fit-margin-left="0"
     fit-margin-right="0"
     fit-margin-bottom="0"
     inkscape:window-width="693"
     inkscape:window-height="465"
     inkscape:window-x="1402"
     inkscape:window-y="302"
     inkscape:window-maximized="0" />
  <metadata
     id="metadata4742">
    <rdf:RDF>
      <cc:Work
         rdf:about="">
        <dc:format>image/svg+xml</dc:format>
        <dc:type
           rdf:resource="http://purl.org/dc/dcmitype/StillImage" />
        <dc:title></dc:title>
      </cc:Work>
    </rdf:RDF>
  </metadata>
  <g
     inkscape:label="Layer 1"
     inkscape:groupmode="layer"
     id="layer1"
     transform="translate(-398.97246,-531.92031)">
    <g
       transform="translate(157.87857,13.602504)"
       id="g5565">
      <rect
         y="518.31781"
         x="241.09389"
         height="36.0625"
         width="27"
         id="rect4900"
         style="fill:none;stroke:none" />
      <g
         id="g4801">
        <g
           id="g4699">
          <path
             inkscape:connector-curvature="0"
             id="path4697"
             style="font-size:40px;font-style:normal;font-variant:normal;font-weight:normal;font-stretch:normal;text-align:center;line-height:125%;letter-spacing:0px;word-spacing:0px;writing-mode:lr-tb;text-anchor:middle;fill:#aa0000;fill-opacity:1;stroke:none;font-family:Quivira;-inkscape-font-specification:Quivira"
             d="m 256.60672,536.34903 c -2e-5,-0.34045 -0.34049,-0.51069 -1.02144,-0.51072 l -1.98279,0 c -0.68098,3e-5 -1.02146,0.17027 -1.02144,0.51072 -2e-5,0.3405 0.34046,0.51075 1.02144,0.51073 l 1.98279,0 c 0.68095,2e-5 1.02142,-0.17023 1.02144,-0.51073 z m -0.51072,-1.50212 c 1.00139,3e-5 1.5021,0.50074 1.50211,1.50212 -1e-5,1.00144 -0.50072,1.50214 -1.50211,1.50213 l 0,1.50211 c 1.00139,2e-5 1.5021,0.50072 1.50211,1.50212 -1e-5,1.00143 -0.50072,1.50215 -1.50211,1.50212 l -0.2103,0 c -0.22033,0.66095 -0.65094,0.99142 -1.29182,0.99141 -0.64092,10e-6 -1.07153,-0.33046 -1.29182,-0.99141 l -0.21029,0 c -1.00143,3e-5 -1.50214,-0.50069 -1.50214,-1.50212 0,-1.0014 0.50071,-1.5021 1.50214,-1.50212 l 0,-1.50211 c -1.00143,10e-6 -1.50214,-0.50069 -1.50214,-1.50213 0,-1.00138 0.50071,-1.50209 1.50214,-1.50212 l 0,-1.50212 c -1.00143,3e-5 -1.50214,-0.50067 -1.50214,-1.50211 0,-1.0014 0.50071,-1.5021 1.50214,-1.50213 l 0.21029,0 c 0.22029,-0.68092 0.6509,-1.02141 1.29182,-1.02144 0.64088,3e-5 1.07149,0.34052 1.29182,1.02144 l 0.2103,0 c 1.00139,3e-5 1.5021,0.50073 1.50211,1.50213 -1e-5,1.00144 -0.50072,1.50214 -1.50211,1.50211 z m -2.01284,0 1.02144,0 0,-2.49351 c -1e-5,-1.34187 -0.17026,-2.01282 -0.51072,-2.01285 -0.3405,3e-5 -0.51073,0.67098 -0.51072,2.01285 z m 1.02144,3.00425 -1.02144,0 0,2.49351 c -1e-5,1.34192 0.17022,2.01287 0.51072,2.01284 0.34046,3e-5 0.51071,-0.67092 0.51072,-2.01284 z"
             sodipodi:nodetypes="cccccccccccccccccsccsccsccccccccccscscccscsc" />
          <path
             sodipodi:nodetypes="cccsccccccccscccssccsccsccccccccccccscccssccccccccccccccscccsccccccccccccccccccccccccscccccscccccccccccccsccsccsccccccccccccscccsccccccccccccccccccccccccccccccccccccccccccccccc"
             d="m 248.34506,545.12141 c -1e-5,-0.34047 -0.34049,-0.5107 -1.02143,-0.51071 l -1.98281,0 c -0.68097,1e-5 -1.02144,0.17024 -1.02144,0.51071 0,0.34049 0.34047,0.51074 1.02144,0.51072 l 1.98281,0 c 0.68094,2e-5 1.02142,-0.17023 1.02143,-0.51072 z m -0.51072,-1.50211 c 1.0014,1e-5 1.50211,0.50072 1.50212,1.50211 -10e-6,1.00143 -0.50072,1.50214 -1.50212,1.50212 l 0,1.50212 c 1.0014,1e-5 1.50211,0.50072 1.50212,1.50213 -10e-6,1.00141 -0.50072,1.50211 -1.50212,1.50211 l -0.21029,0 c -0.22033,0.66094 -0.65093,0.99142 -1.29182,0.9914 -0.64093,2e-5 -1.07152,-0.33046 -1.29183,-0.9914 l -0.2103,0 c -1.00141,0 -1.50212,-0.5007 -1.50212,-1.50211 0,-1.00141 0.50071,-1.50212 1.50212,-1.50213 l 0,-1.50212 c -1.00141,2e-5 -1.50212,-0.50069 -1.50212,-1.50212 0,-1.00139 0.50071,-1.5021 1.50212,-1.50211 l 0,-1.50213 c -1.00141,3e-5 -1.50212,-0.50069 -1.50212,-1.50212 0,-1.00139 0.50071,-1.5021 1.50212,-1.50212 l 0.2103,0 c 0.22031,-0.68094 0.6509,-1.02142 1.29183,-1.02143 0.64089,10e-6 1.07149,0.34049 1.29182,1.02143 l 0.21029,0 c 1.0014,2e-5 1.50211,0.50073 1.50212,1.50212 -10e-6,1.00143 -0.50072,1.50215 -1.50212,1.50212 z m -2.01285,0 1.02146,0 0,-2.49353 c -2e-5,-1.34187 -0.17026,-2.01282 -0.51072,-2.01284 -0.34049,2e-5 -0.51074,0.67097 -0.51074,2.01284 z m 1.02146,3.00423 -1.02146,0 0,2.49353 c 0,1.3419 0.17025,2.01283 0.51074,2.01283 0.34046,0 0.5107,-0.67093 0.51072,-2.01283 z m 18.02544,-1.50212 c -3e-5,-0.34047 -0.34051,-0.5107 -1.02146,-0.51071 l -1.98279,0 c -0.68098,1e-5 -1.02147,0.17024 -1.02144,0.51071 -3e-5,0.34049 0.34046,0.51074 1.02144,0.51072 l 1.98279,0 c 0.68095,2e-5 1.02143,-0.17023 1.02146,-0.51072 z m -0.51072,-1.50211 c 1.00138,1e-5 1.50208,0.50072 1.50211,1.50211 -3e-5,1.00143 -0.50073,1.50214 -1.50211,1.50212 l 0,1.50212 c 1.00138,1e-5 1.50208,0.50072 1.50211,1.50213 -3e-5,1.00141 -0.50073,1.50211 -1.50211,1.50211 l -0.2103,0 c -0.22034,0.66094 -0.65095,0.99142 -1.29183,0.9914 -0.64093,2e-5 -1.07154,-0.33046 -1.29182,-0.9914 l -0.2103,0 c -1.00144,0 -1.50215,-0.5007 -1.50212,-1.50211 -3e-5,-1.00141 0.50068,-1.50212 1.50212,-1.50213 l 0,-1.50212 c -1.00144,2e-5 -1.50215,-0.50069 -1.50212,-1.50212 -3e-5,-1.00139 0.50068,-1.5021 1.50212,-1.50211 l 0,-1.50213 c -1.00144,3e-5 -1.50215,-0.50069 -1.50212,-1.50212 -3e-5,-1.00139 0.50068,-1.5021 1.50212,-1.50212 l 0.2103,0 c 0.22028,-0.68094 0.65089,-1.02142 1.29182,-1.02143 0.64088,10e-6 1.07149,0.34049 1.29183,1.02143 l 0.2103,0 c 1.00138,2e-5 1.50208,0.50073 1.50211,1.50212 -3e-5,1.00143 -0.50073,1.50215 -1.50211,1.50212 z m -2.01285,0 1.02144,0 0,-2.49353 c -2e-5,-1.34187 -0.17026,-2.01282 -0.51072,-2.01284 -0.34051,2e-5 -0.51074,0.67097 -0.51072,2.01284 z m 1.02144,3.00423 -1.02144,0 0,2.49353 c -2e-5,1.3419 0.17021,2.01283 0.51072,2.01283 0.34046,0 0.5107,-0.67093 0.51072,-2.01283 z m -15.0212,-19.01684 c -1e-5,-0.34044 -0.34049,-0.51068 -1.02143,-0.51072 l -1.98281,0 c -0.68097,4e-5 -1.02144,0.17028 -1.02144,0.51072 0,0.34052 0.34047,0.51075 1.02144,0.51072 l 1.98281,0 c 0.68094,3e-5 1.02142,-0.1702 1.02143,-0.51072 z m -0.51072,-1.50211 c 1.0014,3e-5 1.50211,0.50073 1.50212,1.50211 -10e-6,1.00144 -0.50072,1.50215 -1.50212,1.50212 l 0,1.50213 c 1.0014,2e-5 1.50211,0.50072 1.50212,1.50212 -10e-6,1.00144 -0.50072,1.50214 -1.50212,1.50211 l -0.21029,0 c -0.22033,0.66096 -0.65093,0.99143 -1.29182,0.9914 -0.64093,3e-5 -1.07152,-0.33044 -1.29183,-0.9914 l -0.2103,0 c -1.00141,3e-5 -1.50212,-0.50067 -1.50212,-1.50211 0,-1.0014 0.50071,-1.5021 1.50212,-1.50212 l 0,-1.50213 c -1.00141,3e-5 -1.50212,-0.50068 -1.50212,-1.50212 0,-1.00138 0.50071,-1.50208 1.50212,-1.50211 l 0,-1.50212 c -1.00141,3e-5 -1.50212,-0.50067 -1.50212,-1.50213 0,-1.00137 0.50071,-1.50209 1.50212,-1.50212 l 0.2103,0 c 0.22031,-0.68091 0.6509,-1.0214 1.29183,-1.02143 0.64089,3e-5 1.07149,0.34052 1.29182,1.02143 l 0.21029,0 c 1.0014,3e-5 1.50211,0.50075 1.50212,1.50212 -10e-6,1.00146 -0.50072,1.50216 -1.50212,1.50213 z m -2.01285,0 1.02146,0 0,-2.49353 c -2e-5,-1.34186 -0.17026,-2.01281 -0.51072,-2.01284 -0.34049,3e-5 -0.51074,0.67098 -0.51074,2.01284 z m 1.02146,3.00423 -1.02146,0 0,2.49353 c 0,1.34191 0.17025,2.01286 0.51074,2.01283 0.34046,3e-5 0.5107,-0.67092 0.51072,-2.01283 z m 18.02544,-1.50212 c -3e-5,-0.34044 -0.34051,-0.51068 -1.02146,-0.51072 l -1.98279,0 c -0.68098,4e-5 -1.02147,0.17028 -1.02144,0.51072 -3e-5,0.34052 0.34046,0.51075 1.02144,0.51072 l 1.98279,0 c 0.68095,3e-5 1.02143,-0.1702 1.02146,-0.51072 z m -0.51072,-1.50211 c 1.00138,3e-5 1.50208,0.50073 1.50211,1.50211 -3e-5,1.00144 -0.50073,1.50215 -1.50211,1.50212 l 0,1.50213 c 1.00138,2e-5 1.50208,0.50072 1.50211,1.50212 -3e-5,1.00144 -0.50073,1.50214 -1.50211,1.50211 l -0.2103,0 c -0.22034,0.66096 -0.65095,0.99143 -1.29183,0.9914 -0.64093,3e-5 -1.07154,-0.33044 -1.29182,-0.9914 l -0.2103,0 c -1.00144,3e-5 -1.50215,-0.50067 -1.50212,-1.50211 -3e-5,-1.0014 0.50068,-1.5021 1.50212,-1.50212 l 0,-1.50213 c -1.00144,3e-5 -1.50215,-0.50068 -1.50212,-1.50212 -3e-5,-1.00138 0.50068,-1.50208 1.50212,-1.50211 l 0,-1.50212 c -1.00144,3e-5 -1.50215,-0.50067 -1.50212,-1.50213 -3e-5,-1.00137 0.50068,-1.50209 1.50212,-1.50212 l 0.2103,0 c 0.22028,-0.68091 0.65089,-1.0214 1.29182,-1.02143 0.64088,3e-5 1.07149,0.34052 1.29183,1.02143 l 0.2103,0 c 1.00138,3e-5 1.50208,0.50075 1.50211,1.50212 -3e-5,1.00146 -0.50073,1.50216 -1.50211,1.50213 z m -2.01285,0 1.02144,0 0,-2.49353 c -2e-5,-1.34186 -0.17026,-2.01281 -0.51072,-2.01284 -0.34051,3e-5 -0.51074,0.67098 -0.51072,2.01284 z m 1.02144,3.00423 -1.02144,0 0,2.49353 c -2e-5,1.34191 0.17021,2.01286 0.51072,2.01283 0.34046,3e-5 0.5107,-0.67092 0.51072,-2.01283 z"
             style="font-size:40px;font-style:normal;font-variant:normal;font-weight:normal;font-stretch:normal;text-align:center;line-height:125%;letter-spacing:0px;word-spacing:0px;writing-mode:lr-tb;text-anchor:middle;fill:#005500;fill-opacity:1;stroke:none;font-family:Quivira;-inkscape-font-specification:Quivira"
             id="path3074"
             inkscape:connector-curvature="0" />
        </g>
      </g>
    </g>
  </g>
</svg>
