<?xml version="1.0" encoding="UTF-8" standalone="no"?>
<!-- Created with Inkscape (http://www.inkscape.org/) -->

<svg
   xmlns:dc="http://purl.org/dc/elements/1.1/"
   xmlns:cc="http://creativecommons.org/ns#"
   xmlns:rdf="http://www.w3.org/1999/02/22-rdf-syntax-ns#"
   xmlns:svg="http://www.w3.org/2000/svg"
   xmlns="http://www.w3.org/2000/svg"
   xmlns:sodipodi="http://sodipodi.sourceforge.net/DTD/sodipodi-0.dtd"
   xmlns:inkscape="http://www.inkscape.org/namespaces/inkscape"
   width="27"
   height="36.0625"
   id="svg4737"
   version="1.1"
   inkscape:version="0.48.2 r9819"
   sodipodi:docname="haku.svg">
  <defs
     id="defs4739" />
  <sodipodi:namedview
     id="base"
     pagecolor="#ffffff"
     bordercolor="#666666"
     borderopacity="1.0"
     inkscape:pageopacity="0.0"
     inkscape:pageshadow="2"
     inkscape:zoom="2.8"
     inkscape:cx="19.023231"
     inkscape:cy="5.2039717"
     inkscape:document-units="px"
     inkscape:current-layer="layer1"
     showgrid="false"
     fit-margin-top="0"
     fit-margin-left="0"
     fit-margin-right="0"
     fit-margin-bottom="0"
     inkscape:window-width="693"
     inkscape:window-height="465"
     inkscape:window-x="1402"
     inkscape:window-y="302"
     inkscape:window-maximized="0" />
  <metadata
     id="metadata4742">
    <rdf:RDF>
      <cc:Work
         rdf:about="">
        <dc:format>image/svg+xml</dc:format>
        <dc:type
           rdf:resource="http://purl.org/dc/dcmitype/StillImage" />
        <dc:title></dc:title>
      </cc:Work>
    </rdf:RDF>
  </metadata>
  <g
     inkscape:label="Layer 1"
     inkscape:groupmode="layer"
     id="layer1"
     transform="translate(-388.97247,-511.51855)">
    <g
       transform="translate(92.540497,70.109305)"
       id="g5576">
      <rect
         style="fill:none;stroke:none"
         id="rect4930"
         width="27"
         height="36.0625"
         x="296.43198"
         y="441.40924" />
      <path
         sodipodi:nodetypes="cccccccccccccccccccccccccccccccccccccccccccccccccccccccscccccccccccccccccccccccccccccccccccccccccscccccccc"
         d="m 311.85469,448.83552 c 0.70098,0.16026 1.05147,0.4807 1.0515,0.96135 -3e-5,0.62092 -0.59086,1.36196 -1.77251,2.22315 l 0,0.18024 c 1.02142,0.90131 1.70238,1.35195 2.04289,1.35192 0.56077,-0.40054 0.97134,-1.20167 1.23173,-2.40339 l 0.18026,-0.0901 c 0.34046,3e-5 0.70096,0.21031 1.08152,0.63088 l 0,0.24034 c -10e-6,0.0801 -0.57083,0.70102 -1.71241,1.86263 l 0,0.18026 c -2e-5,0.18027 1.89264,1.13162 5.67802,2.85403 0.54072,0.16025 0.8111,0.31045 0.81113,0.45062 l 0,0.0901 c -3e-5,0.22033 -0.56081,0.39057 -1.68237,0.51072 -2.30327,3e-5 -4.69665,-1.30182 -7.18014,-3.90551 -1.46207,-1.30182 -2.4735,-2.06289 -3.03428,-2.28323 l -3.99563,3.90551 c -2.16307,2.04292 -3.87549,3.25461 -5.13726,3.63514 1.74245,-1.40196 3.13442,-2.67375 4.1759,-3.81538 -2e-5,-0.28038 -0.42061,-0.70096 -1.26178,-1.2618 -10e-6,-0.14012 -0.0801,-0.3104 -0.24034,-0.51072 l 0,-0.3605 c 0.06,3e-5 0.14013,-0.03 0.24034,-0.0901 0.76106,0.16026 1.47206,0.48071 2.133,0.96135 0.84118,-0.66089 1.3519,-1.28177 1.53217,-1.86261 l 0,-0.18026 c -10e-6,-0.12013 -0.0601,-0.18023 -0.18026,-0.18026 -0.50072,0.12013 -0.80114,0.18029 -0.90127,0.18026 -1.24177,-0.22028 -1.86264,-0.48065 -1.86262,-0.7811 2.60366,-1.24172 4.25598,-1.8626 4.95699,-1.86263 0.66092,0.0601 0.99138,0.29043 0.99139,0.69097 l -0.0901,0.90128 c 0.34046,0.28042 0.8712,0.54079 1.59225,0.7811 0.3004,3e-5 0.63087,-0.97134 0.9914,-2.91411 z m -4.98704,7.18013 0.18026,0 c 0.70097,0.0601 1.05148,0.36053 1.05149,0.90128 l 0,0.0901 c -10e-6,0.36054 -0.56081,1.21174 -1.68237,2.55361 -2e-5,0.6209 -1.03148,1.13162 -3.09437,1.53216 -0.18027,0.2604 -0.2704,0.52076 -0.27038,0.78111 0.14013,2e-5 0.38051,-0.03 0.72102,-0.0901 1.24173,0.12013 1.8626,0.74107 1.86261,1.86263 -0.54077,3.90552 -1.58223,5.85828 -3.1244,5.85826 -0.66094,2e-5 -1.04148,-0.68095 -1.1416,-2.04287 0.24032,0.24035 0.48066,0.36051 0.72101,0.3605 1.02143,10e-6 1.75246,-1.12156 2.1931,-3.36475 l 0,-0.3605 c -2e-5,-0.76106 -0.32047,-1.1416 -0.96136,-1.14162 -0.68098,2e-5 -1.27181,0.32048 -1.77251,0.96136 l -0.18024,0 -0.0901,-0.45064 c 0.12013,-0.32043 0.53074,-1.02142 1.23174,-2.10297 l 0,-0.3605 c 0,-0.04 -0.17025,-0.25034 -0.51072,-0.6309 l 0,-0.0901 c 2.54358,-0.8612 3.81537,-1.60224 3.81538,-2.22314 0.0801,2e-5 0.17023,-0.0901 0.27038,-0.27038 l 0,-0.18026 c -10e-6,-0.10013 -0.0601,-0.15012 -0.18026,-0.15028 -0.48067,0.28043 -0.87123,0.42063 -1.17164,0.4206 l -0.0901,0 c -0.44063,3e-5 -0.70099,-0.12013 -0.7811,-0.36051 1.34188,-0.98136 2.34329,-1.48206 3.00423,-1.50212 z m 3.09437,0.72102 c 0.26035,3e-5 0.53073,0.47069 0.81116,1.41199 -0.0602,3e-5 -0.0901,0.39058 -0.0901,1.17166 0.20027,1e-5 1.3519,-0.39053 3.45488,-1.17166 0.50068,-0.0601 0.89124,-0.0901 1.17166,-0.0901 0.1602,10e-6 0.30039,0.15028 0.42058,0.45063 -1e-5,0.54078 -1.03147,0.9814 -3.09437,1.32186 l 0,0.36052 c 0.28038,0.66095 0.46064,0.99141 0.54078,0.9914 l 0.0901,0 c 1.26177,-0.18025 2.03285,-0.27037 2.31327,-0.27038 0.76105,0.14028 1.14159,0.46066 1.1416,0.96135 -0.0801,0.30044 -0.29042,0.45066 -0.63088,0.45063 l -0.36051,0 c -2.12302,0.0801 -3.18451,0.26039 -3.18449,0.54077 l 0,0.3605 c 0.721,1.66236 2.82395,3.49496 6.3089,5.49776 l 0.78111,0.87124 0,0.0901 c -3e-5,0.18027 -0.32048,0.30043 -0.96136,0.36051 -2.22316,0 -4.44629,-1.68237 -6.66941,-5.04712 l -0.0901,0 -1.59224,2.28321 c -1.14163,1.02146 -2.35334,1.53218 -3.63513,1.53216 l -0.0901,0 0,-0.0901 c 1.18165,-0.42058 2.22313,-1.34188 3.12441,-2.76389 0.64089,-1.44202 0.96134,-2.2732 0.96135,-2.49353 l -0.27038,-0.18026 c -1.52215,0.60087 -2.67378,0.90129 -3.45487,0.90128 -0.54077,-0.12013 -0.81115,-0.24033 -0.81115,-0.3605 0,-0.0801 0.62087,-0.23031 1.86263,-0.45064 2.08293,-0.84116 3.1244,-1.37193 3.12441,-1.59225 l 0,-0.69098 c -1e-5,-0.60083 -0.36051,-0.90125 -1.08152,-0.90126 -0.64092,0.6209 -1.14163,1.01144 -1.50213,1.17164 -0.64091,-0.30039 -0.96137,-0.66091 -0.96136,-1.08152 0.86121,-1.10153 1.65232,-2.2832 2.37336,-3.54501 z"
         style="font-size:40px;font-style:normal;font-variant:normal;font-weight:normal;font-stretch:normal;text-align:center;line-height:125%;letter-spacing:0px;word-spacing:0px;writing-mode:lr-tb;text-anchor:middle;fill:#005500;fill-opacity:1;stroke:none;font-family:Quivira;-inkscape-font-specification:Quivira"
         id="path3044"
         inkscape:connector-curvature="0" />
    </g>
  </g>
</svg>
