<?xml version="1.0" encoding="UTF-8" standalone="no"?>
<!-- Created with Inkscape (http://www.inkscape.org/) -->

<svg
   xmlns:dc="http://purl.org/dc/elements/1.1/"
   xmlns:cc="http://creativecommons.org/ns#"
   xmlns:rdf="http://www.w3.org/1999/02/22-rdf-syntax-ns#"
   xmlns:svg="http://www.w3.org/2000/svg"
   xmlns="http://www.w3.org/2000/svg"
   xmlns:sodipodi="http://sodipodi.sourceforge.net/DTD/sodipodi-0.dtd"
   xmlns:inkscape="http://www.inkscape.org/namespaces/inkscape"
   width="27"
   height="36.0625"
   id="svg4737"
   version="1.1"
   inkscape:version="0.48.2 r9819"
   sodipodi:docname="man1.svg">
  <defs
     id="defs4739" />
  <sodipodi:namedview
     id="base"
     pagecolor="#ffffff"
     bordercolor="#666666"
     borderopacity="1.0"
     inkscape:pageopacity="0.0"
     inkscape:pageshadow="2"
     inkscape:zoom="2.8"
     inkscape:cx="22.737518"
     inkscape:cy="2.1548648"
     inkscape:document-units="px"
     inkscape:current-layer="layer1"
     showgrid="false"
     fit-margin-top="0"
     fit-margin-left="0"
     fit-margin-right="0"
     fit-margin-bottom="0"
     inkscape:window-width="693"
     inkscape:window-height="465"
     inkscape:window-x="1402"
     inkscape:window-y="302"
     inkscape:window-maximized="0" />
  <metadata
     id="metadata4742">
    <rdf:RDF>
      <cc:Work
         rdf:about="">
        <dc:format>image/svg+xml</dc:format>
        <dc:type
           rdf:resource="http://purl.org/dc/dcmitype/StillImage" />
        <dc:title></dc:title>
      </cc:Work>
    </rdf:RDF>
  </metadata>
  <g
     inkscape:label="Layer 1"
     inkscape:groupmode="layer"
     id="layer1"
     transform="translate(-385.25818,-508.46944)">
    <g
       transform="translate(-81.694461,66.249071)"
       id="g5608">
      <rect
         y="442.22037"
         x="466.95264"
         height="36.0625"
         width="27"
         id="rect4920"
         style="fill:none;stroke:none" />
      <g
         id="g4870">
        <path
           sodipodi:nodetypes="ccccccccccccccccccccscccscssccccccccccccccccccccccccccccccccccccccccccccccccscccccccccccccccccccccccccccccccccccccc"
           d="m 482.67579,457.96841 c 0.82113,3e-5 1.23172,0.57083 1.23173,1.71241 0.84117,0.0601 1.26176,0.35052 1.26178,0.87124 -2e-5,0.26039 -0.19029,0.48069 -0.5708,0.66093 -0.2604,-0.12013 -0.61088,-0.18024 -1.05148,-0.18026 l -0.2103,0 c -0.58084,0.68098 -0.87125,1.16166 -0.87123,1.44204 1.36189,0.2003 2.04286,0.78113 2.04289,1.74245 l 0,0.36052 c -3e-5,1.60228 -0.74108,2.88409 -2.22315,3.84543 -0.2003,10e-6 -0.30044,0.04 -0.30042,0.12013 -0.22033,-0.14013 -0.47068,-0.21028 -0.75106,-0.2103 l -0.0901,0 c -0.10013,2e-5 -0.2003,0.10014 -0.30043,0.30044 l 0,0.75105 0.0901,0 c 1.72241,-0.24032 2.84398,-0.3605 3.36474,-0.36051 1.66232,0.22033 2.4935,0.92132 2.49352,2.10297 -0.32048,1.7625 -1.02147,3.30467 -2.10297,4.62653 l -0.30042,0.18025 -0.18026,0 c -0.8412,0 -1.45207,-0.58081 -1.83258,-1.74245 l 0,-0.0901 0.96136,0.0901 0.39054,0 c 0.40055,0 0.82114,-1.08152 1.26179,-3.24459 -0.2604,-0.5808 -0.71103,-0.87122 -1.35191,-0.87122 l -0.30042,0 c -1.86265,0 -2.79397,0.19027 -2.79395,0.5708 -0.0601,0.24036 -0.0901,0.50072 -0.0901,0.7811 l 0.39054,0 c 0.28038,2e-5 0.50069,-0.20027 0.66094,-0.60084 l 0.30042,0 c 0.80111,0.4206 1.34188,0.90128 1.62229,1.44203 l 0,0.48068 c -0.14028,0.28041 -0.39057,0.48068 -0.75105,0.60084 -0.58085,-0.3605 -0.87126,-0.81112 -0.87124,-1.35189 l -0.39054,0 c -1.52218,0.82116 -2.67379,1.23173 -3.45489,1.23173 -0.20028,-0.24034 -0.30043,-0.52073 -0.30042,-0.84119 l 0,-0.2103 c -10e-6,-0.18024 0.61086,-0.3705 1.83259,-0.5708 l 0,-1.05148 c -2.30327,0.38054 -3.64515,0.57082 -4.02568,0.5708 -0.14028,2e-5 -0.21031,-0.0601 -0.2103,-0.18026 l 0,-0.12013 c 2.80395,-0.721 4.21594,-1.13159 4.23598,-1.23174 0.0601,-0.12013 0.0901,-0.25035 0.0901,-0.39055 l -0.18026,-0.0901 c -0.22032,2e-5 -0.60085,0.0901 -1.1416,0.27038 l -0.12013,-0.18026 c 0.82114,-0.3004 1.30182,-0.59083 1.44204,-0.87123 l 0,-0.18025 -0.0901,0 c -0.3405,2e-5 -0.85122,0.13013 -1.53217,0.39054 l -0.0901,0 c -0.38056,2e-5 -0.701,-0.90124 -0.96135,-2.70381 -0.04,-0.02 -0.20031,-0.28038 -0.48068,-0.7811 0.04,-0.18024 0.17023,-0.3004 0.39055,-0.36051 0.60083,1e-5 1.14159,0.38056 1.62228,1.14161 0.90126,-0.10013 1.3519,-0.29039 1.35192,-0.5708 l 0,-0.0901 -0.0901,-0.48068 -0.2103,0 c -0.14028,10e-6 -0.27039,0.0302 -0.39056,0.0901 -0.50072,-0.14012 -0.75107,-0.27036 -0.75105,-0.39055 l 0,-0.0901 c 2.36332,-1.16163 3.54497,-1.80254 3.545,-1.92271 -3e-5,-0.16022 0.03,-0.6409 0.0901,-1.44204 -0.0601,2e-5 -0.0901,-0.03 -0.0901,-0.0901 l -0.96135,0.0901 -1.23174,0 c -0.10014,2e-5 -0.2003,0.0901 -0.30044,0.27038 l 0.0901,0.96136 c -0.0801,0.64092 -0.21031,0.96137 -0.39056,0.96136 l -0.0901,0 c -0.58085,10e-6 -0.87125,-0.54075 -0.87124,-1.6223 l 0,-0.18026 c -0.30043,3e-5 -0.84119,0.0901 -1.62229,0.27038 -0.40057,-0.12013 -0.62089,-0.28036 -0.66092,-0.48068 l 0,-0.0901 c 0.02,-0.0801 0.721,-0.30041 2.10295,-0.66094 l 0.0901,-0.2103 -0.0901,-0.5708 c 0.0602,-0.12013 0.0901,-0.22028 0.0901,-0.30042 l 0.2103,0 c 0.54074,0.58085 0.86119,0.87125 0.96136,0.87122 1.98277,-0.24031 2.97417,-0.49066 2.97419,-0.75106 0.10013,-0.96132 0.26035,-1.442 0.48068,-1.44203 z m -1.65234,6.51919 0,0.2103 c -1e-5,0.30045 0.29039,0.58085 0.87124,0.8412 l 0,0.2103 c -3e-5,0.10013 -0.29044,0.39055 -0.87124,0.87122 l 0,0.18025 0.60086,0 c 0.76104,-0.16021 1.14158,-0.90126 1.1416,-2.22313 l 0,-0.36052 -0.48068,-0.12013 c -0.8412,0.0602 -1.26179,0.19029 -1.26178,0.39055 z m -2.40339,2.22315 0,0.75106 0.30042,0 c 0.34047,2e-5 0.60084,-0.12013 0.78111,-0.36051 l 0,-0.30043 c -1e-5,-0.12013 -0.0701,-0.18024 -0.21029,-0.18025 z m -4.50636,4.23597 c 1.2818,2e-5 2.11297,1.02146 2.49353,3.06433 -0.12014,0.64091 -0.37055,0.96137 -0.75106,0.96136 -0.36053,10e-6 -0.78112,-0.96134 -1.2618,-2.88407 -0.0601,10e-6 -0.22031,-0.29039 -0.48067,-0.87124 z"
           style="font-size:40px;font-style:normal;font-variant:normal;font-weight:normal;font-stretch:normal;text-align:center;line-height:125%;letter-spacing:0px;word-spacing:0px;writing-mode:lr-tb;text-anchor:middle;fill:#d40000;fill-opacity:1;stroke:none;font-family:Quivira;-inkscape-font-specification:Quivira"
           id="path4705"
           inkscape:connector-curvature="0" />
        <path
           inkscape:connector-curvature="0"
           id="path3050"
           style="font-size:40px;font-style:normal;font-variant:normal;font-weight:normal;font-stretch:normal;text-align:center;line-height:125%;letter-spacing:0px;word-spacing:0px;writing-mode:lr-tb;text-anchor:middle;fill:#000000;fill-opacity:1;stroke:none;font-family:Quivira;-inkscape-font-specification:Quivira"
           d="m 482.42065,444.56951 c 1.55565,3e-5 2.33347,0.403 2.3335,1.20891 -3e-5,0.65604 -0.77785,1.09649 -2.3335,1.32138 -1.46195,0.99339 -2.70837,1.80872 -3.7392,2.44595 l -0.30928,0 c 0.59977,-0.76844 1.20892,-1.44319 1.82745,-2.02423 l 0,-0.22492 c -1.36826,0.33739 -2.31477,0.50609 -2.83956,0.50606 -0.89967,3e-5 -1.64001,-0.43106 -2.22103,-1.29327 l 0.30925,-0.42172 c 0.35611,0.13128 0.82468,0.19685 1.40574,0.1968 3.31746,-1.14327 5.17301,-1.71493 5.56663,-1.71496 z m 3.34561,7.70333 c 2.02422,0.35614 3.03633,0.9934 3.03636,1.91178 -0.22495,0.13127 -0.43112,0.19683 -0.61852,0.19679 -0.78722,4e-5 -2.39911,-0.0937 -4.83567,-0.28114 -1.74311,4e-5 -4.64826,0.46861 -8.71546,1.40572 l -0.1968,0 c -0.89968,3e-5 -1.67749,-0.23426 -2.33349,-0.70286 -1e-5,-0.11242 1.0121,-0.31861 3.03635,-0.61851 4.57325,-1.27449 8.11567,-1.91175 10.62723,-1.91178 z"
           sodipodi:nodetypes="ccccccccccccccccccccc" />
      </g>
    </g>
  </g>
</svg>
