<?xml version="1.0" encoding="UTF-8" standalone="no"?>
<!-- Created with Inkscape (http://www.inkscape.org/) -->

<svg
   xmlns:dc="http://purl.org/dc/elements/1.1/"
   xmlns:cc="http://creativecommons.org/ns#"
   xmlns:rdf="http://www.w3.org/1999/02/22-rdf-syntax-ns#"
   xmlns:svg="http://www.w3.org/2000/svg"
   xmlns="http://www.w3.org/2000/svg"
   xmlns:sodipodi="http://sodipodi.sourceforge.net/DTD/sodipodi-0.dtd"
   xmlns:inkscape="http://www.inkscape.org/namespaces/inkscape"
   width="27"
   height="36.0625"
   id="svg4737"
   version="1.1"
   inkscape:version="0.48.2 r9819"
   sodipodi:docname="man3.svg">
  <defs
     id="defs4739" />
  <sodipodi:namedview
     id="base"
     pagecolor="#ffffff"
     bordercolor="#666666"
     borderopacity="1.0"
     inkscape:pageopacity="0.0"
     inkscape:pageshadow="2"
     inkscape:zoom="2.8"
     inkscape:cx="16.880374"
     inkscape:cy="17.145936"
     inkscape:document-units="px"
     inkscape:current-layer="layer1"
     showgrid="false"
     fit-margin-top="0"
     fit-margin-left="0"
     fit-margin-right="0"
     fit-margin-bottom="0"
     inkscape:window-width="693"
     inkscape:window-height="465"
     inkscape:window-x="1402"
     inkscape:window-y="302"
     inkscape:window-maximized="0" />
  <metadata
     id="metadata4742">
    <rdf:RDF>
      <cc:Work
         rdf:about="">
        <dc:format>image/svg+xml</dc:format>
        <dc:type
           rdf:resource="http://purl.org/dc/dcmitype/StillImage" />
        <dc:title></dc:title>
      </cc:Work>
    </rdf:RDF>
  </metadata>
  <g
     inkscape:label="Layer 1"
     inkscape:groupmode="layer"
     id="layer1"
     transform="translate(-391.11533,-523.46051)">
    <g
       transform="translate(-189.51779,81.225129)"
       id="g5766">
      <rect
         style="fill:none;stroke:none"
         id="rect4914"
         width="27"
         height="36.0625"
         x="580.63312"
         y="442.23538" />
      <g
         id="g4862">
        <path
           sodipodi:nodetypes="ccccccccccccccccccccscccscssccccccccccccccccccccccccccccccccccccccccccccccccsccccccccccccccccccccsccccccccccccccccc"
           d="m 596.35623,457.96841 c 0.82114,3e-5 1.23172,0.57083 1.23174,1.71241 0.84116,0.0601 1.26176,0.35052 1.26177,0.87124 -10e-6,0.26039 -0.19028,0.48069 -0.5708,0.66093 -0.26039,-0.12013 -0.61088,-0.18024 -1.05148,-0.18026 l -0.21029,0 c -0.58085,0.68098 -0.87125,1.16166 -0.87124,1.44204 1.3619,0.2003 2.04286,0.78113 2.04289,1.74245 l 0,0.36052 c -3e-5,1.60228 -0.74107,2.88409 -2.22315,3.84543 -0.2003,10e-6 -0.30043,0.04 -0.30042,0.12013 -0.22033,-0.14013 -0.47068,-0.21028 -0.75106,-0.2103 l -0.0901,0 c -0.10014,2e-5 -0.2003,0.10014 -0.30044,0.30044 l 0,0.75105 0.0901,0 c 1.72241,-0.24032 2.84398,-0.3605 3.36475,-0.36051 1.66231,0.22033 2.4935,0.92132 2.49351,2.10297 -0.32048,1.7625 -1.02147,3.30467 -2.10297,4.62653 l -0.30042,0.18025 -0.18026,0 c -0.84119,0 -1.45206,-0.58081 -1.83258,-1.74245 l 0,-0.0901 0.96136,0.0901 0.39054,0 c 0.40056,0 0.82114,-1.08152 1.26179,-3.24459 -0.26039,-0.5808 -0.71103,-0.87122 -1.35191,-0.87122 l -0.30042,0 c -1.86265,0 -2.79396,0.19027 -2.79395,0.5708 -0.0601,0.24036 -0.0901,0.50072 -0.0901,0.7811 l 0.39055,0 c 0.28037,2e-5 0.50069,-0.20027 0.66093,-0.60084 l 0.30042,0 c 0.80111,0.4206 1.34189,0.90128 1.6223,1.44203 l 0,0.48068 c -0.14028,0.28041 -0.39058,0.48068 -0.75106,0.60084 -0.58085,-0.3605 -0.87125,-0.81112 -0.87124,-1.35189 l -0.39054,0 c -1.52217,0.82116 -2.67379,1.23173 -3.45488,1.23173 -0.20029,-0.24034 -0.30044,-0.52073 -0.30042,-0.84119 l 0,-0.2103 c -2e-5,-0.18024 0.61085,-0.3705 1.83259,-0.5708 l 0,-1.05148 c -2.30327,0.38054 -3.64516,0.57082 -4.02569,0.5708 -0.14012,2e-5 -0.21031,-0.0601 -0.2103,-0.18026 l 0,-0.12013 c 2.80395,-0.721 4.21595,-1.13159 4.23599,-1.23174 0.06,-0.12013 0.0901,-0.25035 0.0901,-0.39055 l -0.18025,-0.0901 c -0.22033,2e-5 -0.60086,0.0901 -1.1416,0.27038 l -0.12013,-0.18026 c 0.82113,-0.3004 1.30181,-0.59083 1.44203,-0.87123 l 0,-0.18025 -0.0901,0 c -0.3405,2e-5 -0.85122,0.13013 -1.53217,0.39054 l -0.0901,0 c -0.38056,2e-5 -0.70101,-0.90124 -0.96136,-2.70381 -0.0401,-0.02 -0.2003,-0.28038 -0.48068,-0.7811 0.04,-0.18024 0.17023,-0.3004 0.39056,-0.36051 0.60082,1e-5 1.14158,0.38056 1.62228,1.14161 0.90126,-0.10013 1.35189,-0.29039 1.35191,-0.5708 l 0,-0.0901 -0.0901,-0.48068 -0.2103,0 c -0.14028,10e-6 -0.27039,0.0302 -0.39055,0.0901 -0.50072,-0.14012 -0.75108,-0.27036 -0.75106,-0.39055 l 0,-0.0901 c 2.36332,-1.16163 3.54497,-1.80254 3.54501,-1.92271 -4e-5,-0.16022 0.03,-0.6409 0.0901,-1.44204 -0.0601,2e-5 -0.0901,-0.03 -0.0901,-0.0901 l -0.96136,0.0901 -1.23174,0 c -0.10013,2e-5 -0.2003,0.0901 -0.30043,0.27038 l 0.0901,0.96136 c -0.0801,0.64092 -0.21031,0.96137 -0.39055,0.96136 l -0.0901,0 c -0.58084,10e-6 -0.87125,-0.54075 -0.87124,-1.6223 l 0,-0.18026 c -0.30043,3e-5 -0.84119,0.0901 -1.62229,0.27038 -0.40057,-0.12013 -0.62088,-0.28036 -0.66092,-0.48068 l 0,-0.0901 c 0.02,-0.0801 0.721,-0.30041 2.10296,-0.66094 l 0.0901,-0.2103 -0.0901,-0.5708 c 0.0601,-0.12013 0.0901,-0.22028 0.0901,-0.30042 l 0.2103,0 c 0.54075,0.58085 0.86119,0.87125 0.96136,0.87122 1.98278,-0.24031 2.97417,-0.49066 2.97419,-0.75106 0.10014,-0.96132 0.26035,-1.442 0.48068,-1.44203 z m -1.65233,6.51919 0,0.2103 c -2e-5,0.30045 0.29039,0.58085 0.87123,0.8412 l 0,0.2103 c -3e-5,0.10013 -0.29044,0.39055 -0.87123,0.87122 l 0,0.18025 0.60085,0 c 0.76104,-0.16021 1.14159,-0.90126 1.1416,-2.22313 l 0,-0.36052 -0.48068,-0.12013 c -0.84119,0.0602 -1.26179,0.19029 -1.26177,0.39055 z m -2.4034,2.22315 0,0.75106 0.30042,0 c 0.34048,2e-5 0.60084,-0.12013 0.78112,-0.36051 l 0,-0.30043 c -2e-5,-0.12013 -0.0701,-0.18024 -0.2103,-0.18025 z m -4.50636,4.23597 c 1.2818,2e-5 2.11297,1.02146 2.49353,3.06433 -0.12013,0.64091 -0.37055,0.96137 -0.75106,0.96136 -0.36053,10e-6 -0.78111,-0.96134 -1.26179,-2.88407 -0.0601,10e-6 -0.22031,-0.29039 -0.48068,-0.87124 z"
           style="font-size:40px;font-style:normal;font-variant:normal;font-weight:normal;font-stretch:normal;text-align:center;line-height:125%;letter-spacing:0px;word-spacing:0px;writing-mode:lr-tb;text-anchor:middle;fill:#d40000;fill-opacity:1;stroke:none;font-family:Quivira;-inkscape-font-specification:Quivira"
           id="path4709"
           inkscape:connector-curvature="0" />
        <path
           inkscape:connector-curvature="0"
           id="path3054"
           style="font-size:40px;font-style:normal;font-variant:normal;font-weight:normal;font-stretch:normal;text-align:center;line-height:125%;letter-spacing:0px;word-spacing:0px;writing-mode:lr-tb;text-anchor:middle;fill:#000000;fill-opacity:1;stroke:none;font-family:Quivira;-inkscape-font-specification:Quivira"
           d="m 598.59183,444.59955 c 2.18234,3e-5 3.2735,0.84663 3.27353,2.53979 -3e-5,3.38643 -1.11942,6.12376 -3.35818,8.212 -0.45153,0.13177 -0.76196,0.19757 -0.93126,0.19754 -0.47034,3e-5 -0.87483,-0.30098 -1.21344,-0.90304 -1.74966,0.13177 -3.64041,0.2352 -5.67223,0.31043 -0.33865,-0.0941 -0.50797,-0.19752 -0.50796,-0.31043 l 0,-0.19754 5.98264,-1.32634 0.90305,0.31044 c 1.56147,-1.24167 2.34222,-3.44281 2.34224,-6.60347 -0.24458,-0.20692 -0.47976,-0.31041 -0.7055,-0.31044 -2.50218,0.13178 -3.75327,0.43274 -3.75325,0.90305 -0.0752,0.35748 -0.11285,0.77138 -0.11285,1.24168 l 0,0.7055 c -10e-6,0.18817 0.71489,0.42333 2.14471,0.7055 0.20694,0.33866 0.3104,0.61146 0.31043,0.81838 -3e-5,0.26341 -0.47976,0.43272 -1.43923,0.50795 -1.61795,3e-5 -2.42692,-0.6114 -2.4269,-1.83429 0.0564,-0.35743 0.0846,-0.65844 0.0846,-0.90304 l 0,-1.12879 c -0.94067,0.0377 -1.411,0.20697 -1.41099,0.50795 0.20694,0.48917 0.33862,0.93128 0.39507,1.32634 -0.16932,1.74966 -0.4327,2.62447 -0.79015,2.62444 -0.24459,-0.0376 -0.51738,-0.3386 -0.81838,-0.90303 0.33863,-1.8813 0.50796,-2.85959 0.50797,-2.93488 l -0.19755,-0.11284 c -1.27932,0.26341 -2.03185,0.3951 -2.25759,0.39508 -0.67729,-0.11285 -1.01592,-0.24454 -1.01592,-0.39508 l 0,-0.19754 c 0.1693,3e-5 2.57741,-0.78072 7.2243,-2.34226 0.47032,-0.20692 1.61793,-0.50792 3.44283,-0.90303 z m -12.07813,3.95079 0.31041,0 c 1.35457,3.02898 2.03185,4.72216 2.03185,5.07959 l 0,0.19754 c 0,0.50799 -0.14117,0.78078 -0.42331,0.81837 -1.35456,-0.45148 -2.03183,-2.21053 -2.03183,-5.27712 l 0,-0.31043 z"
           sodipodi:nodetypes="cccccccccccccscccccsccccccccsccccccsscscc" />
      </g>
    </g>
  </g>
</svg>
