<?xml version="1.0" encoding="UTF-8" standalone="no"?>
<!-- Created with Inkscape (http://www.inkscape.org/) -->

<svg
   xmlns:dc="http://purl.org/dc/elements/1.1/"
   xmlns:cc="http://creativecommons.org/ns#"
   xmlns:rdf="http://www.w3.org/1999/02/22-rdf-syntax-ns#"
   xmlns:svg="http://www.w3.org/2000/svg"
   xmlns="http://www.w3.org/2000/svg"
   xmlns:sodipodi="http://sodipodi.sourceforge.net/DTD/sodipodi-0.dtd"
   xmlns:inkscape="http://www.inkscape.org/namespaces/inkscape"
   width="27"
   height="36.0625"
   id="svg4737"
   version="1.1"
   inkscape:version="0.48.2 r9819"
   sodipodi:docname="ton.svg">
  <defs
     id="defs4739" />
  <sodipodi:namedview
     id="base"
     pagecolor="#ffffff"
     bordercolor="#666666"
     borderopacity="1.0"
     inkscape:pageopacity="0.0"
     inkscape:pageshadow="2"
     inkscape:zoom="2.8"
     inkscape:cx="23.95181"
     inkscape:cy="17.721807"
     inkscape:document-units="px"
     inkscape:current-layer="layer1"
     showgrid="false"
     fit-margin-top="0"
     fit-margin-left="0"
     fit-margin-right="0"
     fit-margin-bottom="0"
     inkscape:window-width="693"
     inkscape:window-height="465"
     inkscape:window-x="1402"
     inkscape:window-y="302"
     inkscape:window-maximized="0" />
  <metadata
     id="metadata4742">
    <rdf:RDF>
      <cc:Work
         rdf:about="">
        <dc:format>image/svg+xml</dc:format>
        <dc:type
           rdf:resource="http://purl.org/dc/dcmitype/StillImage" />
        <dc:title></dc:title>
      </cc:Work>
    </rdf:RDF>
  </metadata>
  <g
     inkscape:label="Layer 1"
     inkscape:groupmode="layer"
     id="layer1"
     transform="translate(-384.04389,-524.03638)">
    <g
       transform="translate(311.9685,83.752141)"
       id="g5666">
      <rect
         y="440.28424"
         x="72.075394"
         height="36.0625"
         width="27"
         id="rect4892"
         style="fill:none;stroke:none" />
      <path
         sodipodi:nodetypes="ccccccccccccccccccccccccscscccccsccccccccccccccccccccsccccccscccccccccccscccscscccscccc"
         d="m 85.130812,444.47937 c 1.537319,0.62978 2.305999,1.51885 2.306014,2.6672 -1.5e-5,0.2223 -0.111098,0.73167 -0.333393,1.52809 l 0.166689,0.0833 c 0.203731,5e-5 0.713089,-0.0277 1.528087,-0.0833 1.592896,2e-5 2.389344,0.53718 2.389373,1.61143 -2.9e-5,0.59275 -0.740914,0.8891 -2.222669,0.88907 -2.593133,3e-5 -4.084164,0.38899 -4.47312,1.16691 -1.592925,1.81519 -2.898745,3.12102 -3.91746,3.91745 l 0,-0.0833 c 1.259503,-2.1856 1.889261,-3.40807 1.889276,-3.6674 l 0,-0.0833 -0.111098,0 c -1.778149,0.53717 -3.176575,0.86132 -4.19529,0.97242 -0.722364,2e-5 -1.370644,-0.26855 -1.944825,-0.80571 -1.4e-5,-0.0741 0.805709,-0.25004 2.41714,-0.5279 3.482173,-1.42618 5.232526,-2.2319 5.251062,-2.41715 0.83349,-1.96332 1.250242,-3.41733 1.250256,-4.36199 -1.4e-5,-0.0555 -0.02773,-0.29631 -0.08336,-0.72235 0.05562,3e-5 0.08336,-0.0277 0.08336,-0.0833 z m 4.806513,9.1963 0.277844,0 c 1.611403,2e-5 2.86166,0.98171 3.750742,2.94503 0.889053,2.40792 1.333588,6.33462 1.333601,11.78015 -1.3e-5,2.13007 -0.472329,3.38032 -1.416945,3.75076 l -0.111099,0 c -0.185253,0 -1.278067,-0.68533 -3.27844,-2.05598 l -0.111098,0 0,-0.0833 c -1.4e-5,-0.0741 0.713089,-0.22224 2.139325,-0.44453 0.314858,-0.24077 0.472287,-0.50936 0.472315,-0.80572 l 0,-0.52788 c -2.8e-5,-7.03843 -0.777956,-11.32633 -2.333795,-12.86369 l -0.611238,-0.16671 -0.194486,0 c -0.611252,3e-5 -1.23175,0.0833 -1.86148,0.25006 l 0,0.19448 c 0.463027,0.35195 0.694555,0.67608 0.694582,0.97242 -2.7e-5,0.77795 -0.620512,1.81519 -1.861494,3.11174 l 0,0.27783 c 0.407478,0.42602 0.611223,0.78721 0.611238,1.08354 -1.5e-5,0.50012 -0.527907,0.87983 -1.58365,1.13912 l -0.111098,0.19449 c -1.4e-5,0.1482 0.06487,0.56495 0.194485,1.25025 l 0.08336,0 c 1.000179,-0.42599 1.713284,-0.639 2.13931,-0.63901 0.870533,0.27784 1.500291,0.75941 1.889276,1.44472 l 0,0.0833 -4.111945,1.1669 c -0.111098,0.3334 -0.287105,1.78741 -0.527879,4.36197 -0.333421,1.18543 -0.639033,1.77815 -0.916849,1.77814 -0.351943,1e-5 -0.555688,-0.71309 -0.611237,-2.13931 0.05562,-0.37043 0.08336,-0.78719 0.08336,-1.25026 l 0,-0.0833 c -1.4e-5,-0.0556 -0.02773,-0.0833 -0.08336,-0.0833 l 0.08336,-0.19446 c -0.05562,-0.79645 -0.08336,-1.36138 -0.08336,-1.69479 l -0.166704,0 c -0.259323,10e-6 -1.546622,0.30562 -3.861883,0.91685 -0.518631,-0.0741 -0.77794,-0.19448 -0.77794,-0.36119 0,-0.33339 0.981672,-0.75013 2.945046,-1.25025 1.240968,-0.55566 1.889248,-0.91683 1.944825,-1.08354 l 0,-1.25027 c -1.3e-5,-0.44451 -0.08336,-0.6853 -0.250048,-0.72236 l -2.250451,0.27783 c -0.592716,-0.14816 -0.889081,-0.29634 -0.889068,-0.44454 l 0,-0.0833 c 0.16669,-0.29634 1.268764,-0.86127 3.306223,-1.69479 1.963346,-1.88925 2.945019,-3.4729 2.945033,-4.75096 -0.111098,-0.0556 -0.20376,-0.0833 -0.27783,-0.0833 -2.70426,0.85204 -4.426831,1.56515 -5.167703,2.13931 0.833491,0.57422 1.250243,1.02801 1.250243,1.36139 0,0.24081 -0.203746,0.47234 -0.611224,0.69458 -0.611252,2e-5 -1.213229,-0.56491 -1.805917,-1.69477 l -0.08336,0 c -1.315081,0.4075 -1.972621,0.67607 -1.972621,0.8057 l 0,9.91867 c -0.111098,1.29658 -0.463055,1.94484 -1.055757,1.94484 -0.426027,0 -0.694597,-0.41674 -0.805723,-1.25026 0.185211,-2.35231 0.333393,-5.82522 0.444534,-10.41876 -0.09261,-0.38894 -0.388971,-0.77792 -0.889067,-1.1669 l 0,-0.0833 c 0,-0.1111 0.175949,-0.20374 0.527878,-0.27784 0.09261,2e-5 0.537139,0.17599 1.333602,0.52788 6.445726,-3.14876 10.520615,-4.72315 12.22468,-4.72316 z"
         style="font-size:40px;font-style:normal;font-variant:normal;font-weight:normal;font-stretch:normal;text-align:center;line-height:125%;letter-spacing:0px;word-spacing:0px;writing-mode:lr-tb;text-anchor:middle;fill:#000000;fill-opacity:1;stroke:none;font-family:Quivira;-inkscape-font-specification:Quivira"
         id="path3036"
         inkscape:connector-curvature="0" />
    </g>
  </g>
</svg>
