<?xml version="1.0" encoding="UTF-8" standalone="no"?>
<!-- Created with Inkscape (http://www.inkscape.org/) -->

<svg
   xmlns:dc="http://purl.org/dc/elements/1.1/"
   xmlns:cc="http://creativecommons.org/ns#"
   xmlns:rdf="http://www.w3.org/1999/02/22-rdf-syntax-ns#"
   xmlns:svg="http://www.w3.org/2000/svg"
   xmlns="http://www.w3.org/2000/svg"
   xmlns:sodipodi="http://sodipodi.sourceforge.net/DTD/sodipodi-0.dtd"
   xmlns:inkscape="http://www.inkscape.org/namespaces/inkscape"
   width="27"
   height="36.0625"
   id="svg4737"
   version="1.1"
   inkscape:version="0.48.2 r9819"
   sodipodi:docname="man9.svg">
  <defs
     id="defs4739" />
  <sodipodi:namedview
     id="base"
     pagecolor="#ffffff"
     bordercolor="#666666"
     borderopacity="1.0"
     inkscape:pageopacity="0.0"
     inkscape:pageshadow="2"
     inkscape:zoom="2.8"
     inkscape:cx="22.166088"
     inkscape:cy="13.54772"
     inkscape:document-units="px"
     inkscape:current-layer="layer1"
     showgrid="false"
     fit-margin-top="0"
     fit-margin-left="0"
     fit-margin-right="0"
     fit-margin-bottom="0"
     inkscape:window-width="693"
     inkscape:window-height="465"
     inkscape:window-x="1402"
     inkscape:window-y="302"
     inkscape:window-maximized="0" />
  <metadata
     id="metadata4742">
    <rdf:RDF>
      <cc:Work
         rdf:about="">
        <dc:format>image/svg+xml</dc:format>
        <dc:type
           rdf:resource="http://purl.org/dc/dcmitype/StillImage" />
        <dc:title></dc:title>
      </cc:Work>
    </rdf:RDF>
  </metadata>
  <g
     inkscape:label="Layer 1"
     inkscape:groupmode="layer"
     id="layer1"
     transform="translate(-385.82962,-519.8623)">
    <g
       transform="translate(-139.46536,1.5444885)"
       id="g5729">
      <rect
         style="fill:none;stroke:none"
         id="rect4918"
         width="27"
         height="36.0625"
         x="525.29498"
         y="518.31781" />
      <g
         id="g4816">
        <g
           id="g4745">
          <path
             sodipodi:nodetypes="cccscssscssccccsccccsccccccccccscccsscccccccscccssccccsccccccccscccccccccccccccccc"
             d="m 538.79498,524.33207 c 2.08293,4e-5 4.08575,0.52077 6.00848,1.56221 1.9227,1.04149 3.40479,2.52358 4.44629,4.44627 1.04143,1.92274 1.56218,3.92556 1.56219,6.00848 -1e-5,2.103 -0.52076,4.11082 -1.56219,6.0235 -1.0415,1.91272 -2.52359,3.38979 -4.44629,4.43126 -1.92273,1.04148 -3.92555,1.56221 -6.00848,1.5622 -2.08294,10e-6 -4.08576,-0.52072 -6.00848,-1.5622 -1.92271,-1.04147 -3.4048,-2.51854 -4.44627,-4.43126 -1.04148,-1.91268 -1.56221,-3.9205 -1.56221,-6.0235 0,-2.08292 0.52073,-4.08574 1.56221,-6.00848 1.04147,-1.92269 2.52356,-3.40478 4.44627,-4.44627 1.92272,-1.04144 3.92554,-1.56217 6.00848,-1.56221 z m 0,1.26179 c -1.86263,3e-5 -3.65517,0.46568 -5.37758,1.39697 -1.72245,0.93134 -3.04932,2.2532 -3.98062,3.9656 -0.93131,1.71243 -1.39698,3.50997 -1.39697,5.3926 -10e-6,1.88269 0.46566,3.68021 1.39697,5.39261 0.9313,1.71244 2.25817,3.0343 3.98062,3.9656 1.72241,0.93133 3.51495,1.39698 5.37758,1.39697 1.88265,1e-5 3.68018,-0.46564 5.39261,-1.39697 1.7124,-0.9313 3.03426,-2.25316 3.96561,-3.9656 0.93128,-1.7124 1.39693,-3.50992 1.39697,-5.39261 -4e-5,-1.88263 -0.46569,-3.68017 -1.39697,-5.3926 -0.93135,-1.7124 -2.25321,-3.03426 -3.96561,-3.9656 -1.71243,-0.93129 -3.50996,-1.39694 -5.39261,-1.39697 z m 0,1.29182 c 1.64231,3e-5 3.22455,0.4056 4.74671,1.21672 1.52212,0.81117 2.68876,1.97781 3.49993,3.49994 0.81113,1.52217 1.2167,3.1044 1.21673,4.74669 -3e-5,1.66237 -0.4056,3.24961 -1.21673,4.76173 -0.81117,1.51214 -1.97781,2.67378 -3.49993,3.48491 -1.52216,0.81117 -3.1044,1.21674 -4.74671,1.21672 -1.64232,2e-5 -3.22456,-0.40555 -4.74669,-1.21672 -1.52215,-0.81113 -2.68881,-1.97277 -3.49993,-3.48491 -0.81116,-1.51212 -1.21673,-3.09936 -1.21673,-4.76173 0,-1.64229 0.40557,-3.22452 1.21673,-4.74669 0.81112,-1.52213 1.97778,-2.68877 3.49993,-3.49994 1.52213,-0.81112 3.10437,-1.21669 4.74669,-1.21672 z m -1.05148,1.89267 c -0.30043,-0.18023 -0.72103,-0.27035 -1.26177,-0.27038 l -0.15028,0 c -0.64091,0.0402 -1.23175,0.21033 -1.7725,0.51072 -0.54077,0.30045 -0.97138,0.72105 -1.29183,1.26178 -0.32046,0.52076 -0.48068,0.96138 -0.48068,1.32187 l 0,0.03 c 0.13331,1.19077 0.0828,1.18735 -0.9012,1.83262 -0.0801,3e-5 -0.13028,0.0108 -0.15028,0.03 -0.34049,0.16025 -0.66093,0.52075 -0.96135,1.08152 -0.30044,0.56082 -0.45064,1.15164 -0.45064,1.77249 0,0.6209 0.15028,1.21174 0.45064,1.77252 0.30042,0.5608 0.62086,0.92131 0.96135,1.08151 0.02,0.02 0.0701,0.0302 0.15028,0.03 0.84131,0.64152 0.88475,0.67621 0.90126,1.80265 l 0,0.0601 c 0,0.36053 0.16022,0.80116 0.48068,1.32187 0.32045,0.54078 0.75106,0.96138 1.29183,1.26178 0.54075,0.30044 1.13159,0.46067 1.7725,0.48068 l 0.15028,0 c 0.54074,10e-6 0.96134,-0.0801 1.26178,-0.24034 1.05521,-0.67587 1.06267,-0.63674 2.13295,-2e-5 0.28037,0.16025 0.69096,0.24035 1.23173,0.24034 l 0.18026,0 c 0.62085,-0.02 1.20167,-0.18025 1.74246,-0.48068 0.54074,-0.30041 0.98137,-0.721 1.32187,-1.26178 0.30039,-0.52071 0.45061,-0.96134 0.45062,-1.32187 l 0,-0.0601 c -0.0271,-1.08271 -0.0145,-1.07804 0.90128,-1.80253 0.0801,3e-5 0.14013,-0.009 0.18026,-0.03 0.32043,-0.1602 0.63086,-0.52071 0.93131,-1.08152 0.30039,-0.56077 0.45061,-1.15161 0.45064,-1.77251 -3e-5,-0.62085 -0.15028,-1.21168 -0.45064,-1.77249 -0.30045,-0.56077 -0.61088,-0.92128 -0.93131,-1.08152 -0.0402,-0.02 -0.10014,-0.03 -0.18026,-0.03 -0.90459,-0.4949 -0.94652,-0.58119 -0.90128,-1.83268 l 0,-0.03 c -10e-6,-0.36048 -0.15028,-0.80111 -0.45062,-1.32187 -0.3405,-0.54073 -0.78113,-0.96132 -1.32187,-1.26178 -0.54079,-0.30039 -1.12161,-0.47063 -1.74246,-0.51071 l -0.18026,0 c -0.54077,3e-5 -0.95136,0.0901 -1.23173,0.27038 -1.10581,0.72288 -1.06911,0.6406 -2.13302,-5e-5 z"
             style="font-size:40px;font-style:normal;font-variant:normal;font-weight:normal;font-stretch:normal;text-align:center;line-height:125%;letter-spacing:0px;word-spacing:0px;writing-mode:lr-tb;text-anchor:middle;fill:#000055;fill-opacity:1;stroke:none;font-family:Quivira;-inkscape-font-specification:Quivira"
             id="path3084"
             inkscape:connector-curvature="0" />
          <path
             inkscape:connector-curvature="0"
             id="path4733"
             style="font-size:40px;font-style:normal;font-variant:normal;font-weight:normal;font-stretch:normal;text-align:center;line-height:125%;letter-spacing:0px;word-spacing:0px;writing-mode:lr-tb;text-anchor:middle;fill:#aa0000;fill-opacity:1;stroke:none;font-family:Quivira;-inkscape-font-specification:Quivira"
             d="m 538.79498,528.83843 c 1.30182,3e-5 2.55358,0.32549 3.75531,0.97637 1.20166,0.65095 2.12796,1.57727 2.77892,2.77892 0.65089,1.20174 0.97635,2.4535 0.97637,3.7553 -2e-5,1.30187 -0.32548,2.55363 -0.97637,3.75531 -0.65096,1.20171 -1.57726,2.12803 -2.77892,2.77892 -1.20173,0.65094 -2.45349,0.9764 -3.75531,0.97637 -1.30186,3e-5 -2.55362,-0.32543 -3.7553,-0.97637 -1.2017,-0.65089 -2.12802,-1.57721 -2.77893,-2.77892 -0.65092,-1.20168 -0.97638,-2.45344 -0.97636,-3.75531 -2e-5,-1.3018 0.32544,-2.55356 0.97636,-3.7553 0.65091,-1.20165 1.57723,-2.12797 2.77893,-2.77892 1.20168,-0.65088 2.45344,-0.97634 3.7553,-0.97637 z m 0,0.7811 c -1.16166,3e-5 -2.28324,0.29045 -3.36475,0.87123 -1.08153,0.58085 -1.91271,1.41203 -2.49351,2.49351 -0.58084,1.08157 -0.87125,2.20314 -0.87124,3.36475 -10e-6,1.1817 0.2904,2.30829 0.87124,3.37978 0.5808,1.07154 1.41198,1.8977 2.49351,2.47849 1.08151,0.58084 2.20309,0.87126 3.36475,0.87123 1.16163,3e-5 2.2832,-0.29039 3.36475,-0.87123 1.0815,-0.58079 1.91267,-1.40695 2.49351,-2.47849 0.5808,-1.07149 0.87121,-2.19808 0.87124,-3.37978 -3e-5,-1.16161 -0.29044,-2.28318 -0.87124,-3.36475 -0.58084,-1.08148 -1.41201,-1.91266 -2.49351,-2.49351 -1.08155,-0.58078 -2.20312,-0.8712 -3.36475,-0.87123 z m 0,0.81113 c 1.02142,5e-5 2.00782,0.2554 2.95918,0.76609 0.95131,0.51075 1.68234,1.24178 2.19309,2.19309 0.51071,0.95138 0.76606,1.93778 0.76609,2.95918 -3e-5,1.0415 -0.25538,2.0329 -0.76609,2.9742 -0.51075,0.94136 -1.24178,1.66739 -2.19309,2.17808 -0.95136,0.51075 -1.93776,0.7661 -2.95918,0.76608 -1.02145,2e-5 -2.00785,-0.25533 -2.95918,-0.76608 -0.95136,-0.51069 -1.68239,-1.23672 -2.19309,-2.17808 -0.51074,-0.9413 -0.76609,-1.9327 -0.76609,-2.9742 0,-1.0214 0.25535,-2.0078 0.76609,-2.95918 0.5107,-0.95131 1.24173,-1.68234 2.19309,-2.19309 0.95133,-0.51069 1.93773,-0.76604 2.95918,-0.76609 z m 0.30042,7.87112 c 0.0601,1.72246 0.19026,2.64376 0.39056,2.76391 0.1602,0.12013 0.41055,0.18027 0.75106,0.18024 l 0.12013,0 c 0.38053,-0.02 0.74103,-0.13013 1.08153,-0.33046 0.34046,-0.18023 0.61084,-0.4406 0.81114,-0.7811 0.20027,-0.32043 0.30041,-0.59081 0.30044,-0.81115 l 0,-0.03 c -3e-5,-0.24031 -0.73107,-0.80109 -2.19311,-1.68237 -0.32046,0.38057 -0.74106,0.6109 -1.26178,0.69097 z m 1.26178,-3.21453 c 1.46205,-0.88122 2.19308,-1.44201 2.19311,-1.68238 l 0,-0.03 c -3e-5,-0.22028 -0.10014,-0.49066 -0.30044,-0.81116 -0.2003,-0.34044 -0.47068,-0.60081 -0.81114,-0.7811 -0.3405,-0.20025 -0.701,-0.3104 -1.08153,-0.33046 l -0.12013,0 c -0.34051,4e-5 -0.59086,0.0602 -0.75106,0.18025 -0.2003,0.12013 -0.33049,1.04151 -0.39056,2.76391 0.52072,0.0801 0.94132,0.31046 1.26178,0.69097 z m -1.86262,-0.69098 c -0.0401,-1.7224 -0.16025,-2.6437 -0.36051,-2.76391 -0.18028,-0.12013 -0.44064,-0.18021 -0.7811,-0.18024 l -0.0901,0 c -0.40059,0.02 -0.77112,0.13013 -1.11157,0.33046 -0.34049,0.18029 -0.61089,0.44065 -0.81114,0.7811 -0.2003,0.32049 -0.30045,0.59087 -0.30044,0.81115 l 0,0.03 c -1e-5,0.24037 0.73102,0.80115 2.19309,1.68237 0.32045,-0.38051 0.74103,-0.61084 1.2618,-0.69098 z m -1.56221,1.23174 c -1.32187,-0.72099 -2.14304,-1.08149 -2.46347,-1.08154 l -0.0901,0 c -0.22033,0.12013 -0.42061,0.35555 -0.60086,0.70601 -0.18025,0.35052 -0.27039,0.71603 -0.27038,1.09654 -10e-6,0.38058 0.0901,0.74609 0.27038,1.09655 0.18025,0.35052 0.38053,0.58586 0.60086,0.70599 l 0.0901,0 c 0.32043,3e-5 1.1416,-0.36047 2.46347,-1.08152 -0.0801,-0.24031 -0.12013,-0.48065 -0.12013,-0.72102 -2e-5,-0.2403 0.04,-0.48064 0.12013,-0.72101 z m 3.72526,1.44203 c 1.32185,0.72105 2.143,1.08155 2.46348,1.08152 l 0.12013,0 c 0.20027,-0.12013 0.39054,-0.35547 0.57081,-0.70599 0.18023,-0.35046 0.27035,-0.71597 0.27038,-1.09655 -3e-5,-0.38051 -0.0901,-0.74602 -0.27038,-1.09654 -0.18027,-0.35046 -0.37054,-0.5858 -0.57081,-0.70601 l -0.12013,0 c -0.32048,5e-5 -1.14163,0.36055 -2.46348,1.08154 0.0801,0.24037 0.12014,0.48071 0.12014,0.72101 -2e-5,0.24037 -0.04,0.48071 -0.12014,0.72102 z m -3.42484,0.54076 c -1.46208,0.88128 -2.19311,1.44207 -2.19309,1.68238 l 0,0.03 c -2e-5,0.22034 0.10013,0.49072 0.30043,0.81115 0.20026,0.34051 0.47065,0.60087 0.81114,0.7811 0.34046,0.20032 0.71099,0.31047 1.11158,0.33046 l 0.0901,0 c 0.34046,3e-5 0.60083,-0.06 0.7811,-0.18024 0.20027,-0.12013 0.32043,-1.04145 0.36052,-2.76391 -0.52077,-0.0801 -0.94135,-0.3104 -1.2618,-0.69098 z m 1.56221,-2.85403 c -0.28041,3e-5 -0.54579,0.0701 -0.79612,0.2103 -0.25037,0.14028 -0.44564,0.33551 -0.58583,0.58583 -0.14013,0.25038 -0.21032,0.51576 -0.2103,0.79612 -2e-5,0.28043 0.0701,0.54581 0.2103,0.79613 0.14012,0.25038 0.33546,0.44565 0.58583,0.58583 0.25033,0.14028 0.51571,0.21033 0.79612,0.2103 0.28038,3e-5 0.54576,-0.0701 0.79613,-0.2103 0.25034,-0.14013 0.44561,-0.33545 0.58583,-0.58583 0.14012,-0.25032 0.21026,-0.5157 0.21029,-0.79613 -3e-5,-0.28036 -0.0701,-0.54574 -0.21029,-0.79612 -0.14029,-0.25032 -0.33549,-0.4456 -0.58583,-0.58583 -0.25037,-0.14013 -0.51575,-0.21027 -0.79613,-0.2103 z m 0,0.54078 c 0.18024,3e-5 0.35549,0.0451 0.52575,0.1352 0.17021,0.0901 0.3004,0.22034 0.39054,0.39054 0.0901,0.17028 0.13521,0.34552 0.13521,0.52575 -2e-5,0.18029 -0.0451,0.35553 -0.13521,0.52575 -0.0901,0.17026 -0.22033,0.30045 -0.39054,0.39054 -0.17026,0.0901 -0.34551,0.1352 -0.52575,0.1352 -0.18027,3e-5 -0.35552,-0.0451 -0.52575,-0.1352 -0.17026,-0.0901 -0.30043,-0.22028 -0.39054,-0.39054 -0.0901,-0.17022 -0.1352,-0.34546 -0.1352,-0.52575 -2e-5,-0.18023 0.0451,-0.35547 0.1352,-0.52575 0.0901,-0.1702 0.22028,-0.30039 0.39054,-0.39054 0.17023,-0.0901 0.34548,-0.1352 0.52575,-0.1352 z"
             sodipodi:nodetypes="cccccscccccccccscccccsccccccccsccccsscccccccccccccccccccccccccccccccccccccccccccccccccccccccccccccccccccccccccccccccccccccccccccccc" />
        </g>
      </g>
    </g>
  </g>
</svg>
