<?xml version="1.0" encoding="UTF-8" standalone="no"?>
<!-- Created with Inkscape (http://www.inkscape.org/) -->

<svg
   xmlns:dc="http://purl.org/dc/elements/1.1/"
   xmlns:cc="http://creativecommons.org/ns#"
   xmlns:rdf="http://www.w3.org/1999/02/22-rdf-syntax-ns#"
   xmlns:svg="http://www.w3.org/2000/svg"
   xmlns="http://www.w3.org/2000/svg"
   xmlns:sodipodi="http://sodipodi.sourceforge.net/DTD/sodipodi-0.dtd"
   xmlns:inkscape="http://www.inkscape.org/namespaces/inkscape"
   width="27"
   height="36.0625"
   id="svg4737"
   version="1.1"
   inkscape:version="0.48.2 r9819"
   sodipodi:docname="soh1.svg">
  <defs
     id="defs4739" />
  <sodipodi:namedview
     id="base"
     pagecolor="#ffffff"
     bordercolor="#666666"
     borderopacity="1.0"
     inkscape:pageopacity="0.0"
     inkscape:pageshadow="2"
     inkscape:zoom="3.959798"
     inkscape:cx="19.820385"
     inkscape:cy="26.905402"
     inkscape:document-units="px"
     inkscape:current-layer="layer1"
     showgrid="false"
     fit-margin-top="0"
     fit-margin-left="0"
     fit-margin-right="0"
     fit-margin-bottom="0"
     inkscape:window-width="693"
     inkscape:window-height="465"
     inkscape:window-x="1402"
     inkscape:window-y="302"
     inkscape:window-maximized="0" />
  <metadata
     id="metadata4742">
    <rdf:RDF>
      <cc:Work
         rdf:about="">
        <dc:format>image/svg+xml</dc:format>
        <dc:type
           rdf:resource="http://purl.org/dc/dcmitype/StillImage" />
        <dc:title />
      </cc:Work>
    </rdf:RDF>
  </metadata>
  <g
     inkscape:label="Layer 1"
     inkscape:groupmode="layer"
     id="layer1"
     transform="translate(-384.04389,-523.36674)">
    <g
       id="g3001">
      <g
         id="g2995">
        <rect
           style="fill:none;stroke:none"
           id="rect4908"
           width="27"
           height="36.0625"
           x="384.04388"
           y="523.36676" />
        <path
           sodipodi:nodetypes="cccccccccccccc"
           d="m 390.33375,544.17701 0,-0.2103 c -2e-5,-0.56077 -1.32188,-1.25175 -3.96561,-2.07293 0.04,-0.22028 0.18026,-0.36048 0.4206,-0.42058 0.86121,0.28041 1.45205,0.42061 1.77251,0.42058 l 0.0901,0 0,-0.12013 c -0.68096,-0.34046 -1.09155,-0.5107 -1.23174,-0.51072 l 0,-0.4206 c 0.14013,3e-5 0.21029,-0.04 0.2103,-0.12013 0.86121,0.24036 1.90267,0.84121 3.12441,1.80254 l 0.0901,0 m 0.21018,1.23133 c -0.0621,0.50178 -0.2498,0.57961 0,0 z"
           style="font-size:40px;font-style:normal;font-variant:normal;font-weight:normal;font-stretch:normal;text-align:center;line-height:125%;letter-spacing:0px;word-spacing:0px;writing-mode:lr-tb;text-anchor:middle;fill:#aa0000;stroke:none;font-family:Quivira;-inkscape-font-specification:Quivira"
           id="path4681"
           inkscape:connector-curvature="0" />
        <path
           inkscape:connector-curvature="0"
           id="path4683"
           style="font-size:40px;font-style:normal;font-variant:normal;font-weight:normal;font-stretch:normal;text-align:center;line-height:125%;letter-spacing:0px;word-spacing:0px;writing-mode:lr-tb;text-anchor:middle;fill:#aa0000;fill-opacity:1;stroke:none;font-family:Quivira;-inkscape-font-specification:Quivira"
           d="m 397.75421,551.03618 c 0.0601,1.04147 0.0901,1.88309 0.0901,2.24359 0.60084,0.18026 0.92128,0.3505 0.96135,0.51072 l 0,0.2103 c -0.28041,0.0801 -0.53076,0.12013 -0.75106,0.12013 l 0,0.63089 c 0.02,0.14013 0.0901,0.2103 0.2103,0.2103 l 0.6309,0 c 1.18164,0.10014 1.77248,0.2704 1.7725,0.51072 l 0,0.2103 c -0.14029,0 -0.21032,0.03 -0.2103,0.0901 l -1.44204,-0.2103 c -0.80114,0.16025 -1.64233,0.82117 -2.52355,1.98281 l -0.2103,0 c -0.14028,0 -0.21032,-0.10014 -0.2103,-0.30044 0.2203,-0.40055 0.50069,-0.78108 0.84118,-1.1416 l 0,-0.2103 c -0.4206,0 -1.04148,0.38055 -1.86262,1.1416 -0.14028,-0.0601 -0.25037,-0.0901 -0.33047,-0.0901 l 0,-0.12013 c -2e-5,-0.18026 0.0701,-0.39056 0.21029,-0.6309 l -0.21029,0 c -0.56081,0.4206 -0.91129,0.6309 -1.05148,0.6309 -0.14028,-0.22032 -0.21032,-0.43061 -0.2103,-0.6309 l -0.6309,0 0,-0.30042 c 0.56079,-0.44062 0.84118,-0.69098 0.8412,-0.75106 l -0.0901,0 c -0.66094,0.22031 -1.08154,0.33046 -1.26178,0.33046 l -0.0901,-0.2103 0,-0.12013 c 0.12013,-0.28039 1.09153,-0.62086 2.91411,-1.02145 0.0601,-1.28179 0.0901,-2.21184 0.0901,-2.5323 m 0.75097,1.57067 c 0.42059,0.0602 0.63088,0.17026 0.6309,0.33048 l 0,0.0901 c -2e-5,0.14012 -0.0701,0.21031 -0.2103,0.2103 l -0.54076,0 0,0.42059 c -1e-5,0.22031 0.49068,0.33048 1.47208,0.33046 l 0,-0.12013 c -0.0601,-1.08152 -0.16025,-2.09294 -0.30042,-3.03429 l -0.12013,0 c -0.70101,2e-5 -1.0515,0.45066 -1.05148,1.35192 -2e-5,0.28039 0.04,0.4206 0.12013,0.42058 z"
           sodipodi:nodetypes="ccccccsccccccscccccccccccccccccccccccccccccccc" />
        <path
           inkscape:connector-curvature="0"
           id="path3066"
           style="font-size:40px;font-style:normal;font-variant:normal;font-weight:normal;font-stretch:normal;text-align:center;line-height:125%;letter-spacing:0px;word-spacing:0px;writing-mode:lr-tb;text-anchor:middle;fill:#005500;fill-opacity:1;stroke:none;font-family:Quivira;-inkscape-font-specification:Quivira"
           d="m 401.08884,525.25023 c 1.68235,4e-5 2.97418,1.05152 3.87547,3.15445 l 0.0901,0.72102 -0.0901,0.96135 c 1.26175,0.44066 1.89264,1.31189 1.89267,2.61369 l 0,0.39056 c -3e-5,2.8841 -1.43205,5.53785 -4.29606,7.96123 0.52072,0.84122 0.83115,1.26181 0.93131,1.26178 l 0.12014,0 c 0.80111,-2.16302 1.67234,-3.565 2.61369,-4.20593 l 0.42059,0 c -3e-5,0.0801 0.03,0.19029 0.0901,0.33046 -1.52217,1.92275 -2.42343,3.62515 -2.70381,5.10721 l 0.0901,0 c 1.74244,-3.34469 3.4148,-5.32749 5.01708,-5.94839 l 0.12014,0 0,0.42059 c -2.46351,2.36337 -3.89553,4.31612 -4.29607,5.85827 -0.0801,2e-5 -0.12013,0.03 -0.12013,0.0901 -2e-5,0.30045 0.80111,1.21173 2.40339,2.73385 0.52072,0.9013 1.26176,1.35193 2.22315,1.35192 l 0.0901,0.2103 c -3e-5,0.46066 -0.56082,0.7711 -1.68237,0.93131 -1.22176,0.28041 -2.50356,0.49071 -3.84543,0.63088 -0.0801,2e-5 -0.12013,-0.03 -0.12013,-0.0901 l -1.05148,0.0901 -1.14162,0 c -1.00142,-0.14012 -1.52215,-0.21026 -1.56219,-0.21028 -0.10014,2e-5 -1.58124,1.05201 -2.40339,1.5622 -1.03392,0.52666 -1.9742,0.53635 -3.03428,0.54078 -1.12159,10e-6 -2.06292,-0.59081 -2.82399,-1.7725 l -0.42058,0 c -0.42061,0.34049 -1.08153,0.51074 -1.98281,0.51072 -0.62088,2e-5 -1.8426,-0.04 -3.66517,-0.12013 -0.12013,-0.0601 -0.22031,-0.0901 -0.30042,-0.0901 l 0,-0.42059 c 0.60084,-0.5808 1.50212,-1.83257 2.70381,-3.7553 0.6409,-0.74102 1.34189,-1.37192 2.10298,-1.89267 l 0,-0.2103 c 0.081,-0.80684 0.2925,-1.27376 0.51075,-1.44197 l 0,-0.2103 c -10e-6,-0.40054 -0.31045,-0.75103 -0.93132,-1.05148 -1.0615,-1.36189 -2.24317,-2.37332 -3.545,-3.03429 0.0601,-0.14012 0.0901,-0.25032 0.0901,-0.33046 l 0.4206,0 c 1.26176,0.70101 2.34329,1.5422 3.24457,2.52356 l 0.2103,0 0,-0.30042 c -0.70101,-2.00281 -2.02287,-4.13581 -3.96561,-6.39904 l 0,-0.21028 c 0.14013,-0.0602 0.24034,-0.0901 0.30044,-0.0901 1.88264,1.70243 2.82397,2.81401 2.82397,3.33471 l 0.2103,0 c -0.0801,-0.90125 -1.02144,-2.854 -2.82397,-5.85826 l 0,-0.0901 c 0.02,-0.14013 0.0901,-0.21025 0.21028,-0.2103 l 0.12013,0 c 0.84118,0.78115 1.81255,2.3834 2.91411,4.80678 0.74103,2.06295 1.26178,4.32614 1.56221,6.7896 l 0.21029,0 c 0.3605,1e-5 0.54076,-0.0701 0.54077,-0.2103 0.24032,2e-5 0.90126,0.21031 1.9828,0.63088 0.28037,-0.24031 0.42058,-0.48065 0.42059,-0.72102 -3.06434,-2.88404 -4.5965,-5.63792 -4.59648,-8.26165 -2e-5,-1.18164 0.62085,-2.40336 1.86262,-3.66517 -0.0601,-0.38051 -0.0901,-0.66091 -0.0901,-0.8412 -2e-5,-1.54213 1.18165,-2.7238 3.545,-3.54499 l 0.42058,0 c 0.70098,3e-5 1.50212,0.24037 2.4034,0.72102 1.1416,-0.70096 2.04287,-1.05145 2.70382,-1.05149 z m -5.7381,3.36475 c 0.14013,0.76112 0.52072,1.14164 1.14162,1.14161 l 0.21028,0 c 0.62087,3e-5 0.97136,-0.42056 1.05149,-1.26177 l 0,-0.0901 c -10e-6,-0.42055 -0.2804,-0.77106 -0.84119,-1.05148 l -0.63088,0 c -0.6209,0.30047 -0.93133,0.72105 -0.93132,1.26178 z m 3.66517,-0.12013 0,0.33046 c 0.12013,0.70102 0.46064,1.05152 1.02144,1.05148 l 0.2103,0 c 0.70097,-0.14013 1.05146,-0.49065 1.05149,-1.05148 l 0,-0.6309 c -0.2604,-0.42055 -0.50073,-0.66089 -0.72102,-0.72102 l -0.84119,0 c -0.48069,0.30047 -0.72103,0.64094 -0.72102,1.02146 z m -2.52355,-0.6309 c 0.50069,3e-5 0.75104,0.25038 0.75106,0.75106 -0.10014,0.28044 -0.28043,0.49074 -0.54078,0.63089 -0.5608,-0.0801 -0.84119,-0.33043 -0.84118,-0.75105 -1e-5,-0.20026 0.21028,-0.41056 0.6309,-0.6309 z m 3.66517,0.12013 c 0.28037,3e-5 0.52071,0.21033 0.72101,0.63088 -0.14028,0.42063 -0.28042,0.63093 -0.42059,0.6309 l -0.60084,0 c -0.16025,-0.04 -0.30045,-0.22028 -0.4206,-0.54076 -2e-5,-0.34046 0.24032,-0.5808 0.72102,-0.72102 z m -6.5793,3.87547 c 0,0.72105 0.42058,1.10158 1.26179,1.1416 l 0.0901,0 c 0.70098,-0.14013 1.05147,-0.49066 1.05148,-1.05148 l 0,-0.30042 c -0.14013,-0.70096 -0.49071,-1.05145 -1.05148,-1.05149 -0.90129,0.14028 -1.35191,0.56083 -1.35191,1.26179 z m 3.66519,0.0901 0,0.12013 c -2e-5,0.68098 0.48066,1.02147 1.44203,1.02143 0.64088,-0.32041 0.96133,-0.731 0.96136,-1.23173 -0.2604,-0.78107 -0.54079,-1.17163 -0.8412,-1.17166 l -0.54076,0 c -0.62089,3e-5 -0.96137,0.42063 -1.02143,1.26178 z m 3.54499,0.12013 0,0.30042 c 0.3004,0.56081 0.721,0.84121 1.26179,0.84118 0.64088,3e-5 1.02141,-0.45061 1.1416,-1.3519 -0.10014,-0.48065 -0.38056,-0.83115 -0.84118,-1.0515 l -0.51072,0 c -0.64092,4e-5 -0.99143,0.42063 -1.05149,1.2618 z m -6.06856,-0.96136 c 0.48066,0.10013 0.721,0.24037 0.72101,0.42058 l 0,0.54078 c -10e-6,0.18027 -0.24035,0.32047 -0.72101,0.42058 -0.26039,-0.04 -0.47068,-0.25032 -0.63088,-0.63088 -2e-5,-0.32043 0.21028,-0.57079 0.63088,-0.75106 z m 3.7553,0.12013 c 0.18023,3e-5 0.39053,0.21033 0.63088,0.6309 -0.02,0.26039 -0.23034,0.50073 -0.63088,0.72101 -0.40058,4e-5 -0.68098,-0.21026 -0.84119,-0.63089 -2e-5,-0.40053 0.28037,-0.64086 0.84119,-0.72102 z m 3.45487,0.0901 c 0.48067,4e-5 0.721,0.18029 0.72102,0.54077 -2e-5,0.42063 -0.24035,0.70102 -0.72102,0.84118 -0.28041,-0.10013 -0.4907,-0.28036 -0.63088,-0.54076 l 0,-0.2103 c -3e-5,-0.42056 0.21027,-0.63085 0.63088,-0.63089 z m -10.12428,3.87548 c 0.18024,0.70101 0.52071,1.05151 1.02143,1.05148 l 0.6309,0 c 0.2203,-0.0801 0.47065,-0.33045 0.75106,-0.75106 l 0,-0.81115 c -0.30044,-0.56076 -0.691,-0.84115 -1.17166,-0.84118 l -0.0901,0 c -0.64092,3e-5 -1.02145,0.45067 -1.14161,1.35191 z m 3.63512,-0.4206 0,0.4206 c 0.12014,0.7611 0.51071,1.14163 1.17166,1.1416 0.76106,3e-5 1.1416,-0.3104 1.14161,-0.93132 l 0,-0.72101 c -0.30045,-0.50068 -0.65093,-0.75103 -1.05149,-0.75106 l -0.42058,0 c -0.36053,0.18029 -0.64093,0.46068 -0.8412,0.84119 z m 3.57505,0.33046 0,0.30042 c -1e-5,0.70103 0.48066,1.05153 1.44204,1.0515 0.64088,-0.26034 0.96134,-0.65089 0.96135,-1.17166 l 0,-0.18026 c -0.14028,-0.70096 -0.4907,-1.05144 -1.05147,-1.05147 l -0.33048,0 c -0.68098,0.14028 -1.02145,0.49072 -1.02144,1.05147 z m 3.54501,0.30042 0,0.30044 c -3e-5,0.12013 0.24031,0.37055 0.72102,0.75106 l 0.96135,0 c 0.48065,-0.32043 0.72099,-0.67092 0.72102,-1.0515 l 0,-0.21028 c -3e-5,-0.62085 -0.42063,-0.97135 -1.26178,-1.05149 l -0.0901,0 c -0.64092,3e-5 -0.99141,0.42063 -1.05147,1.26177 z m -9.52345,-1.05147 c 0.42058,0.16026 0.63088,0.30045 0.6309,0.42059 l 0,0.2103 c -2e-5,0.48071 -0.24036,0.72105 -0.72102,0.72102 -0.34049,3e-5 -0.51073,-0.20025 -0.51072,-0.60086 -10e-6,-0.50067 0.20027,-0.75102 0.60084,-0.75105 z m 3.66517,0.12013 c 0.42058,0.16024 0.63088,0.40058 0.6309,0.72101 -2e-5,0.20031 -0.21032,0.4106 -0.6309,0.63089 -0.48069,3e-5 -0.72103,-0.24031 -0.72102,-0.72102 -1e-5,-0.42057 0.24033,-0.63087 0.72102,-0.63088 z m 3.54501,0.0901 0.12013,0 c 0.34046,0.18029 0.51069,0.46069 0.51072,0.84118 -3e-5,0.10014 -0.17026,0.27041 -0.51072,0.51074 -0.56082,1e-5 -0.84121,-0.24033 -0.8412,-0.72102 -1e-5,-0.42057 0.24033,-0.63087 0.72102,-0.6309 z m 3.57505,0.12014 0.21029,0 c 0.18023,3e-5 0.32044,0.24037 0.4206,0.72101 -0.14028,0.3205 -0.28042,0.49073 -0.4206,0.51074 l -0.54076,0 c -0.28042,-0.10014 -0.42062,-0.34046 -0.42059,-0.72102 0.10013,-0.34046 0.35047,-0.5107 0.75106,-0.51073 z m -10.15433,3.3347 0,0.51072 c 0.14013,0.70102 0.49067,1.05151 1.05148,1.0515 l 0.51072,0 c 0.56078,-0.26035 0.84117,-0.71099 0.84119,-1.35192 -0.12013,-0.44059 -0.40059,-0.79108 -0.84119,-1.05148 l -0.39055,0 c -0.42061,3e-5 -0.81117,0.28043 -1.17165,0.84118 z m 3.57505,0.4206 0,0.0901 c -2e-5,0.64094 0.4506,1.03148 1.35189,1.17165 l 0.2103,0 c 0.56077,-0.20025 0.84117,-0.59081 0.8412,-1.17165 l 0,-0.21029 c -0.14028,-0.68094 -0.49073,-1.02142 -1.0515,-1.02145 l -0.33046,0 c -0.68098,0.18029 -1.02145,0.56082 -1.02143,1.14162 z m 3.63512,-0.12013 0,0.75106 c 0.32044,0.48069 0.67092,0.72103 1.05148,0.72102 l 0.12013,0 c 0.68094,10e-6 1.09152,-0.45063 1.23174,-1.35192 -0.10013,-0.46062 -0.38056,-0.81112 -0.84119,-1.05148 l -0.60085,0 c -0.64092,0.10014 -0.96138,0.4106 -0.96135,0.93132 z m -6.03852,-0.6309 c 0.34046,3e-5 0.5808,0.25039 0.72102,0.75106 -0.10013,0.28043 -0.27039,0.49072 -0.51072,0.6309 -0.42061,1e-5 -0.701,-0.21029 -0.84119,-0.6309 0.04,-0.50067 0.25033,-0.75103 0.63089,-0.75106 z m 3.75529,0.12013 c 0.34048,0.10014 0.51071,0.34053 0.51072,0.72102 -10e-6,0.28043 -0.21031,0.49073 -0.63088,0.6309 -0.48069,-0.04 -0.72103,-0.28036 -0.72102,-0.72102 0.14013,-0.42057 0.42057,-0.63086 0.84118,-0.6309 z m 3.12441,0.0901 0.54078,0 c 0.10013,3e-5 0.23029,0.14028 0.39054,0.4206 l 0,0.21028 c -2e-5,0.42063 -0.2003,0.63093 -0.60084,0.6309 l -0.33048,0 c -0.10013,3e-5 -0.24035,-0.17022 -0.42058,-0.51072 0.12013,-0.50067 0.26034,-0.75103 0.42058,-0.75106 z m -2.07291,2.82399 -0.12013,0.21028 c 0.24032,0.50074 0.90126,0.75109 1.98279,0.75108 0.14013,10e-6 0.21028,-0.0701 0.2103,-0.2103 -0.48069,-0.42058 -1.17167,-0.67094 -2.07292,-0.75106 z m -2.31327,0.84118 c 0.04,0.22033 0.32043,0.33049 0.84119,0.33046 l 0.84118,0 0,-0.21028 c -0.24035,-0.42058 -0.42061,-0.63088 -0.54076,-0.6309 -0.76108,0.18028 -1.14163,0.35052 -1.14161,0.51072 z m -1.7725,1.05148 0,0.2103 0.51072,0 c 0.38051,3e-5 0.63087,-0.14013 0.75106,-0.42058 -2e-5,-0.10014 -0.11013,-0.20027 -0.33046,-0.30044 l -0.30044,0 c -0.4206,0.2604 -0.63089,0.43064 -0.63088,0.51072 z m 5.7381,-0.21028 0,0.12013 c -3e-5,0.22032 0.42057,0.39057 1.26178,0.51072 l 0.0901,0 0,-0.51072 c -2e-5,-0.10014 -0.10014,-0.21027 -0.30042,-0.33046 -0.60087,0.14028 -0.95136,0.21031 -1.05148,0.21029 z m -2.70383,0.21028 0,0.0901 c -10e-6,0.16024 0.31042,0.30043 0.93132,0.42059 l 0.33048,0 c 0.34046,2e-5 0.51068,-0.0701 0.51072,-0.2103 -0.12014,-0.34045 -0.29044,-0.5107 -0.51072,-0.51071 -0.30045,10e-6 -0.72105,0.0701 -1.2618,0.21028 z m -7.54063,1.14161 c 0.721,0.64093 1.31184,0.96138 1.77249,0.96136 l 0.8412,0 c 0.36048,2e-5 0.57078,-0.11013 0.63088,-0.33046 l 0,-0.2103 c -0.20029,-0.98137 -0.72102,-1.47206 -1.5622,-1.47207 l -0.4206,0 c -0.64091,10e-6 -1.0615,0.35051 -1.26177,1.05147 z m 6.27886,-0.84118 c -2e-5,0.14029 -0.31045,0.35052 -0.93132,0.63089 l 0,0.12013 c 0.02,0.14028 0.0901,0.21031 0.2103,0.2103 0.90126,-0.0801 1.3519,-0.2203 1.35191,-0.4206 l 0,-0.12013 c -0.14028,-0.28037 -0.35052,-0.42057 -0.63089,-0.42059 z m -4.68661,0.33047 c 0.50069,10e-6 0.91127,0.24035 1.23174,0.72101 l 0,0.2103 c -2e-5,0.10014 -0.21032,0.21032 -0.6309,0.33046 -0.90128,-0.28038 -1.35191,-0.53073 -1.35191,-0.75106 l 0,-0.21029 c 0,-0.16021 0.25035,-0.26034 0.75107,-0.30042 z m 2.28322,0.30042 0,0.12013 c -2e-5,0.38056 0.17022,0.66095 0.51071,0.84118 l 0.2103,0 0,-0.2103 c -1e-5,-0.10014 -0.24035,-0.35047 -0.72101,-0.75106 z m 5.5278,0.84119 c 0.22029,2e-5 0.33044,0.0701 0.33046,0.2103 l 1.98281,-0.2103 0,-0.0901 c -0.52077,-0.0801 -0.87125,-0.15012 -1.0515,-0.21028 l 0,0.0901 -0.2103,-0.0901 -0.21028,0 c -0.50073,2e-5 -0.78113,0.10014 -0.84119,0.30042 z m -10.54489,1.14162 0.2103,0.12013 c 0.34048,10e-6 0.69096,-0.21029 1.05148,-0.6309 l 0,-0.21028 -0.12013,0 c -0.38055,10e-6 -0.76109,0.24035 -1.14162,0.72101 z m 12.52768,-0.0901 0,0.30042 0.12013,0 c 0.18023,3e-5 0.46062,0.0401 0.84118,0.12013 0.62085,2e-5 1.07149,-0.18024 1.35192,-0.54076 l -0.30042,-0.18026 -0.4206,0 z m -10.33458,-0.2103 -0.30042,0.4206 0,0.2103 0.0901,0 c 0.3605,10e-6 0.5708,-0.11014 0.63089,-0.33046 l 0,-0.2103 z m 5.7381,0.51072 0,0.2103 0.63089,0.12013 c 0.721,10e-6 1.42198,-0.0701 2.10297,-0.2103 -3e-5,-0.36049 -0.11013,-0.57078 -0.33047,-0.6309 z m -5.19733,2.73387 0,0.51072 c -2e-5,0.94134 0.55076,1.60226 1.65232,1.98279 l 0.33047,0 c 1.7825,2e-5 3.24456,-0.55076 4.38619,-1.65233 -1.52216,-1.04145 -2.78395,-1.95274 -3.78534,-2.73386 l -0.30042,0 c -0.16025,0.02 -0.40059,0.61089 -0.72102,1.7725 l -0.33046,0 c -0.04,10e-6 -0.14028,-0.10014 -0.30044,-0.30042 0.34048,-1.04145 0.55077,-1.95274 0.6309,-2.73385 l -0.54076,0 c -0.26038,1e-5 -0.60087,1.05149 -1.02144,3.15445 z m 11.17577,-1.89268 0,0.12013 c -2e-5,0.18028 0.24032,0.32048 0.72101,0.4206 0.32043,2e-5 0.81113,-0.11013 1.47208,-0.33046 l 0,-0.0901 c -2e-5,-0.12013 -0.14028,-0.26033 -0.4206,-0.42058 l -0.54076,0 c -0.7611,0.2003 -1.17167,0.30044 -1.23173,0.30042 z m -14.75082,-0.2103 c -0.28041,0.32048 -0.42061,0.57084 -0.42059,0.75106 0.14012,0.0602 0.25033,0.0901 0.33046,0.0901 0.3605,2e-5 0.64089,-0.17023 0.84119,-0.51073 -0.36052,-0.22029 -0.61087,-0.33045 -0.75106,-0.33047 z m 10.87535,0.6309 -0.72102,-0.0901 0,0.2103 c 0.1602,2e-5 0.68095,0.03 1.5622,0.0901 0.38053,2e-5 0.90126,-0.0701 1.56221,-0.2103 l 0,-0.30043 c -2e-5,-0.16021 -0.17026,-0.27037 -0.51072,-0.33047 -0.74107,2e-5 -1.37196,0.21032 -1.89267,0.6309 z m -9.10285,-0.30043 0,0.42059 0.4206,0 c 0.3605,2e-5 0.57078,-0.11013 0.63088,-0.33046 l -0.21029,-0.0901 z m 14.33023,1.14161 c 0.12013,0.34051 0.64088,0.51073 1.5622,0.51072 l 0.51072,-0.0901 0,-0.33046 c -0.18028,-0.3605 -0.38056,-0.56078 -0.60084,-0.60085 -0.52077,0.30043 -1.01146,0.47068 -1.47208,0.51072 z m -3.33471,0.0901 0,0.21028 1.65233,0 c 0.14013,2e-5 0.21027,-0.0701 0.2103,-0.21028 l 0,-0.2103 -0.51073,-0.0901 c -0.66095,0.2003 -1.11159,0.30045 -1.3519,0.30044 z m -13.81951,-0.0901 -0.18024,0.30042 0,0.12013 c 0.02,0.14028 0.0801,0.21032 0.18024,0.2103 l 0.4206,0 c 0.3605,2e-5 0.5708,-0.11013 0.63089,-0.33048 -0.54077,-0.20025 -0.89128,-0.3004 -1.05149,-0.30042 z m 2.10297,0.0901 0,0.42058 0.30042,0 c 0.18024,10e-6 0.50071,-0.0701 0.96136,-0.2103 l 0,-0.21028 c -0.26037,1e-5 -0.58083,-0.03 -0.96136,-0.0901 -0.12013,0.0601 -0.22031,0.0901 -0.30042,0.0901 z m -3.24457,1.68237 0.42058,0 1.26179,0.12013 0.0901,-0.2103 0,-0.21029 -0.42059,0 c -0.16024,10e-6 -0.47067,-0.0702 -0.93132,-0.2103 -0.28039,0.0601 -0.4206,0.23034 -0.42058,0.51073 z m 2.82397,-0.51073 -0.0901,0.2103 0,0.42059 0.4206,0 c 0.0601,2e-5 0.33045,-0.0701 0.81114,-0.2103 l 0,-0.21029 -0.0901,-0.2103 -0.2103,0.0901 c -0.38054,-0.06 -0.66095,-0.0901 -0.84119,-0.0901 z"
           sodipodi:nodetypes="ccccccccccccccccccccccccccccccccccccccccccccccccccccccccccccccccccccccccccccccccccccccccccccccccccccccccccccccccccccccccccccccccccccccccccccccccccccccccccccccccccccccccccccccccccccccccccccccccccccccccccccccccccccccccccccccccccccccccccccccccccccccccccccccccccccccccccccccccccccccccccccccccccccccccccssccccccccccccccccccccccccccccccccccccccccccccccccccccccccccccccccccccccccccccccccccccccccccccccccccccccccccccccccccccccccccccccccccccccccc" />
      </g>
    </g>
  </g>
</svg>
